<svg width="526" height="282" viewBox="0 0 526 282" fill="none" xmlns="http://www.w3.org/2000/svg">
<rect x="76.8057" y="-105.56" width="300" height="300" transform="rotate(-11.6742 76.8057 -105.56)" fill="#3FC2E0"/>
<mask id="mask0_105_28015" style="mask-type:alpha" maskUnits="userSpaceOnUse" x="95" y="-154" width="355" height="356">
<rect x="95.1151" y="-92.7202" width="300" height="300" transform="rotate(-11.6742 95.1151 -92.7202)" fill="#3FC2E0"/>
</mask>
<g mask="url(#mask0_105_28015)">
<path d="M62.1173 183.298L85.8462 140.639L94.3779 145.385L70.649 188.043L62.1173 183.298Z" fill="#1D1E1D"/>
<path d="M86.0939 167.049L131.472 185.037L127.875 194.113L82.4962 176.125L86.0939 167.049Z" fill="#1D1E1D"/>
<path d="M86.2029 200.183L114.475 197.509L115.394 207.229L87.122 209.902L86.2029 200.183Z" fill="#1D1E1D"/>
<path d="M137.918 232.776L156.881 253.915L149.614 260.434L130.651 239.295L137.918 232.776Z" fill="#1D1E1D"/>
<path d="M182.573 189.38L210.564 184.583L212.213 194.206L184.222 199.002L182.573 189.38Z" fill="#1D1E1D"/>
<path d="M204.187 207.523L223.15 228.662L215.883 235.181L196.92 214.042L204.187 207.523Z" fill="#1D1E1D"/>
<path d="M232.513 263.826L260.911 263.855L260.901 273.618L232.502 273.589L232.513 263.826Z" fill="#1D1E1D"/>
<path d="M227.342 186.538L231.107 214.686L221.43 215.98L217.666 187.833L227.342 186.538Z" fill="#1D1E1D"/>
<path d="M177.409 195.029L163.334 219.694L154.855 214.855L168.93 190.19L177.409 195.029Z" fill="#1D1E1D"/>
<path d="M165.841 123.349L168.305 151.641L158.579 152.488L156.115 124.197L165.841 123.349Z" fill="#1D1E1D"/>
<path d="M201.947 160.318L174.786 152.026L177.636 142.689L204.797 150.98L201.947 160.318Z" fill="#1D1E1D"/>
<path d="M137.699 175.841L123.704 151.13L132.2 146.319L146.194 171.03L137.699 175.841Z" fill="#1D1E1D"/>
<path d="M102.088 161.258L115.014 135.972L123.707 140.416L110.781 165.702L102.088 161.258Z" fill="#1D1E1D"/>
<path d="M201.786 266.243L158.864 271.934L157.581 262.256L200.503 256.565L201.786 266.243Z" fill="#1D1E1D"/>
<path d="M210.867 307.625L175.796 282.235L181.521 274.327L216.592 299.718L210.867 307.625Z" fill="#1D1E1D"/>
<path d="M178.123 305.191L159.239 291.519L164.964 283.611L183.848 297.283L178.123 305.191Z" fill="#1D1E1D"/>
<path d="M152.025 338.783L130.353 330.186L133.953 321.112L155.624 329.708L152.025 338.783Z" fill="#1D1E1D"/>
<path d="M120.472 310.268L114.763 287.663L124.229 285.273L129.938 307.877L120.472 310.268Z" fill="#1D1E1D"/>
<path d="M86.2611 194.524L68.8014 209.974L62.3315 202.663L79.7913 187.213L86.2611 194.524Z" fill="#1D1E1D"/>
<path d="M46.6194 157.397L60.0729 176.438L52.0995 182.072L38.646 163.03L46.6194 157.397Z" fill="#1D1E1D"/>
<path d="M194.001 317.05L151.08 322.741L149.797 313.063L192.718 307.372L194.001 317.05Z" fill="#1D1E1D"/>
<path d="M217.972 265.196L187.487 234.45L194.42 227.576L224.904 258.322L217.972 265.196Z" fill="#1D1E1D"/>
<path d="M244.748 291.475L202.635 281.42L204.902 271.924L247.015 281.979L244.748 291.475Z" fill="#1D1E1D"/>
<path d="M228.756 251.326L237.66 208.954L247.214 210.962L238.31 253.334L228.756 251.326Z" fill="#1D1E1D"/>
<path d="M327.343 235.063L364.141 212.248L369.285 220.545L332.487 243.36L327.343 235.063Z" fill="#1D1E1D"/>
<path d="M254.702 228.223L278.209 264.584L270.01 269.884L246.503 233.524L254.702 228.223Z" fill="#1D1E1D"/>
<path d="M81.5206 213.244L110.478 246.555L103.11 252.96L74.1527 219.649L81.5206 213.244Z" fill="#1D1E1D"/>
<path d="M50.0782 121.252L68.2121 161.492L59.3113 165.503L41.1775 125.263L50.0782 121.252Z" fill="#1D1E1D"/>
<path d="M-1.5353 65.8359L22.9776 102.541L14.8589 107.963L-9.65404 71.2578L-1.5353 65.8359Z" fill="#1D1E1D"/>
<path d="M112.223 213.581L130.357 253.822L121.456 257.833L103.322 217.592L112.223 213.581Z" fill="#1D1E1D"/>
<path d="M128.615 200.889L160.821 231.07L154.145 238.193L121.939 208.012L128.615 200.889Z" fill="#1D1E1D"/>
<path d="M215.246 178.617L172.061 169.496L174.079 159.944L217.264 169.065L215.246 178.617Z" fill="#1D1E1D"/>
<path d="M99.812 261.642L142.043 274.474L139.205 283.816L96.9737 270.983L99.812 261.642Z" fill="#1D1E1D"/>
<path d="M160.117 277.142L141.335 317.084L132.5 312.93L151.283 272.988L160.117 277.142Z" fill="#1D1E1D"/>
<path d="M166.232 165.104L147.449 205.046L138.615 200.892L157.397 160.95L166.232 165.104Z" fill="#1D1E1D"/>
<path d="M188.62 210.888L169.837 250.83L161.002 246.675L179.785 206.733L188.62 210.888Z" fill="#1D1E1D"/>
<path d="M193.274 103.999L217.003 61.3405L225.535 66.0863L201.806 108.745L193.274 103.999Z" fill="#1D1E1D"/>
<path d="M181.573 134.039L217.419 100.906L224.046 108.075L188.199 141.208L181.573 134.039Z" fill="#1D1E1D"/>
<path d="M217.251 87.75L262.629 105.738L259.031 114.814L213.653 96.8257L217.251 87.75Z" fill="#1D1E1D"/>
<path d="M217.358 120.885L245.63 118.211L246.549 127.931L218.277 130.604L217.358 120.885Z" fill="#1D1E1D"/>
<path d="M269.073 153.478L288.036 174.617L280.769 181.136L261.806 159.997L269.073 153.478Z" fill="#1D1E1D"/>
<path d="M305.453 115.629L291.378 140.294L282.899 135.455L296.974 110.79L305.453 115.629Z" fill="#1D1E1D"/>
<path d="M326.193 135.299L312.549 110.393L321.112 105.702L334.755 130.609L326.193 135.299Z" fill="#1D1E1D"/>
<path d="M305.96 78.3882L311.818 106.176L302.266 108.19L296.408 80.4021L305.96 78.3882Z" fill="#1D1E1D"/>
<path d="M268.856 96.5421L254.861 71.8312L263.356 67.0202L277.351 91.7312L268.856 96.5421Z" fill="#1D1E1D"/>
<path d="M235.195 40.851L248.121 15.5649L256.814 20.0087L243.887 45.2948L235.195 40.851Z" fill="#1D1E1D"/>
<path d="M243.896 48.6059L271.599 54.8496L269.453 64.3735L241.749 58.1298L243.896 48.6059Z" fill="#1D1E1D"/>
<path d="M253.074 40.2838L266 14.9978L274.693 19.4415L261.767 44.7276L253.074 40.2838Z" fill="#1D1E1D"/>
<path d="M335.065 183.25L292.144 188.941L290.861 179.263L333.782 173.572L335.065 183.25Z" fill="#1D1E1D"/>
<path d="M369.843 209.188L328.143 197.538L330.769 188.135L372.47 199.785L369.843 209.188Z" fill="#1D1E1D"/>
<path d="M339.8 224.354L304.73 198.963L310.455 191.055L345.526 216.446L339.8 224.354Z" fill="#1D1E1D"/>
<path d="M309.273 225.885L290.388 212.213L296.113 204.305L314.998 217.977L309.273 225.885Z" fill="#1D1E1D"/>
<path d="M324.337 236.358L281.416 242.049L280.133 232.371L323.054 226.68L324.337 236.358Z" fill="#1D1E1D"/>
<path d="M349.828 180.797L319.344 150.051L326.276 143.177L356.761 173.923L349.828 180.797Z" fill="#1D1E1D"/>
<path d="M207.437 133.376L241.327 161.653L235.072 169.15L201.182 140.872L207.437 133.376Z" fill="#1D1E1D"/>
<path d="M164.501 83.3235L198.391 111.601L192.136 119.097L158.246 90.8196L164.501 83.3235Z" fill="#1D1E1D"/>
<path d="M176.003 46.9975L194.137 87.2382L185.236 91.2492L167.102 51.0085L176.003 46.9975Z" fill="#1D1E1D"/>
<path d="M243.378 134.283L261.512 174.524L252.611 178.535L234.477 138.294L243.378 134.283Z" fill="#1D1E1D"/>
<path d="M259.768 121.583L291.974 151.764L285.298 158.888L253.092 128.707L259.768 121.583Z" fill="#1D1E1D"/>
<path d="M236.885 175.939L269.091 206.121L262.415 213.244L230.209 183.063L236.885 175.939Z" fill="#1D1E1D"/>
<path d="M291.272 197.844L272.49 237.786L263.655 233.632L282.438 193.69L291.272 197.844Z" fill="#1D1E1D"/>
<path d="M295.219 88.0989L276.436 128.041L267.601 123.886L286.384 83.9444L295.219 88.0989Z" fill="#1D1E1D"/>
<path d="M319.775 131.59L300.992 171.532L292.157 167.377L310.94 127.435L319.775 131.59Z" fill="#1D1E1D"/>
<path d="M129.354 94.1615L104.72 136.304L96.2918 131.377L120.926 89.2348L129.354 94.1615Z" fill="#1D1E1D"/>
<path d="M141.691 64.3729L105.145 96.7339L98.673 89.4249L135.218 57.0639L141.691 64.3729Z" fill="#1D1E1D"/>
<path d="M105.03 109.887L60.046 90.9349L63.8365 81.938L108.821 100.89L105.03 109.887Z" fill="#1D1E1D"/>
<path d="M105.635 76.7673L77.3121 78.8371L76.6005 69.1003L104.923 67.0305L105.635 76.7673Z" fill="#1D1E1D"/>
<path d="M139.088 36.1559L138.951 7.75773L148.714 7.71081L148.851 36.1089L139.088 36.1559Z" fill="#1D1E1D"/>
<path d="M140.892 -3.32229L122.308 18.1511L114.926 11.7623L133.51 -9.71107L140.892 -3.32229Z" fill="#1D1E1D"/>
<path d="M142.007 72.8511L169.663 66.4013L171.88 75.909L144.224 82.3588L142.007 72.8511Z" fill="#1D1E1D"/>
<path d="M56.307 46.2584L37.7993 24.7191L45.2041 18.3566L63.7117 39.8959L56.307 46.2584Z" fill="#1D1E1D"/>
<path d="M67.6561 17.1005L39.3394 14.9472L40.0796 5.21255L68.3964 7.36582L67.6561 17.1005Z" fill="#1D1E1D"/>
<path d="M95.9892 -35.0135L69.7941 -45.9812L73.5645 -54.9865L99.7596 -44.0188L95.9892 -35.0135Z" fill="#1D1E1D"/>
<path d="M130.106 -73.595L101.826 -70.9978L100.934 -80.7197L129.213 -83.3169L130.106 -73.595Z" fill="#1D1E1D"/>
<path d="M14.3349 79.9651L28.9336 55.6062L37.3076 60.6249L22.7089 84.9838L14.3349 79.9651Z" fill="#1D1E1D"/>
<path d="M53.6285 99.9999L67.0924 125.004L58.4966 129.632L45.0327 104.628L53.6285 99.9999Z" fill="#1D1E1D"/>
<path d="M88.9226 115.34L75.4598 140.345L66.8638 135.717L80.3266 110.712L88.9226 115.34Z" fill="#1D1E1D"/>
<path d="M-9.61093 13.874L32.4209 3.48318L34.7638 12.9607L-7.26798 23.3514L-9.61093 13.874Z" fill="#1D1E1D"/>
<path d="M-14.6436 -31.527L19.8773 -5.39368L13.9847 2.3902L-20.5362 -23.7431L-14.6436 -31.527Z" fill="#1D1E1D"/>
<path d="M15.9759 -30.1796L34.5646 -16.1074L28.672 -8.32349L10.0833 -22.3957L15.9759 -30.1796Z" fill="#1D1E1D"/>
<path d="M-7.52655 -44.0834L35.7602 -43.1349L35.5463 -33.3745L-7.74043 -34.323L-7.52655 -44.0834Z" fill="#1D1E1D"/>
<path d="M17.2578 30.8717L-18.8207 54.8088L-24.2181 46.6737L11.8604 22.7366L17.2578 30.8717Z" fill="#1D1E1D"/>
<path d="M115.821 64.4883L82.5426 35.494L88.9558 28.1332L122.235 57.1274L115.821 64.4883Z" fill="#1D1E1D"/>
<path d="M156.209 117.587L127.18 84.3382L134.534 77.9173L163.564 111.166L156.209 117.587Z" fill="#1D1E1D"/>
<path d="M143.258 151.304L125.987 110.685L134.971 106.865L152.242 147.484L143.258 151.304Z" fill="#1D1E1D"/>
<path d="M79.717 64.4355L62.4459 23.8171L71.4302 19.9969L88.7013 60.6153L79.717 64.4355Z" fill="#1D1E1D"/>
<path d="M103.297 32.5922L100.34 -11.4464L110.08 -12.1005L113.038 31.9381L103.297 32.5922Z" fill="#1D1E1D"/>
<path d="M63.2486 75.1599L31.6937 44.2984L38.5199 37.3188L70.0748 68.1803L63.2486 75.1599Z" fill="#1D1E1D"/>
<path d="M87.2781 21.294L55.7231 -9.56751L62.5493 -16.5471L94.1043 14.3144L87.2781 21.294Z" fill="#1D1E1D"/>
<path d="M64.6908 -50.4911L20.6992 -46.9009L19.9051 -56.6313L63.8966 -60.2215L64.6908 -50.4911Z" fill="#1D1E1D"/>
<path d="M76.4593 -59.0734L97.2588 -98.0031L105.87 -93.4025L85.0701 -54.4727L76.4593 -59.0734Z" fill="#1D1E1D"/>
<path d="M45.4617 -70.492L82.2586 -94.8669L87.6501 -86.7279L50.8532 -62.3529L45.4617 -70.492Z" fill="#1D1E1D"/>
<path d="M89.5414 4.7622L68.2486 -33.8999L76.8002 -38.6097L98.093 0.0524564L89.5414 4.7622Z" fill="#1D1E1D"/>
<path d="M33.3769 -1.75295L53.0076 -41.285L61.7516 -36.943L42.121 2.58912L33.3769 -1.75295Z" fill="#1D1E1D"/>
<path d="M24.8807 110.142L44.5113 70.6099L53.2553 74.952L33.6247 114.484L24.8807 110.142Z" fill="#1D1E1D"/>
<path d="M121.338 32.879L161.182 51.8688L156.982 60.6818L117.138 41.692L121.338 32.879Z" fill="#1D1E1D"/>
<path d="M-50.1184 -11.9784L-8.19888 1.83838L-11.255 11.1105L-53.1745 -2.70629L-50.1184 -11.9784Z" fill="#1D1E1D"/>
<path d="M1.7548 62.3428L25.2909 25.0038L33.5498 30.2097L10.0138 67.5487L1.7548 62.3428Z" fill="#1D1E1D"/>
<path d="M229.254 45.0815L252.987 87.7375L244.455 92.4841L220.722 49.8281L229.254 45.0815Z" fill="#1D1E1D"/>
<path d="M232.734 30.893L187.749 11.9405L191.54 2.94366L236.524 21.8961L232.734 30.893Z" fill="#1D1E1D"/>
<path d="M236.788 -2.53608L208.465 -0.46627L207.753 -10.2031L236.076 -12.2729L236.788 -2.53608Z" fill="#1D1E1D"/>
<path d="M262.832 0.526956L237.966 14.2448L233.25 5.69653L258.116 -8.02128L262.832 0.526956Z" fill="#1D1E1D"/>
<path d="M185.777 -36.2288L167.269 -57.7681L174.674 -64.1306L193.182 -42.5914L185.777 -36.2288Z" fill="#1D1E1D"/>
<path d="M209.537 -81.77L189.022 -101.407L195.773 -108.46L216.288 -88.8224L209.537 -81.77Z" fill="#1D1E1D"/>
<path d="M119.784 -6.73818L101.277 -28.2774L108.681 -34.64L127.189 -13.1007L119.784 -6.73818Z" fill="#1D1E1D"/>
<path d="M145.492 0.66625L160.09 -23.6926L168.464 -18.6739L153.866 5.68496L145.492 0.66625Z" fill="#1D1E1D"/>
<path d="M184.783 20.702L198.247 45.7059L189.652 50.3345L176.188 25.3306L184.783 20.702Z" fill="#1D1E1D"/>
<path d="M33.5545 121.069L41.4266 148.354L32.0464 151.06L24.1743 123.775L33.5545 121.069Z" fill="#1D1E1D"/>
<path d="M-30.2719 39.6789L-30.0567 11.2812L-20.2942 11.3552L-20.5094 39.7528L-30.2719 39.6789Z" fill="#1D1E1D"/>
<path d="M-20.6417 -5.18587L-40.4836 -25.5027L-33.4991 -32.3239L-13.6573 -12.0071L-20.6417 -5.18587Z" fill="#1D1E1D"/>
<path d="M220.072 36.0364L206.609 61.0409L198.013 56.4127L211.476 31.4082L220.072 36.0364Z" fill="#1D1E1D"/>
<path d="M277.041 255.003L305.277 258.03L306.318 248.322L278.081 245.296L277.041 255.003Z" fill="#1D1E1D"/>
<path d="M120.434 -67.4016L163.467 -72.1755L164.544 -62.4722L121.511 -57.6983L120.434 -67.4016Z" fill="#1D1E1D"/>
<path d="M116.583 -108.592L151.104 -82.459L145.211 -74.6751L110.69 -100.808L116.583 -108.592Z" fill="#1D1E1D"/>
<path d="M143.693 -108.737L166.297 -103.024L163.904 -93.5585L141.301 -99.2718L143.693 -108.737Z" fill="#1D1E1D"/>
<path d="M185.314 -145.312L185.409 -121.998L175.646 -121.958L175.551 -145.272L185.314 -145.312Z" fill="#1D1E1D"/>
<path d="M127.32 -116.94L168.944 -128.857L171.632 -119.472L130.007 -107.554L127.32 -116.94Z" fill="#1D1E1D"/>
<path d="M105.621 -65.2678L135.443 -33.8782L128.365 -27.1539L98.5433 -58.5434L105.621 -65.2678Z" fill="#1D1E1D"/>
<path d="M245.22 -9.58042L216.942 -43.4703L224.438 -49.725L252.716 -15.8351L245.22 -9.58042Z" fill="#1D1E1D"/>
<path d="M277.315 80.9426L273.759 36.9483L283.49 36.1617L287.046 80.156L277.315 80.9426Z" fill="#1D1E1D"/>
<path d="M211.06 -16.4851L193.789 -57.1035L202.773 -60.9237L220.044 -20.3053L211.06 -16.4851Z" fill="#1D1E1D"/>
<path d="M194.402 -4.14583L162.847 -35.0073L169.673 -41.9869L201.228 -11.1254L194.402 -4.14583Z" fill="#1D1E1D"/>
<path d="M224.461 -57.8345L184.385 -76.3305L188.476 -85.1947L228.552 -66.6987L224.461 -57.8345Z" fill="#1D1E1D"/>
<path d="M163.057 -80.0434L182.687 -119.575L191.431 -115.233L171.801 -75.7013L163.057 -80.0434Z" fill="#1D1E1D"/>
<path d="M156.028 30.8304L175.659 -8.70172L184.403 -4.35965L164.772 35.1724L156.028 30.8304Z" fill="#1D1E1D"/>
<path d="M134.62 -15.4287L154.251 -54.9608L162.995 -50.6188L143.364 -11.0867L134.62 -15.4287Z" fill="#1D1E1D"/>
<path d="M306.701 51.1508L330.43 8.49242L338.962 13.2382L315.233 55.8965L306.701 51.1508Z" fill="#1D1E1D"/>
<path d="M330.678 34.902L376.056 52.8903L372.459 61.966L327.08 43.9777L330.678 34.902Z" fill="#1D1E1D"/>
<path d="M330.787 68.0361L359.059 65.3624L359.978 75.0818L331.706 77.7555L330.787 68.0361Z" fill="#1D1E1D"/>
<path d="M382.502 100.629L401.465 121.768L394.198 128.288L375.235 107.148L382.502 100.629Z" fill="#1D1E1D"/>
<path d="M427.157 57.2327L455.148 52.4366L456.797 62.0591L428.806 66.8552L427.157 57.2327Z" fill="#1D1E1D"/>
<path d="M448.771 75.3757L467.734 96.5152L460.467 103.034L441.504 81.8948L448.771 75.3757Z" fill="#1D1E1D"/>
<path d="M477.096 131.679L505.495 131.709L505.485 141.471L477.086 141.442L477.096 131.679Z" fill="#1D1E1D"/>
<path d="M471.926 54.3916L475.691 82.5394L466.014 83.8336L462.25 55.6857L471.926 54.3916Z" fill="#1D1E1D"/>
<path d="M421.993 62.882L407.918 87.5468L399.439 82.7079L413.514 58.0431L421.993 62.882Z" fill="#1D1E1D"/>
<path d="M410.425 -8.79737L412.889 19.494L403.163 20.3412L400.699 -7.95012L410.425 -8.79737Z" fill="#1D1E1D"/>
<path d="M446.531 28.1708L419.37 19.8793L422.22 10.5419L449.381 18.8334L446.531 28.1708Z" fill="#1D1E1D"/>
<path d="M382.283 43.6941L368.288 18.9832L376.783 14.1722L390.778 38.8832L382.283 43.6941Z" fill="#1D1E1D"/>
<path d="M346.672 29.111L359.598 3.82492L368.291 8.26868L355.365 33.5547L346.672 29.111Z" fill="#1D1E1D"/>
<path d="M446.37 134.096L403.448 139.787L402.165 130.109L445.086 124.418L446.37 134.096Z" fill="#1D1E1D"/>
<path d="M455.451 175.479L420.38 150.088L426.105 142.18L461.176 167.571L455.451 175.479Z" fill="#1D1E1D"/>
<path d="M422.707 173.044L403.822 159.372L409.548 151.464L428.432 165.136L422.707 173.044Z" fill="#1D1E1D"/>
<path d="M396.608 206.636L374.937 198.039L378.537 188.965L400.208 197.562L396.608 206.636Z" fill="#1D1E1D"/>
<path d="M365.056 178.121L359.347 155.516L368.813 153.126L374.522 175.731L365.056 178.121Z" fill="#1D1E1D"/>
<path d="M330.845 62.3769L313.385 77.8276L306.915 70.5164L324.375 55.0657L330.845 62.3769Z" fill="#1D1E1D"/>
<path d="M291.203 25.2499L304.657 44.2912L296.683 49.9248L283.23 30.8835L291.203 25.2499Z" fill="#1D1E1D"/>
<path d="M438.585 184.903L395.664 190.594L394.38 180.916L437.302 175.225L438.585 184.903Z" fill="#1D1E1D"/>
<path d="M462.556 133.049L432.071 102.303L439.003 95.4291L469.488 126.175L462.556 133.049Z" fill="#1D1E1D"/>
<path d="M489.332 159.328L447.219 149.273L449.486 139.777L491.599 149.833L489.332 159.328Z" fill="#1D1E1D"/>
<path d="M473.34 119.179L482.244 76.8073L491.798 78.815L482.894 121.187L473.34 119.179Z" fill="#1D1E1D"/>
<path d="M571.926 102.916L608.725 80.1008L613.869 88.3982L577.071 111.213L571.926 102.916Z" fill="#1D1E1D"/>
<path d="M499.286 96.0766L522.793 132.437L514.594 137.737L491.087 101.377L499.286 96.0766Z" fill="#1D1E1D"/>
<path d="M326.104 81.0974L355.062 114.408L347.694 120.813L318.737 87.5025L326.104 81.0974Z" fill="#1D1E1D"/>
<path d="M294.662 -10.8952L312.796 29.3454L303.895 33.3564L285.761 -6.88421L294.662 -10.8952Z" fill="#1D1E1D"/>
<path d="M243.049 -66.311L267.561 -29.6059L259.443 -24.1839L234.93 -60.889L243.049 -66.311Z" fill="#1D1E1D"/>
<path d="M356.807 81.4343L374.941 121.675L366.04 125.686L347.906 85.4453L356.807 81.4343Z" fill="#1D1E1D"/>
<path d="M373.199 68.7417L405.405 98.9229L398.729 106.047L366.523 75.8654L373.199 68.7417Z" fill="#1D1E1D"/>
<path d="M459.83 46.4706L416.645 37.349L418.663 27.797L461.848 36.9185L459.83 46.4706Z" fill="#1D1E1D"/>
<path d="M344.396 129.495L386.627 142.328L383.789 151.669L341.558 138.837L344.396 129.495Z" fill="#1D1E1D"/>
<path d="M404.701 144.995L385.918 184.937L377.084 180.783L395.866 140.841L404.701 144.995Z" fill="#1D1E1D"/>
<path d="M410.816 32.9576L392.033 72.8995L383.198 68.745L401.981 28.8031L410.816 32.9576Z" fill="#1D1E1D"/>
<path d="M433.203 78.7408L414.421 118.683L405.586 114.528L424.369 74.5863L433.203 78.7408Z" fill="#1D1E1D"/>
<path d="M437.858 -28.1481L461.587 -70.8064L470.118 -66.0606L446.389 -23.4023L437.858 -28.1481Z" fill="#1D1E1D"/>
<path d="M426.157 1.89217L462.003 -31.2412L468.63 -24.0719L432.783 9.06148L426.157 1.89217Z" fill="#1D1E1D"/>
<path d="M461.834 -44.3968L507.213 -26.4085L503.615 -17.3328L458.237 -35.3211L461.834 -44.3968Z" fill="#1D1E1D"/>
<path d="M461.942 -11.2618L490.214 -13.9354L491.133 -4.21602L462.861 -1.54239L461.942 -11.2618Z" fill="#1D1E1D"/>
<path d="M513.657 21.3311L532.62 42.4705L525.352 48.9896L506.39 27.8501L513.657 21.3311Z" fill="#1D1E1D"/>
<path d="M550.037 -16.5178L535.962 8.147L527.482 3.3081L541.558 -21.3567L550.037 -16.5178Z" fill="#1D1E1D"/>
<path d="M570.777 3.15218L557.133 -21.7542L565.695 -26.4446L579.339 -1.53815L570.777 3.15218Z" fill="#1D1E1D"/>
<path d="M550.544 -53.7587L556.402 -25.9709L546.849 -23.9571L540.991 -51.7448L550.544 -53.7587Z" fill="#1D1E1D"/>
<path d="M513.439 -35.6047L499.445 -60.3157L507.94 -65.1266L521.934 -40.4157L513.439 -35.6047Z" fill="#1D1E1D"/>
<path d="M479.779 -91.2959L492.705 -116.582L501.398 -112.138L488.471 -86.8521L479.779 -91.2959Z" fill="#1D1E1D"/>
<path d="M488.48 -83.5409L516.183 -77.2972L514.037 -67.7733L486.333 -74.017L488.48 -83.5409Z" fill="#1D1E1D"/>
<path d="M497.658 -91.863L510.584 -117.149L519.277 -112.705L506.351 -87.4193L497.658 -91.863Z" fill="#1D1E1D"/>
<path d="M579.649 51.1028L536.728 56.7938L535.445 47.1157L578.366 41.4247L579.649 51.1028Z" fill="#1D1E1D"/>
<path d="M614.427 77.0407L572.726 65.3912L575.353 55.9884L617.054 67.6379L614.427 77.0407Z" fill="#1D1E1D"/>
<path d="M584.384 92.2069L549.314 66.8161L555.039 58.9083L590.109 84.2991L584.384 92.2069Z" fill="#1D1E1D"/>
<path d="M553.857 93.7381L534.972 80.0658L540.697 72.1579L559.582 85.8303L553.857 93.7381Z" fill="#1D1E1D"/>
<path d="M568.921 104.211L526 109.902L524.716 100.224L567.638 94.5331L568.921 104.211Z" fill="#1D1E1D"/>
<path d="M594.412 48.6498L563.928 17.9037L570.86 11.0299L601.345 41.7759L594.412 48.6498Z" fill="#1D1E1D"/>
<path d="M452.021 1.22901L485.911 29.5066L479.656 37.0027L445.766 8.72505L452.021 1.22901Z" fill="#1D1E1D"/>
<path d="M409.085 -48.8233L442.975 -20.5457L436.72 -13.0497L402.83 -41.3273L409.085 -48.8233Z" fill="#1D1E1D"/>
<path d="M420.587 -85.1493L438.721 -44.9087L429.82 -40.8977L411.686 -81.1383L420.587 -85.1493Z" fill="#1D1E1D"/>
<path d="M487.962 2.13642L506.095 42.3771L497.195 46.3881L479.061 6.14743L487.962 2.13642Z" fill="#1D1E1D"/>
<path d="M504.352 -10.564L536.558 19.6172L529.882 26.7409L497.676 -3.44032L504.352 -10.564Z" fill="#1D1E1D"/>
<path d="M481.469 43.7925L513.675 73.9737L506.999 81.0974L474.793 50.9162L481.469 43.7925Z" fill="#1D1E1D"/>
<path d="M535.856 65.6976L517.073 105.639L508.239 101.485L527.021 61.5431L535.856 65.6976Z" fill="#1D1E1D"/>
<path d="M539.803 -44.0479L521.02 -4.10597L512.185 -8.2605L530.968 -48.2024L539.803 -44.0479Z" fill="#1D1E1D"/>
<path d="M564.359 -0.557175L545.576 39.3848L536.741 35.2302L555.524 -4.71168L564.359 -0.557175Z" fill="#1D1E1D"/>
<path d="M373.938 -37.9854L349.304 4.15698L340.876 -0.76978L365.509 -42.9121L373.938 -37.9854Z" fill="#1D1E1D"/>
<path d="M386.274 -67.7739L349.729 -35.4129L343.257 -42.722L379.802 -75.083L386.274 -67.7739Z" fill="#1D1E1D"/>
<path d="M349.614 -22.2595L304.63 -41.212L308.42 -50.2089L353.405 -31.2564L349.614 -22.2595Z" fill="#1D1E1D"/>
<path d="M350.219 -55.3795L321.896 -53.3097L321.184 -63.0465L349.507 -65.1163L350.219 -55.3795Z" fill="#1D1E1D"/>
<path d="M383.672 -95.991L383.535 -124.389L393.298 -124.436L393.434 -96.0379L383.672 -95.991Z" fill="#1D1E1D"/>
<path d="M385.476 -135.469L366.892 -113.996L359.51 -120.385L378.094 -141.858L385.476 -135.469Z" fill="#1D1E1D"/>
<path d="M386.591 -59.2957L414.247 -65.7455L416.464 -56.2379L388.808 -49.7881L386.591 -59.2957Z" fill="#1D1E1D"/>
<path d="M300.891 -85.8884L282.383 -107.428L289.788 -113.79L308.296 -92.251L300.891 -85.8884Z" fill="#1D1E1D"/>
<path d="M312.24 -115.046L283.923 -117.2L284.664 -126.934L312.98 -124.781L312.24 -115.046Z" fill="#1D1E1D"/>
<path d="M340.573 -167.16L314.378 -178.128L318.148 -187.133L344.343 -176.166L340.573 -167.16Z" fill="#1D1E1D"/>
<path d="M374.69 -205.742L346.41 -203.145L345.517 -212.867L373.797 -215.464L374.69 -205.742Z" fill="#1D1E1D"/>
<path d="M258.919 -52.1818L273.517 -76.5406L281.891 -71.5219L267.293 -47.1631L258.919 -52.1818Z" fill="#1D1E1D"/>
<path d="M298.212 -32.147L311.676 -7.14307L303.08 -2.51445L289.617 -27.5184L298.212 -32.147Z" fill="#1D1E1D"/>
<path d="M333.507 -16.8066L320.044 8.19791L311.448 3.56967L324.911 -21.4348L333.507 -16.8066Z" fill="#1D1E1D"/>
<path d="M234.973 -118.273L277.005 -128.664L279.348 -119.186L237.316 -108.795L234.973 -118.273Z" fill="#1D1E1D"/>
<path d="M229.94 -163.674L264.461 -137.541L258.569 -129.757L224.048 -155.89L229.94 -163.674Z" fill="#1D1E1D"/>
<path d="M260.56 -162.326L279.148 -148.254L273.256 -140.47L254.667 -154.543L260.56 -162.326Z" fill="#1D1E1D"/>
<path d="M237.057 -176.23L280.344 -175.282L280.13 -165.521L236.843 -166.47L237.057 -176.23Z" fill="#1D1E1D"/>
<path d="M261.842 -101.275L225.763 -77.3381L220.366 -85.4732L256.444 -109.41L261.842 -101.275Z" fill="#1D1E1D"/>
<path d="M360.405 -67.6585L327.127 -96.6528L333.54 -104.014L366.819 -75.0194L360.405 -67.6585Z" fill="#1D1E1D"/>
<path d="M400.793 -14.5603L371.764 -47.8086L379.118 -54.2296L408.147 -20.9812L400.793 -14.5603Z" fill="#1D1E1D"/>
<path d="M387.842 19.1568L370.571 -21.4616L379.555 -25.2818L396.826 15.3367L387.842 19.1568Z" fill="#1D1E1D"/>
<path d="M324.301 -67.7113L307.03 -108.33L316.014 -112.15L333.285 -71.5315L324.301 -67.7113Z" fill="#1D1E1D"/>
<path d="M347.881 -99.5546L344.923 -143.593L354.664 -144.247L357.622 -100.209L347.881 -99.5546Z" fill="#1D1E1D"/>
<path d="M307.833 -56.987L276.278 -87.8485L283.104 -94.8281L314.659 -63.9666L307.833 -56.987Z" fill="#1D1E1D"/>
<path d="M331.862 -110.853L300.307 -141.714L307.133 -148.694L338.688 -117.832L331.862 -110.853Z" fill="#1D1E1D"/>
<path d="M309.275 -182.638L265.283 -179.048L264.489 -188.778L308.481 -192.368L309.275 -182.638Z" fill="#1D1E1D"/>
<path d="M321.043 -191.22L341.843 -230.15L350.454 -225.549L329.654 -186.62L321.043 -191.22Z" fill="#1D1E1D"/>
<path d="M290.046 -202.639L326.842 -227.014L332.234 -218.875L295.437 -194.5L290.046 -202.639Z" fill="#1D1E1D"/>
<path d="M334.125 -127.385L312.832 -166.047L321.384 -170.757L342.677 -132.094L334.125 -127.385Z" fill="#1D1E1D"/>
<path d="M277.961 -133.9L297.591 -173.432L306.335 -169.09L286.705 -129.558L277.961 -133.9Z" fill="#1D1E1D"/>
<path d="M269.465 -22.0049L289.095 -61.5369L297.839 -57.1949L278.209 -17.6628L269.465 -22.0049Z" fill="#1D1E1D"/>
<path d="M365.922 -99.2678L405.766 -80.278L401.565 -71.465L361.722 -90.4548L365.922 -99.2678Z" fill="#1D1E1D"/>
<path d="M194.465 -144.125L236.385 -130.308L233.329 -121.036L191.409 -134.853L194.465 -144.125Z" fill="#1D1E1D"/>
<path d="M246.339 -69.804L269.875 -107.143L278.134 -101.937L254.598 -64.5981L246.339 -69.804Z" fill="#1D1E1D"/>
<path d="M473.837 -87.0654L497.57 -44.4094L489.039 -39.6627L465.306 -82.3188L473.837 -87.0654Z" fill="#1D1E1D"/>
<path d="M477.317 -101.254L432.333 -120.206L436.123 -129.203L481.108 -110.251L477.317 -101.254Z" fill="#1D1E1D"/>
<path d="M481.371 -134.683L453.049 -132.613L452.337 -142.35L480.66 -144.42L481.371 -134.683Z" fill="#1D1E1D"/>
<path d="M507.416 -131.62L482.55 -117.902L477.834 -126.45L502.7 -140.168L507.416 -131.62Z" fill="#1D1E1D"/>
<path d="M430.361 -168.376L411.853 -189.915L419.258 -196.277L437.766 -174.738L430.361 -168.376Z" fill="#1D1E1D"/>
<path d="M454.121 -213.917L433.606 -233.554L440.357 -240.607L460.872 -220.969L454.121 -213.917Z" fill="#1D1E1D"/>
<path d="M364.368 -138.885L345.86 -160.424L353.265 -166.787L371.773 -145.248L364.368 -138.885Z" fill="#1D1E1D"/>
<path d="M390.075 -131.481L404.674 -155.839L413.048 -150.821L398.449 -126.462L390.075 -131.481Z" fill="#1D1E1D"/>
<path d="M429.367 -111.445L442.831 -86.4409L434.235 -81.8123L420.771 -106.816L429.367 -111.445Z" fill="#1D1E1D"/>
<path d="M278.138 -11.0783L286.01 16.2073L276.63 18.9135L268.758 -8.37205L278.138 -11.0783Z" fill="#1D1E1D"/>
<path d="M214.312 -92.468L214.527 -120.866L224.29 -120.792L224.074 -92.394L214.312 -92.468Z" fill="#1D1E1D"/>
<path d="M223.942 -137.333L204.1 -157.65L211.085 -164.471L230.927 -144.154L223.942 -137.333Z" fill="#1D1E1D"/>
<path d="M464.656 -96.1105L451.193 -71.1059L442.597 -75.7342L456.06 -100.739L464.656 -96.1105Z" fill="#1D1E1D"/>
<path d="M521.624 122.857L549.861 125.883L550.902 116.176L522.665 113.149L521.624 122.857Z" fill="#1D1E1D"/>
<path d="M365.018 -199.548L408.051 -204.322L409.128 -194.619L366.095 -189.845L365.018 -199.548Z" fill="#1D1E1D"/>
<path d="M361.167 -240.739L395.688 -214.606L389.795 -206.822L355.274 -232.955L361.167 -240.739Z" fill="#1D1E1D"/>
<path d="M388.277 -240.884L410.881 -235.17L408.488 -225.705L385.885 -231.419L388.277 -240.884Z" fill="#1D1E1D"/>
<path d="M429.898 -277.459L429.993 -254.144L420.23 -254.105L420.135 -277.419L429.898 -277.459Z" fill="#1D1E1D"/>
<path d="M371.903 -249.087L413.528 -261.004L416.215 -251.618L374.591 -239.701L371.903 -249.087Z" fill="#1D1E1D"/>
<path d="M350.205 -197.415L380.027 -166.025L372.949 -159.301L343.127 -190.69L350.205 -197.415Z" fill="#1D1E1D"/>
<path d="M489.804 -141.727L461.526 -175.617L469.022 -181.872L497.3 -147.982L489.804 -141.727Z" fill="#1D1E1D"/>
<path d="M521.899 -51.2042L518.343 -95.1986L528.074 -95.9852L531.63 -51.9908L521.899 -51.2042Z" fill="#1D1E1D"/>
<path d="M455.644 -148.632L438.373 -189.25L447.357 -193.071L464.628 -152.452L455.644 -148.632Z" fill="#1D1E1D"/>
<path d="M438.985 -136.293L407.431 -167.154L414.257 -174.134L445.812 -143.272L438.985 -136.293Z" fill="#1D1E1D"/>
<path d="M469.045 -189.981L428.969 -208.477L433.06 -217.342L473.136 -198.846L469.045 -189.981Z" fill="#1D1E1D"/>
<path d="M407.64 -212.19L427.271 -251.722L436.015 -247.38L416.385 -207.848L407.64 -212.19Z" fill="#1D1E1D"/>
<path d="M400.612 -101.316L420.243 -140.849L428.987 -136.507L409.356 -96.9744L400.612 -101.316Z" fill="#1D1E1D"/>
<path d="M379.204 -147.576L398.834 -187.108L407.579 -182.766L387.948 -143.234L379.204 -147.576Z" fill="#1D1E1D"/>
</g>
</svg>
