<svg width="433" height="554" viewBox="0 0 433 554" fill="none" xmlns="http://www.w3.org/2000/svg">
<path fill-rule="evenodd" clip-rule="evenodd" d="M144.939 279.411L485.326 37.1412L373.385 428.552C373.063 429.827 372.702 431.089 372.303 432.337L372.221 432.624L372.212 432.618C370.684 437.315 368.605 441.814 365.951 446.065C339.213 488.885 264.229 490.31 198.469 449.248C132.71 408.186 101.077 340.186 127.815 297.366C132.272 290.23 138.068 284.243 144.939 279.411Z" fill="#1D1E1D"/>
<path d="M463.446 2.23608L122.584 244.844L350.341 397.719L463.446 2.23608Z" fill="#FFF8A0"/>
<ellipse cx="91.4065" cy="140.374" rx="91.4065" ry="140.374" transform="matrix(-0.529651 0.848216 0.848216 0.529651 154.349 184.929)" fill="#FF847C"/>
</svg>
