<svg width="317" height="316" viewBox="0 0 317 316" fill="none" xmlns="http://www.w3.org/2000/svg">
<path fill-rule="evenodd" clip-rule="evenodd" d="M37.6283 180.744C32.1687 183.233 32.1694 183.234 32.1701 183.236L32.1721 183.24L32.1778 183.252L32.196 183.292C32.2112 183.325 32.2324 183.371 32.2595 183.429C32.3137 183.546 32.3917 183.712 32.4927 183.925C32.6945 184.35 32.9883 184.96 33.3676 185.724C34.1255 187.251 35.2281 189.398 36.6231 191.918C39.3981 196.93 43.3972 203.537 48.2087 209.675C52.9376 215.708 58.8523 221.815 65.5853 225.222C72.7051 228.824 81.0169 229.461 88.9345 223.818C97.6635 217.597 100.46 208.863 100.572 200.028C100.676 191.869 98.5002 182.999 96.5719 175.136L96.3673 174.302C94.2792 165.776 92.5853 158.492 92.888 152.426C93.0328 149.523 93.6341 147.202 94.6864 145.322C95.7101 143.494 97.3373 141.765 100.066 140.27C101.546 139.459 103.13 139.316 105.329 140.063C107.736 140.881 110.6 142.701 113.932 145.557C118.62 149.576 123.217 154.692 127.991 160.005C130.16 162.419 132.366 164.874 134.634 167.284C138.093 170.962 141.703 174.523 145.304 177.163C148.773 179.708 153.11 182.063 157.896 181.917C163.233 181.755 167.355 178.607 170.29 173.961C173.076 169.55 175.181 163.264 176.82 155.084C176.83 155.087 176.83 155.087 176.83 155.087L176.831 155.085L176.835 155.064L176.856 154.96C176.876 154.864 176.907 154.716 176.949 154.518C177.034 154.122 177.164 153.53 177.341 152.773C177.694 151.259 178.229 149.091 178.952 146.517C180.405 141.34 182.578 134.653 185.485 128.362C188.447 121.95 191.904 116.548 195.663 113.38C199.09 110.49 202.394 109.663 206.443 111.314C211.839 113.515 214.621 117.555 216.127 123.587C217.727 129.995 217.665 137.806 217.592 146.585L217.591 146.699C217.523 154.976 217.447 164.299 219.708 172.111C220.88 176.159 222.748 180.086 225.776 183.387C228.845 186.73 232.847 189.149 237.824 190.522C243.306 192.034 248.324 190.765 252.555 188.115C256.599 185.581 260.037 181.739 262.989 177.692C267.107 172.046 271.046 164.842 274.648 158.255L274.648 158.255L274.649 158.254C276.106 155.589 277.508 153.026 278.844 150.708C281.287 146.468 283.537 142.961 285.691 140.434C287.95 137.785 289.428 137.027 290.124 136.885L290.141 136.881C290.335 136.838 291.225 136.642 293.212 138.59C295.416 140.751 298.213 144.897 301.507 152.127L312.427 147.153C308.913 139.437 305.382 133.716 301.613 130.021C297.689 126.174 292.954 124.058 287.722 125.127C283.03 126.086 279.351 129.374 276.56 132.649C273.663 136.046 270.968 140.341 268.447 144.716C266.794 147.584 265.212 150.48 263.656 153.328L263.655 153.328C260.231 159.596 256.933 165.631 253.294 170.62C250.708 174.166 248.339 176.595 246.185 177.945C244.216 179.178 242.642 179.402 241.015 178.954C238.016 178.126 236.035 176.817 234.618 175.273C233.162 173.687 232.043 171.565 231.235 168.773C229.546 162.94 229.52 155.461 229.592 146.684L229.599 145.825C229.668 137.73 229.746 128.596 227.77 120.68C225.63 112.107 220.9 104.251 210.975 100.203C201.972 96.5311 194.029 99.0617 187.928 104.204C182.159 109.068 177.806 116.371 174.591 123.329C171.32 130.409 168.947 137.758 167.398 143.274C166.62 146.047 166.04 148.391 165.654 150.05C165.46 150.881 165.314 151.542 165.216 152.003C165.174 152.196 165.141 152.353 165.116 152.474L165.105 152.471C163.562 160.265 161.792 164.943 160.144 167.553C158.658 169.905 157.747 169.919 157.548 169.922L157.531 169.923C156.821 169.944 155.208 169.546 152.401 167.487C149.723 165.523 146.727 162.627 143.375 159.063C141.542 157.114 139.588 154.941 137.557 152.683L137.557 152.682C132.537 147.1 127.047 140.995 121.741 136.447C117.938 133.186 113.709 130.237 109.19 128.702C104.464 127.095 99.2886 127.014 94.3007 129.746C89.773 132.226 86.4338 135.499 84.2163 139.459C82.0275 143.368 81.1129 147.619 80.9029 151.828C80.4976 159.95 82.7155 169.006 84.6846 177.045L84.6846 177.045L84.7118 177.157C86.8003 185.684 88.657 193.271 88.5732 199.875C88.4943 206.092 86.7154 210.664 81.9699 214.046C78.4084 216.584 75.0027 216.538 71.0031 214.514C66.6168 212.295 62.0105 207.832 57.6532 202.272C53.3784 196.819 49.7262 190.81 47.1215 186.106C45.8266 183.767 44.8071 181.78 44.1156 180.388C43.7701 179.692 43.5073 179.146 43.3336 178.78C43.2469 178.597 43.1824 178.459 43.1412 178.371L43.0968 178.275L43.0878 178.255L43.087 178.253C43.0874 178.254 43.0878 178.255 37.6283 180.744Z" fill="#1D1E1D"/>
<path fill-rule="evenodd" clip-rule="evenodd" d="M14.1852 162.024C8.72563 164.513 8.72628 164.515 8.72703 164.516L8.72902 164.521L8.7347 164.533L8.7529 164.573C8.76805 164.605 8.78924 164.651 8.81637 164.71C8.87061 164.826 8.94861 164.993 9.04954 165.206C9.25137 165.631 9.54519 166.241 9.92447 167.005C10.6824 168.531 11.785 170.679 13.18 173.198C15.955 178.211 19.9541 184.817 24.7656 190.956C29.4944 196.989 35.4092 203.095 42.1422 206.502C49.2619 210.105 57.5738 210.741 65.4914 205.098C74.2204 198.877 77.017 190.143 77.1292 181.308C77.2327 173.15 75.057 164.279 73.1288 156.417L72.9242 155.582C70.8361 147.057 69.1422 139.772 69.4448 133.707C69.5897 130.804 70.191 128.482 71.2433 126.603C72.267 124.775 73.8942 123.045 76.6225 121.551C78.1029 120.74 79.6869 120.597 81.886 121.344C84.2928 122.162 87.1564 123.982 90.4884 126.838C95.1767 130.857 99.7739 135.973 104.548 141.285C106.717 143.699 108.923 146.154 111.191 148.565C114.65 152.243 118.26 155.803 121.86 158.444C125.33 160.989 129.667 163.343 134.453 163.198C139.79 163.035 143.912 159.887 146.847 155.242C149.633 150.83 151.738 144.544 153.377 136.365C153.387 136.367 153.387 136.367 153.387 136.367L153.388 136.365L153.392 136.344L153.413 136.241C153.433 136.145 153.464 135.996 153.506 135.798C153.591 135.402 153.721 134.81 153.898 134.054C154.25 132.539 154.786 130.372 155.508 127.798C156.962 122.62 159.135 115.933 162.041 109.643C165.004 103.231 168.461 97.8284 172.219 94.66C175.647 91.771 178.951 90.9432 183 92.5947C188.396 94.7953 191.178 98.8351 192.684 104.867C194.284 111.275 194.221 119.086 194.149 127.866L194.148 127.98C194.08 136.257 194.003 145.58 196.265 153.391C197.437 157.44 199.305 161.366 202.333 164.667C205.402 168.011 209.404 170.429 214.381 171.802C219.863 173.314 224.881 172.045 229.111 169.395C233.156 166.862 236.594 163.02 239.546 158.972C243.664 153.326 247.603 146.122 251.205 139.536L251.205 139.535L251.206 139.534C252.663 136.87 254.065 134.306 255.401 131.988C257.844 127.749 260.094 124.241 262.248 121.715C264.507 119.065 265.985 118.307 266.681 118.165L266.698 118.162C266.892 118.119 267.782 117.923 269.769 119.87C271.973 122.031 274.77 126.177 278.064 133.408L288.984 128.433C285.47 120.718 281.938 114.996 278.169 111.301C274.246 107.455 269.511 105.339 264.279 106.408C259.587 107.367 255.908 110.655 253.117 113.929C250.22 117.327 247.525 121.622 245.004 125.996C243.351 128.864 241.769 131.76 240.212 134.608L240.212 134.608C236.787 140.876 233.49 146.912 229.851 151.901C227.265 155.447 224.896 157.876 222.742 159.225C220.773 160.458 219.199 160.683 217.572 160.234C214.573 159.407 212.592 158.098 211.175 156.554C209.719 154.967 208.6 152.846 207.792 150.054C206.103 144.22 206.077 136.742 206.149 127.964L206.156 127.105C206.225 119.01 206.303 109.877 204.327 101.961C202.187 93.3879 197.457 85.5311 187.532 81.4833C178.529 77.8116 170.586 80.3422 164.485 85.485C158.716 90.3484 154.363 97.651 151.148 104.61C147.877 111.69 145.503 119.039 143.955 124.555C143.177 127.328 142.597 129.671 142.211 131.331C142.017 132.162 141.871 132.823 141.773 133.283C141.731 133.476 141.698 133.634 141.673 133.754L141.662 133.752C140.118 141.546 138.349 146.224 136.701 148.834C135.215 151.186 134.304 151.2 134.105 151.203L134.088 151.203C133.378 151.225 131.765 150.827 128.957 148.768C126.28 146.804 123.284 143.908 119.932 140.344C118.099 138.394 116.145 136.222 114.114 133.964L114.114 133.963C109.094 128.381 103.604 122.275 98.2984 117.727C94.495 114.467 90.2661 111.518 85.7471 109.982C81.0205 108.376 75.8455 108.294 70.8576 111.026C66.3299 113.506 62.9907 116.78 60.7732 120.74C58.5844 124.648 57.6698 128.899 57.4598 133.109C57.0545 141.231 59.2724 150.286 61.2414 158.326L61.2415 158.326L61.2687 158.437C63.3572 166.965 65.2139 174.552 65.1301 181.156C65.0512 187.373 63.2723 191.944 58.5268 195.326C54.9653 197.865 51.5596 197.818 47.56 195.795C43.1737 193.575 38.5674 189.112 34.2101 183.553C29.9353 178.099 26.2831 172.091 23.6783 167.386C22.3834 165.047 21.364 163.061 20.6725 161.668C20.327 160.972 20.0642 160.426 19.8905 160.06C19.8037 159.878 19.7393 159.74 19.698 159.651L19.6537 159.555L19.6447 159.536L19.6439 159.534C19.6443 159.535 19.6447 159.536 14.1852 162.024Z" fill="white"/>
</svg>
