<svg width="608" height="1217" viewBox="0 0 608 1217" fill="none" xmlns="http://www.w3.org/2000/svg">
<mask id="mask0_105_25665" style="mask-type:alpha" maskUnits="userSpaceOnUse" x="-533" y="76" width="1065" height="1065">
<rect width="752.476" height="752.476" transform="matrix(-0.72913 -0.684376 -0.684376 0.72913 531.324 591.791)" fill="white"/>
</mask>
<g mask="url(#mask0_105_25665)">
<circle cx="5" cy="5" r="5" transform="matrix(-0.98248 -0.18637 -0.18637 0.98248 529.076 104.496)" fill="#1D1E1D"/>
<circle cx="5" cy="5" r="5" transform="matrix(-0.98248 -0.18637 -0.18637 0.98248 499.602 98.9052)" fill="#1D1E1D"/>
<circle cx="5" cy="5" r="5" transform="matrix(-0.98248 -0.18637 -0.18637 0.98248 470.127 93.314)" fill="#1D1E1D"/>
<circle cx="5" cy="5" r="5" transform="matrix(-0.98248 -0.18637 -0.18637 0.98248 440.653 87.7229)" fill="#1D1E1D"/>
<circle cx="5" cy="5" r="5" transform="matrix(-0.98248 -0.18637 -0.18637 0.98248 411.178 82.1318)" fill="#1D1E1D"/>
<circle cx="5" cy="5" r="5" transform="matrix(-0.98248 -0.18637 -0.18637 0.98248 381.704 76.5407)" fill="#1D1E1D"/>
<circle cx="5" cy="5" r="5" transform="matrix(-0.98248 -0.18637 -0.18637 0.98248 352.23 70.9496)" fill="#1D1E1D"/>
<circle cx="5" cy="5" r="5" transform="matrix(-0.98248 -0.18637 -0.18637 0.98248 523.485 133.971)" fill="#1D1E1D"/>
<circle cx="5" cy="5" r="5" transform="matrix(-0.98248 -0.18637 -0.18637 0.98248 494.01 128.38)" fill="#1D1E1D"/>
<circle cx="5" cy="5" r="5" transform="matrix(-0.98248 -0.18637 -0.18637 0.98248 464.536 122.788)" fill="#1D1E1D"/>
<circle cx="5" cy="5" r="5" transform="matrix(-0.98248 -0.18637 -0.18637 0.98248 435.062 117.197)" fill="#1D1E1D"/>
<circle cx="5" cy="5" r="5" transform="matrix(-0.98248 -0.18637 -0.18637 0.98248 405.587 111.606)" fill="#1D1E1D"/>
<circle cx="5" cy="5" r="5" transform="matrix(-0.98248 -0.18637 -0.18637 0.98248 376.113 106.015)" fill="#1D1E1D"/>
<circle cx="5" cy="5" r="5" transform="matrix(-0.98248 -0.18637 -0.18637 0.98248 346.639 100.424)" fill="#1D1E1D"/>
<circle cx="5" cy="5" r="5" transform="matrix(-0.98248 -0.18637 -0.18637 0.98248 317.164 94.8329)" fill="#1D1E1D"/>
<circle cx="5" cy="5" r="5" transform="matrix(-0.98248 -0.18637 -0.18637 0.98248 287.69 89.2417)" fill="#1D1E1D"/>
<circle cx="5" cy="5" r="5" transform="matrix(-0.98248 -0.18637 -0.18637 0.98248 258.215 83.6506)" fill="#1D1E1D"/>
<circle cx="5" cy="5" r="5" transform="matrix(-0.98248 -0.18637 -0.18637 0.98248 228.741 78.0595)" fill="#1D1E1D"/>
<circle cx="5" cy="5" r="5" transform="matrix(-0.98248 -0.18637 -0.18637 0.98248 199.267 72.4684)" fill="#1D1E1D"/>
<circle cx="5" cy="5" r="5" transform="matrix(-0.98248 -0.18637 -0.18637 0.98248 517.894 163.445)" fill="#1D1E1D"/>
<circle cx="5" cy="5" r="5" transform="matrix(-0.98248 -0.18637 -0.18637 0.98248 488.419 157.854)" fill="#1D1E1D"/>
<circle cx="5" cy="5" r="5" transform="matrix(-0.98248 -0.18637 -0.18637 0.98248 458.945 152.263)" fill="#1D1E1D"/>
<circle cx="5" cy="5" r="5" transform="matrix(-0.98248 -0.18637 -0.18637 0.98248 429.471 146.672)" fill="#1D1E1D"/>
<circle cx="5" cy="5" r="5" transform="matrix(-0.98248 -0.18637 -0.18637 0.98248 399.996 141.081)" fill="#1D1E1D"/>
<circle cx="5" cy="5" r="5" transform="matrix(-0.98248 -0.18637 -0.18637 0.98248 370.522 135.489)" fill="#1D1E1D"/>
<circle cx="5" cy="5" r="5" transform="matrix(-0.98248 -0.18637 -0.18637 0.98248 341.047 129.898)" fill="#1D1E1D"/>
<circle cx="5" cy="5" r="5" transform="matrix(-0.98248 -0.18637 -0.18637 0.98248 311.573 124.307)" fill="#1D1E1D"/>
<circle cx="5" cy="5" r="5" transform="matrix(-0.98248 -0.18637 -0.18637 0.98248 282.099 118.716)" fill="#1D1E1D"/>
<circle cx="5" cy="5" r="5" transform="matrix(-0.98248 -0.18637 -0.18637 0.98248 252.624 113.125)" fill="#1D1E1D"/>
<circle cx="5" cy="5" r="5" transform="matrix(-0.98248 -0.18637 -0.18637 0.98248 223.15 107.534)" fill="#1D1E1D"/>
<circle cx="5" cy="5" r="5" transform="matrix(-0.98248 -0.18637 -0.18637 0.98248 193.676 101.943)" fill="#1D1E1D"/>
<circle cx="5" cy="5" r="5" transform="matrix(-0.98248 -0.18637 -0.18637 0.98248 164.201 96.3517)" fill="#1D1E1D"/>
<circle cx="5" cy="5" r="5" transform="matrix(-0.98248 -0.18637 -0.18637 0.98248 134.727 90.7605)" fill="#1D1E1D"/>
<circle cx="5" cy="5" r="5" transform="matrix(-0.98248 -0.18637 -0.18637 0.98248 105.252 85.1694)" fill="#1D1E1D"/>
<circle cx="5" cy="5" r="5" transform="matrix(-0.98248 -0.18637 -0.18637 0.98248 75.7781 79.5783)" fill="#1D1E1D"/>
<circle cx="5" cy="5" r="5" transform="matrix(-0.98248 -0.18637 -0.18637 0.98248 46.3037 73.9872)" fill="#1D1E1D"/>
<circle cx="5" cy="5" r="5" transform="matrix(-0.98248 -0.18637 -0.18637 0.98248 16.8291 68.3961)" fill="#1D1E1D"/>
<circle cx="5" cy="5" r="5" transform="matrix(-0.98248 -0.18637 -0.18637 0.98248 541.777 198.511)" fill="#1D1E1D"/>
<circle cx="5" cy="5" r="5" transform="matrix(-0.98248 -0.18637 -0.18637 0.98248 512.303 192.919)" fill="#1D1E1D"/>
<circle cx="5" cy="5" r="5" transform="matrix(-0.98248 -0.18637 -0.18637 0.98248 482.828 187.328)" fill="#1D1E1D"/>
<circle cx="5" cy="5" r="5" transform="matrix(-0.98248 -0.18637 -0.18637 0.98248 453.354 181.737)" fill="#1D1E1D"/>
<circle cx="5" cy="5" r="5" transform="matrix(-0.98248 -0.18637 -0.18637 0.98248 423.879 176.146)" fill="#1D1E1D"/>
<circle cx="5" cy="5" r="5" transform="matrix(-0.98248 -0.18637 -0.18637 0.98248 394.405 170.555)" fill="#1D1E1D"/>
<circle cx="5" cy="5" r="5" transform="matrix(-0.98248 -0.18637 -0.18637 0.98248 364.931 164.964)" fill="#1D1E1D"/>
<circle cx="5" cy="5" r="5" transform="matrix(-0.98248 -0.18637 -0.18637 0.98248 335.456 159.373)" fill="#1D1E1D"/>
<circle cx="5" cy="5" r="5" transform="matrix(-0.98248 -0.18637 -0.18637 0.98248 305.982 153.782)" fill="#1D1E1D"/>
<circle cx="5" cy="5" r="5" transform="matrix(-0.98248 -0.18637 -0.18637 0.98248 276.508 148.19)" fill="#1D1E1D"/>
<circle cx="5" cy="5" r="5" transform="matrix(-0.98248 -0.18637 -0.18637 0.98248 247.033 142.599)" fill="#1D1E1D"/>
<circle cx="5" cy="5" r="5" transform="matrix(-0.98248 -0.18637 -0.18637 0.98248 217.559 137.008)" fill="#1D1E1D"/>
<circle cx="5" cy="5" r="5" transform="matrix(-0.98248 -0.18637 -0.18637 0.98248 188.084 131.417)" fill="#1D1E1D"/>
<circle cx="5" cy="5" r="5" transform="matrix(-0.98248 -0.18637 -0.18637 0.98248 158.61 125.826)" fill="#1D1E1D"/>
<circle cx="5" cy="5" r="5" transform="matrix(-0.98248 -0.18637 -0.18637 0.98248 129.136 120.235)" fill="#1D1E1D"/>
<circle cx="5" cy="5" r="5" transform="matrix(-0.98248 -0.18637 -0.18637 0.98248 99.6611 114.644)" fill="#1D1E1D"/>
<circle cx="5" cy="5" r="5" transform="matrix(-0.98248 -0.18637 -0.18637 0.98248 70.1868 109.053)" fill="#1D1E1D"/>
<circle cx="5" cy="5" r="5" transform="matrix(-0.98248 -0.18637 -0.18637 0.98248 40.7124 103.462)" fill="#1D1E1D"/>
<circle cx="5" cy="5" r="5" transform="matrix(-0.98248 -0.18637 -0.18637 0.98248 11.238 97.8705)" fill="#1D1E1D"/>
<circle cx="5" cy="5" r="5" transform="matrix(-0.98248 -0.18637 -0.18637 0.98248 536.186 227.985)" fill="#1D1E1D"/>
<circle cx="5" cy="5" r="5" transform="matrix(-0.98248 -0.18637 -0.18637 0.98248 506.712 222.394)" fill="#1D1E1D"/>
<circle cx="5" cy="5" r="5" transform="matrix(-0.98248 -0.18637 -0.18637 0.98248 477.237 216.803)" fill="#1D1E1D"/>
<circle cx="5" cy="5" r="5" transform="matrix(-0.98248 -0.18637 -0.18637 0.98248 447.763 211.212)" fill="#1D1E1D"/>
<circle cx="5" cy="5" r="5" transform="matrix(-0.98248 -0.18637 -0.18637 0.98248 418.288 205.62)" fill="#1D1E1D"/>
<circle cx="5" cy="5" r="5" transform="matrix(-0.98248 -0.18637 -0.18637 0.98248 388.814 200.029)" fill="#1D1E1D"/>
<circle cx="5" cy="5" r="5" transform="matrix(-0.98248 -0.18637 -0.18637 0.98248 359.34 194.438)" fill="#1D1E1D"/>
<circle cx="5" cy="5" r="5" transform="matrix(-0.98248 -0.18637 -0.18637 0.98248 329.865 188.847)" fill="#1D1E1D"/>
<circle cx="5" cy="5" r="5" transform="matrix(-0.98248 -0.18637 -0.18637 0.98248 300.391 183.256)" fill="#1D1E1D"/>
<circle cx="5" cy="5" r="5" transform="matrix(-0.98248 -0.18637 -0.18637 0.98248 270.917 177.665)" fill="#1D1E1D"/>
<circle cx="5" cy="5" r="5" transform="matrix(-0.98248 -0.18637 -0.18637 0.98248 241.442 172.074)" fill="#1D1E1D"/>
<circle cx="5" cy="5" r="5" transform="matrix(-0.98248 -0.18637 -0.18637 0.98248 211.968 166.483)" fill="#1D1E1D"/>
<circle cx="5" cy="5" r="5" transform="matrix(-0.98248 -0.18637 -0.18637 0.98248 182.493 160.892)" fill="#1D1E1D"/>
<circle cx="5" cy="5" r="5" transform="matrix(-0.98248 -0.18637 -0.18637 0.98248 153.019 155.3)" fill="#1D1E1D"/>
<circle cx="5" cy="5" r="5" transform="matrix(-0.98248 -0.18637 -0.18637 0.98248 123.544 149.709)" fill="#1D1E1D"/>
<circle cx="5" cy="5" r="5" transform="matrix(-0.98248 -0.18637 -0.18637 0.98248 94.0701 144.118)" fill="#1D1E1D"/>
<circle cx="5" cy="5" r="5" transform="matrix(-0.98248 -0.18637 -0.18637 0.98248 64.5957 138.527)" fill="#1D1E1D"/>
<circle cx="5" cy="5" r="5" transform="matrix(-0.98248 -0.18637 -0.18637 0.98248 35.1213 132.936)" fill="#1D1E1D"/>
<circle cx="5" cy="5" r="5" transform="matrix(-0.98248 -0.18637 -0.18637 0.98248 5.64697 127.345)" fill="#1D1E1D"/>
<circle cx="5" cy="5" r="5" transform="matrix(-0.98248 -0.18637 -0.18637 0.98248 530.595 257.459)" fill="#1D1E1D"/>
<circle cx="5" cy="5" r="5" transform="matrix(-0.98248 -0.18637 -0.18637 0.98248 501.12 251.868)" fill="#1D1E1D"/>
<circle cx="5" cy="5" r="5" transform="matrix(-0.98248 -0.18637 -0.18637 0.98248 471.646 246.277)" fill="#1D1E1D"/>
<circle cx="5" cy="5" r="5" transform="matrix(-0.98248 -0.18637 -0.18637 0.98248 442.172 240.686)" fill="#1D1E1D"/>
<circle cx="5" cy="5" r="5" transform="matrix(-0.98248 -0.18637 -0.18637 0.98248 412.697 235.095)" fill="#1D1E1D"/>
<circle cx="5" cy="5" r="5" transform="matrix(-0.98248 -0.18637 -0.18637 0.98248 383.223 229.504)" fill="#1D1E1D"/>
<circle cx="5" cy="5" r="5" transform="matrix(-0.98248 -0.18637 -0.18637 0.98248 353.749 223.913)" fill="#1D1E1D"/>
<circle cx="5" cy="5" r="5" transform="matrix(-0.98248 -0.18637 -0.18637 0.98248 324.274 218.322)" fill="#1D1E1D"/>
<circle cx="5" cy="5" r="5" transform="matrix(-0.98248 -0.18637 -0.18637 0.98248 294.8 212.73)" fill="#1D1E1D"/>
<circle cx="5" cy="5" r="5" transform="matrix(-0.98248 -0.18637 -0.18637 0.98248 265.325 207.139)" fill="#1D1E1D"/>
<circle cx="5" cy="5" r="5" transform="matrix(-0.98248 -0.18637 -0.18637 0.98248 235.851 201.548)" fill="#1D1E1D"/>
<circle cx="5" cy="5" r="5" transform="matrix(-0.98248 -0.18637 -0.18637 0.98248 206.376 195.957)" fill="#1D1E1D"/>
<circle cx="5" cy="5" r="5" transform="matrix(-0.98248 -0.18637 -0.18637 0.98248 176.902 190.366)" fill="#1D1E1D"/>
<circle cx="5" cy="5" r="5" transform="matrix(-0.98248 -0.18637 -0.18637 0.98248 147.428 184.775)" fill="#1D1E1D"/>
<circle cx="5" cy="5" r="5" transform="matrix(-0.98248 -0.18637 -0.18637 0.98248 117.953 179.184)" fill="#1D1E1D"/>
<circle cx="5" cy="5" r="5" transform="matrix(-0.98248 -0.18637 -0.18637 0.98248 88.479 173.593)" fill="#1D1E1D"/>
<circle cx="5" cy="5" r="5" transform="matrix(-0.98248 -0.18637 -0.18637 0.98248 59.0046 168.001)" fill="#1D1E1D"/>
<circle cx="5" cy="5" r="5" transform="matrix(-0.98248 -0.18637 -0.18637 0.98248 29.5303 162.41)" fill="#1D1E1D"/>
<circle cx="5" cy="5" r="5" transform="matrix(-0.98248 -0.18637 -0.18637 0.98248 0.0559082 156.819)" fill="#1D1E1D"/>
<circle cx="5" cy="5" r="5" transform="matrix(-0.98248 -0.18637 -0.18637 0.98248 525.004 286.934)" fill="#1D1E1D"/>
<circle cx="5" cy="5" r="5" transform="matrix(-0.98248 -0.18637 -0.18637 0.98248 495.529 281.343)" fill="#1D1E1D"/>
<circle cx="5" cy="5" r="5" transform="matrix(-0.98248 -0.18637 -0.18637 0.98248 466.055 275.751)" fill="#1D1E1D"/>
<circle cx="5" cy="5" r="5" transform="matrix(-0.98248 -0.18637 -0.18637 0.98248 436.581 270.16)" fill="#1D1E1D"/>
<circle cx="5" cy="5" r="5" transform="matrix(-0.98248 -0.18637 -0.18637 0.98248 407.106 264.569)" fill="#1D1E1D"/>
<circle cx="5" cy="5" r="5" transform="matrix(-0.98248 -0.18637 -0.18637 0.98248 377.632 258.978)" fill="#1D1E1D"/>
<circle cx="5" cy="5" r="5" transform="matrix(-0.98248 -0.18637 -0.18637 0.98248 348.157 253.387)" fill="#1D1E1D"/>
<circle cx="5" cy="5" r="5" transform="matrix(-0.98248 -0.18637 -0.18637 0.98248 318.683 247.796)" fill="#1D1E1D"/>
<circle cx="5" cy="5" r="5" transform="matrix(-0.98248 -0.18637 -0.18637 0.98248 289.209 242.205)" fill="#1D1E1D"/>
<circle cx="5" cy="5" r="5" transform="matrix(-0.98248 -0.18637 -0.18637 0.98248 259.734 236.614)" fill="#1D1E1D"/>
<circle cx="5" cy="5" r="5" transform="matrix(-0.98248 -0.18637 -0.18637 0.98248 230.26 231.023)" fill="#1D1E1D"/>
<circle cx="5" cy="5" r="5" transform="matrix(-0.98248 -0.18637 -0.18637 0.98248 200.785 225.431)" fill="#1D1E1D"/>
<circle cx="5" cy="5" r="5" transform="matrix(-0.98248 -0.18637 -0.18637 0.98248 171.311 219.84)" fill="#1D1E1D"/>
<circle cx="5" cy="5" r="5" transform="matrix(-0.98248 -0.18637 -0.18637 0.98248 141.837 214.249)" fill="#1D1E1D"/>
<circle cx="5" cy="5" r="5" transform="matrix(-0.98248 -0.18637 -0.18637 0.98248 112.362 208.658)" fill="#1D1E1D"/>
<circle cx="5" cy="5" r="5" transform="matrix(-0.98248 -0.18637 -0.18637 0.98248 82.8879 203.067)" fill="#1D1E1D"/>
<circle cx="5" cy="5" r="5" transform="matrix(-0.98248 -0.18637 -0.18637 0.98248 53.4136 197.476)" fill="#1D1E1D"/>
<circle cx="5" cy="5" r="5" transform="matrix(-0.98248 -0.18637 -0.18637 0.98248 23.9392 191.885)" fill="#1D1E1D"/>
<circle cx="5" cy="5" r="5" transform="matrix(-0.98248 -0.18637 -0.18637 0.98248 519.413 316.408)" fill="#1D1E1D"/>
<circle cx="5" cy="5" r="5" transform="matrix(-0.98248 -0.18637 -0.18637 0.98248 489.938 310.817)" fill="#1D1E1D"/>
<circle cx="5" cy="5" r="5" transform="matrix(-0.98248 -0.18637 -0.18637 0.98248 460.464 305.226)" fill="#1D1E1D"/>
<circle cx="5" cy="5" r="5" transform="matrix(-0.98248 -0.18637 -0.18637 0.98248 430.99 299.635)" fill="#1D1E1D"/>
<circle cx="5" cy="5" r="5" transform="matrix(-0.98248 -0.18637 -0.18637 0.98248 401.515 294.044)" fill="#1D1E1D"/>
<circle cx="5" cy="5" r="5" transform="matrix(-0.98248 -0.18637 -0.18637 0.98248 372.041 288.453)" fill="#1D1E1D"/>
<circle cx="5" cy="5" r="5" transform="matrix(-0.98248 -0.18637 -0.18637 0.98248 342.566 282.861)" fill="#1D1E1D"/>
<circle cx="5" cy="5" r="5" transform="matrix(-0.98248 -0.18637 -0.18637 0.98248 313.092 277.27)" fill="#1D1E1D"/>
<circle cx="5" cy="5" r="5" transform="matrix(-0.98248 -0.18637 -0.18637 0.98248 283.617 271.679)" fill="#1D1E1D"/>
<circle cx="5" cy="5" r="5" transform="matrix(-0.98248 -0.18637 -0.18637 0.98248 254.143 266.088)" fill="#1D1E1D"/>
<circle cx="5" cy="5" r="5" transform="matrix(-0.98248 -0.18637 -0.18637 0.98248 224.669 260.497)" fill="#1D1E1D"/>
<circle cx="5" cy="5" r="5" transform="matrix(-0.98248 -0.18637 -0.18637 0.98248 195.194 254.906)" fill="#1D1E1D"/>
<circle cx="5" cy="5" r="5" transform="matrix(-0.98248 -0.18637 -0.18637 0.98248 165.72 249.315)" fill="#1D1E1D"/>
<circle cx="5" cy="5" r="5" transform="matrix(-0.98248 -0.18637 -0.18637 0.98248 136.246 243.724)" fill="#1D1E1D"/>
<circle cx="5" cy="5" r="5" transform="matrix(-0.98248 -0.18637 -0.18637 0.98248 106.771 238.132)" fill="#1D1E1D"/>
<circle cx="5" cy="5" r="5" transform="matrix(-0.98248 -0.18637 -0.18637 0.98248 77.2969 232.541)" fill="#1D1E1D"/>
<circle cx="5" cy="5" r="5" transform="matrix(-0.98248 -0.18637 -0.18637 0.98248 47.8225 226.95)" fill="#1D1E1D"/>
<circle cx="5" cy="5" r="5" transform="matrix(-0.98248 -0.18637 -0.18637 0.98248 18.3479 221.359)" fill="#1D1E1D"/>
<circle cx="5" cy="5" r="5" transform="matrix(-0.98248 -0.18637 -0.18637 0.98248 513.822 345.882)" fill="#1D1E1D"/>
<circle cx="5" cy="5" r="5" transform="matrix(-0.98248 -0.18637 -0.18637 0.98248 484.347 340.291)" fill="#1D1E1D"/>
<circle cx="5" cy="5" r="5" transform="matrix(-0.98248 -0.18637 -0.18637 0.98248 454.873 334.7)" fill="#1D1E1D"/>
<circle cx="5" cy="5" r="5" transform="matrix(-0.98248 -0.18637 -0.18637 0.98248 425.398 329.109)" fill="#1D1E1D"/>
<circle cx="5" cy="5" r="5" transform="matrix(-0.98248 -0.18637 -0.18637 0.98248 395.924 323.518)" fill="#1D1E1D"/>
<circle cx="5" cy="5" r="5" transform="matrix(-0.98248 -0.18637 -0.18637 0.98248 366.449 317.927)" fill="#1D1E1D"/>
<circle cx="5" cy="5" r="5" transform="matrix(-0.98248 -0.18637 -0.18637 0.98248 336.975 312.336)" fill="#1D1E1D"/>
<circle cx="5" cy="5" r="5" transform="matrix(-0.98248 -0.18637 -0.18637 0.98248 307.501 306.745)" fill="#1D1E1D"/>
<circle cx="5" cy="5" r="5" transform="matrix(-0.98248 -0.18637 -0.18637 0.98248 278.026 301.154)" fill="#1D1E1D"/>
<circle cx="5" cy="5" r="5" transform="matrix(-0.98248 -0.18637 -0.18637 0.98248 248.552 295.562)" fill="#1D1E1D"/>
<circle cx="5" cy="5" r="5" transform="matrix(-0.98248 -0.18637 -0.18637 0.98248 219.078 289.971)" fill="#1D1E1D"/>
<circle cx="5" cy="5" r="5" transform="matrix(-0.98248 -0.18637 -0.18637 0.98248 189.603 284.38)" fill="#1D1E1D"/>
<circle cx="5" cy="5" r="5" transform="matrix(-0.98248 -0.18637 -0.18637 0.98248 160.129 278.789)" fill="#1D1E1D"/>
<circle cx="5" cy="5" r="5" transform="matrix(-0.98248 -0.18637 -0.18637 0.98248 130.655 273.198)" fill="#1D1E1D"/>
<circle cx="5" cy="5" r="5" transform="matrix(-0.98248 -0.18637 -0.18637 0.98248 101.18 267.607)" fill="#1D1E1D"/>
<circle cx="5" cy="5" r="5" transform="matrix(-0.98248 -0.18637 -0.18637 0.98248 71.7056 262.016)" fill="#1D1E1D"/>
<circle cx="5" cy="5" r="5" transform="matrix(-0.98248 -0.18637 -0.18637 0.98248 42.2312 256.425)" fill="#1D1E1D"/>
<circle cx="5" cy="5" r="5" transform="matrix(-0.98248 -0.18637 -0.18637 0.98248 12.7568 250.834)" fill="#1D1E1D"/>
<circle cx="5" cy="5" r="5" transform="matrix(-0.98248 -0.18637 -0.18637 0.98248 537.705 380.948)" fill="#1D1E1D"/>
<circle cx="5" cy="5" r="5" transform="matrix(-0.98248 -0.18637 -0.18637 0.98248 508.23 375.357)" fill="#1D1E1D"/>
<circle cx="5" cy="5" r="5" transform="matrix(-0.98248 -0.18637 -0.18637 0.98248 478.756 369.766)" fill="#1D1E1D"/>
<circle cx="5" cy="5" r="5" transform="matrix(-0.98248 -0.18637 -0.18637 0.98248 449.281 364.175)" fill="#1D1E1D"/>
<circle cx="5" cy="5" r="5" transform="matrix(-0.98248 -0.18637 -0.18637 0.98248 419.807 358.583)" fill="#1D1E1D"/>
<circle cx="5" cy="5" r="5" transform="matrix(-0.98248 -0.18637 -0.18637 0.98248 390.333 352.992)" fill="#1D1E1D"/>
<circle cx="5" cy="5" r="5" transform="matrix(-0.98248 -0.18637 -0.18637 0.98248 360.858 347.401)" fill="#1D1E1D"/>
<circle cx="5" cy="5" r="5" transform="matrix(-0.98248 -0.18637 -0.18637 0.98248 331.384 341.81)" fill="#1D1E1D"/>
<circle cx="5" cy="5" r="5" transform="matrix(-0.98248 -0.18637 -0.18637 0.98248 301.91 336.219)" fill="#1D1E1D"/>
<circle cx="5" cy="5" r="5" transform="matrix(-0.98248 -0.18637 -0.18637 0.98248 272.435 330.628)" fill="#1D1E1D"/>
<circle cx="5" cy="5" r="5" transform="matrix(-0.98248 -0.18637 -0.18637 0.98248 242.961 325.037)" fill="#1D1E1D"/>
<circle cx="5" cy="5" r="5" transform="matrix(-0.98248 -0.18637 -0.18637 0.98248 213.487 319.446)" fill="#1D1E1D"/>
<circle cx="5" cy="5" r="5" transform="matrix(-0.98248 -0.18637 -0.18637 0.98248 184.012 313.855)" fill="#1D1E1D"/>
<circle cx="5" cy="5" r="5" transform="matrix(-0.98248 -0.18637 -0.18637 0.98248 154.538 308.263)" fill="#1D1E1D"/>
<circle cx="5" cy="5" r="5" transform="matrix(-0.98248 -0.18637 -0.18637 0.98248 125.063 302.672)" fill="#1D1E1D"/>
<circle cx="5" cy="5" r="5" transform="matrix(-0.98248 -0.18637 -0.18637 0.98248 95.5889 297.081)" fill="#1D1E1D"/>
<circle cx="5" cy="5" r="5" transform="matrix(-0.98248 -0.18637 -0.18637 0.98248 66.1145 291.49)" fill="#1D1E1D"/>
<circle cx="5" cy="5" r="5" transform="matrix(-0.98248 -0.18637 -0.18637 0.98248 36.6401 285.899)" fill="#1D1E1D"/>
<circle cx="5" cy="5" r="5" transform="matrix(-0.98248 -0.18637 -0.18637 0.98248 7.16577 280.308)" fill="#1D1E1D"/>
<circle cx="5" cy="5" r="5" transform="matrix(-0.98248 -0.18637 -0.18637 0.98248 532.114 410.422)" fill="#1D1E1D"/>
<circle cx="5" cy="5" r="5" transform="matrix(-0.98248 -0.18637 -0.18637 0.98248 502.639 404.831)" fill="#1D1E1D"/>
<circle cx="5" cy="5" r="5" transform="matrix(-0.98248 -0.18637 -0.18637 0.98248 473.165 399.24)" fill="#1D1E1D"/>
<circle cx="5" cy="5" r="5" transform="matrix(-0.98248 -0.18637 -0.18637 0.98248 443.69 393.649)" fill="#1D1E1D"/>
<circle cx="5" cy="5" r="5" transform="matrix(-0.98248 -0.18637 -0.18637 0.98248 414.216 388.058)" fill="#1D1E1D"/>
<circle cx="5" cy="5" r="5" transform="matrix(-0.98248 -0.18637 -0.18637 0.98248 384.742 382.467)" fill="#1D1E1D"/>
<circle cx="5" cy="5" r="5" transform="matrix(-0.98248 -0.18637 -0.18637 0.98248 355.267 376.876)" fill="#1D1E1D"/>
<circle cx="5" cy="5" r="5" transform="matrix(-0.98248 -0.18637 -0.18637 0.98248 325.793 371.285)" fill="#1D1E1D"/>
<circle cx="5" cy="5" r="5" transform="matrix(-0.98248 -0.18637 -0.18637 0.98248 296.319 365.693)" fill="#1D1E1D"/>
<circle cx="5" cy="5" r="5" transform="matrix(-0.98248 -0.18637 -0.18637 0.98248 266.844 360.102)" fill="#1D1E1D"/>
<circle cx="5" cy="5" r="5" transform="matrix(-0.98248 -0.18637 -0.18637 0.98248 237.37 354.511)" fill="#1D1E1D"/>
<circle cx="5" cy="5" r="5" transform="matrix(-0.98248 -0.18637 -0.18637 0.98248 207.896 348.92)" fill="#1D1E1D"/>
<circle cx="5" cy="5" r="5" transform="matrix(-0.98248 -0.18637 -0.18637 0.98248 178.421 343.329)" fill="#1D1E1D"/>
<circle cx="5" cy="5" r="5" transform="matrix(-0.98248 -0.18637 -0.18637 0.98248 148.947 337.738)" fill="#1D1E1D"/>
<circle cx="5" cy="5" r="5" transform="matrix(-0.98248 -0.18637 -0.18637 0.98248 119.472 332.147)" fill="#1D1E1D"/>
<circle cx="5" cy="5" r="5" transform="matrix(-0.98248 -0.18637 -0.18637 0.98248 89.9978 326.556)" fill="#1D1E1D"/>
<circle cx="5" cy="5" r="5" transform="matrix(-0.98248 -0.18637 -0.18637 0.98248 60.5234 320.965)" fill="#1D1E1D"/>
<circle cx="5" cy="5" r="5" transform="matrix(-0.98248 -0.18637 -0.18637 0.98248 31.0491 315.373)" fill="#1D1E1D"/>
<circle cx="5" cy="5" r="5" transform="matrix(-0.98248 -0.18637 -0.18637 0.98248 1.57471 309.782)" fill="#1D1E1D"/>
<circle cx="5" cy="5" r="5" transform="matrix(-0.98248 -0.18637 -0.18637 0.98248 526.522 439.897)" fill="#1D1E1D"/>
<circle cx="5" cy="5" r="5" transform="matrix(-0.98248 -0.18637 -0.18637 0.98248 497.048 434.306)" fill="#1D1E1D"/>
<circle cx="5" cy="5" r="5" transform="matrix(-0.98248 -0.18637 -0.18637 0.98248 467.574 428.715)" fill="#1D1E1D"/>
<circle cx="5" cy="5" r="5" transform="matrix(-0.98248 -0.18637 -0.18637 0.98248 438.099 423.123)" fill="#1D1E1D"/>
<circle cx="5" cy="5" r="5" transform="matrix(-0.98248 -0.18637 -0.18637 0.98248 408.625 417.532)" fill="#1D1E1D"/>
<circle cx="5" cy="5" r="5" transform="matrix(-0.98248 -0.18637 -0.18637 0.98248 379.151 411.941)" fill="#1D1E1D"/>
<circle cx="5" cy="5" r="5" transform="matrix(-0.98248 -0.18637 -0.18637 0.98248 349.676 406.35)" fill="#1D1E1D"/>
<circle cx="5" cy="5" r="5" transform="matrix(-0.98248 -0.18637 -0.18637 0.98248 320.202 400.759)" fill="#1D1E1D"/>
<circle cx="5" cy="5" r="5" transform="matrix(-0.98248 -0.18637 -0.18637 0.98248 290.728 395.168)" fill="#1D1E1D"/>
<circle cx="5" cy="5" r="5" transform="matrix(-0.98248 -0.18637 -0.18637 0.98248 261.253 389.577)" fill="#1D1E1D"/>
<circle cx="5" cy="5" r="5" transform="matrix(-0.98248 -0.18637 -0.18637 0.98248 231.779 383.986)" fill="#1D1E1D"/>
<circle cx="5" cy="5" r="5" transform="matrix(-0.98248 -0.18637 -0.18637 0.98248 202.304 378.394)" fill="#1D1E1D"/>
<circle cx="5" cy="5" r="5" transform="matrix(-0.98248 -0.18637 -0.18637 0.98248 172.83 372.803)" fill="#1D1E1D"/>
<circle cx="5" cy="5" r="5" transform="matrix(-0.98248 -0.18637 -0.18637 0.98248 143.355 367.212)" fill="#1D1E1D"/>
<circle cx="5" cy="5" r="5" transform="matrix(-0.98248 -0.18637 -0.18637 0.98248 113.881 361.621)" fill="#1D1E1D"/>
<circle cx="5" cy="5" r="5" transform="matrix(-0.98248 -0.18637 -0.18637 0.98248 84.4067 356.03)" fill="#1D1E1D"/>
<circle cx="5" cy="5" r="5" transform="matrix(-0.98248 -0.18637 -0.18637 0.98248 54.9324 350.439)" fill="#1D1E1D"/>
<circle cx="5" cy="5" r="5" transform="matrix(-0.98248 -0.18637 -0.18637 0.98248 25.458 344.848)" fill="#1D1E1D"/>
<circle cx="5" cy="5" r="5" transform="matrix(-0.98248 -0.18637 -0.18637 0.98248 520.931 469.371)" fill="#1D1E1D"/>
<circle cx="5" cy="5" r="5" transform="matrix(-0.98248 -0.18637 -0.18637 0.98248 491.457 463.78)" fill="#1D1E1D"/>
<circle cx="5" cy="5" r="5" transform="matrix(-0.98248 -0.18637 -0.18637 0.98248 461.983 458.189)" fill="#1D1E1D"/>
<circle cx="5" cy="5" r="5" transform="matrix(-0.98248 -0.18637 -0.18637 0.98248 432.508 452.598)" fill="#1D1E1D"/>
<circle cx="5" cy="5" r="5" transform="matrix(-0.98248 -0.18637 -0.18637 0.98248 403.034 447.007)" fill="#1D1E1D"/>
<circle cx="5" cy="5" r="5" transform="matrix(-0.98248 -0.18637 -0.18637 0.98248 373.56 441.416)" fill="#1D1E1D"/>
<circle cx="5" cy="5" r="5" transform="matrix(-0.98248 -0.18637 -0.18637 0.98248 344.085 435.824)" fill="#1D1E1D"/>
<circle cx="5" cy="5" r="5" transform="matrix(-0.98248 -0.18637 -0.18637 0.98248 314.611 430.233)" fill="#1D1E1D"/>
<circle cx="5" cy="5" r="5" transform="matrix(-0.98248 -0.18637 -0.18637 0.98248 285.136 424.642)" fill="#1D1E1D"/>
<circle cx="5" cy="5" r="5" transform="matrix(-0.98248 -0.18637 -0.18637 0.98248 255.662 419.051)" fill="#1D1E1D"/>
<circle cx="5" cy="5" r="5" transform="matrix(-0.98248 -0.18637 -0.18637 0.98248 226.188 413.46)" fill="#1D1E1D"/>
<circle cx="5" cy="5" r="5" transform="matrix(-0.98248 -0.18637 -0.18637 0.98248 196.713 407.869)" fill="#1D1E1D"/>
<circle cx="5" cy="5" r="5" transform="matrix(-0.98248 -0.18637 -0.18637 0.98248 167.239 402.278)" fill="#1D1E1D"/>
<circle cx="5" cy="5" r="5" transform="matrix(-0.98248 -0.18637 -0.18637 0.98248 137.764 396.687)" fill="#1D1E1D"/>
<circle cx="5" cy="5" r="5" transform="matrix(-0.98248 -0.18637 -0.18637 0.98248 108.29 391.096)" fill="#1D1E1D"/>
<circle cx="5" cy="5" r="5" transform="matrix(-0.98248 -0.18637 -0.18637 0.98248 78.8157 385.504)" fill="#1D1E1D"/>
<circle cx="5" cy="5" r="5" transform="matrix(-0.98248 -0.18637 -0.18637 0.98248 49.3413 379.913)" fill="#1D1E1D"/>
<circle cx="5" cy="5" r="5" transform="matrix(-0.98248 -0.18637 -0.18637 0.98248 19.8669 374.322)" fill="#1D1E1D"/>
<circle cx="5" cy="5" r="5" transform="matrix(-0.98248 -0.18637 -0.18637 0.98248 515.34 498.846)" fill="#1D1E1D"/>
<circle cx="5" cy="5" r="5" transform="matrix(-0.98248 -0.18637 -0.18637 0.98248 485.866 493.254)" fill="#1D1E1D"/>
<circle cx="5" cy="5" r="5" transform="matrix(-0.98248 -0.18637 -0.18637 0.98248 456.392 487.663)" fill="#1D1E1D"/>
<circle cx="5" cy="5" r="5" transform="matrix(-0.98248 -0.18637 -0.18637 0.98248 426.917 482.072)" fill="#1D1E1D"/>
<circle cx="5" cy="5" r="5" transform="matrix(-0.98248 -0.18637 -0.18637 0.98248 397.443 476.481)" fill="#1D1E1D"/>
<circle cx="5" cy="5" r="5" transform="matrix(-0.98248 -0.18637 -0.18637 0.98248 367.968 470.89)" fill="#1D1E1D"/>
<circle cx="5" cy="5" r="5" transform="matrix(-0.98248 -0.18637 -0.18637 0.98248 338.494 465.299)" fill="#1D1E1D"/>
<circle cx="5" cy="5" r="5" transform="matrix(-0.98248 -0.18637 -0.18637 0.98248 309.02 459.708)" fill="#1D1E1D"/>
<circle cx="5" cy="5" r="5" transform="matrix(-0.98248 -0.18637 -0.18637 0.98248 279.545 454.117)" fill="#1D1E1D"/>
<circle cx="5" cy="5" r="5" transform="matrix(-0.98248 -0.18637 -0.18637 0.98248 250.071 448.526)" fill="#1D1E1D"/>
<circle cx="5" cy="5" r="5" transform="matrix(-0.98248 -0.18637 -0.18637 0.98248 220.596 442.934)" fill="#1D1E1D"/>
<circle cx="5" cy="5" r="5" transform="matrix(-0.98248 -0.18637 -0.18637 0.98248 191.122 437.343)" fill="#1D1E1D"/>
<circle cx="5" cy="5" r="5" transform="matrix(-0.98248 -0.18637 -0.18637 0.98248 161.648 431.752)" fill="#1D1E1D"/>
<circle cx="5" cy="5" r="5" transform="matrix(-0.98248 -0.18637 -0.18637 0.98248 132.173 426.161)" fill="#1D1E1D"/>
<circle cx="5" cy="5" r="5" transform="matrix(-0.98248 -0.18637 -0.18637 0.98248 102.699 420.57)" fill="#1D1E1D"/>
<circle cx="5" cy="5" r="5" transform="matrix(-0.98248 -0.18637 -0.18637 0.98248 73.2246 414.979)" fill="#1D1E1D"/>
<circle cx="5" cy="5" r="5" transform="matrix(-0.98248 -0.18637 -0.18637 0.98248 43.75 409.388)" fill="#1D1E1D"/>
<circle cx="5" cy="5" r="5" transform="matrix(-0.98248 -0.18637 -0.18637 0.98248 14.2756 403.797)" fill="#1D1E1D"/>
<circle cx="5" cy="5" r="5" transform="matrix(-0.98248 -0.18637 -0.18637 0.98248 539.224 533.911)" fill="#1D1E1D"/>
<circle cx="5" cy="5" r="5" transform="matrix(-0.98248 -0.18637 -0.18637 0.98248 509.749 528.32)" fill="#1D1E1D"/>
<circle cx="5" cy="5" r="5" transform="matrix(-0.98248 -0.18637 -0.18637 0.98248 480.275 522.729)" fill="#1D1E1D"/>
<circle cx="5" cy="5" r="5" transform="matrix(-0.98248 -0.18637 -0.18637 0.98248 450.8 517.138)" fill="#1D1E1D"/>
<circle cx="5" cy="5" r="5" transform="matrix(-0.98248 -0.18637 -0.18637 0.98248 421.326 511.547)" fill="#1D1E1D"/>
<circle cx="5" cy="5" r="5" transform="matrix(-0.98248 -0.18637 -0.18637 0.98248 391.852 505.955)" fill="#1D1E1D"/>
<circle cx="5" cy="5" r="5" transform="matrix(-0.98248 -0.18637 -0.18637 0.98248 362.377 500.364)" fill="#1D1E1D"/>
<circle cx="5" cy="5" r="5" transform="matrix(-0.98248 -0.18637 -0.18637 0.98248 332.903 494.773)" fill="#1D1E1D"/>
<circle cx="5" cy="5" r="5" transform="matrix(-0.98248 -0.18637 -0.18637 0.98248 303.428 489.182)" fill="#1D1E1D"/>
<circle cx="5" cy="5" r="5" transform="matrix(-0.98248 -0.18637 -0.18637 0.98248 273.954 483.591)" fill="#1D1E1D"/>
<circle cx="5" cy="5" r="5" transform="matrix(-0.98248 -0.18637 -0.18637 0.98248 244.48 478)" fill="#1D1E1D"/>
<circle cx="5" cy="5" r="5" transform="matrix(-0.98248 -0.18637 -0.18637 0.98248 215.005 472.409)" fill="#1D1E1D"/>
<circle cx="5" cy="5" r="5" transform="matrix(-0.98248 -0.18637 -0.18637 0.98248 185.531 466.818)" fill="#1D1E1D"/>
<circle cx="5" cy="5" r="5" transform="matrix(-0.98248 -0.18637 -0.18637 0.98248 156.057 461.227)" fill="#1D1E1D"/>
<circle cx="5" cy="5" r="5" transform="matrix(-0.98248 -0.18637 -0.18637 0.98248 126.582 455.635)" fill="#1D1E1D"/>
<circle cx="5" cy="5" r="5" transform="matrix(-0.98248 -0.18637 -0.18637 0.98248 97.1077 450.044)" fill="#1D1E1D"/>
<circle cx="5" cy="5" r="5" transform="matrix(-0.98248 -0.18637 -0.18637 0.98248 67.6333 444.453)" fill="#1D1E1D"/>
<circle cx="5" cy="5" r="5" transform="matrix(-0.98248 -0.18637 -0.18637 0.98248 38.1589 438.862)" fill="#1D1E1D"/>
<circle cx="5" cy="5" r="5" transform="matrix(-0.98248 -0.18637 -0.18637 0.98248 8.68457 433.271)" fill="#1D1E1D"/>
<circle cx="5" cy="5" r="5" transform="matrix(-0.98248 -0.18637 -0.18637 0.98248 533.633 563.385)" fill="#1D1E1D"/>
<circle cx="5" cy="5" r="5" transform="matrix(-0.98248 -0.18637 -0.18637 0.98248 504.158 557.794)" fill="#1D1E1D"/>
<circle cx="5" cy="5" r="5" transform="matrix(-0.98248 -0.18637 -0.18637 0.98248 474.684 552.203)" fill="#1D1E1D"/>
<circle cx="5" cy="5" r="5" transform="matrix(-0.98248 -0.18637 -0.18637 0.98248 445.209 546.612)" fill="#1D1E1D"/>
<circle cx="5" cy="5" r="5" transform="matrix(-0.98248 -0.18637 -0.18637 0.98248 415.735 541.021)" fill="#1D1E1D"/>
<circle cx="5" cy="5" r="5" transform="matrix(-0.98248 -0.18637 -0.18637 0.98248 386.26 535.43)" fill="#1D1E1D"/>
<circle cx="5" cy="5" r="5" transform="matrix(-0.98248 -0.18637 -0.18637 0.98248 356.786 529.839)" fill="#1D1E1D"/>
<circle cx="5" cy="5" r="5" transform="matrix(-0.98248 -0.18637 -0.18637 0.98248 327.312 524.248)" fill="#1D1E1D"/>
<circle cx="5" cy="5" r="5" transform="matrix(-0.98248 -0.18637 -0.18637 0.98248 297.837 518.656)" fill="#1D1E1D"/>
<circle cx="5" cy="5" r="5" transform="matrix(-0.98248 -0.18637 -0.18637 0.98248 268.363 513.065)" fill="#1D1E1D"/>
<circle cx="5" cy="5" r="5" transform="matrix(-0.98248 -0.18637 -0.18637 0.98248 238.889 507.474)" fill="#1D1E1D"/>
<circle cx="5" cy="5" r="5" transform="matrix(-0.98248 -0.18637 -0.18637 0.98248 209.414 501.883)" fill="#1D1E1D"/>
<circle cx="5" cy="5" r="5" transform="matrix(-0.98248 -0.18637 -0.18637 0.98248 179.94 496.292)" fill="#1D1E1D"/>
<circle cx="5" cy="5" r="5" transform="matrix(-0.98248 -0.18637 -0.18637 0.98248 150.465 490.701)" fill="#1D1E1D"/>
<circle cx="5" cy="5" r="5" transform="matrix(-0.98248 -0.18637 -0.18637 0.98248 120.991 485.11)" fill="#1D1E1D"/>
<circle cx="5" cy="5" r="5" transform="matrix(-0.98248 -0.18637 -0.18637 0.98248 91.5166 479.519)" fill="#1D1E1D"/>
<circle cx="5" cy="5" r="5" transform="matrix(-0.98248 -0.18637 -0.18637 0.98248 62.0422 473.928)" fill="#1D1E1D"/>
<circle cx="5" cy="5" r="5" transform="matrix(-0.98248 -0.18637 -0.18637 0.98248 32.5679 468.336)" fill="#1D1E1D"/>
<circle cx="5" cy="5" r="5" transform="matrix(-0.98248 -0.18637 -0.18637 0.98248 3.09351 462.745)" fill="#1D1E1D"/>
<circle cx="5" cy="5" r="5" transform="matrix(-0.98248 -0.18637 -0.18637 0.98248 528.041 592.86)" fill="#1D1E1D"/>
<circle cx="5" cy="5" r="5" transform="matrix(-0.98248 -0.18637 -0.18637 0.98248 498.567 587.269)" fill="#1D1E1D"/>
<circle cx="5" cy="5" r="5" transform="matrix(-0.98248 -0.18637 -0.18637 0.98248 469.093 581.678)" fill="#1D1E1D"/>
<circle cx="5" cy="5" r="5" transform="matrix(-0.98248 -0.18637 -0.18637 0.98248 439.618 576.086)" fill="#1D1E1D"/>
<circle cx="5" cy="5" r="5" transform="matrix(-0.98248 -0.18637 -0.18637 0.98248 410.144 570.495)" fill="#1D1E1D"/>
<circle cx="5" cy="5" r="5" transform="matrix(-0.98248 -0.18637 -0.18637 0.98248 380.669 564.904)" fill="#1D1E1D"/>
<circle cx="5" cy="5" r="5" transform="matrix(-0.98248 -0.18637 -0.18637 0.98248 351.195 559.313)" fill="#1D1E1D"/>
<circle cx="5" cy="5" r="5" transform="matrix(-0.98248 -0.18637 -0.18637 0.98248 321.721 553.722)" fill="#1D1E1D"/>
<circle cx="5" cy="5" r="5" transform="matrix(-0.98248 -0.18637 -0.18637 0.98248 292.246 548.131)" fill="#1D1E1D"/>
<circle cx="5" cy="5" r="5" transform="matrix(-0.98248 -0.18637 -0.18637 0.98248 262.772 542.54)" fill="#1D1E1D"/>
<circle cx="5" cy="5" r="5" transform="matrix(-0.98248 -0.18637 -0.18637 0.98248 233.297 536.949)" fill="#1D1E1D"/>
<circle cx="5" cy="5" r="5" transform="matrix(-0.98248 -0.18637 -0.18637 0.98248 203.823 531.358)" fill="#1D1E1D"/>
<circle cx="5" cy="5" r="5" transform="matrix(-0.98248 -0.18637 -0.18637 0.98248 174.349 525.766)" fill="#1D1E1D"/>
<circle cx="5" cy="5" r="5" transform="matrix(-0.98248 -0.18637 -0.18637 0.98248 144.874 520.175)" fill="#1D1E1D"/>
<circle cx="5" cy="5" r="5" transform="matrix(-0.98248 -0.18637 -0.18637 0.98248 115.4 514.584)" fill="#1D1E1D"/>
<circle cx="5" cy="5" r="5" transform="matrix(-0.98248 -0.18637 -0.18637 0.98248 85.9255 508.993)" fill="#1D1E1D"/>
<circle cx="5" cy="5" r="5" transform="matrix(-0.98248 -0.18637 -0.18637 0.98248 56.4512 503.402)" fill="#1D1E1D"/>
<circle cx="5" cy="5" r="5" transform="matrix(-0.98248 -0.18637 -0.18637 0.98248 26.9768 497.811)" fill="#1D1E1D"/>
<circle cx="5" cy="5" r="5" transform="matrix(-0.98248 -0.18637 -0.18637 0.98248 522.45 622.334)" fill="#1D1E1D"/>
<circle cx="5" cy="5" r="5" transform="matrix(-0.98248 -0.18637 -0.18637 0.98248 492.976 616.743)" fill="#1D1E1D"/>
<circle cx="5" cy="5" r="5" transform="matrix(-0.98248 -0.18637 -0.18637 0.98248 463.501 611.152)" fill="#1D1E1D"/>
<circle cx="5" cy="5" r="5" transform="matrix(-0.98248 -0.18637 -0.18637 0.98248 434.027 605.561)" fill="#1D1E1D"/>
<circle cx="5" cy="5" r="5" transform="matrix(-0.98248 -0.18637 -0.18637 0.98248 404.553 599.97)" fill="#1D1E1D"/>
<circle cx="5" cy="5" r="5" transform="matrix(-0.98248 -0.18637 -0.18637 0.98248 375.078 594.379)" fill="#1D1E1D"/>
<circle cx="5" cy="5" r="5" transform="matrix(-0.98248 -0.18637 -0.18637 0.98248 345.604 588.787)" fill="#1D1E1D"/>
<circle cx="5" cy="5" r="5" transform="matrix(-0.98248 -0.18637 -0.18637 0.98248 316.13 583.196)" fill="#1D1E1D"/>
<circle cx="5" cy="5" r="5" transform="matrix(-0.98248 -0.18637 -0.18637 0.98248 286.655 577.605)" fill="#1D1E1D"/>
<circle cx="5" cy="5" r="5" transform="matrix(-0.98248 -0.18637 -0.18637 0.98248 257.181 572.014)" fill="#1D1E1D"/>
<circle cx="5" cy="5" r="5" transform="matrix(-0.98248 -0.18637 -0.18637 0.98248 227.706 566.423)" fill="#1D1E1D"/>
<circle cx="5" cy="5" r="5" transform="matrix(-0.98248 -0.18637 -0.18637 0.98248 198.232 560.832)" fill="#1D1E1D"/>
<circle cx="5" cy="5" r="5" transform="matrix(-0.98248 -0.18637 -0.18637 0.98248 168.758 555.241)" fill="#1D1E1D"/>
<circle cx="5" cy="5" r="5" transform="matrix(-0.98248 -0.18637 -0.18637 0.98248 139.283 549.65)" fill="#1D1E1D"/>
<circle cx="5" cy="5" r="5" transform="matrix(-0.98248 -0.18637 -0.18637 0.98248 109.809 544.059)" fill="#1D1E1D"/>
<circle cx="5" cy="5" r="5" transform="matrix(-0.98248 -0.18637 -0.18637 0.98248 80.3345 538.467)" fill="#1D1E1D"/>
<circle cx="5" cy="5" r="5" transform="matrix(-0.98248 -0.18637 -0.18637 0.98248 50.8601 532.876)" fill="#1D1E1D"/>
<circle cx="5" cy="5" r="5" transform="matrix(-0.98248 -0.18637 -0.18637 0.98248 21.3857 527.285)" fill="#1D1E1D"/>
<circle cx="5" cy="5" r="5" transform="matrix(-0.98248 -0.18637 -0.18637 0.98248 516.859 651.809)" fill="#1D1E1D"/>
<circle cx="5" cy="5" r="5" transform="matrix(-0.98248 -0.18637 -0.18637 0.98248 487.385 646.217)" fill="#1D1E1D"/>
<circle cx="5" cy="5" r="5" transform="matrix(-0.98248 -0.18637 -0.18637 0.98248 457.91 640.626)" fill="#1D1E1D"/>
<circle cx="5" cy="5" r="5" transform="matrix(-0.98248 -0.18637 -0.18637 0.98248 428.436 635.035)" fill="#1D1E1D"/>
<circle cx="5" cy="5" r="5" transform="matrix(-0.98248 -0.18637 -0.18637 0.98248 398.962 629.444)" fill="#1D1E1D"/>
<circle cx="5" cy="5" r="5" transform="matrix(-0.98248 -0.18637 -0.18637 0.98248 369.487 623.853)" fill="#1D1E1D"/>
<circle cx="5" cy="5" r="5" transform="matrix(-0.98248 -0.18637 -0.18637 0.98248 340.013 618.262)" fill="#1D1E1D"/>
<circle cx="5" cy="5" r="5" transform="matrix(-0.98248 -0.18637 -0.18637 0.98248 310.538 612.671)" fill="#1D1E1D"/>
<circle cx="5" cy="5" r="5" transform="matrix(-0.98248 -0.18637 -0.18637 0.98248 281.064 607.08)" fill="#1D1E1D"/>
<circle cx="5" cy="5" r="5" transform="matrix(-0.98248 -0.18637 -0.18637 0.98248 251.59 601.489)" fill="#1D1E1D"/>
<circle cx="5" cy="5" r="5" transform="matrix(-0.98248 -0.18637 -0.18637 0.98248 222.115 595.897)" fill="#1D1E1D"/>
<circle cx="5" cy="5" r="5" transform="matrix(-0.98248 -0.18637 -0.18637 0.98248 192.641 590.306)" fill="#1D1E1D"/>
<circle cx="5" cy="5" r="5" transform="matrix(-0.98248 -0.18637 -0.18637 0.98248 163.167 584.715)" fill="#1D1E1D"/>
<circle cx="5" cy="5" r="5" transform="matrix(-0.98248 -0.18637 -0.18637 0.98248 133.692 579.124)" fill="#1D1E1D"/>
<circle cx="5" cy="5" r="5" transform="matrix(-0.98248 -0.18637 -0.18637 0.98248 104.218 573.533)" fill="#1D1E1D"/>
<circle cx="5" cy="5" r="5" transform="matrix(-0.98248 -0.18637 -0.18637 0.98248 74.7434 567.942)" fill="#1D1E1D"/>
<circle cx="5" cy="5" r="5" transform="matrix(-0.98248 -0.18637 -0.18637 0.98248 45.2688 562.351)" fill="#1D1E1D"/>
<circle cx="5" cy="5" r="5" transform="matrix(-0.98248 -0.18637 -0.18637 0.98248 15.7944 556.76)" fill="#1D1E1D"/>
<circle cx="5" cy="5" r="5" transform="matrix(-0.98248 -0.18637 -0.18637 0.98248 540.742 686.874)" fill="#1D1E1D"/>
<circle cx="5" cy="5" r="5" transform="matrix(-0.98248 -0.18637 -0.18637 0.98248 511.268 681.283)" fill="#1D1E1D"/>
<circle cx="5" cy="5" r="5" transform="matrix(-0.98248 -0.18637 -0.18637 0.98248 481.794 675.692)" fill="#1D1E1D"/>
<circle cx="5" cy="5" r="5" transform="matrix(-0.98248 -0.18637 -0.18637 0.98248 452.319 670.101)" fill="#1D1E1D"/>
<circle cx="5" cy="5" r="5" transform="matrix(-0.98248 -0.18637 -0.18637 0.98248 422.845 664.51)" fill="#1D1E1D"/>
<circle cx="5" cy="5" r="5" transform="matrix(-0.98248 -0.18637 -0.18637 0.98248 393.37 658.919)" fill="#1D1E1D"/>
<circle cx="5" cy="5" r="5" transform="matrix(-0.98248 -0.18637 -0.18637 0.98248 363.896 653.327)" fill="#1D1E1D"/>
<circle cx="5" cy="5" r="5" transform="matrix(-0.98248 -0.18637 -0.18637 0.98248 334.422 647.736)" fill="#1D1E1D"/>
<circle cx="5" cy="5" r="5" transform="matrix(-0.98248 -0.18637 -0.18637 0.98248 304.947 642.145)" fill="#1D1E1D"/>
<circle cx="5" cy="5" r="5" transform="matrix(-0.98248 -0.18637 -0.18637 0.98248 275.473 636.554)" fill="#1D1E1D"/>
<circle cx="5" cy="5" r="5" transform="matrix(-0.98248 -0.18637 -0.18637 0.98248 245.999 630.963)" fill="#1D1E1D"/>
<circle cx="5" cy="5" r="5" transform="matrix(-0.98248 -0.18637 -0.18637 0.98248 216.524 625.372)" fill="#1D1E1D"/>
<circle cx="5" cy="5" r="5" transform="matrix(-0.98248 -0.18637 -0.18637 0.98248 187.05 619.781)" fill="#1D1E1D"/>
<circle cx="5" cy="5" r="5" transform="matrix(-0.98248 -0.18637 -0.18637 0.98248 157.575 614.19)" fill="#1D1E1D"/>
<circle cx="5" cy="5" r="5" transform="matrix(-0.98248 -0.18637 -0.18637 0.98248 128.101 608.598)" fill="#1D1E1D"/>
<circle cx="5" cy="5" r="5" transform="matrix(-0.98248 -0.18637 -0.18637 0.98248 98.6265 603.007)" fill="#1D1E1D"/>
<circle cx="5" cy="5" r="5" transform="matrix(-0.98248 -0.18637 -0.18637 0.98248 69.1521 597.416)" fill="#1D1E1D"/>
<circle cx="5" cy="5" r="5" transform="matrix(-0.98248 -0.18637 -0.18637 0.98248 39.6777 591.825)" fill="#1D1E1D"/>
<circle cx="5" cy="5" r="5" transform="matrix(-0.98248 -0.18637 -0.18637 0.98248 10.2034 586.234)" fill="#1D1E1D"/>
<circle cx="5" cy="5" r="5" transform="matrix(-0.98248 -0.18637 -0.18637 0.98248 535.151 716.348)" fill="#1D1E1D"/>
<circle cx="5" cy="5" r="5" transform="matrix(-0.98248 -0.18637 -0.18637 0.98248 505.677 710.757)" fill="#1D1E1D"/>
<circle cx="5" cy="5" r="5" transform="matrix(-0.98248 -0.18637 -0.18637 0.98248 476.202 705.166)" fill="#1D1E1D"/>
<circle cx="5" cy="5" r="5" transform="matrix(-0.98248 -0.18637 -0.18637 0.98248 446.728 699.575)" fill="#1D1E1D"/>
<circle cx="5" cy="5" r="5" transform="matrix(-0.98248 -0.18637 -0.18637 0.98248 417.254 693.984)" fill="#1D1E1D"/>
<circle cx="5" cy="5" r="5" transform="matrix(-0.98248 -0.18637 -0.18637 0.98248 387.779 688.393)" fill="#1D1E1D"/>
<circle cx="5" cy="5" r="5" transform="matrix(-0.98248 -0.18637 -0.18637 0.98248 358.305 682.802)" fill="#1D1E1D"/>
<circle cx="5" cy="5" r="5" transform="matrix(-0.98248 -0.18637 -0.18637 0.98248 328.831 677.211)" fill="#1D1E1D"/>
<circle cx="5" cy="5" r="5" transform="matrix(-0.98248 -0.18637 -0.18637 0.98248 299.356 671.62)" fill="#1D1E1D"/>
<circle cx="5" cy="5" r="5" transform="matrix(-0.98248 -0.18637 -0.18637 0.98248 269.882 666.028)" fill="#1D1E1D"/>
<circle cx="5" cy="5" r="5" transform="matrix(-0.98248 -0.18637 -0.18637 0.98248 240.407 660.437)" fill="#1D1E1D"/>
<circle cx="5" cy="5" r="5" transform="matrix(-0.98248 -0.18637 -0.18637 0.98248 210.933 654.846)" fill="#1D1E1D"/>
<circle cx="5" cy="5" r="5" transform="matrix(-0.98248 -0.18637 -0.18637 0.98248 181.459 649.255)" fill="#1D1E1D"/>
<circle cx="5" cy="5" r="5" transform="matrix(-0.98248 -0.18637 -0.18637 0.98248 151.984 643.664)" fill="#1D1E1D"/>
<circle cx="5" cy="5" r="5" transform="matrix(-0.98248 -0.18637 -0.18637 0.98248 122.51 638.073)" fill="#1D1E1D"/>
<circle cx="5" cy="5" r="5" transform="matrix(-0.98248 -0.18637 -0.18637 0.98248 93.0354 632.482)" fill="#1D1E1D"/>
<circle cx="5" cy="5" r="5" transform="matrix(-0.98248 -0.18637 -0.18637 0.98248 63.561 626.891)" fill="#1D1E1D"/>
<circle cx="5" cy="5" r="5" transform="matrix(-0.98248 -0.18637 -0.18637 0.98248 34.0867 621.299)" fill="#1D1E1D"/>
<circle cx="5" cy="5" r="5" transform="matrix(-0.98248 -0.18637 -0.18637 0.98248 4.6123 615.708)" fill="#1D1E1D"/>
<circle cx="5" cy="5" r="5" transform="matrix(-0.98248 -0.18637 -0.18637 0.98248 529.56 745.823)" fill="#1D1E1D"/>
<circle cx="5" cy="5" r="5" transform="matrix(-0.98248 -0.18637 -0.18637 0.98248 500.086 740.232)" fill="#1D1E1D"/>
<circle cx="5" cy="5" r="5" transform="matrix(-0.98248 -0.18637 -0.18637 0.98248 470.611 734.641)" fill="#1D1E1D"/>
<circle cx="5" cy="5" r="5" transform="matrix(-0.98248 -0.18637 -0.18637 0.98248 441.137 729.049)" fill="#1D1E1D"/>
<circle cx="5" cy="5" r="5" transform="matrix(-0.98248 -0.18637 -0.18637 0.98248 411.663 723.458)" fill="#1D1E1D"/>
<circle cx="5" cy="5" r="5" transform="matrix(-0.98248 -0.18637 -0.18637 0.98248 382.188 717.867)" fill="#1D1E1D"/>
<circle cx="5" cy="5" r="5" transform="matrix(-0.98248 -0.18637 -0.18637 0.98248 352.714 712.276)" fill="#1D1E1D"/>
<circle cx="5" cy="5" r="5" transform="matrix(-0.98248 -0.18637 -0.18637 0.98248 323.24 706.685)" fill="#1D1E1D"/>
<circle cx="5" cy="5" r="5" transform="matrix(-0.98248 -0.18637 -0.18637 0.98248 293.765 701.094)" fill="#1D1E1D"/>
<circle cx="5" cy="5" r="5" transform="matrix(-0.98248 -0.18637 -0.18637 0.98248 264.291 695.503)" fill="#1D1E1D"/>
<circle cx="5" cy="5" r="5" transform="matrix(-0.98248 -0.18637 -0.18637 0.98248 234.816 689.912)" fill="#1D1E1D"/>
<circle cx="5" cy="5" r="5" transform="matrix(-0.98248 -0.18637 -0.18637 0.98248 205.342 684.321)" fill="#1D1E1D"/>
<circle cx="5" cy="5" r="5" transform="matrix(-0.98248 -0.18637 -0.18637 0.98248 175.867 678.729)" fill="#1D1E1D"/>
<circle cx="5" cy="5" r="5" transform="matrix(-0.98248 -0.18637 -0.18637 0.98248 146.393 673.138)" fill="#1D1E1D"/>
<circle cx="5" cy="5" r="5" transform="matrix(-0.98248 -0.18637 -0.18637 0.98248 116.919 667.547)" fill="#1D1E1D"/>
<circle cx="5" cy="5" r="5" transform="matrix(-0.98248 -0.18637 -0.18637 0.98248 87.4443 661.956)" fill="#1D1E1D"/>
<circle cx="5" cy="5" r="5" transform="matrix(-0.98248 -0.18637 -0.18637 0.98248 57.97 656.365)" fill="#1D1E1D"/>
<circle cx="5" cy="5" r="5" transform="matrix(-0.98248 -0.18637 -0.18637 0.98248 28.4956 650.774)" fill="#1D1E1D"/>
<circle cx="5" cy="5" r="5" transform="matrix(-0.98248 -0.18637 -0.18637 0.98248 523.969 775.297)" fill="#1D1E1D"/>
<circle cx="5" cy="5" r="5" transform="matrix(-0.98248 -0.18637 -0.18637 0.98248 494.495 769.706)" fill="#1D1E1D"/>
<circle cx="5" cy="5" r="5" transform="matrix(-0.98248 -0.18637 -0.18637 0.98248 465.02 764.115)" fill="#1D1E1D"/>
<circle cx="5" cy="5" r="5" transform="matrix(-0.98248 -0.18637 -0.18637 0.98248 435.546 758.524)" fill="#1D1E1D"/>
<circle cx="5" cy="5" r="5" transform="matrix(-0.98248 -0.18637 -0.18637 0.98248 406.072 752.933)" fill="#1D1E1D"/>
<circle cx="5" cy="5" r="5" transform="matrix(-0.98248 -0.18637 -0.18637 0.98248 376.597 747.342)" fill="#1D1E1D"/>
<circle cx="5" cy="5" r="5" transform="matrix(-0.98248 -0.18637 -0.18637 0.98248 347.123 741.751)" fill="#1D1E1D"/>
<circle cx="5" cy="5" r="5" transform="matrix(-0.98248 -0.18637 -0.18637 0.98248 317.648 736.159)" fill="#1D1E1D"/>
<circle cx="5" cy="5" r="5" transform="matrix(-0.98248 -0.18637 -0.18637 0.98248 288.174 730.568)" fill="#1D1E1D"/>
<circle cx="5" cy="5" r="5" transform="matrix(-0.98248 -0.18637 -0.18637 0.98248 258.699 724.977)" fill="#1D1E1D"/>
<circle cx="5" cy="5" r="5" transform="matrix(-0.98248 -0.18637 -0.18637 0.98248 229.225 719.386)" fill="#1D1E1D"/>
<circle cx="5" cy="5" r="5" transform="matrix(-0.98248 -0.18637 -0.18637 0.98248 199.751 713.795)" fill="#1D1E1D"/>
<circle cx="5" cy="5" r="5" transform="matrix(-0.98248 -0.18637 -0.18637 0.98248 170.276 708.204)" fill="#1D1E1D"/>
<circle cx="5" cy="5" r="5" transform="matrix(-0.98248 -0.18637 -0.18637 0.98248 140.802 702.613)" fill="#1D1E1D"/>
<circle cx="5" cy="5" r="5" transform="matrix(-0.98248 -0.18637 -0.18637 0.98248 111.328 697.022)" fill="#1D1E1D"/>
<circle cx="5" cy="5" r="5" transform="matrix(-0.98248 -0.18637 -0.18637 0.98248 81.8533 691.431)" fill="#1D1E1D"/>
<circle cx="5" cy="5" r="5" transform="matrix(-0.98248 -0.18637 -0.18637 0.98248 52.3789 685.839)" fill="#1D1E1D"/>
<circle cx="5" cy="5" r="5" transform="matrix(-0.98248 -0.18637 -0.18637 0.98248 22.9045 680.248)" fill="#1D1E1D"/>
<circle cx="5" cy="5" r="5" transform="matrix(-0.98248 -0.18637 -0.18637 0.98248 518.378 804.772)" fill="#1D1E1D"/>
<circle cx="5" cy="5" r="5" transform="matrix(-0.98248 -0.18637 -0.18637 0.98248 488.904 799.181)" fill="#1D1E1D"/>
<circle cx="5" cy="5" r="5" transform="matrix(-0.98248 -0.18637 -0.18637 0.98248 459.429 793.589)" fill="#1D1E1D"/>
<circle cx="5" cy="5" r="5" transform="matrix(-0.98248 -0.18637 -0.18637 0.98248 429.955 787.998)" fill="#1D1E1D"/>
<circle cx="5" cy="5" r="5" transform="matrix(-0.98248 -0.18637 -0.18637 0.98248 400.48 782.407)" fill="#1D1E1D"/>
<circle cx="5" cy="5" r="5" transform="matrix(-0.98248 -0.18637 -0.18637 0.98248 371.006 776.816)" fill="#1D1E1D"/>
<circle cx="5" cy="5" r="5" transform="matrix(-0.98248 -0.18637 -0.18637 0.98248 341.531 771.225)" fill="#1D1E1D"/>
<circle cx="5" cy="5" r="5" transform="matrix(-0.98248 -0.18637 -0.18637 0.98248 312.057 765.634)" fill="#1D1E1D"/>
<circle cx="5" cy="5" r="5" transform="matrix(-0.98248 -0.18637 -0.18637 0.98248 282.583 760.043)" fill="#1D1E1D"/>
<circle cx="5" cy="5" r="5" transform="matrix(-0.98248 -0.18637 -0.18637 0.98248 253.108 754.452)" fill="#1D1E1D"/>
<circle cx="5" cy="5" r="5" transform="matrix(-0.98248 -0.18637 -0.18637 0.98248 223.634 748.86)" fill="#1D1E1D"/>
<circle cx="5" cy="5" r="5" transform="matrix(-0.98248 -0.18637 -0.18637 0.98248 194.16 743.269)" fill="#1D1E1D"/>
<circle cx="5" cy="5" r="5" transform="matrix(-0.98248 -0.18637 -0.18637 0.98248 164.685 737.678)" fill="#1D1E1D"/>
<circle cx="5" cy="5" r="5" transform="matrix(-0.98248 -0.18637 -0.18637 0.98248 135.211 732.087)" fill="#1D1E1D"/>
<circle cx="5" cy="5" r="5" transform="matrix(-0.98248 -0.18637 -0.18637 0.98248 105.737 726.496)" fill="#1D1E1D"/>
<circle cx="5" cy="5" r="5" transform="matrix(-0.98248 -0.18637 -0.18637 0.98248 76.2622 720.905)" fill="#1D1E1D"/>
<circle cx="5" cy="5" r="5" transform="matrix(-0.98248 -0.18637 -0.18637 0.98248 46.7878 715.314)" fill="#1D1E1D"/>
<circle cx="5" cy="5" r="5" transform="matrix(-0.98248 -0.18637 -0.18637 0.98248 17.3132 709.723)" fill="#1D1E1D"/>
<circle cx="5" cy="5" r="5" transform="matrix(-0.98248 -0.18637 -0.18637 0.98248 542.261 839.837)" fill="#1D1E1D"/>
<circle cx="5" cy="5" r="5" transform="matrix(-0.98248 -0.18637 -0.18637 0.98248 512.787 834.246)" fill="#1D1E1D"/>
<circle cx="5" cy="5" r="5" transform="matrix(-0.98248 -0.18637 -0.18637 0.98248 483.312 828.655)" fill="#1D1E1D"/>
<circle cx="5" cy="5" r="5" transform="matrix(-0.98248 -0.18637 -0.18637 0.98248 453.838 823.064)" fill="#1D1E1D"/>
<circle cx="5" cy="5" r="5" transform="matrix(-0.98248 -0.18637 -0.18637 0.98248 424.364 817.473)" fill="#1D1E1D"/>
<circle cx="5" cy="5" r="5" transform="matrix(-0.98248 -0.18637 -0.18637 0.98248 394.889 811.882)" fill="#1D1E1D"/>
<circle cx="5" cy="5" r="5" transform="matrix(-0.98248 -0.18637 -0.18637 0.98248 365.415 806.29)" fill="#1D1E1D"/>
<circle cx="5" cy="5" r="5" transform="matrix(-0.98248 -0.18637 -0.18637 0.98248 335.94 800.699)" fill="#1D1E1D"/>
<circle cx="5" cy="5" r="5" transform="matrix(-0.98248 -0.18637 -0.18637 0.98248 306.466 795.108)" fill="#1D1E1D"/>
<circle cx="5" cy="5" r="5" transform="matrix(-0.98248 -0.18637 -0.18637 0.98248 276.992 789.517)" fill="#1D1E1D"/>
<circle cx="5" cy="5" r="5" transform="matrix(-0.98248 -0.18637 -0.18637 0.98248 247.517 783.926)" fill="#1D1E1D"/>
<circle cx="5" cy="5" r="5" transform="matrix(-0.98248 -0.18637 -0.18637 0.98248 218.043 778.335)" fill="#1D1E1D"/>
<circle cx="5" cy="5" r="5" transform="matrix(-0.98248 -0.18637 -0.18637 0.98248 188.569 772.744)" fill="#1D1E1D"/>
<circle cx="5" cy="5" r="5" transform="matrix(-0.98248 -0.18637 -0.18637 0.98248 159.094 767.153)" fill="#1D1E1D"/>
<circle cx="5" cy="5" r="5" transform="matrix(-0.98248 -0.18637 -0.18637 0.98248 129.62 761.562)" fill="#1D1E1D"/>
<circle cx="5" cy="5" r="5" transform="matrix(-0.98248 -0.18637 -0.18637 0.98248 100.146 755.97)" fill="#1D1E1D"/>
<circle cx="5" cy="5" r="5" transform="matrix(-0.98248 -0.18637 -0.18637 0.98248 70.6709 750.379)" fill="#1D1E1D"/>
<circle cx="5" cy="5" r="5" transform="matrix(-0.98248 -0.18637 -0.18637 0.98248 41.1965 744.788)" fill="#1D1E1D"/>
<circle cx="5" cy="5" r="5" transform="matrix(-0.98248 -0.18637 -0.18637 0.98248 11.7222 739.197)" fill="#1D1E1D"/>
<circle cx="5" cy="5" r="5" transform="matrix(-0.98248 -0.18637 -0.18637 0.98248 536.67 869.312)" fill="#1D1E1D"/>
<circle cx="5" cy="5" r="5" transform="matrix(-0.98248 -0.18637 -0.18637 0.98248 507.196 863.72)" fill="#1D1E1D"/>
<circle cx="5" cy="5" r="5" transform="matrix(-0.98248 -0.18637 -0.18637 0.98248 477.721 858.129)" fill="#1D1E1D"/>
<circle cx="5" cy="5" r="5" transform="matrix(-0.98248 -0.18637 -0.18637 0.98248 448.247 852.538)" fill="#1D1E1D"/>
<circle cx="5" cy="5" r="5" transform="matrix(-0.98248 -0.18637 -0.18637 0.98248 418.772 846.947)" fill="#1D1E1D"/>
<circle cx="5" cy="5" r="5" transform="matrix(-0.98248 -0.18637 -0.18637 0.98248 389.298 841.356)" fill="#1D1E1D"/>
<circle cx="5" cy="5" r="5" transform="matrix(-0.98248 -0.18637 -0.18637 0.98248 359.824 835.765)" fill="#1D1E1D"/>
<circle cx="5" cy="5" r="5" transform="matrix(-0.98248 -0.18637 -0.18637 0.98248 330.349 830.174)" fill="#1D1E1D"/>
<circle cx="5" cy="5" r="5" transform="matrix(-0.98248 -0.18637 -0.18637 0.98248 300.875 824.583)" fill="#1D1E1D"/>
<circle cx="5" cy="5" r="5" transform="matrix(-0.98248 -0.18637 -0.18637 0.98248 271.401 818.991)" fill="#1D1E1D"/>
<circle cx="5" cy="5" r="5" transform="matrix(-0.98248 -0.18637 -0.18637 0.98248 241.926 813.4)" fill="#1D1E1D"/>
<circle cx="5" cy="5" r="5" transform="matrix(-0.98248 -0.18637 -0.18637 0.98248 212.452 807.809)" fill="#1D1E1D"/>
<circle cx="5" cy="5" r="5" transform="matrix(-0.98248 -0.18637 -0.18637 0.98248 182.978 802.218)" fill="#1D1E1D"/>
<circle cx="5" cy="5" r="5" transform="matrix(-0.98248 -0.18637 -0.18637 0.98248 153.503 796.627)" fill="#1D1E1D"/>
<circle cx="5" cy="5" r="5" transform="matrix(-0.98248 -0.18637 -0.18637 0.98248 124.029 791.036)" fill="#1D1E1D"/>
<circle cx="5" cy="5" r="5" transform="matrix(-0.98248 -0.18637 -0.18637 0.98248 94.5542 785.445)" fill="#1D1E1D"/>
<circle cx="5" cy="5" r="5" transform="matrix(-0.98248 -0.18637 -0.18637 0.98248 65.0798 779.854)" fill="#1D1E1D"/>
<circle cx="5" cy="5" r="5" transform="matrix(-0.98248 -0.18637 -0.18637 0.98248 35.6055 774.263)" fill="#1D1E1D"/>
<circle cx="5" cy="5" r="5" transform="matrix(-0.98248 -0.18637 -0.18637 0.98248 6.1311 768.671)" fill="#1D1E1D"/>
<circle cx="5" cy="5" r="5" transform="matrix(-0.98248 -0.18637 -0.18637 0.98248 531.079 898.786)" fill="#1D1E1D"/>
<circle cx="5" cy="5" r="5" transform="matrix(-0.98248 -0.18637 -0.18637 0.98248 501.604 893.195)" fill="#1D1E1D"/>
<circle cx="5" cy="5" r="5" transform="matrix(-0.98248 -0.18637 -0.18637 0.98248 472.13 887.604)" fill="#1D1E1D"/>
<circle cx="5" cy="5" r="5" transform="matrix(-0.98248 -0.18637 -0.18637 0.98248 442.656 882.013)" fill="#1D1E1D"/>
<circle cx="5" cy="5" r="5" transform="matrix(-0.98248 -0.18637 -0.18637 0.98248 413.181 876.421)" fill="#1D1E1D"/>
<circle cx="5" cy="5" r="5" transform="matrix(-0.98248 -0.18637 -0.18637 0.98248 383.707 870.83)" fill="#1D1E1D"/>
<circle cx="5" cy="5" r="5" transform="matrix(-0.98248 -0.18637 -0.18637 0.98248 354.233 865.239)" fill="#1D1E1D"/>
<circle cx="5" cy="5" r="5" transform="matrix(-0.98248 -0.18637 -0.18637 0.98248 324.758 859.648)" fill="#1D1E1D"/>
<circle cx="5" cy="5" r="5" transform="matrix(-0.98248 -0.18637 -0.18637 0.98248 295.284 854.057)" fill="#1D1E1D"/>
<circle cx="5" cy="5" r="5" transform="matrix(-0.98248 -0.18637 -0.18637 0.98248 265.81 848.466)" fill="#1D1E1D"/>
<circle cx="5" cy="5" r="5" transform="matrix(-0.98248 -0.18637 -0.18637 0.98248 236.335 842.875)" fill="#1D1E1D"/>
<circle cx="5" cy="5" r="5" transform="matrix(-0.98248 -0.18637 -0.18637 0.98248 206.861 837.284)" fill="#1D1E1D"/>
<circle cx="5" cy="5" r="5" transform="matrix(-0.98248 -0.18637 -0.18637 0.98248 177.386 831.693)" fill="#1D1E1D"/>
<circle cx="5" cy="5" r="5" transform="matrix(-0.98248 -0.18637 -0.18637 0.98248 147.912 826.101)" fill="#1D1E1D"/>
<circle cx="5" cy="5" r="5" transform="matrix(-0.98248 -0.18637 -0.18637 0.98248 118.438 820.51)" fill="#1D1E1D"/>
<circle cx="5" cy="5" r="5" transform="matrix(-0.98248 -0.18637 -0.18637 0.98248 88.9631 814.919)" fill="#1D1E1D"/>
<circle cx="5" cy="5" r="5" transform="matrix(-0.98248 -0.18637 -0.18637 0.98248 59.4888 809.328)" fill="#1D1E1D"/>
<circle cx="5" cy="5" r="5" transform="matrix(-0.98248 -0.18637 -0.18637 0.98248 30.0144 803.737)" fill="#1D1E1D"/>
<circle cx="5" cy="5" r="5" transform="matrix(-0.98248 -0.18637 -0.18637 0.98248 0.540039 798.146)" fill="#1D1E1D"/>
<circle cx="5" cy="5" r="5" transform="matrix(-0.98248 -0.18637 -0.18637 0.98248 525.488 928.26)" fill="#1D1E1D"/>
<circle cx="5" cy="5" r="5" transform="matrix(-0.98248 -0.18637 -0.18637 0.98248 496.013 922.669)" fill="#1D1E1D"/>
<circle cx="5" cy="5" r="5" transform="matrix(-0.98248 -0.18637 -0.18637 0.98248 466.539 917.078)" fill="#1D1E1D"/>
<circle cx="5" cy="5" r="5" transform="matrix(-0.98248 -0.18637 -0.18637 0.98248 437.065 911.487)" fill="#1D1E1D"/>
<circle cx="5" cy="5" r="5" transform="matrix(-0.98248 -0.18637 -0.18637 0.98248 407.59 905.896)" fill="#1D1E1D"/>
<circle cx="5" cy="5" r="5" transform="matrix(-0.98248 -0.18637 -0.18637 0.98248 378.116 900.305)" fill="#1D1E1D"/>
<circle cx="5" cy="5" r="5" transform="matrix(-0.98248 -0.18637 -0.18637 0.98248 348.642 894.714)" fill="#1D1E1D"/>
<circle cx="5" cy="5" r="5" transform="matrix(-0.98248 -0.18637 -0.18637 0.98248 319.167 889.122)" fill="#1D1E1D"/>
<circle cx="5" cy="5" r="5" transform="matrix(-0.98248 -0.18637 -0.18637 0.98248 289.693 883.531)" fill="#1D1E1D"/>
<circle cx="5" cy="5" r="5" transform="matrix(-0.98248 -0.18637 -0.18637 0.98248 260.218 877.94)" fill="#1D1E1D"/>
<circle cx="5" cy="5" r="5" transform="matrix(-0.98248 -0.18637 -0.18637 0.98248 230.744 872.349)" fill="#1D1E1D"/>
<circle cx="5" cy="5" r="5" transform="matrix(-0.98248 -0.18637 -0.18637 0.98248 201.27 866.758)" fill="#1D1E1D"/>
<circle cx="5" cy="5" r="5" transform="matrix(-0.98248 -0.18637 -0.18637 0.98248 171.795 861.167)" fill="#1D1E1D"/>
<circle cx="5" cy="5" r="5" transform="matrix(-0.98248 -0.18637 -0.18637 0.98248 142.321 855.576)" fill="#1D1E1D"/>
<circle cx="5" cy="5" r="5" transform="matrix(-0.98248 -0.18637 -0.18637 0.98248 112.846 849.985)" fill="#1D1E1D"/>
<circle cx="5" cy="5" r="5" transform="matrix(-0.98248 -0.18637 -0.18637 0.98248 83.3721 844.394)" fill="#1D1E1D"/>
<circle cx="5" cy="5" r="5" transform="matrix(-0.98248 -0.18637 -0.18637 0.98248 53.8977 838.802)" fill="#1D1E1D"/>
<circle cx="5" cy="5" r="5" transform="matrix(-0.98248 -0.18637 -0.18637 0.98248 24.4233 833.211)" fill="#1D1E1D"/>
<circle cx="5" cy="5" r="5" transform="matrix(-0.98248 -0.18637 -0.18637 0.98248 519.897 957.735)" fill="#1D1E1D"/>
<circle cx="5" cy="5" r="5" transform="matrix(-0.98248 -0.18637 -0.18637 0.98248 490.422 952.144)" fill="#1D1E1D"/>
<circle cx="5" cy="5" r="5" transform="matrix(-0.98248 -0.18637 -0.18637 0.98248 460.948 946.552)" fill="#1D1E1D"/>
<circle cx="5" cy="5" r="5" transform="matrix(-0.98248 -0.18637 -0.18637 0.98248 431.474 940.961)" fill="#1D1E1D"/>
<circle cx="5" cy="5" r="5" transform="matrix(-0.98248 -0.18637 -0.18637 0.98248 401.999 935.37)" fill="#1D1E1D"/>
<circle cx="5" cy="5" r="5" transform="matrix(-0.98248 -0.18637 -0.18637 0.98248 372.525 929.779)" fill="#1D1E1D"/>
<circle cx="5" cy="5" r="5" transform="matrix(-0.98248 -0.18637 -0.18637 0.98248 343.051 924.188)" fill="#1D1E1D"/>
<circle cx="5" cy="5" r="5" transform="matrix(-0.98248 -0.18637 -0.18637 0.98248 313.576 918.597)" fill="#1D1E1D"/>
<circle cx="5" cy="5" r="5" transform="matrix(-0.98248 -0.18637 -0.18637 0.98248 284.102 913.006)" fill="#1D1E1D"/>
<circle cx="5" cy="5" r="5" transform="matrix(-0.98248 -0.18637 -0.18637 0.98248 254.627 907.415)" fill="#1D1E1D"/>
<circle cx="5" cy="5" r="5" transform="matrix(-0.98248 -0.18637 -0.18637 0.98248 225.153 901.823)" fill="#1D1E1D"/>
<circle cx="5" cy="5" r="5" transform="matrix(-0.98248 -0.18637 -0.18637 0.98248 195.678 896.232)" fill="#1D1E1D"/>
<circle cx="5" cy="5" r="5" transform="matrix(-0.98248 -0.18637 -0.18637 0.98248 166.204 890.641)" fill="#1D1E1D"/>
<circle cx="5" cy="5" r="5" transform="matrix(-0.98248 -0.18637 -0.18637 0.98248 136.73 885.05)" fill="#1D1E1D"/>
<circle cx="5" cy="5" r="5" transform="matrix(-0.98248 -0.18637 -0.18637 0.98248 107.255 879.459)" fill="#1D1E1D"/>
<circle cx="5" cy="5" r="5" transform="matrix(-0.98248 -0.18637 -0.18637 0.98248 77.781 873.868)" fill="#1D1E1D"/>
<circle cx="5" cy="5" r="5" transform="matrix(-0.98248 -0.18637 -0.18637 0.98248 48.3066 868.277)" fill="#1D1E1D"/>
<circle cx="5" cy="5" r="5" transform="matrix(-0.98248 -0.18637 -0.18637 0.98248 18.8323 862.686)" fill="#1D1E1D"/>
<circle cx="5" cy="5" r="5" transform="matrix(-0.98248 -0.18637 -0.18637 0.98248 514.306 987.209)" fill="#1D1E1D"/>
<circle cx="5" cy="5" r="5" transform="matrix(-0.98248 -0.18637 -0.18637 0.98248 484.831 981.618)" fill="#1D1E1D"/>
<circle cx="5" cy="5" r="5" transform="matrix(-0.98248 -0.18637 -0.18637 0.98248 455.357 976.027)" fill="#1D1E1D"/>
<circle cx="5" cy="5" r="5" transform="matrix(-0.98248 -0.18637 -0.18637 0.98248 425.883 970.436)" fill="#1D1E1D"/>
<circle cx="5" cy="5" r="5" transform="matrix(-0.98248 -0.18637 -0.18637 0.98248 396.408 964.845)" fill="#1D1E1D"/>
<circle cx="5" cy="5" r="5" transform="matrix(-0.98248 -0.18637 -0.18637 0.98248 366.934 959.254)" fill="#1D1E1D"/>
<circle cx="5" cy="5" r="5" transform="matrix(-0.98248 -0.18637 -0.18637 0.98248 337.459 953.662)" fill="#1D1E1D"/>
<circle cx="5" cy="5" r="5" transform="matrix(-0.98248 -0.18637 -0.18637 0.98248 307.985 948.071)" fill="#1D1E1D"/>
<circle cx="5" cy="5" r="5" transform="matrix(-0.98248 -0.18637 -0.18637 0.98248 278.51 942.48)" fill="#1D1E1D"/>
<circle cx="5" cy="5" r="5" transform="matrix(-0.98248 -0.18637 -0.18637 0.98248 249.036 936.889)" fill="#1D1E1D"/>
<circle cx="5" cy="5" r="5" transform="matrix(-0.98248 -0.18637 -0.18637 0.98248 219.562 931.298)" fill="#1D1E1D"/>
<circle cx="5" cy="5" r="5" transform="matrix(-0.98248 -0.18637 -0.18637 0.98248 190.087 925.707)" fill="#1D1E1D"/>
<circle cx="5" cy="5" r="5" transform="matrix(-0.98248 -0.18637 -0.18637 0.98248 160.613 920.116)" fill="#1D1E1D"/>
<circle cx="5" cy="5" r="5" transform="matrix(-0.98248 -0.18637 -0.18637 0.98248 131.139 914.525)" fill="#1D1E1D"/>
<circle cx="5" cy="5" r="5" transform="matrix(-0.98248 -0.18637 -0.18637 0.98248 101.664 908.933)" fill="#1D1E1D"/>
<circle cx="5" cy="5" r="5" transform="matrix(-0.98248 -0.18637 -0.18637 0.98248 72.1897 903.342)" fill="#1D1E1D"/>
<circle cx="5" cy="5" r="5" transform="matrix(-0.98248 -0.18637 -0.18637 0.98248 42.7153 897.751)" fill="#1D1E1D"/>
<circle cx="5" cy="5" r="5" transform="matrix(-0.98248 -0.18637 -0.18637 0.98248 13.241 892.16)" fill="#1D1E1D"/>
<circle cx="5" cy="5" r="5" transform="matrix(-0.98248 -0.18637 -0.18637 0.98248 538.189 1022.27)" fill="#1D1E1D"/>
<circle cx="5" cy="5" r="5" transform="matrix(-0.98248 -0.18637 -0.18637 0.98248 508.715 1016.68)" fill="#1D1E1D"/>
<circle cx="5" cy="5" r="5" transform="matrix(-0.98248 -0.18637 -0.18637 0.98248 479.24 1011.09)" fill="#1D1E1D"/>
<circle cx="5" cy="5" r="5" transform="matrix(-0.98248 -0.18637 -0.18637 0.98248 449.766 1005.5)" fill="#1D1E1D"/>
<circle cx="5" cy="5" r="5" transform="matrix(-0.98248 -0.18637 -0.18637 0.98248 420.291 999.91)" fill="#1D1E1D"/>
<circle cx="5" cy="5" r="5" transform="matrix(-0.98248 -0.18637 -0.18637 0.98248 390.817 994.319)" fill="#1D1E1D"/>
<circle cx="5" cy="5" r="5" transform="matrix(-0.98248 -0.18637 -0.18637 0.98248 361.343 988.728)" fill="#1D1E1D"/>
<circle cx="5" cy="5" r="5" transform="matrix(-0.98248 -0.18637 -0.18637 0.98248 331.868 983.137)" fill="#1D1E1D"/>
<circle cx="5" cy="5" r="5" transform="matrix(-0.98248 -0.18637 -0.18637 0.98248 302.394 977.546)" fill="#1D1E1D"/>
<circle cx="5" cy="5" r="5" transform="matrix(-0.98248 -0.18637 -0.18637 0.98248 272.919 971.955)" fill="#1D1E1D"/>
<circle cx="5" cy="5" r="5" transform="matrix(-0.98248 -0.18637 -0.18637 0.98248 243.445 966.363)" fill="#1D1E1D"/>
<circle cx="5" cy="5" r="5" transform="matrix(-0.98248 -0.18637 -0.18637 0.98248 213.971 960.772)" fill="#1D1E1D"/>
<circle cx="5" cy="5" r="5" transform="matrix(-0.98248 -0.18637 -0.18637 0.98248 184.496 955.181)" fill="#1D1E1D"/>
<circle cx="5" cy="5" r="5" transform="matrix(-0.98248 -0.18637 -0.18637 0.98248 155.022 949.59)" fill="#1D1E1D"/>
<circle cx="5" cy="5" r="5" transform="matrix(-0.98248 -0.18637 -0.18637 0.98248 125.547 943.999)" fill="#1D1E1D"/>
<circle cx="5" cy="5" r="5" transform="matrix(-0.98248 -0.18637 -0.18637 0.98248 96.073 938.408)" fill="#1D1E1D"/>
<circle cx="5" cy="5" r="5" transform="matrix(-0.98248 -0.18637 -0.18637 0.98248 66.5986 932.817)" fill="#1D1E1D"/>
<circle cx="5" cy="5" r="5" transform="matrix(-0.98248 -0.18637 -0.18637 0.98248 37.1243 927.226)" fill="#1D1E1D"/>
<circle cx="5" cy="5" r="5" transform="matrix(-0.98248 -0.18637 -0.18637 0.98248 7.6499 921.635)" fill="#1D1E1D"/>
<circle cx="5" cy="5" r="5" transform="matrix(-0.98248 -0.18637 -0.18637 0.98248 532.598 1051.75)" fill="#1D1E1D"/>
<circle cx="5" cy="5" r="5" transform="matrix(-0.98248 -0.18637 -0.18637 0.98248 503.123 1046.16)" fill="#1D1E1D"/>
<circle cx="5" cy="5" r="5" transform="matrix(-0.98248 -0.18637 -0.18637 0.98248 473.649 1040.57)" fill="#1D1E1D"/>
<circle cx="5" cy="5" r="5" transform="matrix(-0.98248 -0.18637 -0.18637 0.98248 444.175 1034.98)" fill="#1D1E1D"/>
<circle cx="5" cy="5" r="5" transform="matrix(-0.98248 -0.18637 -0.18637 0.98248 414.7 1029.38)" fill="#1D1E1D"/>
<circle cx="5" cy="5" r="5" transform="matrix(-0.98248 -0.18637 -0.18637 0.98248 385.226 1023.79)" fill="#1D1E1D"/>
<circle cx="5" cy="5" r="5" transform="matrix(-0.98248 -0.18637 -0.18637 0.98248 355.751 1018.2)" fill="#1D1E1D"/>
<circle cx="5" cy="5" r="5" transform="matrix(-0.98248 -0.18637 -0.18637 0.98248 326.277 1012.61)" fill="#1D1E1D"/>
<circle cx="5" cy="5" r="5" transform="matrix(-0.98248 -0.18637 -0.18637 0.98248 296.803 1007.02)" fill="#1D1E1D"/>
<circle cx="5" cy="5" r="5" transform="matrix(-0.98248 -0.18637 -0.18637 0.98248 267.328 1001.43)" fill="#1D1E1D"/>
<circle cx="5" cy="5" r="5" transform="matrix(-0.98248 -0.18637 -0.18637 0.98248 237.854 995.838)" fill="#1D1E1D"/>
<circle cx="5" cy="5" r="5" transform="matrix(-0.98248 -0.18637 -0.18637 0.98248 208.38 990.247)" fill="#1D1E1D"/>
<circle cx="5" cy="5" r="5" transform="matrix(-0.98248 -0.18637 -0.18637 0.98248 178.905 984.656)" fill="#1D1E1D"/>
<circle cx="5" cy="5" r="5" transform="matrix(-0.98248 -0.18637 -0.18637 0.98248 149.431 979.064)" fill="#1D1E1D"/>
<circle cx="5" cy="5" r="5" transform="matrix(-0.98248 -0.18637 -0.18637 0.98248 119.956 973.473)" fill="#1D1E1D"/>
<circle cx="5" cy="5" r="5" transform="matrix(-0.98248 -0.18637 -0.18637 0.98248 90.4819 967.882)" fill="#1D1E1D"/>
<circle cx="5" cy="5" r="5" transform="matrix(-0.98248 -0.18637 -0.18637 0.98248 61.0076 962.291)" fill="#1D1E1D"/>
<circle cx="5" cy="5" r="5" transform="matrix(-0.98248 -0.18637 -0.18637 0.98248 31.5332 956.7)" fill="#1D1E1D"/>
<circle cx="5" cy="5" r="5" transform="matrix(-0.98248 -0.18637 -0.18637 0.98248 2.05884 951.109)" fill="#1D1E1D"/>
<circle cx="5" cy="5" r="5" transform="matrix(-0.98248 -0.18637 -0.18637 0.98248 527.007 1081.22)" fill="#1D1E1D"/>
<circle cx="5" cy="5" r="5" transform="matrix(-0.98248 -0.18637 -0.18637 0.98248 497.532 1075.63)" fill="#1D1E1D"/>
<circle cx="5" cy="5" r="5" transform="matrix(-0.98248 -0.18637 -0.18637 0.98248 468.058 1070.04)" fill="#1D1E1D"/>
<circle cx="5" cy="5" r="5" transform="matrix(-0.98248 -0.18637 -0.18637 0.98248 438.583 1064.45)" fill="#1D1E1D"/>
<circle cx="5" cy="5" r="5" transform="matrix(-0.98248 -0.18637 -0.18637 0.98248 409.109 1058.86)" fill="#1D1E1D"/>
<circle cx="5" cy="5" r="5" transform="matrix(-0.98248 -0.18637 -0.18637 0.98248 379.635 1053.27)" fill="#1D1E1D"/>
<circle cx="5" cy="5" r="5" transform="matrix(-0.98248 -0.18637 -0.18637 0.98248 350.16 1047.68)" fill="#1D1E1D"/>
<circle cx="5" cy="5" r="5" transform="matrix(-0.98248 -0.18637 -0.18637 0.98248 320.686 1042.09)" fill="#1D1E1D"/>
<circle cx="5" cy="5" r="5" transform="matrix(-0.98248 -0.18637 -0.18637 0.98248 291.212 1036.49)" fill="#1D1E1D"/>
<circle cx="5" cy="5" r="5" transform="matrix(-0.98248 -0.18637 -0.18637 0.98248 261.737 1030.9)" fill="#1D1E1D"/>
<circle cx="5" cy="5" r="5" transform="matrix(-0.98248 -0.18637 -0.18637 0.98248 232.263 1025.31)" fill="#1D1E1D"/>
<circle cx="5" cy="5" r="5" transform="matrix(-0.98248 -0.18637 -0.18637 0.98248 202.788 1019.72)" fill="#1D1E1D"/>
<circle cx="5" cy="5" r="5" transform="matrix(-0.98248 -0.18637 -0.18637 0.98248 173.314 1014.13)" fill="#1D1E1D"/>
<circle cx="5" cy="5" r="5" transform="matrix(-0.98248 -0.18637 -0.18637 0.98248 143.84 1008.54)" fill="#1D1E1D"/>
<circle cx="5" cy="5" r="5" transform="matrix(-0.98248 -0.18637 -0.18637 0.98248 114.365 1002.95)" fill="#1D1E1D"/>
<circle cx="5" cy="5" r="5" transform="matrix(-0.98248 -0.18637 -0.18637 0.98248 84.8909 997.357)" fill="#1D1E1D"/>
<circle cx="5" cy="5" r="5" transform="matrix(-0.98248 -0.18637 -0.18637 0.98248 55.4165 991.766)" fill="#1D1E1D"/>
<circle cx="5" cy="5" r="5" transform="matrix(-0.98248 -0.18637 -0.18637 0.98248 25.9421 986.174)" fill="#1D1E1D"/>
<circle cx="5" cy="5" r="5" transform="matrix(-0.98248 -0.18637 -0.18637 0.98248 521.416 1110.7)" fill="#1D1E1D"/>
<circle cx="5" cy="5" r="5" transform="matrix(-0.98248 -0.18637 -0.18637 0.98248 491.941 1105.11)" fill="#1D1E1D"/>
<circle cx="5" cy="5" r="5" transform="matrix(-0.98248 -0.18637 -0.18637 0.98248 462.467 1099.52)" fill="#1D1E1D"/>
<circle cx="5" cy="5" r="5" transform="matrix(-0.98248 -0.18637 -0.18637 0.98248 432.992 1093.92)" fill="#1D1E1D"/>
<circle cx="5" cy="5" r="5" transform="matrix(-0.98248 -0.18637 -0.18637 0.98248 403.518 1088.33)" fill="#1D1E1D"/>
<circle cx="5" cy="5" r="5" transform="matrix(-0.98248 -0.18637 -0.18637 0.98248 374.044 1082.74)" fill="#1D1E1D"/>
<circle cx="5" cy="5" r="5" transform="matrix(-0.98248 -0.18637 -0.18637 0.98248 344.569 1077.15)" fill="#1D1E1D"/>
<circle cx="5" cy="5" r="5" transform="matrix(-0.98248 -0.18637 -0.18637 0.98248 315.095 1071.56)" fill="#1D1E1D"/>
<circle cx="5" cy="5" r="5" transform="matrix(-0.98248 -0.18637 -0.18637 0.98248 285.62 1065.97)" fill="#1D1E1D"/>
<circle cx="5" cy="5" r="5" transform="matrix(-0.98248 -0.18637 -0.18637 0.98248 256.146 1060.38)" fill="#1D1E1D"/>
<circle cx="5" cy="5" r="5" transform="matrix(-0.98248 -0.18637 -0.18637 0.98248 226.672 1054.79)" fill="#1D1E1D"/>
<circle cx="5" cy="5" r="5" transform="matrix(-0.98248 -0.18637 -0.18637 0.98248 197.197 1049.2)" fill="#1D1E1D"/>
<circle cx="5" cy="5" r="5" transform="matrix(-0.98248 -0.18637 -0.18637 0.98248 167.723 1043.6)" fill="#1D1E1D"/>
<circle cx="5" cy="5" r="5" transform="matrix(-0.98248 -0.18637 -0.18637 0.98248 138.249 1038.01)" fill="#1D1E1D"/>
<circle cx="5" cy="5" r="5" transform="matrix(-0.98248 -0.18637 -0.18637 0.98248 108.774 1032.42)" fill="#1D1E1D"/>
<circle cx="5" cy="5" r="5" transform="matrix(-0.98248 -0.18637 -0.18637 0.98248 79.2998 1026.83)" fill="#1D1E1D"/>
<circle cx="5" cy="5" r="5" transform="matrix(-0.98248 -0.18637 -0.18637 0.98248 49.8254 1021.24)" fill="#1D1E1D"/>
<circle cx="5" cy="5" r="5" transform="matrix(-0.98248 -0.18637 -0.18637 0.98248 20.3511 1015.65)" fill="#1D1E1D"/>
<circle cx="5" cy="5" r="5" transform="matrix(-0.98248 -0.18637 -0.18637 0.98248 515.824 1140.17)" fill="#1D1E1D"/>
<circle cx="5" cy="5" r="5" transform="matrix(-0.98248 -0.18637 -0.18637 0.98248 486.35 1134.58)" fill="#1D1E1D"/>
<circle cx="5" cy="5" r="5" transform="matrix(-0.98248 -0.18637 -0.18637 0.98248 456.876 1128.99)" fill="#1D1E1D"/>
<circle cx="5" cy="5" r="5" transform="matrix(-0.98248 -0.18637 -0.18637 0.98248 427.401 1123.4)" fill="#1D1E1D"/>
<circle cx="5" cy="5" r="5" transform="matrix(-0.98248 -0.18637 -0.18637 0.98248 397.927 1117.81)" fill="#1D1E1D"/>
<circle cx="5" cy="5" r="5" transform="matrix(-0.98248 -0.18637 -0.18637 0.98248 368.452 1112.22)" fill="#1D1E1D"/>
<circle cx="5" cy="5" r="5" transform="matrix(-0.98248 -0.18637 -0.18637 0.98248 338.978 1106.63)" fill="#1D1E1D"/>
<circle cx="5" cy="5" r="5" transform="matrix(-0.98248 -0.18637 -0.18637 0.98248 309.504 1101.03)" fill="#1D1E1D"/>
<circle cx="5" cy="5" r="5" transform="matrix(-0.98248 -0.18637 -0.18637 0.98248 280.029 1095.44)" fill="#1D1E1D"/>
<circle cx="5" cy="5" r="5" transform="matrix(-0.98248 -0.18637 -0.18637 0.98248 250.555 1089.85)" fill="#1D1E1D"/>
<circle cx="5" cy="5" r="5" transform="matrix(-0.98248 -0.18637 -0.18637 0.98248 221.081 1084.26)" fill="#1D1E1D"/>
<circle cx="5" cy="5" r="5" transform="matrix(-0.98248 -0.18637 -0.18637 0.98248 191.606 1078.67)" fill="#1D1E1D"/>
<circle cx="5" cy="5" r="5" transform="matrix(-0.98248 -0.18637 -0.18637 0.98248 162.132 1073.08)" fill="#1D1E1D"/>
<circle cx="5" cy="5" r="5" transform="matrix(-0.98248 -0.18637 -0.18637 0.98248 132.657 1067.49)" fill="#1D1E1D"/>
<circle cx="5" cy="5" r="5" transform="matrix(-0.98248 -0.18637 -0.18637 0.98248 103.183 1061.9)" fill="#1D1E1D"/>
<circle cx="5" cy="5" r="5" transform="matrix(-0.98248 -0.18637 -0.18637 0.98248 73.7087 1056.31)" fill="#1D1E1D"/>
<circle cx="5" cy="5" r="5" transform="matrix(-0.98248 -0.18637 -0.18637 0.98248 44.2341 1050.71)" fill="#1D1E1D"/>
<circle cx="5" cy="5" r="5" transform="matrix(-0.98248 -0.18637 -0.18637 0.98248 14.7598 1045.12)" fill="#1D1E1D"/>
<circle cx="5" cy="5" r="5" transform="matrix(-0.98248 -0.18637 -0.18637 0.98248 362.861 1141.69)" fill="#1D1E1D"/>
<circle cx="5" cy="5" r="5" transform="matrix(-0.98248 -0.18637 -0.18637 0.98248 333.387 1136.1)" fill="#1D1E1D"/>
<circle cx="5" cy="5" r="5" transform="matrix(-0.98248 -0.18637 -0.18637 0.98248 303.913 1130.51)" fill="#1D1E1D"/>
<circle cx="5" cy="5" r="5" transform="matrix(-0.98248 -0.18637 -0.18637 0.98248 274.438 1124.92)" fill="#1D1E1D"/>
<circle cx="5" cy="5" r="5" transform="matrix(-0.98248 -0.18637 -0.18637 0.98248 244.964 1119.33)" fill="#1D1E1D"/>
<circle cx="5" cy="5" r="5" transform="matrix(-0.98248 -0.18637 -0.18637 0.98248 215.49 1113.74)" fill="#1D1E1D"/>
<circle cx="5" cy="5" r="5" transform="matrix(-0.98248 -0.18637 -0.18637 0.98248 186.015 1108.14)" fill="#1D1E1D"/>
<circle cx="5" cy="5" r="5" transform="matrix(-0.98248 -0.18637 -0.18637 0.98248 156.541 1102.55)" fill="#1D1E1D"/>
<circle cx="5" cy="5" r="5" transform="matrix(-0.98248 -0.18637 -0.18637 0.98248 127.066 1096.96)" fill="#1D1E1D"/>
<circle cx="5" cy="5" r="5" transform="matrix(-0.98248 -0.18637 -0.18637 0.98248 97.5918 1091.37)" fill="#1D1E1D"/>
<circle cx="5" cy="5" r="5" transform="matrix(-0.98248 -0.18637 -0.18637 0.98248 68.1174 1085.78)" fill="#1D1E1D"/>
<circle cx="5" cy="5" r="5" transform="matrix(-0.98248 -0.18637 -0.18637 0.98248 38.6431 1080.19)" fill="#1D1E1D"/>
<circle cx="5" cy="5" r="5" transform="matrix(-0.98248 -0.18637 -0.18637 0.98248 9.1687 1074.6)" fill="#1D1E1D"/>
<circle cx="5" cy="5" r="5" transform="matrix(-0.98248 -0.18637 -0.18637 0.98248 180.424 1137.62)" fill="#1D1E1D"/>
<circle cx="5" cy="5" r="5" transform="matrix(-0.98248 -0.18637 -0.18637 0.98248 150.949 1132.03)" fill="#1D1E1D"/>
<circle cx="5" cy="5" r="5" transform="matrix(-0.98248 -0.18637 -0.18637 0.98248 121.475 1126.44)" fill="#1D1E1D"/>
<circle cx="5" cy="5" r="5" transform="matrix(-0.98248 -0.18637 -0.18637 0.98248 92.0007 1120.85)" fill="#1D1E1D"/>
<circle cx="5" cy="5" r="5" transform="matrix(-0.98248 -0.18637 -0.18637 0.98248 62.5264 1115.25)" fill="#1D1E1D"/>
<circle cx="5" cy="5" r="5" transform="matrix(-0.98248 -0.18637 -0.18637 0.98248 33.052 1109.66)" fill="#1D1E1D"/>
<circle cx="5" cy="5" r="5" transform="matrix(-0.98248 -0.18637 -0.18637 0.98248 3.57764 1104.07)" fill="#1D1E1D"/>
<circle cx="5" cy="5" r="5" transform="matrix(-0.98248 -0.18637 -0.18637 0.98248 27.4609 1139.14)" fill="#1D1E1D"/>
</g>
</svg>
