<svg width="1097" height="793" viewBox="0 0 1097 793" fill="none" xmlns="http://www.w3.org/2000/svg">
<path d="M964.033 640.283L-41.3346 379.75L-28.9041 889.01L964.033 640.283Z" fill="#FF847C"/>
<mask id="mask0_105_25656" style="mask-type:alpha" maskUnits="userSpaceOnUse" x="-42" y="379" width="1007" height="511">
<path d="M964.038 640.283L-41.3302 379.75L-28.8997 889.009L964.038 640.283Z" fill="white"/>
</mask>
<g mask="url(#mask0_105_25656)">
<path d="M-116.65 621.37L-74.6971 596.415L-69.706 604.805L-111.659 629.761L-116.65 621.37Z" fill="#1D1E1D"/>
<path d="M-87.7549 619.371L-57.5627 657.728L-65.234 663.766L-95.4262 625.41L-87.7549 619.371Z" fill="#1D1E1D"/>
<path d="M-104.312 648.072L-78.5254 659.969L-82.6152 668.834L-108.402 656.937L-104.312 648.072Z" fill="#1D1E1D"/>
<path d="M-75.9809 702.24L-70.2099 730.046L-79.769 732.03L-85.54 704.224L-75.9809 702.24Z" fill="#1D1E1D"/>
<path d="M-15.5656 687.163L11.044 697.083L7.63367 706.23L-18.9758 696.31L-15.5656 687.163Z" fill="#1D1E1D"/>
<path d="M-5.997 713.71L-0.225997 741.516L-9.78507 743.5L-15.5561 715.694L-5.997 713.71Z" fill="#1D1E1D"/>
<path d="M-9.80297 776.622L14.7341 790.919L9.81914 799.354L-14.718 785.057L-9.80297 776.622Z" fill="#1D1E1D"/>
<path d="M24.5674 707.205L13.6765 733.432L4.66021 729.688L15.5511 703.461L24.5674 707.205Z" fill="#1D1E1D"/>
<path d="M-22.869 689.452L-47.4332 703.702L-52.3322 695.257L-27.768 681.007L-22.869 689.452Z" fill="#1D1E1D"/>
<path d="M3.15123 621.667L-8.93571 647.365L-17.7701 643.21L-5.68313 617.512L3.15123 621.667Z" fill="#1D1E1D"/>
<path d="M15.7888 671.773L-3.52659 650.955L3.63021 644.315L22.9456 665.133L15.7888 671.773Z" fill="#1D1E1D"/>
<path d="M-47.5582 652.906L-47.2387 624.51L-37.4765 624.62L-37.796 653.016L-47.5582 652.906Z" fill="#1D1E1D"/>
<path d="M-71.0171 622.402L-47.1343 607.037L-41.8521 615.248L-65.7349 630.613L-71.0171 622.402Z" fill="#1D1E1D"/>
<path d="M-37.5825 763.27L-77.5503 746.62L-73.796 737.608L-33.8282 754.258L-37.5825 763.27Z" fill="#1D1E1D"/>
<path d="M-50.5281 803.611L-68.0886 764.035L-59.1648 760.075L-41.6044 799.651L-50.5281 803.611Z" fill="#1D1E1D"/>
<path d="M-77.6131 785.051L-87.069 763.74L-78.1452 759.781L-68.6893 781.092L-77.6131 785.051Z" fill="#1D1E1D"/>
<path d="M-117.058 800.978L-131.474 782.654L-123.802 776.618L-109.386 794.941L-117.058 800.978Z" fill="#1D1E1D"/>
<path d="M-130.007 760.468L-123.582 738.056L-114.198 740.747L-120.622 763.158L-130.007 760.468Z" fill="#1D1E1D"/>
<path d="M-101.418 643.209L-124.277 647.793L-126.197 638.22L-103.337 633.637L-101.418 643.209Z" fill="#1D1E1D"/>
<path d="M-117.032 591.189L-114.97 614.412L-124.694 615.276L-126.757 592.053L-117.032 591.189Z" fill="#1D1E1D"/>
<path d="M-69.8455 803.284L-109.813 786.634L-106.059 777.622L-66.0913 794.272L-69.8455 803.284Z" fill="#1D1E1D"/>
<path d="M-23.0628 770.499L-33.9673 728.597L-24.5192 726.139L-13.6147 768.04L-23.0628 770.499Z" fill="#1D1E1D"/>
<path d="M-13.1198 806.675L-44.4756 776.818L-37.7433 769.748L-6.38749 799.605L-13.1198 806.675Z" fill="#1D1E1D"/>
<path d="M-6.76874 763.927L22.223 731.77L29.474 738.307L0.482288 770.464L-6.76874 763.927Z" fill="#1D1E1D"/>
<path d="M86.6372 799.411L129.917 798.179L130.195 807.938L86.9151 809.17L86.6372 799.411Z" fill="#1D1E1D"/>
<path d="M27.2725 756.993L29.3231 800.241L19.5713 800.704L17.5207 757.455L27.2725 756.993Z" fill="#1D1E1D"/>
<path d="M-114.924 657.012L-106.628 700.363L-116.217 702.198L-124.513 658.846L-114.924 657.012Z" fill="#1D1E1D"/>
<path d="M-95.8772 561.678L-100.422 605.581L-110.133 604.576L-105.588 560.673L-95.8772 561.678Z" fill="#1D1E1D"/>
<path d="M-112.651 487.83L-109.904 531.882L-119.648 532.49L-122.395 488.438L-112.651 487.83Z" fill="#1D1E1D"/>
<path d="M-88.5496 672.732L-93.0946 716.635L-102.805 715.63L-98.2605 671.727L-88.5496 672.732Z" fill="#1D1E1D"/>
<path d="M-67.9993 669.996L-55.3226 712.275L-64.6741 715.078L-77.3507 672.8L-67.9993 669.996Z" fill="#1D1E1D"/>
<path d="M18.0903 694.278L-14.6614 664.689L-8.11681 657.445L24.6349 687.033L18.0903 694.278Z" fill="#1D1E1D"/>
<path d="M-123.432 708.046L-93.3697 740.364L-100.518 747.013L-130.58 714.696L-123.432 708.046Z" fill="#1D1E1D"/>
<path d="M-79.0845 751.753L-115.396 776.846L-120.946 768.814L-84.6348 743.721L-79.0845 751.753Z" fill="#1D1E1D"/>
<path d="M-17.4942 657.963L-53.8053 683.056L-59.3555 675.024L-23.0444 649.932L-17.4942 657.963Z" fill="#1D1E1D"/>
<path d="M-21.147 708.796L-57.4581 733.889L-63.0084 725.857L-26.6972 700.764L-21.147 708.796Z" fill="#1D1E1D"/>
<path d="M36.5932 618.724L78.5458 593.769L83.5369 602.159L41.5843 627.115L36.5932 618.724Z" fill="#1D1E1D"/>
<path d="M11.3804 638.815L59.0226 628.184L61.1488 637.712L13.5067 648.343L11.3804 638.815Z" fill="#1D1E1D"/>
<path d="M65.4879 616.725L95.6801 655.082L88.0088 661.12L57.8166 622.764L65.4879 616.725Z" fill="#1D1E1D"/>
<path d="M48.9289 645.426L74.7154 657.323L70.6257 666.188L44.8391 654.291L48.9289 645.426Z" fill="#1D1E1D"/>
<path d="M77.26 699.594L83.031 727.4L73.4719 729.383L67.7009 701.578L77.26 699.594Z" fill="#1D1E1D"/>
<path d="M127.733 685.154L103.169 699.404L98.2702 690.96L122.834 676.709L127.733 685.154Z" fill="#1D1E1D"/>
<path d="M135.779 712.582L136.5 684.193L146.259 684.441L145.538 712.83L135.779 712.582Z" fill="#1D1E1D"/>
<path d="M146.887 653.212L137.987 680.18L128.716 677.12L137.616 650.153L146.887 653.212Z" fill="#1D1E1D"/>
<path d="M105.685 650.26L106.004 621.864L115.766 621.974L115.447 650.37L105.685 650.26Z" fill="#1D1E1D"/>
<path d="M104.57 585.196L128.453 569.831L133.735 578.042L109.853 593.407L104.57 585.196Z" fill="#1D1E1D"/>
<path d="M108.196 596.274L129.009 615.594L122.367 622.749L101.554 603.429L108.196 596.274Z" fill="#1D1E1D"/>
<path d="M120.313 593.691L144.196 578.326L149.478 586.537L125.595 601.902L120.313 593.691Z" fill="#1D1E1D"/>
<path d="M119.352 758.497L79.3845 741.847L83.1388 732.835L123.107 749.485L119.352 758.497Z" fill="#1D1E1D"/>
<path d="M136.385 798.399L106.187 767.371L113.183 760.562L143.381 791.59L136.385 798.399Z" fill="#1D1E1D"/>
<path d="M102.789 796.413L85.2289 756.837L94.1527 752.877L111.713 792.453L102.789 796.413Z" fill="#1D1E1D"/>
<path d="M75.6272 782.395L66.1713 761.085L75.095 757.125L84.5509 778.436L75.6272 782.395Z" fill="#1D1E1D"/>
<path d="M83.3881 799.02L43.4202 782.371L47.1745 773.359L87.1423 790.008L83.3881 799.02Z" fill="#1D1E1D"/>
<path d="M133.348 763.795L122.444 721.894L131.892 719.435L142.797 761.336L133.348 763.795Z" fill="#1D1E1D"/>
<path d="M34.0745 651.239L49.1633 692.718L39.9887 696.056L24.8999 654.577L34.0745 651.239Z" fill="#1D1E1D"/>
<path d="M22.1078 586.39L37.1967 627.868L28.0221 631.206L12.9332 589.727L22.1078 586.39Z" fill="#1D1E1D"/>
<path d="M50.3071 560.764L45.7621 604.667L36.0512 603.662L40.5962 559.759L50.3071 560.764Z" fill="#1D1E1D"/>
<path d="M64.6913 670.086L60.1463 713.989L50.4354 712.984L54.9804 669.081L64.6913 670.086Z" fill="#1D1E1D"/>
<path d="M85.2438 667.342L97.9205 709.621L88.569 712.425L75.8924 670.146L85.2438 667.342Z" fill="#1D1E1D"/>
<path d="M38.1438 702.837L50.8204 745.115L41.4689 747.919L28.7923 705.641L38.1438 702.837Z" fill="#1D1E1D"/>
<path d="M74.1564 749.107L37.8452 774.2L32.295 766.168L68.6061 741.075L74.1564 749.107Z" fill="#1D1E1D"/>
<path d="M132.72 656.209L96.409 681.302L90.8588 673.271L127.17 648.178L132.72 656.209Z" fill="#1D1E1D"/>
<path d="M132.094 706.15L95.7829 731.243L90.2327 723.211L126.544 698.118L132.094 706.15Z" fill="#1D1E1D"/>
<path d="M-13.7253 578.097L-56.2007 602.151L-61.0117 593.656L-18.5362 569.602L-13.7253 578.097Z" fill="#1D1E1D"/>
<path d="M11.9104 558.543L-35.9477 568.155L-37.8702 558.583L9.98799 548.971L11.9104 558.543Z" fill="#1D1E1D"/>
<path d="M-42.6571 579.469L-72.024 540.477L-64.2256 534.603L-34.8587 573.595L-42.6571 579.469Z" fill="#1D1E1D"/>
<path d="M-25.4902 551.139L-51.017 538.695L-46.739 529.919L-21.2122 542.363L-25.4902 551.139Z" fill="#1D1E1D"/>
<path d="M23.8405 532.839L37.9938 508.219L46.4577 513.085L32.3044 537.705L23.8405 532.839Z" fill="#1D1E1D"/>
<path d="M45.2401 499.615L18.382 508.841L15.2104 499.608L42.0686 490.382L45.2401 499.615Z" fill="#1D1E1D"/>
<path d="M7.92308 566.031L35.0747 574.354L32.2137 583.688L5.06205 575.365L7.92308 566.031Z" fill="#1D1E1D"/>
<path d="M-52.8048 499.973L-57.9812 472.05L-48.382 470.27L-43.2056 498.193L-52.8048 499.973Z" fill="#1D1E1D"/>
<path d="M-28.3398 480.468L-51.7389 464.376L-46.2069 456.331L-22.8077 472.423L-28.3398 480.468Z" fill="#1D1E1D"/>
<path d="M22.3452 449.651L5.20988 427.005L12.9952 421.114L30.1305 443.76L22.3452 449.651Z" fill="#1D1E1D"/>
<path d="M71.2298 433.44L45.4755 421.474L49.5892 412.62L75.3435 424.587L71.2298 433.44Z" fill="#1D1E1D"/>
<path d="M-106.031 508.021L-81.1682 494.298L-76.4505 502.845L-101.313 516.568L-106.031 508.021Z" fill="#1D1E1D"/>
<path d="M-82.1279 545.089L-83.0532 573.472L-92.8108 573.154L-91.8855 544.771L-82.1279 545.089Z" fill="#1D1E1D"/>
<path d="M-59.3235 576.088L-83.5286 590.94L-88.6344 582.619L-64.4293 567.767L-59.3235 576.088Z" fill="#1D1E1D"/>
<path d="M-93.5197 438.848L-51.9592 450.987L-54.6964 460.359L-96.2569 448.219L-93.5197 438.848Z" fill="#1D1E1D"/>
<path d="M-75.0547 397.067L-58.3427 437.009L-67.3489 440.778L-84.0609 400.836L-75.0547 397.067Z" fill="#1D1E1D"/>
<path d="M-49.2597 413.62L-40.2607 435.128L-49.2669 438.896L-58.2659 417.388L-49.2597 413.62Z" fill="#1D1E1D"/>
<path d="M-62.5915 389.788L-25.6446 412.362L-30.7345 420.693L-67.6815 398.119L-62.5915 389.788Z" fill="#1D1E1D"/>
<path d="M-78.8323 467.046L-122.053 469.61L-122.632 459.864L-79.4104 457.301L-78.8323 467.046Z" fill="#1D1E1D"/>
<path d="M-10.5127 545.642L-24.7132 503.851L-15.4694 500.71L-1.26903 542.501L-10.5127 545.642Z" fill="#1D1E1D"/>
<path d="M-2.27949 611.845L-10.668 568.511L-1.08312 566.656L7.30535 609.989L-2.27949 611.845Z" fill="#1D1E1D"/>
<path d="M-30.4209 634.486L-24.9402 590.69L-15.253 591.902L-20.7337 635.699L-30.4209 634.486Z" fill="#1D1E1D"/>
<path d="M-41.7004 527.452L-36.2197 483.656L-26.5325 484.868L-32.0132 528.665L-41.7004 527.452Z" fill="#1D1E1D"/>
<path d="M-5.31178 511.772L14.2628 472.212L23.013 476.542L3.43841 516.102L-5.31178 511.772Z" fill="#1D1E1D"/>
<path d="M-61.3276 528.448L-73.0993 485.909L-63.6901 483.305L-51.9185 525.844L-61.3276 528.448Z" fill="#1D1E1D"/>
<path d="M-13.483 493.954L-25.2546 451.415L-15.8455 448.811L-4.07381 491.35L-13.483 493.954Z" fill="#1D1E1D"/>
<path d="M3.06425 420.541L-36.773 401.537L-32.5696 392.726L7.26764 411.729L3.06425 420.541Z" fill="#1D1E1D"/>
<path d="M17.5517 419.035L55.0979 395.831L60.2304 404.136L22.6841 427.34L17.5517 419.035Z" fill="#1D1E1D"/>
<path d="M-3.50896 393.586L40.5533 391.004L41.1243 400.75L-2.938 403.332L-3.50896 393.586Z" fill="#1D1E1D"/>
<path d="M-3.21826 480.799L-2.19764 436.673L7.56252 436.898L6.54191 481.025L-3.21826 480.799Z" fill="#1D1E1D"/>
<path d="M-48.5012 446.941L-11.6629 422.629L-6.28533 430.777L-43.1236 455.089L-48.5012 446.941Z" fill="#1D1E1D"/>
<path d="M-112.079 539.41L-75.2405 515.098L-69.8629 523.246L-106.701 547.558L-112.079 539.41Z" fill="#1D1E1D"/>
<path d="M10.1417 521.086L35.0456 557.527L26.9853 563.036L2.08133 526.595L10.1417 521.086Z" fill="#1D1E1D"/>
<path d="M-115.549 396.141L-86.2505 429.152L-93.5523 435.633L-122.85 402.621L-115.549 396.141Z" fill="#1D1E1D"/>
<path d="M-108.051 486.464L-68.9385 466.01L-64.4144 474.661L-103.527 495.115L-108.051 486.464Z" fill="#1D1E1D"/>
<path d="M97.3079 585.868L96.3899 634.674L86.6289 634.49L87.5469 585.685L97.3079 585.868Z" fill="#1D1E1D"/>
<path d="M107.447 575.35L78.08 536.358L85.8783 530.485L115.245 569.477L107.447 575.35Z" fill="#1D1E1D"/>
<path d="M127.751 548.487L102.225 536.043L106.503 527.267L132.029 539.711L127.751 548.487Z" fill="#1D1E1D"/>
<path d="M148.729 564.223L120.337 563.587L120.556 553.827L148.947 554.463L148.729 564.223Z" fill="#1D1E1D"/>
<path d="M100.582 493.722L95.4057 465.8L105.005 464.02L110.181 491.943L100.582 493.722Z" fill="#1D1E1D"/>
<path d="M144.01 466.29L136.143 439.003L145.524 436.299L153.391 463.586L144.01 466.29Z" fill="#1D1E1D"/>
<path d="M28.7076 486.054L23.5312 458.132L33.1304 456.352L38.3068 484.275L28.7076 486.054Z" fill="#1D1E1D"/>
<path d="M47.212 505.375L72.0746 491.652L76.7923 500.199L51.9296 513.922L47.212 505.375Z" fill="#1D1E1D"/>
<path d="M71.113 542.443L70.1877 570.826L60.4301 570.508L61.3554 542.125L71.113 542.443Z" fill="#1D1E1D"/>
<path d="M-110.071 553.216L-116.977 580.762L-126.447 578.387L-119.541 550.842L-110.071 553.216Z" fill="#1D1E1D"/>
<path d="M-124.35 450.775L-109.893 426.332L-101.49 431.302L-115.947 455.745L-124.35 450.775Z" fill="#1D1E1D"/>
<path d="M-93.478 416.826L-100.422 389.29L-90.9559 386.903L-84.0116 414.439L-93.478 416.826Z" fill="#1D1E1D"/>
<path d="M93.9157 573.434L69.7106 588.286L64.6048 579.965L88.8099 565.113L93.9157 573.434Z" fill="#1D1E1D"/>
<path d="M33.1275 791.372L56.0189 808.178L61.7965 800.309L38.9052 783.502L33.1275 791.372Z" fill="#1D1E1D"/>
<path d="M59.7556 433.934L99.3591 451.433L95.4134 460.363L55.81 442.864L59.7556 433.934Z" fill="#1D1E1D"/>
<path d="M77.126 396.387L93.838 436.329L84.8318 440.098L68.1198 400.156L77.126 396.387Z" fill="#1D1E1D"/>
<path d="M100.637 409.886L117.308 426.185L110.483 433.166L93.812 416.867L100.637 409.886Z" fill="#1D1E1D"/>
<path d="M155.001 399.182L143.366 419.386L134.906 414.514L146.54 394.31L155.001 399.182Z" fill="#1D1E1D"/>
<path d="M90.6035 394.566L132.579 405.181L130.186 414.646L88.21 404.031L90.6035 394.566Z" fill="#1D1E1D"/>
<path d="M45.8766 428.335L55.8845 470.46L46.3861 472.716L36.3782 430.592L45.8766 428.335Z" fill="#1D1E1D"/>
<path d="M138.582 546.634L131.165 503.124L140.789 501.483L148.206 544.994L138.582 546.634Z" fill="#1D1E1D"/>
<path d="M120.838 641.025L139.872 601.203L148.681 605.413L129.646 645.235L120.838 641.025Z" fill="#1D1E1D"/>
<path d="M112.519 523.498L117.999 479.702L127.687 480.914L122.206 524.71L112.519 523.498Z" fill="#1D1E1D"/>
<path d="M91.9155 525.794L80.1438 483.255L89.553 480.651L101.325 523.19L91.9155 525.794Z" fill="#1D1E1D"/>
<path d="M144.884 494.484L119.532 458.353L127.523 452.745L152.876 488.876L144.884 494.484Z" fill="#1D1E1D"/>
<path d="M102.958 444.425L139.796 420.112L145.174 428.26L108.336 452.573L102.958 444.425Z" fill="#1D1E1D"/>
<path d="M41.1626 536.749L78.0009 512.436L83.3785 520.584L46.5402 544.897L41.1626 536.749Z" fill="#1D1E1D"/>
<path d="M45.9013 485.997L82.7396 461.684L88.1172 469.832L51.2789 494.145L45.9013 485.997Z" fill="#1D1E1D"/>
<path d="M161.496 630.045L203.449 605.09L208.44 613.48L166.487 638.436L161.496 630.045Z" fill="#1D1E1D"/>
<path d="M190.391 628.046L220.583 666.403L212.912 672.441L182.72 634.085L190.391 628.046Z" fill="#1D1E1D"/>
<path d="M173.834 656.747L199.62 668.644L195.531 677.509L169.744 665.612L173.834 656.747Z" fill="#1D1E1D"/>
<path d="M202.165 710.915L207.936 738.721L198.377 740.705L192.606 712.899L202.165 710.915Z" fill="#1D1E1D"/>
<path d="M262.58 695.838L289.19 705.758L285.779 714.905L259.17 704.985L262.58 695.838Z" fill="#1D1E1D"/>
<path d="M272.149 722.385L277.92 750.191L268.361 752.175L262.59 724.369L272.149 722.385Z" fill="#1D1E1D"/>
<path d="M268.343 785.297L292.88 799.594L287.965 808.029L263.428 793.732L268.343 785.297Z" fill="#1D1E1D"/>
<path d="M302.713 715.88L291.822 742.107L282.806 738.363L293.697 712.136L302.713 715.88Z" fill="#1D1E1D"/>
<path d="M255.277 698.127L230.713 712.377L225.814 703.932L250.378 689.682L255.277 698.127Z" fill="#1D1E1D"/>
<path d="M281.297 630.342L269.21 656.04L260.376 651.885L272.463 626.187L281.297 630.342Z" fill="#1D1E1D"/>
<path d="M293.935 680.448L274.619 659.63L281.776 652.99L301.091 673.808L293.935 680.448Z" fill="#1D1E1D"/>
<path d="M230.588 661.581L230.907 633.185L240.669 633.295L240.35 661.691L230.588 661.581Z" fill="#1D1E1D"/>
<path d="M207.129 631.078L231.011 615.712L236.294 623.923L212.411 639.288L207.129 631.078Z" fill="#1D1E1D"/>
<path d="M240.563 771.945L200.595 755.295L204.35 746.283L244.318 762.933L240.563 771.945Z" fill="#1D1E1D"/>
<path d="M227.618 812.286L210.057 772.71L218.981 768.75L236.541 808.326L227.618 812.286Z" fill="#1D1E1D"/>
<path d="M200.533 793.726L191.077 772.415L200.001 768.456L209.456 789.767L200.533 793.726Z" fill="#1D1E1D"/>
<path d="M161.087 809.653L146.671 791.329L154.344 785.293L168.76 803.616L161.087 809.653Z" fill="#1D1E1D"/>
<path d="M148.139 769.143L154.563 746.731L163.948 749.422L157.524 771.833L148.139 769.143Z" fill="#1D1E1D"/>
<path d="M176.728 651.884L153.869 656.468L151.949 646.895L174.809 642.312L176.728 651.884Z" fill="#1D1E1D"/>
<path d="M161.114 599.864L163.176 623.087L153.451 623.951L151.389 600.728L161.114 599.864Z" fill="#1D1E1D"/>
<path d="M208.3 811.959L168.332 795.309L172.087 786.297L212.054 802.947L208.3 811.959Z" fill="#1D1E1D"/>
<path d="M255.083 779.174L244.178 737.272L253.627 734.814L264.531 776.715L255.083 779.174Z" fill="#1D1E1D"/>
<path d="M265.026 815.35L233.67 785.493L240.402 778.423L271.758 808.28L265.026 815.35Z" fill="#1D1E1D"/>
<path d="M271.377 772.602L300.369 740.445L307.62 746.982L278.628 779.139L271.377 772.602Z" fill="#1D1E1D"/>
<path d="M364.783 808.086L408.063 806.854L408.34 816.613L365.061 817.845L364.783 808.086Z" fill="#1D1E1D"/>
<path d="M305.418 765.668L307.469 808.916L297.717 809.379L295.666 766.13L305.418 765.668Z" fill="#1D1E1D"/>
<path d="M163.222 665.687L171.517 709.038L161.928 710.873L153.633 667.521L163.222 665.687Z" fill="#1D1E1D"/>
<path d="M182.269 570.353L177.724 614.256L168.013 613.251L172.558 569.348L182.269 570.353Z" fill="#1D1E1D"/>
<path d="M165.495 496.505L168.242 540.557L158.498 541.165L155.751 497.113L165.495 496.505Z" fill="#1D1E1D"/>
<path d="M189.596 681.407L185.051 725.31L175.34 724.305L179.885 680.402L189.596 681.407Z" fill="#1D1E1D"/>
<path d="M210.146 678.671L222.823 720.95L213.472 723.754L200.795 681.475L210.146 678.671Z" fill="#1D1E1D"/>
<path d="M296.236 702.953L263.484 673.364L270.029 666.12L302.781 695.708L296.236 702.953Z" fill="#1D1E1D"/>
<path d="M154.714 716.721L184.776 749.039L177.628 755.688L147.565 723.371L154.714 716.721Z" fill="#1D1E1D"/>
<path d="M199.061 760.428L162.75 785.521L157.2 777.489L193.511 752.396L199.061 760.428Z" fill="#1D1E1D"/>
<path d="M260.652 666.638L224.34 691.731L218.79 683.699L255.101 658.607L260.652 666.638Z" fill="#1D1E1D"/>
<path d="M256.999 717.471L220.688 742.564L215.137 734.532L251.449 709.439L256.999 717.471Z" fill="#1D1E1D"/>
<path d="M314.739 627.399L356.692 602.444L361.683 610.834L319.73 635.79L314.739 627.399Z" fill="#1D1E1D"/>
<path d="M289.526 647.49L337.168 636.859L339.295 646.387L291.652 657.019L289.526 647.49Z" fill="#1D1E1D"/>
<path d="M343.634 625.4L373.826 663.757L366.155 669.795L335.962 631.439L343.634 625.4Z" fill="#1D1E1D"/>
<path d="M327.075 654.101L352.861 665.998L348.771 674.863L322.985 662.966L327.075 654.101Z" fill="#1D1E1D"/>
<path d="M355.406 708.269L361.177 736.075L351.618 738.059L345.847 710.253L355.406 708.269Z" fill="#1D1E1D"/>
<path d="M405.879 693.829L381.315 708.079L376.416 699.635L400.98 685.384L405.879 693.829Z" fill="#1D1E1D"/>
<path d="M413.925 721.257L414.646 692.868L424.405 693.116L423.684 721.505L413.925 721.257Z" fill="#1D1E1D"/>
<path d="M425.033 661.887L416.133 688.855L406.862 685.795L415.762 658.828L425.033 661.887Z" fill="#1D1E1D"/>
<path d="M383.83 658.935L384.15 630.539L393.912 630.649L393.593 659.045L383.83 658.935Z" fill="#1D1E1D"/>
<path d="M382.716 593.872L406.599 578.506L411.881 586.717L387.998 602.082L382.716 593.872Z" fill="#1D1E1D"/>
<path d="M386.341 604.949L407.155 624.269L400.513 631.424L379.7 612.104L386.341 604.949Z" fill="#1D1E1D"/>
<path d="M398.459 602.366L422.342 587.001L427.624 595.212L403.741 610.577L398.459 602.366Z" fill="#1D1E1D"/>
<path d="M397.498 767.172L357.53 750.522L361.285 741.51L401.252 758.16L397.498 767.172Z" fill="#1D1E1D"/>
<path d="M414.53 807.074L384.332 776.046L391.329 769.237L421.527 800.265L414.53 807.074Z" fill="#1D1E1D"/>
<path d="M380.935 805.088L363.375 765.512L372.298 761.552L389.859 801.129L380.935 805.088Z" fill="#1D1E1D"/>
<path d="M353.773 791.07L344.317 769.76L353.241 765.8L362.697 787.111L353.773 791.07Z" fill="#1D1E1D"/>
<path d="M361.534 807.696L321.566 791.046L325.32 782.034L365.288 798.683L361.534 807.696Z" fill="#1D1E1D"/>
<path d="M411.494 772.47L400.59 730.569L410.038 728.11L420.942 770.011L411.494 772.47Z" fill="#1D1E1D"/>
<path d="M312.22 659.915L327.309 701.393L318.134 704.731L303.046 663.252L312.22 659.915Z" fill="#1D1E1D"/>
<path d="M300.254 595.065L315.342 636.543L306.168 639.881L291.079 598.402L300.254 595.065Z" fill="#1D1E1D"/>
<path d="M328.453 569.439L323.908 613.342L314.197 612.337L318.742 568.434L328.453 569.439Z" fill="#1D1E1D"/>
<path d="M342.837 678.761L338.292 722.664L328.581 721.659L333.126 677.756L342.837 678.761Z" fill="#1D1E1D"/>
<path d="M363.39 676.017L376.066 718.296L366.715 721.1L354.038 678.821L363.39 676.017Z" fill="#1D1E1D"/>
<path d="M316.29 711.512L328.966 753.79L319.615 756.594L306.938 714.316L316.29 711.512Z" fill="#1D1E1D"/>
<path d="M352.302 757.782L315.991 782.875L310.441 774.843L346.752 749.75L352.302 757.782Z" fill="#1D1E1D"/>
<path d="M410.866 664.885L374.555 689.977L369.005 681.946L405.316 656.853L410.866 664.885Z" fill="#1D1E1D"/>
<path d="M410.24 714.825L373.929 739.918L368.378 731.886L404.69 706.793L410.24 714.825Z" fill="#1D1E1D"/>
<path d="M264.421 586.772L221.945 610.826L217.134 602.331L259.61 578.277L264.421 586.772Z" fill="#1D1E1D"/>
<path d="M290.056 567.218L242.198 576.83L240.276 567.258L288.134 557.646L290.056 567.218Z" fill="#1D1E1D"/>
<path d="M235.489 588.144L206.122 549.152L213.92 543.278L243.287 582.271L235.489 588.144Z" fill="#1D1E1D"/>
<path d="M252.656 559.814L227.129 547.37L231.407 538.594L256.934 551.038L252.656 559.814Z" fill="#1D1E1D"/>
<path d="M301.986 541.515L316.14 516.894L324.603 521.76L310.45 546.38L301.986 541.515Z" fill="#1D1E1D"/>
<path d="M323.386 508.29L296.528 517.516L293.356 508.283L320.214 499.057L323.386 508.29Z" fill="#1D1E1D"/>
<path d="M286.069 574.706L313.22 583.029L310.359 592.363L283.208 584.04L286.069 574.706Z" fill="#1D1E1D"/>
<path d="M225.341 508.648L220.165 480.725L229.764 478.945L234.94 506.868L225.341 508.648Z" fill="#1D1E1D"/>
<path d="M249.806 489.143L226.407 473.051L231.939 465.006L255.338 481.098L249.806 489.143Z" fill="#1D1E1D"/>
<path d="M300.491 458.326L283.356 435.68L291.141 429.789L308.276 452.435L300.491 458.326Z" fill="#1D1E1D"/>
<path d="M349.376 442.115L323.621 430.149L327.735 421.295L353.489 433.262L349.376 442.115Z" fill="#1D1E1D"/>
<path d="M172.115 516.696L196.978 502.973L201.695 511.52L176.833 525.243L172.115 516.696Z" fill="#1D1E1D"/>
<path d="M196.018 553.764L195.093 582.147L185.335 581.829L186.26 553.446L196.018 553.764Z" fill="#1D1E1D"/>
<path d="M218.822 584.763L194.617 599.615L189.511 591.294L213.716 576.442L218.822 584.763Z" fill="#1D1E1D"/>
<path d="M184.626 447.523L226.187 459.662L223.449 469.034L181.889 456.894L184.626 447.523Z" fill="#1D1E1D"/>
<path d="M203.091 405.742L219.803 445.684L210.797 449.453L194.085 409.511L203.091 405.742Z" fill="#1D1E1D"/>
<path d="M228.886 422.295L237.885 443.803L228.879 447.571L219.88 426.063L228.886 422.295Z" fill="#1D1E1D"/>
<path d="M215.554 398.463L252.501 421.037L247.411 429.368L210.464 406.794L215.554 398.463Z" fill="#1D1E1D"/>
<path d="M199.313 475.721L156.092 478.285L155.514 468.539L198.735 465.976L199.313 475.721Z" fill="#1D1E1D"/>
<path d="M267.633 554.317L253.433 512.526L262.676 509.385L276.877 551.176L267.633 554.317Z" fill="#1D1E1D"/>
<path d="M275.866 620.52L267.478 577.187L277.063 575.331L285.451 618.664L275.866 620.52Z" fill="#1D1E1D"/>
<path d="M247.725 643.161L253.206 599.365L262.893 600.577L257.412 644.374L247.725 643.161Z" fill="#1D1E1D"/>
<path d="M236.445 536.127L241.926 492.331L251.613 493.543L246.133 537.34L236.445 536.127Z" fill="#1D1E1D"/>
<path d="M272.834 520.447L292.409 480.887L301.159 485.217L281.584 524.777L272.834 520.447Z" fill="#1D1E1D"/>
<path d="M216.818 537.123L205.046 494.584L214.456 491.98L226.227 534.519L216.818 537.123Z" fill="#1D1E1D"/>
<path d="M264.663 502.629L252.891 460.09L262.3 457.486L274.072 500.025L264.663 502.629Z" fill="#1D1E1D"/>
<path d="M281.21 429.216L241.373 410.212L245.576 401.401L285.413 420.404L281.21 429.216Z" fill="#1D1E1D"/>
<path d="M295.697 427.71L333.244 404.506L338.376 412.811L300.83 436.015L295.697 427.71Z" fill="#1D1E1D"/>
<path d="M274.637 402.261L318.699 399.679L319.27 409.425L275.208 412.007L274.637 402.261Z" fill="#1D1E1D"/>
<path d="M274.927 489.474L275.948 445.348L285.708 445.574L284.688 489.7L274.927 489.474Z" fill="#1D1E1D"/>
<path d="M229.645 455.616L266.483 431.304L271.86 439.452L235.022 463.764L229.645 455.616Z" fill="#1D1E1D"/>
<path d="M166.067 548.085L202.905 523.773L208.283 531.921L171.445 556.234L166.067 548.085Z" fill="#1D1E1D"/>
<path d="M288.287 529.761L313.191 566.202L305.131 571.711L280.227 535.27L288.287 529.761Z" fill="#1D1E1D"/>
<path d="M162.597 404.816L191.895 437.827L184.593 444.308L155.295 411.296L162.597 404.816Z" fill="#1D1E1D"/>
<path d="M170.095 495.139L209.207 474.685L213.731 483.336L174.619 503.79L170.095 495.139Z" fill="#1D1E1D"/>
<path d="M375.454 594.543L374.536 643.349L364.775 643.165L365.693 594.36L375.454 594.543Z" fill="#1D1E1D"/>
<path d="M385.593 584.025L356.226 545.033L364.024 539.16L393.391 578.152L385.593 584.025Z" fill="#1D1E1D"/>
<path d="M405.897 557.162L380.37 544.718L384.648 535.942L410.175 548.386L405.897 557.162Z" fill="#1D1E1D"/>
<path d="M426.874 572.898L398.483 572.262L398.702 562.502L427.093 563.138L426.874 572.898Z" fill="#1D1E1D"/>
<path d="M378.728 502.397L373.551 474.475L383.151 472.695L388.327 500.618L378.728 502.397Z" fill="#1D1E1D"/>
<path d="M422.156 474.965L414.289 447.678L423.67 444.974L431.537 472.261L422.156 474.965Z" fill="#1D1E1D"/>
<path d="M306.853 494.729L301.677 466.807L311.276 465.027L316.453 492.95L306.853 494.729Z" fill="#1D1E1D"/>
<path d="M325.358 514.05L350.22 500.327L354.938 508.874L330.075 522.597L325.358 514.05Z" fill="#1D1E1D"/>
<path d="M349.259 551.118L348.333 579.501L338.576 579.183L339.501 550.8L349.259 551.118Z" fill="#1D1E1D"/>
<path d="M168.075 561.891L161.169 589.437L151.699 587.062L158.605 559.517L168.075 561.891Z" fill="#1D1E1D"/>
<path d="M153.796 459.45L168.253 435.007L176.656 439.977L162.199 464.42L153.796 459.45Z" fill="#1D1E1D"/>
<path d="M184.668 425.501L177.723 397.965L187.19 395.578L194.134 423.114L184.668 425.501Z" fill="#1D1E1D"/>
<path d="M372.061 582.109L347.856 596.961L342.751 588.64L366.956 573.788L372.061 582.109Z" fill="#1D1E1D"/>
<path d="M311.273 800.047L334.165 816.853L339.942 808.984L317.051 792.177L311.273 800.047Z" fill="#1D1E1D"/>
<path d="M337.901 442.609L377.505 460.108L373.559 469.038L333.956 451.539L337.901 442.609Z" fill="#1D1E1D"/>
<path d="M355.272 405.062L371.984 445.004L362.978 448.773L346.266 408.831L355.272 405.062Z" fill="#1D1E1D"/>
<path d="M378.783 418.562L395.454 434.86L388.629 441.841L371.958 425.542L378.783 418.562Z" fill="#1D1E1D"/>
<path d="M433.146 407.857L421.512 428.061L413.052 423.189L424.686 402.985L433.146 407.857Z" fill="#1D1E1D"/>
<path d="M368.749 403.241L410.725 413.856L408.332 423.321L366.356 412.706L368.749 403.241Z" fill="#1D1E1D"/>
<path d="M324.022 437.01L334.03 479.135L324.532 481.391L314.524 439.267L324.022 437.01Z" fill="#1D1E1D"/>
<path d="M416.727 555.309L409.311 511.799L418.935 510.158L426.351 553.669L416.727 555.309Z" fill="#1D1E1D"/>
<path d="M398.984 649.7L418.018 609.878L426.826 614.088L407.792 653.91L398.984 649.7Z" fill="#1D1E1D"/>
<path d="M390.664 532.173L396.145 488.377L405.832 489.589L400.352 533.385L390.664 532.173Z" fill="#1D1E1D"/>
<path d="M370.061 534.469L358.29 491.93L367.699 489.326L379.47 531.865L370.061 534.469Z" fill="#1D1E1D"/>
<path d="M423.03 503.159L397.678 467.028L405.669 461.421L431.022 497.551L423.03 503.159Z" fill="#1D1E1D"/>
<path d="M381.104 453.1L417.942 428.787L423.32 436.935L386.481 461.248L381.104 453.1Z" fill="#1D1E1D"/>
<path d="M319.308 545.424L356.147 521.111L361.524 529.259L324.686 553.572L319.308 545.424Z" fill="#1D1E1D"/>
<path d="M324.047 494.672L360.885 470.359L366.263 478.508L329.425 502.82L324.047 494.672Z" fill="#1D1E1D"/>
<path d="M439.642 638.72L481.594 613.765L486.586 622.155L444.633 647.111L439.642 638.72Z" fill="#1D1E1D"/>
<path d="M468.537 636.721L498.729 675.078L491.057 681.116L460.865 642.76L468.537 636.721Z" fill="#1D1E1D"/>
<path d="M451.98 665.422L477.766 677.319L473.676 686.184L447.89 674.287L451.98 665.422Z" fill="#1D1E1D"/>
<path d="M480.311 719.59L486.082 747.396L476.523 749.38L470.752 721.574L480.311 719.59Z" fill="#1D1E1D"/>
<path d="M540.726 704.513L567.335 714.433L563.925 723.58L537.316 713.66L540.726 704.513Z" fill="#1D1E1D"/>
<path d="M550.295 731.06L556.066 758.866L546.506 760.85L540.735 733.044L550.295 731.06Z" fill="#1D1E1D"/>
<path d="M546.489 793.972L571.026 808.269L566.111 816.704L541.574 802.407L546.489 793.972Z" fill="#1D1E1D"/>
<path d="M580.859 724.555L569.968 750.782L560.952 747.038L571.843 720.811L580.859 724.555Z" fill="#1D1E1D"/>
<path d="M533.423 706.802L508.858 721.052L503.959 712.607L528.524 698.357L533.423 706.802Z" fill="#1D1E1D"/>
<path d="M559.443 639.017L547.356 664.715L538.521 660.56L550.608 634.862L559.443 639.017Z" fill="#1D1E1D"/>
<path d="M572.08 689.123L552.765 668.305L559.922 661.665L579.237 682.483L572.08 689.123Z" fill="#1D1E1D"/>
<path d="M508.733 670.256L509.053 641.86L518.815 641.97L518.496 670.366L508.733 670.256Z" fill="#1D1E1D"/>
<path d="M485.274 639.752L509.157 624.387L514.439 632.598L490.557 647.963L485.274 639.752Z" fill="#1D1E1D"/>
<path d="M518.709 780.62L478.741 763.97L482.495 754.958L522.463 771.608L518.709 780.62Z" fill="#1D1E1D"/>
<path d="M505.763 820.961L488.203 781.385L497.127 777.425L514.687 817.001L505.763 820.961Z" fill="#1D1E1D"/>
<path d="M478.678 802.401L469.223 781.09L478.146 777.131L487.602 798.442L478.678 802.401Z" fill="#1D1E1D"/>
<path d="M439.233 818.328L424.817 800.004L432.49 793.968L446.906 812.291L439.233 818.328Z" fill="#1D1E1D"/>
<path d="M426.285 777.818L432.709 755.406L442.094 758.097L435.669 780.508L426.285 777.818Z" fill="#1D1E1D"/>
<path d="M454.874 660.559L432.014 665.143L430.095 655.57L452.955 650.987L454.874 660.559Z" fill="#1D1E1D"/>
<path d="M439.259 608.539L441.322 631.762L431.597 632.626L429.535 609.403L439.259 608.539Z" fill="#1D1E1D"/>
<path d="M486.446 820.634L446.478 803.984L450.232 794.972L490.2 811.622L486.446 820.634Z" fill="#1D1E1D"/>
<path d="M533.229 787.849L522.324 745.947L531.772 743.489L542.677 785.39L533.229 787.849Z" fill="#1D1E1D"/>
<path d="M543.172 824.025L511.816 794.168L518.548 787.098L549.904 816.955L543.172 824.025Z" fill="#1D1E1D"/>
<path d="M549.523 781.277L578.514 749.119L585.766 755.657L556.774 787.814L549.523 781.277Z" fill="#1D1E1D"/>
<path d="M642.929 816.761L686.208 815.529L686.486 825.288L643.207 826.52L642.929 816.761Z" fill="#1D1E1D"/>
<path d="M583.564 774.343L585.615 817.591L575.863 818.054L573.812 774.805L583.564 774.343Z" fill="#1D1E1D"/>
<path d="M441.368 674.362L449.663 717.713L440.074 719.548L431.779 676.196L441.368 674.362Z" fill="#1D1E1D"/>
<path d="M460.414 579.028L455.869 622.931L446.158 621.926L450.703 578.023L460.414 579.028Z" fill="#1D1E1D"/>
<path d="M443.641 505.18L446.387 549.232L436.643 549.84L433.897 505.788L443.641 505.18Z" fill="#1D1E1D"/>
<path d="M467.742 690.082L463.197 733.985L453.486 732.98L458.031 689.077L467.742 690.082Z" fill="#1D1E1D"/>
<path d="M488.292 687.346L500.969 729.624L491.617 732.428L478.941 690.15L488.292 687.346Z" fill="#1D1E1D"/>
<path d="M574.382 711.628L541.63 682.039L548.175 674.795L580.926 704.383L574.382 711.628Z" fill="#1D1E1D"/>
<path d="M432.859 725.396L462.922 757.714L455.774 764.363L425.711 732.046L432.859 725.396Z" fill="#1D1E1D"/>
<path d="M477.207 769.103L440.896 794.196L435.346 786.164L471.657 761.071L477.207 769.103Z" fill="#1D1E1D"/>
<path d="M538.797 675.313L502.486 700.406L496.936 692.374L533.247 667.282L538.797 675.313Z" fill="#1D1E1D"/>
<path d="M535.145 726.146L498.833 751.239L493.283 743.207L529.594 718.114L535.145 726.146Z" fill="#1D1E1D"/>
<path d="M592.885 636.074L634.837 611.119L639.828 619.509L597.876 644.465L592.885 636.074Z" fill="#1D1E1D"/>
<path d="M567.672 656.165L615.314 645.534L617.44 655.062L569.798 665.693L567.672 656.165Z" fill="#1D1E1D"/>
<path d="M621.779 634.075L651.972 672.432L644.3 678.47L614.108 640.114L621.779 634.075Z" fill="#1D1E1D"/>
<path d="M605.22 662.776L631.007 674.673L626.917 683.538L601.131 671.641L605.22 662.776Z" fill="#1D1E1D"/>
<path d="M633.551 716.944L639.322 744.749L629.763 746.733L623.992 718.928L633.551 716.944Z" fill="#1D1E1D"/>
<path d="M684.025 702.504L659.461 716.754L654.562 708.31L679.126 694.059L684.025 702.504Z" fill="#1D1E1D"/>
<path d="M692.07 729.932L692.791 701.543L702.551 701.791L701.83 730.18L692.07 729.932Z" fill="#1D1E1D"/>
<path d="M703.178 670.562L694.278 697.53L685.007 694.47L693.907 667.503L703.178 670.562Z" fill="#1D1E1D"/>
<path d="M661.976 667.61L662.296 639.214L672.058 639.324L671.738 667.72L661.976 667.61Z" fill="#1D1E1D"/>
<path d="M660.862 602.546L684.745 587.181L690.027 595.392L666.144 610.757L660.862 602.546Z" fill="#1D1E1D"/>
<path d="M664.487 613.624L685.301 632.944L678.659 640.099L657.845 620.779L664.487 613.624Z" fill="#1D1E1D"/>
<path d="M676.605 611.041L700.487 595.676L705.77 603.887L681.887 619.252L676.605 611.041Z" fill="#1D1E1D"/>
<path d="M675.644 775.847L635.676 759.197L639.43 750.185L679.398 766.835L675.644 775.847Z" fill="#1D1E1D"/>
<path d="M692.676 815.749L662.478 784.721L669.474 777.912L699.672 808.94L692.676 815.749Z" fill="#1D1E1D"/>
<path d="M659.081 813.763L641.52 774.187L650.444 770.227L668.005 809.803L659.081 813.763Z" fill="#1D1E1D"/>
<path d="M631.919 799.745L622.463 778.435L631.387 774.475L640.842 795.786L631.919 799.745Z" fill="#1D1E1D"/>
<path d="M639.68 816.37L599.712 799.721L603.466 790.709L643.434 807.358L639.68 816.37Z" fill="#1D1E1D"/>
<path d="M689.64 781.145L678.736 739.244L688.184 736.785L699.088 778.686L689.64 781.145Z" fill="#1D1E1D"/>
<path d="M590.366 668.589L605.455 710.068L596.28 713.406L581.191 671.927L590.366 668.589Z" fill="#1D1E1D"/>
<path d="M578.399 603.74L593.488 645.218L584.314 648.556L569.225 607.077L578.399 603.74Z" fill="#1D1E1D"/>
<path d="M606.599 578.114L602.054 622.017L592.343 621.012L596.888 577.109L606.599 578.114Z" fill="#1D1E1D"/>
<path d="M620.983 687.436L616.438 731.339L606.727 730.334L611.272 686.431L620.983 687.436Z" fill="#1D1E1D"/>
<path d="M641.535 684.692L654.212 726.971L644.861 729.775L632.184 687.496L641.535 684.692Z" fill="#1D1E1D"/>
<path d="M594.435 720.187L607.112 762.465L597.76 765.269L585.084 722.991L594.435 720.187Z" fill="#1D1E1D"/>
<path d="M630.448 766.457L594.137 791.55L588.586 783.518L624.898 758.425L630.448 766.457Z" fill="#1D1E1D"/>
<path d="M689.012 673.559L652.701 698.652L647.15 690.621L683.461 665.528L689.012 673.559Z" fill="#1D1E1D"/>
<path d="M688.386 723.5L652.074 748.593L646.524 740.561L682.835 715.468L688.386 723.5Z" fill="#1D1E1D"/>
<path d="M542.566 595.447L500.091 619.501L495.28 611.006L537.755 586.952L542.566 595.447Z" fill="#1D1E1D"/>
<path d="M568.202 575.893L520.344 585.505L518.421 575.933L566.279 566.321L568.202 575.893Z" fill="#1D1E1D"/>
<path d="M513.634 596.819L484.267 557.827L492.066 551.953L521.433 590.945L513.634 596.819Z" fill="#1D1E1D"/>
<path d="M530.801 568.489L505.274 556.045L509.552 547.269L535.079 559.713L530.801 568.489Z" fill="#1D1E1D"/>
<path d="M580.132 550.189L594.285 525.569L602.749 530.435L588.596 555.055L580.132 550.189Z" fill="#1D1E1D"/>
<path d="M601.532 516.965L574.673 526.191L571.502 516.958L598.36 507.732L601.532 516.965Z" fill="#1D1E1D"/>
<path d="M564.215 583.381L591.366 591.704L588.505 601.038L561.354 592.715L564.215 583.381Z" fill="#1D1E1D"/>
<path d="M503.487 517.323L498.31 489.4L507.91 487.62L513.086 515.543L503.487 517.323Z" fill="#1D1E1D"/>
<path d="M527.952 497.818L504.553 481.726L510.085 473.681L533.484 489.773L527.952 497.818Z" fill="#1D1E1D"/>
<path d="M578.637 467.001L561.501 444.355L569.287 438.464L586.422 461.11L578.637 467.001Z" fill="#1D1E1D"/>
<path d="M627.521 450.79L601.767 438.824L605.881 429.97L631.635 441.937L627.521 450.79Z" fill="#1D1E1D"/>
<path d="M450.261 525.371L475.123 511.648L479.841 520.195L454.978 533.918L450.261 525.371Z" fill="#1D1E1D"/>
<path d="M474.164 562.439L473.238 590.822L463.481 590.504L464.406 562.121L474.164 562.439Z" fill="#1D1E1D"/>
<path d="M496.968 593.438L472.763 608.29L467.657 599.969L491.862 585.117L496.968 593.438Z" fill="#1D1E1D"/>
<path d="M462.772 456.198L504.332 468.337L501.595 477.709L460.035 465.569L462.772 456.198Z" fill="#1D1E1D"/>
<path d="M481.237 414.417L497.949 454.359L488.943 458.128L472.231 418.186L481.237 414.417Z" fill="#1D1E1D"/>
<path d="M507.032 430.97L516.031 452.478L507.025 456.246L498.026 434.738L507.032 430.97Z" fill="#1D1E1D"/>
<path d="M493.7 407.138L530.647 429.712L525.557 438.043L488.61 415.469L493.7 407.138Z" fill="#1D1E1D"/>
<path d="M477.459 484.396L434.238 486.96L433.66 477.214L476.881 474.65L477.459 484.396Z" fill="#1D1E1D"/>
<path d="M545.779 562.992L531.578 521.201L540.822 518.06L555.022 559.851L545.779 562.992Z" fill="#1D1E1D"/>
<path d="M554.012 629.195L545.624 585.861L555.208 584.006L563.597 627.339L554.012 629.195Z" fill="#1D1E1D"/>
<path d="M525.871 651.836L531.351 608.04L541.039 609.252L535.558 653.049L525.871 651.836Z" fill="#1D1E1D"/>
<path d="M514.591 544.802L520.072 501.006L529.759 502.218L524.278 546.015L514.591 544.802Z" fill="#1D1E1D"/>
<path d="M550.98 529.122L570.554 489.562L579.304 493.892L559.73 533.452L550.98 529.122Z" fill="#1D1E1D"/>
<path d="M494.964 545.798L483.192 503.259L492.601 500.655L504.373 543.194L494.964 545.798Z" fill="#1D1E1D"/>
<path d="M542.809 511.304L531.037 468.765L540.446 466.161L552.218 508.7L542.809 511.304Z" fill="#1D1E1D"/>
<path d="M559.356 437.891L519.519 418.887L523.722 410.076L563.559 429.079L559.356 437.891Z" fill="#1D1E1D"/>
<path d="M573.843 436.385L611.389 413.181L616.522 421.486L578.976 444.69L573.843 436.385Z" fill="#1D1E1D"/>
<path d="M552.783 410.936L596.845 408.354L597.416 418.1L553.354 420.682L552.783 410.936Z" fill="#1D1E1D"/>
<path d="M553.073 498.149L554.094 454.023L563.854 454.248L562.833 498.374L553.073 498.149Z" fill="#1D1E1D"/>
<path d="M507.79 464.291L544.629 439.979L550.006 448.127L513.168 472.439L507.79 464.291Z" fill="#1D1E1D"/>
<path d="M444.213 556.76L481.051 532.448L486.429 540.596L449.59 564.908L444.213 556.76Z" fill="#1D1E1D"/>
<path d="M566.433 538.436L591.337 574.877L583.277 580.386L558.373 543.945L566.433 538.436Z" fill="#1D1E1D"/>
<path d="M440.743 413.491L470.041 446.502L462.739 452.983L433.441 419.971L440.743 413.491Z" fill="#1D1E1D"/>
<path d="M448.24 503.814L487.353 483.36L491.877 492.011L452.764 512.465L448.24 503.814Z" fill="#1D1E1D"/>
<path d="M653.599 603.218L652.681 652.023L642.92 651.84L643.838 603.035L653.599 603.218Z" fill="#1D1E1D"/>
<path d="M663.738 592.7L634.371 553.708L642.17 547.835L671.537 586.827L663.738 592.7Z" fill="#1D1E1D"/>
<path d="M684.043 565.837L658.516 553.393L662.794 544.617L688.321 557.061L684.043 565.837Z" fill="#1D1E1D"/>
<path d="M705.02 581.573L676.629 580.937L676.848 571.176L705.239 571.813L705.02 581.573Z" fill="#1D1E1D"/>
<path d="M656.874 511.072L651.697 483.15L661.296 481.37L666.473 509.293L656.874 511.072Z" fill="#1D1E1D"/>
<path d="M700.302 483.64L692.435 456.353L701.815 453.649L709.683 480.936L700.302 483.64Z" fill="#1D1E1D"/>
<path d="M584.999 503.404L579.823 475.482L589.422 473.702L594.598 501.625L584.999 503.404Z" fill="#1D1E1D"/>
<path d="M603.503 522.725L628.366 509.002L633.084 517.549L608.221 531.272L603.503 522.725Z" fill="#1D1E1D"/>
<path d="M627.404 559.793L626.479 588.176L616.722 587.858L617.647 559.475L627.404 559.793Z" fill="#1D1E1D"/>
<path d="M446.221 570.566L439.314 598.112L429.845 595.737L436.751 568.192L446.221 570.566Z" fill="#1D1E1D"/>
<path d="M431.941 468.125L446.398 443.681L454.801 448.652L440.344 473.095L431.941 468.125Z" fill="#1D1E1D"/>
<path d="M462.814 434.176L455.869 406.64L465.336 404.253L472.28 431.789L462.814 434.176Z" fill="#1D1E1D"/>
<path d="M650.207 590.784L626.002 605.636L620.896 597.315L645.101 582.463L650.207 590.784Z" fill="#1D1E1D"/>
<path d="M589.419 808.722L612.31 825.528L618.088 817.659L595.197 800.852L589.419 808.722Z" fill="#1D1E1D"/>
<path d="M616.047 451.284L655.651 468.783L651.705 477.713L612.101 460.214L616.047 451.284Z" fill="#1D1E1D"/>
<path d="M633.417 413.737L650.129 453.679L641.123 457.448L624.411 417.506L633.417 413.737Z" fill="#1D1E1D"/>
<path d="M656.929 427.236L673.599 443.535L666.774 450.516L650.104 434.217L656.929 427.236Z" fill="#1D1E1D"/>
<path d="M711.292 416.532L699.658 436.736L691.197 431.864L702.832 411.66L711.292 416.532Z" fill="#1D1E1D"/>
<path d="M646.895 411.916L688.871 422.531L686.477 431.996L644.501 421.381L646.895 411.916Z" fill="#1D1E1D"/>
<path d="M602.168 445.685L612.176 487.81L602.678 490.066L592.67 447.942L602.168 445.685Z" fill="#1D1E1D"/>
<path d="M694.873 563.984L687.457 520.474L697.081 518.833L704.497 562.344L694.873 563.984Z" fill="#1D1E1D"/>
<path d="M677.129 658.375L696.164 618.553L704.972 622.763L685.938 662.585L677.129 658.375Z" fill="#1D1E1D"/>
<path d="M668.81 540.848L674.291 497.052L683.978 498.264L678.497 542.06L668.81 540.848Z" fill="#1D1E1D"/>
<path d="M648.207 543.144L636.435 500.605L645.844 498.001L657.616 540.54L648.207 543.144Z" fill="#1D1E1D"/>
<path d="M701.176 511.834L675.823 475.703L683.815 470.095L709.167 506.226L701.176 511.834Z" fill="#1D1E1D"/>
<path d="M659.249 461.774L696.088 437.462L701.465 445.61L664.627 469.923L659.249 461.774Z" fill="#1D1E1D"/>
<path d="M597.454 554.099L634.292 529.786L639.67 537.934L602.832 562.247L597.454 554.099Z" fill="#1D1E1D"/>
<path d="M602.193 503.347L639.031 479.034L644.409 487.182L607.57 511.495L602.193 503.347Z" fill="#1D1E1D"/>
<path d="M717.788 647.395L759.74 622.44L764.731 630.83L722.779 655.786L717.788 647.395Z" fill="#1D1E1D"/>
<path d="M746.682 645.396L776.875 683.753L769.203 689.791L739.011 651.435L746.682 645.396Z" fill="#1D1E1D"/>
<path d="M730.125 674.097L755.912 685.994L751.822 694.859L726.036 682.962L730.125 674.097Z" fill="#1D1E1D"/>
<path d="M758.456 728.265L764.227 756.071L754.668 758.055L748.897 730.249L758.456 728.265Z" fill="#1D1E1D"/>
<path d="M818.872 713.188L845.481 723.108L842.071 732.255L815.461 722.335L818.872 713.188Z" fill="#1D1E1D"/>
<path d="M828.44 739.735L834.211 767.541L824.652 769.525L818.881 741.719L828.44 739.735Z" fill="#1D1E1D"/>
<path d="M824.634 802.647L849.171 816.944L844.256 825.379L819.719 811.082L824.634 802.647Z" fill="#1D1E1D"/>
<path d="M859.005 733.23L848.114 759.457L839.097 755.713L849.988 729.486L859.005 733.23Z" fill="#1D1E1D"/>
<path d="M811.568 715.477L787.004 729.727L782.105 721.282L806.669 707.032L811.568 715.477Z" fill="#1D1E1D"/>
<path d="M837.588 647.692L825.502 673.39L816.667 669.235L828.754 643.537L837.588 647.692Z" fill="#1D1E1D"/>
<path d="M850.226 697.798L830.911 676.98L838.067 670.34L857.383 691.158L850.226 697.798Z" fill="#1D1E1D"/>
<path d="M786.879 678.931L787.199 650.535L796.961 650.645L796.641 679.041L786.879 678.931Z" fill="#1D1E1D"/>
<path d="M763.42 648.428L787.303 633.062L792.585 641.273L768.702 656.638L763.42 648.428Z" fill="#1D1E1D"/>
<path d="M796.855 789.295L756.887 772.645L760.641 763.633L800.609 780.283L796.855 789.295Z" fill="#1D1E1D"/>
<path d="M783.909 829.636L766.349 790.06L775.272 786.1L792.833 825.676L783.909 829.636Z" fill="#1D1E1D"/>
<path d="M756.824 811.076L747.368 789.765L756.292 785.806L765.748 807.117L756.824 811.076Z" fill="#1D1E1D"/>
<path d="M717.379 827.003L702.963 808.679L710.636 802.643L725.052 820.966L717.379 827.003Z" fill="#1D1E1D"/>
<path d="M704.43 786.493L710.855 764.081L720.24 766.772L713.815 789.183L704.43 786.493Z" fill="#1D1E1D"/>
<path d="M733.02 669.234L710.16 673.818L708.241 664.245L731.1 659.662L733.02 669.234Z" fill="#1D1E1D"/>
<path d="M717.405 617.214L719.467 640.437L709.743 641.301L707.681 618.078L717.405 617.214Z" fill="#1D1E1D"/>
<path d="M764.592 829.309L724.624 812.659L728.378 803.647L768.346 820.297L764.592 829.309Z" fill="#1D1E1D"/>
<path d="M811.374 796.524L800.47 754.622L809.918 752.164L820.823 794.065L811.374 796.524Z" fill="#1D1E1D"/>
<path d="M821.317 832.7L789.962 802.843L796.694 795.773L828.05 825.63L821.317 832.7Z" fill="#1D1E1D"/>
<path d="M827.669 789.952L856.66 757.795L863.911 764.332L834.92 796.489L827.669 789.952Z" fill="#1D1E1D"/>
<path d="M921.074 825.436L964.354 824.204L964.632 833.963L921.352 835.195L921.074 825.436Z" fill="#1D1E1D"/>
<path d="M861.71 783.018L863.76 826.266L854.009 826.729L851.958 783.48L861.71 783.018Z" fill="#1D1E1D"/>
<path d="M719.513 683.037L727.809 726.388L718.22 728.223L709.925 684.871L719.513 683.037Z" fill="#1D1E1D"/>
<path d="M738.56 587.703L734.015 631.606L724.304 630.601L728.849 586.698L738.56 587.703Z" fill="#1D1E1D"/>
<path d="M721.786 513.855L724.533 557.907L714.789 558.515L712.042 514.463L721.786 513.855Z" fill="#1D1E1D"/>
<path d="M745.888 698.757L741.343 742.66L731.632 741.655L736.177 697.752L745.888 698.757Z" fill="#1D1E1D"/>
<path d="M766.438 696.021L779.115 738.3L769.763 741.103L757.087 698.825L766.438 696.021Z" fill="#1D1E1D"/>
<path d="M852.528 720.303L819.776 690.714L826.32 683.47L859.072 713.058L852.528 720.303Z" fill="#1D1E1D"/>
<path d="M711.005 734.071L741.068 766.389L733.919 773.038L703.857 740.721L711.005 734.071Z" fill="#1D1E1D"/>
<path d="M755.353 777.778L719.042 802.871L713.491 794.839L749.802 769.746L755.353 777.778Z" fill="#1D1E1D"/>
<path d="M816.943 683.988L780.632 709.081L775.082 701.049L811.393 675.957L816.943 683.988Z" fill="#1D1E1D"/>
<path d="M813.29 734.821L776.979 759.914L771.429 751.882L807.74 726.789L813.29 734.821Z" fill="#1D1E1D"/>
<path d="M871.03 644.749L912.983 619.794L917.974 628.184L876.022 653.14L871.03 644.749Z" fill="#1D1E1D"/>
<path d="M845.818 664.84L893.46 654.209L895.586 663.737L847.944 674.369L845.818 664.84Z" fill="#1D1E1D"/>
<path d="M899.925 642.75L930.117 681.107L922.446 687.145L892.254 648.789L899.925 642.75Z" fill="#1D1E1D"/>
<path d="M883.366 671.451L909.153 683.348L905.063 692.213L879.276 680.316L883.366 671.451Z" fill="#1D1E1D"/>
<path d="M911.697 725.619L917.468 753.425L907.909 755.408L902.138 727.603L911.697 725.619Z" fill="#1D1E1D"/>
<path d="M962.171 711.179L937.606 725.429L932.708 716.985L957.272 702.734L962.171 711.179Z" fill="#1D1E1D"/>
<path d="M970.216 738.607L970.937 710.218L980.697 710.466L979.976 738.855L970.216 738.607Z" fill="#1D1E1D"/>
<path d="M981.324 679.237L972.424 706.205L963.153 703.145L972.053 676.178L981.324 679.237Z" fill="#1D1E1D"/>
<path d="M940.122 676.285L940.441 647.889L950.204 647.999L949.884 676.395L940.122 676.285Z" fill="#1D1E1D"/>
<path d="M939.008 611.221L962.89 595.856L968.173 604.067L944.29 619.432L939.008 611.221Z" fill="#1D1E1D"/>
<path d="M942.633 622.299L963.446 641.619L956.805 648.774L935.991 629.454L942.633 622.299Z" fill="#1D1E1D"/>
<path d="M954.75 619.716L978.633 604.351L983.915 612.562L960.033 627.927L954.75 619.716Z" fill="#1D1E1D"/>
<path d="M953.79 784.522L913.822 767.872L917.576 758.86L957.544 775.51L953.79 784.522Z" fill="#1D1E1D"/>
<path d="M970.822 824.424L940.624 793.396L947.62 786.587L977.818 817.615L970.822 824.424Z" fill="#1D1E1D"/>
<path d="M937.227 822.438L919.666 782.862L928.59 778.902L946.15 818.479L937.227 822.438Z" fill="#1D1E1D"/>
<path d="M910.064 808.42L900.609 787.11L909.532 783.15L918.988 804.461L910.064 808.42Z" fill="#1D1E1D"/>
<path d="M917.825 825.045L877.857 808.396L881.612 799.384L921.58 816.033L917.825 825.045Z" fill="#1D1E1D"/>
<path d="M967.786 789.82L956.881 747.919L966.329 745.46L977.234 787.361L967.786 789.82Z" fill="#1D1E1D"/>
<path d="M868.512 677.265L883.601 718.743L874.426 722.081L859.337 680.602L868.512 677.265Z" fill="#1D1E1D"/>
<path d="M856.545 612.415L871.634 653.893L862.459 657.231L847.371 615.752L856.545 612.415Z" fill="#1D1E1D"/>
<path d="M884.744 586.789L880.199 630.692L870.488 629.687L875.033 585.784L884.744 586.789Z" fill="#1D1E1D"/>
<path d="M899.129 696.111L894.584 740.014L884.873 739.009L889.418 695.106L899.129 696.111Z" fill="#1D1E1D"/>
<path d="M919.681 693.367L932.358 735.646L923.006 738.45L910.33 696.171L919.681 693.367Z" fill="#1D1E1D"/>
<path d="M872.581 728.862L885.258 771.14L875.906 773.944L863.23 731.666L872.581 728.862Z" fill="#1D1E1D"/>
<path d="M908.594 775.132L872.282 800.225L866.732 792.193L903.043 767.1L908.594 775.132Z" fill="#1D1E1D"/>
<path d="M967.157 682.235L930.846 707.327L925.296 699.296L961.607 674.203L967.157 682.235Z" fill="#1D1E1D"/>
<path d="M966.531 732.175L930.22 757.268L924.67 749.236L960.981 724.143L966.531 732.175Z" fill="#1D1E1D"/>
<path d="M820.712 604.122L778.237 628.176L773.426 619.681L815.901 595.627L820.712 604.122Z" fill="#1D1E1D"/>
<path d="M846.348 584.568L798.49 594.18L796.567 584.608L844.425 574.996L846.348 584.568Z" fill="#1D1E1D"/>
<path d="M791.78 605.494L762.413 566.502L770.212 560.628L799.579 599.62L791.78 605.494Z" fill="#1D1E1D"/>
<path d="M808.947 577.164L783.42 564.72L787.698 555.944L813.225 568.388L808.947 577.164Z" fill="#1D1E1D"/>
<path d="M858.278 558.864L872.431 534.244L880.895 539.11L866.742 563.73L858.278 558.864Z" fill="#1D1E1D"/>
<path d="M879.677 525.64L852.819 534.866L849.648 525.633L876.506 516.407L879.677 525.64Z" fill="#1D1E1D"/>
<path d="M842.36 592.056L869.512 600.379L866.651 609.713L839.499 601.39L842.36 592.056Z" fill="#1D1E1D"/>
<path d="M781.632 525.998L776.456 498.075L786.055 496.295L791.232 524.218L781.632 525.998Z" fill="#1D1E1D"/>
<path d="M806.097 506.493L782.698 490.401L788.23 482.356L811.63 498.448L806.097 506.493Z" fill="#1D1E1D"/>
<path d="M856.782 475.676L839.647 453.03L847.432 447.139L864.568 469.785L856.782 475.676Z" fill="#1D1E1D"/>
<path d="M905.667 459.465L879.913 447.499L884.026 438.645L909.781 450.612L905.667 459.465Z" fill="#1D1E1D"/>
<path d="M728.406 534.046L753.269 520.323L757.987 528.87L733.124 542.593L728.406 534.046Z" fill="#1D1E1D"/>
<path d="M752.309 571.114L751.384 599.497L741.626 599.179L742.552 570.796L752.309 571.114Z" fill="#1D1E1D"/>
<path d="M775.114 602.113L750.909 616.965L745.803 608.644L770.008 593.792L775.114 602.113Z" fill="#1D1E1D"/>
<path d="M740.918 464.873L782.478 477.012L779.741 486.384L738.18 474.244L740.918 464.873Z" fill="#1D1E1D"/>
<path d="M759.383 423.092L776.095 463.034L767.088 466.803L750.376 426.861L759.383 423.092Z" fill="#1D1E1D"/>
<path d="M785.178 439.645L794.177 461.153L785.17 464.921L776.171 443.413L785.178 439.645Z" fill="#1D1E1D"/>
<path d="M771.846 415.813L808.793 438.387L803.703 446.718L766.756 424.144L771.846 415.813Z" fill="#1D1E1D"/>
<path d="M755.605 493.071L712.384 495.635L711.806 485.889L755.027 483.326L755.605 493.071Z" fill="#1D1E1D"/>
<path d="M823.925 571.667L809.724 529.876L818.968 526.735L833.168 568.526L823.925 571.667Z" fill="#1D1E1D"/>
<path d="M832.158 637.87L823.769 594.537L833.354 592.681L841.743 636.014L832.158 637.87Z" fill="#1D1E1D"/>
<path d="M804.016 660.511L809.497 616.715L819.184 617.927L813.704 661.724L804.016 660.511Z" fill="#1D1E1D"/>
<path d="M792.737 553.477L798.218 509.681L807.905 510.893L802.424 554.69L792.737 553.477Z" fill="#1D1E1D"/>
<path d="M829.125 537.797L848.7 498.237L857.45 502.567L837.876 542.127L829.125 537.797Z" fill="#1D1E1D"/>
<path d="M773.11 554.473L761.338 511.934L770.747 509.33L782.519 551.869L773.11 554.473Z" fill="#1D1E1D"/>
<path d="M820.954 519.979L809.183 477.44L818.592 474.836L830.363 517.375L820.954 519.979Z" fill="#1D1E1D"/>
<path d="M837.502 446.566L797.664 427.562L801.868 418.751L841.705 437.754L837.502 446.566Z" fill="#1D1E1D"/>
<path d="M851.989 445.06L889.535 421.856L894.668 430.161L857.121 453.365L851.989 445.06Z" fill="#1D1E1D"/>
<path d="M830.928 419.611L874.991 417.029L875.562 426.775L831.499 429.357L830.928 419.611Z" fill="#1D1E1D"/>
<path d="M831.219 506.824L832.24 462.698L842 462.924L840.979 507.05L831.219 506.824Z" fill="#1D1E1D"/>
<path d="M785.936 472.966L822.774 448.654L828.152 456.802L791.314 481.114L785.936 472.966Z" fill="#1D1E1D"/>
<path d="M722.359 565.435L759.197 541.123L764.574 549.271L727.736 573.583L722.359 565.435Z" fill="#1D1E1D"/>
<path d="M844.579 547.111L869.483 583.552L861.423 589.061L836.519 552.62L844.579 547.111Z" fill="#1D1E1D"/>
<path d="M718.889 422.166L748.187 455.177L740.885 461.658L711.587 428.646L718.889 422.166Z" fill="#1D1E1D"/>
<path d="M726.386 512.489L765.499 492.035L770.023 500.686L730.91 521.14L726.386 512.489Z" fill="#1D1E1D"/>
<path d="M931.745 611.893L930.827 660.699L921.066 660.515L921.984 611.71L931.745 611.893Z" fill="#1D1E1D"/>
<path d="M941.884 601.375L912.517 562.383L920.316 556.51L949.683 595.502L941.884 601.375Z" fill="#1D1E1D"/>
<path d="M962.189 574.512L936.662 562.068L940.94 553.292L966.467 565.736L962.189 574.512Z" fill="#1D1E1D"/>
<path d="M983.166 590.248L954.775 589.612L954.993 579.852L983.385 580.488L983.166 590.248Z" fill="#1D1E1D"/>
<path d="M935.019 519.747L929.843 491.825L939.442 490.045L944.619 517.968L935.019 519.747Z" fill="#1D1E1D"/>
<path d="M978.448 492.315L970.58 465.028L979.961 462.324L987.828 489.611L978.448 492.315Z" fill="#1D1E1D"/>
<path d="M863.145 512.079L857.968 484.157L867.568 482.377L872.744 510.3L863.145 512.079Z" fill="#1D1E1D"/>
<path d="M881.649 531.4L906.512 517.677L911.23 526.224L886.367 539.947L881.649 531.4Z" fill="#1D1E1D"/>
<path d="M905.55 568.468L904.625 596.851L894.867 596.533L895.793 568.15L905.55 568.468Z" fill="#1D1E1D"/>
<path d="M724.366 579.241L717.46 606.787L707.99 604.412L714.897 576.867L724.366 579.241Z" fill="#1D1E1D"/>
<path d="M710.087 476.8L724.544 452.357L732.947 457.327L718.49 481.77L710.087 476.8Z" fill="#1D1E1D"/>
<path d="M740.959 442.851L734.015 415.315L743.481 412.928L750.426 440.464L740.959 442.851Z" fill="#1D1E1D"/>
<path d="M928.353 599.459L904.148 614.311L899.042 605.99L923.247 591.138L928.353 599.459Z" fill="#1D1E1D"/>
<path d="M867.565 817.397L890.456 834.203L896.234 826.334L873.342 809.527L867.565 817.397Z" fill="#1D1E1D"/>
<path d="M894.193 459.959L933.796 477.458L929.851 486.388L890.247 468.889L894.193 459.959Z" fill="#1D1E1D"/>
<path d="M911.563 422.412L928.275 462.354L919.269 466.123L902.557 426.181L911.563 422.412Z" fill="#1D1E1D"/>
<path d="M935.074 435.912L951.745 452.21L944.92 459.191L928.249 442.892L935.074 435.912Z" fill="#1D1E1D"/>
<path d="M989.438 425.207L977.804 445.411L969.343 440.539L980.977 420.335L989.438 425.207Z" fill="#1D1E1D"/>
<path d="M925.041 420.591L967.017 431.206L964.623 440.671L922.647 430.056L925.041 420.591Z" fill="#1D1E1D"/>
<path d="M880.314 454.36L890.322 496.485L880.823 498.741L870.815 456.617L880.314 454.36Z" fill="#1D1E1D"/>
<path d="M973.019 572.659L965.603 529.149L975.227 527.508L982.643 571.019L973.019 572.659Z" fill="#1D1E1D"/>
<path d="M955.275 667.05L974.31 627.228L983.118 631.438L964.083 671.26L955.275 667.05Z" fill="#1D1E1D"/>
<path d="M946.956 549.523L952.437 505.727L962.124 506.939L956.643 550.735L946.956 549.523Z" fill="#1D1E1D"/>
<path d="M926.353 551.819L914.581 509.28L923.99 506.676L935.762 549.215L926.353 551.819Z" fill="#1D1E1D"/>
<path d="M979.321 520.509L953.969 484.378L961.961 478.77L987.313 514.901L979.321 520.509Z" fill="#1D1E1D"/>
<path d="M937.395 470.45L974.233 446.137L979.611 454.285L942.773 478.598L937.395 470.45Z" fill="#1D1E1D"/>
<path d="M875.6 562.774L912.438 538.461L917.816 546.609L880.977 570.922L875.6 562.774Z" fill="#1D1E1D"/>
<path d="M880.339 512.022L917.177 487.709L922.554 495.858L885.716 520.17L880.339 512.022Z" fill="#1D1E1D"/>
</g>
</svg>
