<svg width="385" height="1917" viewBox="0 0 385 1917" fill="none" xmlns="http://www.w3.org/2000/svg">
<path d="M385 -0.00146484L0 1916.81V-0.00146484H385Z" fill="white"/>
<mask id="mask0_105_27982" style="mask-type:alpha" maskUnits="userSpaceOnUse" x="0" y="-1" width="385" height="1918">
<path d="M385 -0.00146484L0 1916.81V-0.00146484H385Z" fill="white"/>
</mask>
<g mask="url(#mask0_105_27982)">
<path d="M-145.242 46.6414L-137.533 24.3111L-118.318 30.9445L-111.685 11.7301L-92.9897 18.1843L-85.9977 -2.06877L-65.2253 5.10252M-111.789 -37.9892L-96.5612 -19.9288L-81.0208 -33.032L-67.9177 -17.4916L-52.7973 -30.2407L-38.9858 -13.8603L-22.1854 -28.0259M-217.072 -30.2777L-199.479 -46.0431L-185.913 -30.9046L-170.775 -44.4701L-157.576 -29.7408L-141.619 -44.0396L-126.953 -27.6737M-151.063 62.7376L-127.986 57.6854L-123.639 77.5423L-103.782 73.1951L-99.5521 92.5154L-78.6218 87.9331L-73.9221 109.4M-70.6365 75.3302L-81.8218 54.5226L-63.9176 44.8979L-73.5422 26.9937L-56.1218 17.6292M-184.593 95.0586L-165.065 81.7654L-153.626 98.5691L-136.823 87.1308L-125.694 103.48M-174.685 3.87898L-158.44 -13.2722L-143.682 0.706254L-129.704 -14.0518L-115.344 -0.451079M-221.282 86.3817L-197.8 83.8042L-200.018 63.5983L-179.812 61.3804L-181.97 41.7206L-160.672 39.3828L-163.07 17.5386M-213.899 65.482L-223.051 43.7033L-204.311 35.8283L-212.186 17.0885L-193.953 9.42635L-202.253 -10.3265L-181.994 -18.8399M-46.2988 71.8078L-31.0502 58.3661L-44.4919 43.1176L-29.6554 30.0392L-43.8237 13.9664L-27.3387 -0.565133M108.612 12.7118L100.903 35.0421L81.6884 28.4087L75.0549 47.6231L56.3598 41.1689L49.3678 61.422L28.5954 54.2507M75.1594 97.3424L59.9314 79.282L44.391 92.3852L31.2878 76.8448L16.1674 89.5939L2.35595 73.2135L-14.4445 87.3791M180.442 89.6309L162.849 105.396L149.283 90.2578L134.145 103.823L120.946 89.094L104.989 103.393L90.3236 87.0269M114.433 -3.38438L91.3562 1.66782L87.009 -18.1891L67.152 -13.8419L62.9223 -33.1622L41.992 -28.5799L37.2923 -50.0469M34.0066 -15.977L45.192 4.83064L27.2877 14.4553L36.9123 32.3595L19.4919 41.724M147.963 -35.7054L128.435 -22.4122L116.996 -39.2159L100.193 -27.7776L89.0637 -44.1271M138.056 55.4742L121.81 72.6254L107.052 58.6469L93.0738 73.405L78.7146 59.8043M184.653 -27.0285L161.17 -24.451L163.388 -4.24509L143.182 -2.02719L145.34 17.6326L124.042 19.9704L126.44 41.8146M177.269 -6.1288L186.421 15.6499L167.681 23.5249L175.556 42.2647L157.323 49.9269L165.623 69.6797L145.364 78.1931M-5.95244 -30.1759L9.66895 -12.4546L-5.57964 0.987079L7.86204 16.2356L-6.97441 29.314L7.19381 45.3868L-9.29112 59.9183M-142.289 215.818L-134.58 193.487L-115.365 200.121L-108.732 180.906L-90.0367 187.36L-83.0447 167.107L-62.2723 174.279M-108.836 131.187L-93.6082 149.247L-78.0679 136.144L-64.9647 151.685L-49.8443 138.936L-36.0328 155.316L-19.2324 141.15M-214.119 138.898L-196.526 123.133L-182.96 138.272L-167.822 124.706L-154.623 139.435L-138.666 125.137L-124.001 141.503M-148.11 231.914L-125.033 226.862L-120.686 246.719L-100.829 242.371L-96.5992 261.692L-75.6689 257.109L-70.9691 278.576M-67.6835 244.506L-78.8689 223.699L-60.9646 214.074L-70.5892 196.17L-53.1688 186.805M-181.64 264.235L-162.112 250.942L-150.673 267.745L-133.87 256.307L-122.741 272.656M-171.732 173.055L-155.487 155.904L-140.729 169.882L-126.751 155.124L-112.391 168.725M-218.329 255.558L-194.847 252.98L-197.065 232.774L-176.859 230.557L-179.017 210.897L-157.719 208.559L-160.117 186.715M-210.946 234.658L-220.098 212.879L-201.358 205.005L-209.233 186.265L-191 178.603L-199.3 158.85L-179.041 150.336M-27.7244 258.705L-43.3458 240.984L-28.0973 227.542L-41.5389 212.294L-26.7025 199.215L-40.8707 183.143L-24.3858 168.611M111.565 181.888L103.856 204.218L84.6413 197.585L78.0079 216.799L59.3128 210.345L52.3208 230.598L31.5484 223.427M78.1124 266.519L62.8843 248.458L47.344 261.561L34.2408 246.021L19.1204 258.77L5.30894 242.39L-11.4915 256.555M183.395 258.807L165.802 274.572L152.236 259.434L137.098 273L123.899 258.27L107.942 272.569L93.2766 256.203M117.386 165.792L94.3092 170.844L89.962 150.987L70.105 155.334L65.8753 136.014L44.945 140.596L40.2452 119.129M36.9596 153.199L48.145 174.007L30.2407 183.631L39.8653 201.536L22.4449 210.9M150.916 133.471L131.388 146.764L119.949 129.96L103.146 141.399L92.0167 125.049M141.008 224.65L124.763 241.802L110.005 227.823L96.0268 242.581L81.6676 228.98M187.606 142.148L164.123 144.725L166.341 164.931L146.135 167.149L148.293 186.809L126.995 189.147L129.393 210.991M180.222 163.047L189.374 184.826L170.634 192.701L178.509 211.441L160.276 219.103L168.576 238.856L148.317 247.369M-2.99946 139L12.6219 156.722L-2.62664 170.163L10.815 185.412L-4.02143 198.49L10.1468 214.563L-6.33814 229.095M25.6161 115.475L6.49268 101.606L-5.44162 118.061L-21.8967 106.127L-33.5084 122.137L-50.853 109.558L-63.7549 127.347M-40.2738 -38.4269L-24.3281 -55.857L-9.3301 -42.1363L4.39059 -57.1343L18.9832 -43.7844" stroke="#1D1E1D" stroke-width="5.49385"/>
<path d="M272.677 46.6414L280.386 24.3111L299.6 30.9445L306.234 11.7301L324.929 18.1843L331.921 -2.06877L352.693 5.10252M306.129 -37.9892L321.357 -19.9288L336.898 -33.032L350.001 -17.4916L365.121 -30.2407L378.933 -13.8603L395.733 -28.0259M200.847 -30.2777L218.44 -46.0431L232.005 -30.9046L247.144 -44.4701L260.343 -29.7408L276.3 -44.0396L290.965 -27.6737M266.855 62.7376L289.932 57.6854L294.28 77.5423L314.137 73.1951L318.366 92.5154L339.297 87.9331L343.996 109.4M347.282 75.3302L336.097 54.5226L354.001 44.8979L344.376 26.9937L361.797 17.6292M233.325 95.0586L252.854 81.7654L264.292 98.5691L281.096 87.1308L292.225 103.48M243.233 3.87898L259.478 -13.2722L274.236 0.706254L288.215 -14.0518L302.574 -0.451079M196.636 86.3817L220.119 83.8042L217.901 63.5983L238.106 61.3804L235.949 41.7206L257.247 39.3828L254.849 17.5386M204.02 65.482L194.868 43.7033L213.608 35.8283L205.733 17.0885L223.966 9.42635L215.665 -10.3265L235.925 -18.8399M371.62 71.8078L386.868 58.3661L373.427 43.1176L388.263 30.0392L374.095 13.9664L390.58 -0.565133M526.53 12.7118L518.821 35.0421L499.607 28.4087L492.973 47.6231L474.278 41.1689L467.286 61.422L446.514 54.2507M493.078 97.3424L477.85 79.282L462.309 92.3852L449.206 76.8448L434.086 89.5939L420.274 73.2135L403.474 87.3791M598.361 89.6309L580.767 105.396L567.202 90.2578L552.063 103.823L538.864 89.094L522.908 103.393L508.242 87.0269M532.352 -3.38438L509.275 1.66782L504.927 -18.1891L485.07 -13.8419L480.841 -33.1622L459.91 -28.5799L455.211 -50.0469M451.925 -15.977L463.11 4.83064L445.206 14.4553L454.831 32.3595L437.41 41.724M565.882 -35.7054L546.353 -22.4122L534.915 -39.2159L518.111 -27.7776L506.982 -44.1271M555.974 55.4742L539.729 72.6254L524.971 58.6469L510.992 73.405L496.633 59.8043M602.571 -27.0285L579.089 -24.451L581.306 -4.24509L561.101 -2.02719L563.259 17.6326L541.96 19.9704L544.358 41.8146M595.187 -6.1288L604.339 15.6499L585.6 23.5249L593.474 42.2647L575.241 49.9269L583.542 69.6797L563.282 78.1931M411.966 -30.1759L427.587 -12.4546L412.339 0.987079L425.78 16.2356L410.944 29.314L425.112 45.3868L408.627 59.9183M275.63 215.818L283.339 193.487L302.553 200.121L309.187 180.906L327.882 187.36L334.874 167.107L355.646 174.279M309.082 131.187L324.31 149.247L339.851 136.144L352.954 151.685L368.074 138.936L381.886 155.316L398.686 141.15M203.8 138.898L221.393 123.133L234.958 138.272L250.097 124.706L263.296 139.435L279.253 125.137L293.918 141.503M269.808 231.914L292.885 226.862L297.233 246.719L317.09 242.371L321.319 261.692L342.25 257.109L346.949 278.576M350.235 244.506L339.05 223.699L356.954 214.074L347.329 196.17L364.75 186.805M236.278 264.235L255.807 250.942L267.245 267.745L284.049 256.307L295.178 272.656M246.186 173.055L262.431 155.904L277.189 169.882L291.168 155.124L305.527 168.725M199.589 255.558L223.071 252.98L220.854 232.774L241.059 230.557L238.902 210.897L260.2 208.559L257.802 186.715M206.973 234.658L197.821 212.879L216.561 205.005L208.686 186.265L226.919 178.603L218.618 158.85L238.878 150.336M390.194 258.705L374.573 240.984L389.821 227.542L376.38 212.294L391.216 199.215L377.048 183.143L393.533 168.611M529.483 181.888L521.774 204.218L502.56 197.585L495.926 216.799L477.231 210.345L470.239 230.598L449.467 223.427M496.031 266.519L480.803 248.458L465.262 261.561L452.159 246.021L437.039 258.77L423.227 242.39L406.427 256.555M601.314 258.807L583.72 274.572L570.155 259.434L555.016 273L541.817 258.27L525.861 272.569L511.195 256.203M535.305 165.792L512.228 170.844L507.88 150.987L488.023 155.334L483.794 136.014L462.863 140.596L458.164 119.129M454.878 153.199L466.063 174.007L448.159 183.631L457.784 201.536L440.363 210.9M568.835 133.471L549.306 146.764L537.868 129.96L521.064 141.399L509.935 125.049M558.927 224.65L542.682 241.802L527.924 227.823L513.945 242.581L499.586 228.98M605.524 142.148L582.042 144.725L584.259 164.931L564.054 167.149L566.211 186.809L544.913 189.147L547.311 210.991M598.14 163.047L607.292 184.826L588.553 192.701L596.427 211.441L578.194 219.103L586.495 238.856L566.235 247.369M414.919 139L430.54 156.722L415.292 170.163L428.733 185.412L413.897 198.49L428.065 214.563L411.58 229.095M443.535 115.475L424.411 101.606L412.477 118.061L396.022 106.127L384.41 122.137L367.065 109.558L354.164 127.347M377.645 -38.4269L393.59 -55.857L408.588 -42.1363L422.309 -57.1343L436.902 -43.7844" stroke="#1D1E1D" stroke-width="5.49385"/>
<path d="M-145.242 382.352L-137.533 360.022L-118.318 366.655L-111.685 347.441L-92.9897 353.895L-85.9977 333.642L-65.2253 340.813M-111.789 297.721L-96.5612 315.782L-81.0208 302.679L-67.9177 318.219L-52.7973 305.47L-38.9858 321.85L-22.1854 307.685M-217.072 305.433L-199.479 289.668L-185.913 304.806L-170.775 291.24L-157.576 305.97L-141.619 291.671L-126.953 308.037M-151.063 398.448L-127.986 393.396L-123.639 413.253L-103.782 408.906L-99.5521 428.226L-78.6218 423.644L-73.9221 445.111M-70.6365 411.041L-81.8218 390.233L-63.9176 380.609L-73.5422 362.704L-56.1218 353.34M-184.593 430.769L-165.065 417.476L-153.626 434.28L-136.823 422.841L-125.694 439.191M-174.685 339.59L-158.44 322.438L-143.682 336.417L-129.704 321.659L-115.344 335.259M-221.282 422.092L-197.8 419.515L-200.018 399.309L-179.812 397.091L-181.97 377.431L-160.672 375.093L-163.07 353.249M-213.899 401.193L-223.051 379.414L-204.311 371.539L-212.186 352.799L-193.953 345.137L-202.253 325.384L-181.994 316.871M-46.2988 407.518L-31.0502 394.077L-44.4919 378.828L-29.6554 365.75L-43.8237 349.677L-27.3387 335.145M108.612 348.422L100.903 370.753L81.6884 364.119L75.0549 383.334L56.3598 376.879L49.3678 397.133L28.5954 389.961M75.1594 433.053L59.9314 414.993L44.391 428.096L31.2878 412.555L16.1674 425.304L2.35595 408.924L-14.4445 423.09M180.442 425.341L162.849 441.107L149.283 425.968L134.145 439.534L120.946 424.805L104.989 439.103L90.3236 422.737M114.433 332.326L91.3562 337.378L87.009 317.521L67.152 321.869L62.9223 302.548L41.992 307.131L37.2923 285.664M34.0066 319.734L45.192 340.541L27.2877 350.166L36.9123 368.07L19.4919 377.435M147.963 300.005L128.435 313.298L116.996 296.495L100.193 307.933L89.0637 291.583M138.056 391.185L121.81 408.336L107.052 394.358L93.0738 409.116L78.7146 395.515M184.653 308.682L161.17 311.26L163.388 331.465L143.182 333.683L145.34 353.343L124.042 355.681L126.44 377.525M177.269 329.582L186.421 351.361L167.681 359.235L175.556 377.975L157.323 385.637L165.623 405.39L145.364 413.904M-5.95244 305.535L9.66895 323.256L-5.57964 336.698L7.86204 351.946L-6.97441 365.025L7.19381 381.097L-9.29112 395.629M-142.289 551.528L-134.58 529.198L-115.365 535.831L-108.732 516.617L-90.0367 523.071L-83.0447 502.818L-62.2723 509.989M-108.836 466.898L-93.6082 484.958L-78.0679 471.855L-64.9647 487.395L-49.8443 474.646L-36.0328 491.027L-19.2324 476.861M-214.119 474.609L-196.526 458.844L-182.96 473.982L-167.822 460.417L-154.623 475.146L-138.666 460.847L-124.001 477.213M-148.11 567.624L-125.033 562.572L-120.686 582.429L-100.829 578.082L-96.5992 597.402L-75.6689 592.82L-70.9691 614.287M-67.6835 580.217L-78.8689 559.409L-60.9646 549.785L-70.5892 531.88L-53.1688 522.516M-181.64 599.945L-162.112 586.652L-150.673 603.456L-133.87 592.018L-122.741 608.367M-171.732 508.766L-155.487 491.615L-140.729 505.593L-126.751 490.835L-112.391 504.436M-218.329 591.269L-194.847 588.691L-197.065 568.485L-176.859 566.267L-179.017 546.607L-157.719 544.27L-160.117 522.425M-210.946 570.369L-220.098 548.59L-201.358 540.715L-209.233 521.975L-191 514.313L-199.3 494.56L-179.041 486.047M-27.7244 594.416L-43.3458 576.695L-28.0973 563.253L-41.5389 548.004L-26.7025 534.926L-40.8707 518.853L-24.3858 504.322M111.565 517.599L103.856 539.929L84.6413 533.295L78.0079 552.51L59.3128 546.056L52.3208 566.309L31.5484 559.137M78.1124 602.229L62.8843 584.169L47.344 597.272L34.2408 581.732L19.1204 594.481L5.30894 578.1L-11.4915 592.266M183.395 594.518L165.802 610.283L152.236 595.145L137.098 608.71L123.899 593.981L107.942 608.28L93.2766 591.914M117.386 501.502L94.3092 506.555L89.962 486.698L70.105 491.045L65.8753 471.725L44.945 476.307L40.2452 454.84M36.9596 488.91L48.145 509.717L30.2407 519.342L39.8653 537.246L22.4449 546.611M150.916 469.181L131.388 482.475L119.949 465.671L103.146 477.109L92.0167 460.76M141.008 560.361L124.763 577.512L110.005 563.534L96.0268 578.292L81.6676 564.691M187.606 477.858L164.123 480.436L166.341 500.642L146.135 502.86L148.293 522.519L126.995 524.857L129.393 546.701M180.222 498.758L189.374 520.537L170.634 528.412L178.509 547.152L160.276 554.814L168.576 574.566L148.317 583.08M-2.99946 474.711L12.6219 492.432L-2.62664 505.874L10.815 521.122L-4.02143 534.201L10.1468 550.274L-6.33814 564.805M25.6161 451.186L6.49268 437.316L-5.44162 453.771L-21.8967 441.837L-33.5084 457.848L-50.853 445.268L-63.7549 463.057M-40.2738 297.284L-24.3281 279.854L-9.3301 293.574L4.39059 278.576L18.9832 291.926" stroke="#1D1E1D" stroke-width="5.49385"/>
<path d="M272.677 382.352L280.386 360.022L299.6 366.655L306.234 347.441L324.929 353.895L331.921 333.642L352.693 340.813M306.129 297.721L321.357 315.782L336.898 302.679L350.001 318.219L365.121 305.47L378.933 321.85L395.733 307.685M200.847 305.433L218.44 289.668L232.005 304.806L247.144 291.24L260.343 305.97L276.3 291.671L290.965 308.037M266.855 398.448L289.932 393.396L294.28 413.253L314.137 408.906L318.366 428.226L339.297 423.644L343.996 445.111M347.282 411.041L336.097 390.233L354.001 380.609L344.376 362.704L361.797 353.34M233.325 430.769L252.854 417.476L264.292 434.28L281.096 422.841L292.225 439.191M243.233 339.59L259.478 322.438L274.236 336.417L288.215 321.659L302.574 335.259M196.636 422.092L220.119 419.515L217.901 399.309L238.106 397.091L235.949 377.431L257.247 375.093L254.849 353.249M204.02 401.193L194.868 379.414L213.608 371.539L205.733 352.799L223.966 345.137L215.665 325.384L235.925 316.871M371.62 407.518L386.868 394.077L373.427 378.828L388.263 365.75L374.095 349.677L390.58 335.145M526.53 348.422L518.821 370.753L499.607 364.119L492.973 383.334L474.278 376.879L467.286 397.133L446.514 389.961M493.078 433.053L477.85 414.993L462.309 428.096L449.206 412.555L434.086 425.304L420.274 408.924L403.474 423.09M598.361 425.341L580.767 441.107L567.202 425.968L552.063 439.534L538.864 424.805L522.908 439.103L508.242 422.737M532.352 332.326L509.275 337.378L504.927 317.521L485.07 321.869L480.841 302.548L459.91 307.131L455.211 285.664M451.925 319.734L463.11 340.541L445.206 350.166L454.831 368.07L437.41 377.435M565.882 300.005L546.353 313.298L534.915 296.495L518.111 307.933L506.982 291.583M555.974 391.185L539.729 408.336L524.971 394.358L510.992 409.116L496.633 395.515M602.571 308.682L579.089 311.26L581.306 331.465L561.101 333.683L563.259 353.343L541.96 355.681L544.358 377.525M595.187 329.582L604.339 351.361L585.6 359.235L593.474 377.975L575.241 385.637L583.542 405.39L563.282 413.904M411.966 305.535L427.587 323.256L412.339 336.698L425.78 351.946L410.944 365.025L425.112 381.097L408.627 395.629M275.63 551.528L283.339 529.198L302.553 535.831L309.187 516.617L327.882 523.071L334.874 502.818L355.646 509.989M309.082 466.898L324.31 484.958L339.851 471.855L352.954 487.395L368.074 474.646L381.886 491.027L398.686 476.861M203.8 474.609L221.393 458.844L234.958 473.982L250.097 460.417L263.296 475.146L279.253 460.847L293.918 477.213M269.808 567.624L292.885 562.572L297.233 582.429L317.09 578.082L321.319 597.402L342.25 592.82L346.949 614.287M350.235 580.217L339.05 559.409L356.954 549.785L347.329 531.88L364.75 522.516M236.278 599.945L255.807 586.652L267.245 603.456L284.049 592.018L295.178 608.367M246.186 508.766L262.431 491.615L277.189 505.593L291.168 490.835L305.527 504.436M199.589 591.269L223.071 588.691L220.854 568.485L241.059 566.267L238.902 546.607L260.2 544.27L257.802 522.425M206.973 570.369L197.821 548.59L216.561 540.715L208.686 521.975L226.919 514.313L218.618 494.56L238.878 486.047M390.194 594.416L374.573 576.695L389.821 563.253L376.38 548.004L391.216 534.926L377.048 518.853L393.533 504.322M529.483 517.599L521.774 539.929L502.56 533.295L495.926 552.51L477.231 546.056L470.239 566.309L449.467 559.137M496.031 602.229L480.803 584.169L465.262 597.272L452.159 581.732L437.039 594.481L423.227 578.1L406.427 592.266M601.314 594.518L583.72 610.283L570.155 595.145L555.016 608.71L541.817 593.981L525.861 608.28L511.195 591.914M535.305 501.502L512.228 506.555L507.88 486.698L488.023 491.045L483.794 471.725L462.863 476.307L458.164 454.84M454.878 488.91L466.063 509.717L448.159 519.342L457.784 537.246L440.363 546.611M568.835 469.181L549.306 482.475L537.868 465.671L521.064 477.109L509.935 460.76M558.927 560.361L542.682 577.512L527.924 563.534L513.945 578.292L499.586 564.691M605.524 477.858L582.042 480.436L584.259 500.642L564.054 502.86L566.211 522.519L544.913 524.857L547.311 546.701M598.14 498.758L607.292 520.537L588.553 528.412L596.427 547.152L578.194 554.814L586.495 574.566L566.235 583.08M414.919 474.711L430.54 492.432L415.292 505.874L428.733 521.122L413.897 534.201L428.065 550.274L411.58 564.805M443.535 451.186L424.411 437.316L412.477 453.771L396.022 441.837L384.41 457.848L367.065 445.268L354.164 463.057M377.645 297.284L393.59 279.854L408.588 293.574L422.309 278.576L436.902 291.926" stroke="#1D1E1D" stroke-width="5.49385"/>
<path d="M-145.242 718.063L-137.533 695.732L-118.318 702.366L-111.685 683.151L-92.9897 689.605L-85.9977 669.352L-65.2253 676.524M-111.789 633.432L-96.5612 651.492L-81.0208 638.389L-67.9177 653.93L-52.7973 641.18L-38.9858 657.561L-22.1854 643.395M-217.072 641.143L-199.479 625.378L-185.913 640.517L-170.775 626.951L-157.576 641.68L-141.619 627.382L-126.953 643.747M-151.063 734.159L-127.986 729.107L-123.639 748.963L-103.782 744.616L-99.5521 763.937L-78.6218 759.354L-73.9221 780.821M-70.6365 746.751L-81.8218 725.944L-63.9176 716.319L-73.5422 698.415L-56.1218 689.05M-184.593 766.48L-165.065 753.187L-153.626 769.99L-136.823 758.552L-125.694 774.901M-174.685 675.3L-158.44 658.149L-143.682 672.127L-129.704 657.369L-115.344 670.97M-221.282 757.803L-197.8 755.225L-200.018 735.019L-179.812 732.802L-181.97 713.142L-160.672 710.804L-163.07 688.96M-213.899 736.903L-223.051 715.124L-204.311 707.249L-212.186 688.51L-193.953 680.847L-202.253 661.095L-181.994 652.581M-46.2988 743.229L-31.0502 729.787L-44.4919 714.539L-29.6554 701.46L-43.8237 685.388L-27.3387 670.856M108.612 684.133L100.903 706.463L81.6884 699.83L75.0549 719.044L56.3598 712.59L49.3678 732.843L28.5954 725.672M75.1594 768.764L59.9314 750.703L44.391 763.806L31.2878 748.266L16.1674 761.015L2.35595 744.635L-14.4445 758.8M180.442 761.052L162.849 776.817L149.283 761.679L134.145 775.244L120.946 760.515L104.989 774.814L90.3236 758.448M114.433 668.037L91.3562 673.089L87.009 653.232L67.152 657.579L62.9223 638.259L41.992 642.841L37.2923 621.374M34.0066 655.444L45.192 676.252L27.2877 685.876L36.9123 703.781L19.4919 713.145M147.963 635.716L128.435 649.009L116.996 632.205L100.193 643.644L89.0637 627.294M138.056 726.895L121.81 744.047L107.052 730.068L93.0738 744.826L78.7146 731.225M184.653 644.393L161.17 646.97L163.388 667.176L143.182 669.394L145.34 689.054L124.042 691.392L126.44 713.236M177.269 665.292L186.421 687.071L167.681 694.946L175.556 713.686L157.323 721.348L165.623 741.101L145.364 749.614M-5.95244 641.245L9.66895 658.967L-5.57964 672.408L7.86204 687.657L-6.97441 700.735L7.19381 716.808L-9.29112 731.339M-142.289 887.239L-134.58 864.908L-115.365 871.542L-108.732 852.327L-90.0367 858.782L-83.0447 838.529L-62.2723 845.7M-108.836 802.608L-93.6082 820.669L-78.0679 807.565L-64.9647 823.106L-49.8443 810.357L-36.0328 826.737L-19.2324 812.571M-214.119 810.32L-196.526 794.554L-182.96 809.693L-167.822 796.127L-154.623 810.857L-138.666 796.558L-124.001 812.924M-148.11 903.335L-125.033 898.283L-120.686 918.14L-100.829 913.792L-96.5992 933.113L-75.6689 928.53L-70.9691 949.997M-67.6835 915.928L-78.8689 895.12L-60.9646 885.495L-70.5892 867.591L-53.1688 858.226M-181.64 935.656L-162.112 922.363L-150.673 939.166L-133.87 927.728L-122.741 944.078M-171.732 844.476L-155.487 827.325L-140.729 841.304L-126.751 826.546L-112.391 840.146M-218.329 926.979L-194.847 924.402L-197.065 904.196L-176.859 901.978L-179.017 882.318L-157.719 879.98L-160.117 858.136M-210.946 906.079L-220.098 884.301L-201.358 876.426L-209.233 857.686L-191 850.024L-199.3 830.271L-179.041 821.757M-27.7244 930.126L-43.3458 912.405L-28.0973 898.963L-41.5389 883.715L-26.7025 870.637L-40.8707 854.564L-24.3858 840.032M111.565 853.309L103.856 875.639L84.6413 869.006L78.0079 888.22L59.3128 881.766L52.3208 902.019L31.5484 894.848M78.1124 937.94L62.8843 919.879L47.344 932.983L34.2408 917.442L19.1204 930.191L5.30894 913.811L-11.4915 927.976M183.395 930.228L165.802 945.994L152.236 930.855L137.098 944.421L123.899 929.691L107.942 943.99L93.2766 927.624M117.386 837.213L94.3092 842.265L89.962 822.408L70.105 826.755L65.8753 807.435L44.945 812.017L40.2452 790.55M36.9596 824.62L48.145 845.428L30.2407 855.053L39.8653 872.957L22.4449 882.321M150.916 804.892L131.388 818.185L119.949 801.381L103.146 812.82L92.0167 796.47M141.008 896.072L124.763 913.223L110.005 899.244L96.0268 914.002L81.6676 900.402M187.606 813.569L164.123 816.146L166.341 836.352L146.135 838.57L148.293 858.23L126.995 860.568L129.393 882.412M180.222 834.469L189.374 856.247L170.634 864.122L178.509 882.862L160.276 890.524L168.576 910.277L148.317 918.79M-2.99946 810.421L12.6219 828.143L-2.62664 841.584L10.815 856.833L-4.02143 869.911L10.1468 885.984L-6.33814 900.516M25.6161 786.897L6.49268 773.027L-5.44162 789.482L-21.8967 777.548L-33.5084 793.558L-50.853 780.979L-63.7549 798.768M-40.2738 632.994L-24.3281 615.564L-9.3301 629.285L4.39059 614.287L18.9832 627.637" stroke="#1D1E1D" stroke-width="5.49385"/>
<path d="M272.677 718.063L280.386 695.732L299.6 702.366L306.234 683.151L324.929 689.605L331.921 669.352L352.693 676.524M306.129 633.432L321.357 651.492L336.898 638.389L350.001 653.93L365.121 641.18L378.933 657.561L395.733 643.395M200.847 641.143L218.44 625.378L232.005 640.517L247.144 626.951L260.343 641.68L276.3 627.382L290.965 643.747M266.855 734.159L289.932 729.107L294.28 748.963L314.137 744.616L318.366 763.937L339.297 759.354L343.996 780.821M347.282 746.751L336.097 725.944L354.001 716.319L344.376 698.415L361.797 689.05M233.325 766.48L252.854 753.187L264.292 769.99L281.096 758.552L292.225 774.901M243.233 675.3L259.478 658.149L274.236 672.127L288.215 657.369L302.574 670.97M196.636 757.803L220.119 755.225L217.901 735.019L238.106 732.802L235.949 713.142L257.247 710.804L254.849 688.96M204.02 736.903L194.868 715.124L213.608 707.249L205.733 688.51L223.966 680.847L215.665 661.095L235.925 652.581M371.62 743.229L386.868 729.787L373.427 714.539L388.263 701.46L374.095 685.388L390.58 670.856M526.53 684.133L518.821 706.463L499.607 699.83L492.973 719.044L474.278 712.59L467.286 732.843L446.514 725.672M493.078 768.764L477.85 750.703L462.309 763.806L449.206 748.266L434.086 761.015L420.274 744.635L403.474 758.8M598.361 761.052L580.767 776.817L567.202 761.679L552.063 775.244L538.864 760.515L522.908 774.814L508.242 758.448M532.352 668.037L509.275 673.089L504.927 653.232L485.07 657.579L480.841 638.259L459.91 642.841L455.211 621.374M451.925 655.444L463.11 676.252L445.206 685.876L454.831 703.781L437.41 713.145M565.882 635.716L546.353 649.009L534.915 632.205L518.111 643.644L506.982 627.294M555.974 726.895L539.729 744.047L524.971 730.068L510.992 744.826L496.633 731.225M602.571 644.393L579.089 646.97L581.306 667.176L561.101 669.394L563.259 689.054L541.96 691.392L544.358 713.236M595.187 665.292L604.339 687.071L585.6 694.946L593.474 713.686L575.241 721.348L583.542 741.101L563.282 749.614M411.966 641.245L427.587 658.967L412.339 672.408L425.78 687.657L410.944 700.735L425.112 716.808L408.627 731.339M275.63 887.239L283.339 864.908L302.553 871.542L309.187 852.327L327.882 858.782L334.874 838.529L355.646 845.7M309.082 802.608L324.31 820.669L339.851 807.565L352.954 823.106L368.074 810.357L381.886 826.737L398.686 812.571M203.8 810.32L221.393 794.554L234.958 809.693L250.097 796.127L263.296 810.857L279.253 796.558L293.918 812.924M269.808 903.335L292.885 898.283L297.233 918.14L317.09 913.792L321.319 933.113L342.25 928.53L346.949 949.997M350.235 915.928L339.05 895.12L356.954 885.495L347.329 867.591L364.75 858.226M236.278 935.656L255.807 922.363L267.245 939.166L284.049 927.728L295.178 944.078M246.186 844.476L262.431 827.325L277.189 841.304L291.168 826.546L305.527 840.146M199.589 926.979L223.071 924.402L220.854 904.196L241.059 901.978L238.902 882.318L260.2 879.98L257.802 858.136M206.973 906.079L197.821 884.301L216.561 876.426L208.686 857.686L226.919 850.024L218.618 830.271L238.878 821.757M390.194 930.126L374.573 912.405L389.821 898.963L376.38 883.715L391.216 870.637L377.048 854.564L393.533 840.032M529.483 853.309L521.774 875.639L502.56 869.006L495.926 888.22L477.231 881.766L470.239 902.019L449.467 894.848M496.031 937.94L480.803 919.879L465.262 932.983L452.159 917.442L437.039 930.191L423.227 913.811L406.427 927.976M601.314 930.228L583.72 945.994L570.155 930.855L555.016 944.421L541.817 929.691L525.861 943.99L511.195 927.624M535.305 837.213L512.228 842.265L507.88 822.408L488.023 826.755L483.794 807.435L462.863 812.017L458.164 790.55M454.878 824.62L466.063 845.428L448.159 855.053L457.784 872.957L440.363 882.321M568.835 804.892L549.306 818.185L537.868 801.381L521.064 812.82L509.935 796.47M558.927 896.072L542.682 913.223L527.924 899.244L513.945 914.002L499.586 900.402M605.524 813.569L582.042 816.146L584.259 836.352L564.054 838.57L566.211 858.23L544.913 860.568L547.311 882.412M598.14 834.469L607.292 856.247L588.553 864.122L596.427 882.862L578.194 890.524L586.495 910.277L566.235 918.79M414.919 810.421L430.54 828.143L415.292 841.584L428.733 856.833L413.897 869.911L428.065 885.984L411.58 900.516M443.535 786.897L424.411 773.027L412.477 789.482L396.022 777.548L384.41 793.558L367.065 780.979L354.164 798.768M377.645 632.994L393.59 615.564L408.588 629.285L422.309 614.287L436.902 627.637" stroke="#1D1E1D" stroke-width="5.49385"/>
<path d="M-145.242 1053.77L-137.533 1031.44L-118.318 1038.08L-111.685 1018.86L-92.9897 1025.32L-85.9977 1005.06L-65.2253 1012.23M-111.789 969.142L-96.5612 987.203L-81.0208 974.1L-67.9177 989.64L-52.7973 976.891L-38.9858 993.271L-22.1854 979.106M-217.072 976.854L-199.479 961.089L-185.913 976.227L-170.775 962.662L-157.576 977.391L-141.619 963.092L-126.953 979.458M-151.063 1069.87L-127.986 1064.82L-123.639 1084.67L-103.782 1080.33L-99.5521 1099.65L-78.6218 1095.06L-73.9221 1116.53M-70.6365 1082.46L-81.8218 1061.65L-63.9176 1052.03L-73.5422 1034.13L-56.1218 1024.76M-184.593 1102.19L-165.065 1088.9L-153.626 1105.7L-136.823 1094.26L-125.694 1110.61M-174.685 1011.01L-158.44 993.859L-143.682 1007.84L-129.704 993.08L-115.344 1006.68M-221.282 1093.51L-197.8 1090.94L-200.018 1070.73L-179.812 1068.51L-181.97 1048.85L-160.672 1046.51L-163.07 1024.67M-213.899 1072.61L-223.051 1050.83L-204.311 1042.96L-212.186 1024.22L-193.953 1016.56L-202.253 996.805L-181.994 988.292M-46.2988 1078.94L-31.0502 1065.5L-44.4919 1050.25L-29.6554 1037.17L-43.8237 1021.1L-27.3387 1006.57M108.612 1019.84L100.903 1042.17L81.6884 1035.54L75.0549 1054.75L56.3598 1048.3L49.3678 1068.55L28.5954 1061.38M75.1594 1104.47L59.9314 1086.41L44.391 1099.52L31.2878 1083.98L16.1674 1096.73L2.35595 1080.35L-14.4445 1094.51M180.442 1096.76L162.849 1112.53L149.283 1097.39L134.145 1110.96L120.946 1096.23L104.989 1110.52L90.3236 1094.16M114.433 1003.75L91.3562 1008.8L87.009 988.943L67.152 993.29L62.9223 973.97L41.992 978.552L37.2923 957.085M34.0066 991.155L45.192 1011.96L27.2877 1021.59L36.9123 1039.49L19.4919 1048.86M147.963 971.426L128.435 984.719L116.996 967.916L100.193 979.354L89.0637 963.005M138.056 1062.61L121.81 1079.76L107.052 1065.78L93.0738 1080.54L78.7146 1066.94M184.653 980.103L161.17 982.681L163.388 1002.89L143.182 1005.1L145.34 1024.76L124.042 1027.1L126.44 1048.95M177.269 1001L186.421 1022.78L167.681 1030.66L175.556 1049.4L157.323 1057.06L165.623 1076.81L145.364 1085.32M-5.95244 976.956L9.66895 994.677L-5.57964 1008.12L7.86204 1023.37L-6.97441 1036.45L7.19381 1052.52L-9.29112 1067.05M-142.289 1222.95L-134.58 1200.62L-115.365 1207.25L-108.732 1188.04L-90.0367 1194.49L-83.0447 1174.24L-62.2723 1181.41M-108.836 1138.32L-93.6082 1156.38L-78.0679 1143.28L-64.9647 1158.82L-49.8443 1146.07L-36.0328 1162.45L-19.2324 1148.28M-214.119 1146.03L-196.526 1130.26L-182.96 1145.4L-167.822 1131.84L-154.623 1146.57L-138.666 1132.27L-124.001 1148.63M-148.11 1239.05L-125.033 1233.99L-120.686 1253.85L-100.829 1249.5L-96.5992 1268.82L-75.6689 1264.24L-70.9691 1285.71M-67.6835 1251.64L-78.8689 1230.83L-60.9646 1221.21L-70.5892 1203.3L-53.1688 1193.94M-181.64 1271.37L-162.112 1258.07L-150.673 1274.88L-133.87 1263.44L-122.741 1279.79M-171.732 1180.19L-155.487 1163.04L-140.729 1177.01L-126.751 1162.26L-112.391 1175.86M-218.329 1262.69L-194.847 1260.11L-197.065 1239.91L-176.859 1237.69L-179.017 1218.03L-157.719 1215.69L-160.117 1193.85M-210.946 1241.79L-220.098 1220.01L-201.358 1212.14L-209.233 1193.4L-191 1185.73L-199.3 1165.98L-179.041 1157.47M-27.7244 1265.84L-43.3458 1248.12L-28.0973 1234.67L-41.5389 1219.43L-26.7025 1206.35L-40.8707 1190.27L-24.3858 1175.74M111.565 1189.02L103.856 1211.35L84.6413 1204.72L78.0079 1223.93L59.3128 1217.48L52.3208 1237.73L31.5484 1230.56M78.1124 1273.65L62.8843 1255.59L47.344 1268.69L34.2408 1253.15L19.1204 1265.9L5.30894 1249.52L-11.4915 1263.69M183.395 1265.94L165.802 1281.7L152.236 1266.57L137.098 1280.13L123.899 1265.4L107.942 1279.7L93.2766 1263.33M117.386 1172.92L94.3092 1177.98L89.962 1158.12L70.105 1162.47L65.8753 1143.15L44.945 1147.73L40.2452 1126.26M36.9596 1160.33L48.145 1181.14L30.2407 1190.76L39.8653 1208.67L22.4449 1218.03M150.916 1140.6L131.388 1153.9L119.949 1137.09L103.146 1148.53L92.0167 1132.18M141.008 1231.78L124.763 1248.93L110.005 1234.95L96.0268 1249.71L81.6676 1236.11M187.606 1149.28L164.123 1151.86L166.341 1172.06L146.135 1174.28L148.293 1193.94L126.995 1196.28L129.393 1218.12M180.222 1170.18L189.374 1191.96L170.634 1199.83L178.509 1218.57L160.276 1226.23L168.576 1245.99L148.317 1254.5M-2.99946 1146.13L12.6219 1163.85L-2.62664 1177.29L10.815 1192.54L-4.02143 1205.62L10.1468 1221.69L-6.33814 1236.23M25.6161 1122.61L6.49268 1108.74L-5.44162 1125.19L-21.8967 1113.26L-33.5084 1129.27L-50.853 1116.69L-63.7549 1134.48M-40.2738 968.705L-24.3281 951.275L-9.3301 964.995L4.39059 949.997L18.9832 963.347" stroke="#1D1E1D" stroke-width="5.49385"/>
<path d="M272.677 1053.77L280.386 1031.44L299.6 1038.08L306.234 1018.86L324.929 1025.32L331.921 1005.06L352.693 1012.23M306.129 969.142L321.357 987.203L336.898 974.1L350.001 989.64L365.121 976.891L378.933 993.271L395.733 979.106M200.847 976.854L218.44 961.089L232.005 976.227L247.144 962.662L260.343 977.391L276.3 963.092L290.965 979.458M266.855 1069.87L289.932 1064.82L294.28 1084.67L314.137 1080.33L318.366 1099.65L339.297 1095.06L343.996 1116.53M347.282 1082.46L336.097 1061.65L354.001 1052.03L344.376 1034.13L361.797 1024.76M233.325 1102.19L252.854 1088.9L264.292 1105.7L281.096 1094.26L292.225 1110.61M243.233 1011.01L259.478 993.859L274.236 1007.84L288.215 993.08L302.574 1006.68M196.636 1093.51L220.119 1090.94L217.901 1070.73L238.106 1068.51L235.949 1048.85L257.247 1046.51L254.849 1024.67M204.02 1072.61L194.868 1050.83L213.608 1042.96L205.733 1024.22L223.966 1016.56L215.665 996.805L235.925 988.292M371.62 1078.94L386.868 1065.5L373.427 1050.25L388.263 1037.17L374.095 1021.1L390.58 1006.57M526.53 1019.84L518.821 1042.17L499.607 1035.54L492.973 1054.75L474.278 1048.3L467.286 1068.55L446.514 1061.38M493.078 1104.47L477.85 1086.41L462.309 1099.52L449.206 1083.98L434.086 1096.73L420.274 1080.35L403.474 1094.51M598.361 1096.76L580.767 1112.53L567.202 1097.39L552.063 1110.96L538.864 1096.23L522.908 1110.52L508.242 1094.16M532.352 1003.75L509.275 1008.8L504.927 988.943L485.07 993.29L480.841 973.97L459.91 978.552L455.211 957.085M451.925 991.155L463.11 1011.96L445.206 1021.59L454.831 1039.49L437.41 1048.86M565.882 971.426L546.353 984.719L534.915 967.916L518.111 979.354L506.982 963.005M555.974 1062.61L539.729 1079.76L524.971 1065.78L510.992 1080.54L496.633 1066.94M602.571 980.103L579.089 982.681L581.306 1002.89L561.101 1005.1L563.259 1024.76L541.96 1027.1L544.358 1048.95M595.187 1001L604.339 1022.78L585.6 1030.66L593.474 1049.4L575.241 1057.06L583.542 1076.81L563.282 1085.32M411.966 976.956L427.587 994.677L412.339 1008.12L425.78 1023.37L410.944 1036.45L425.112 1052.52L408.627 1067.05M275.63 1222.95L283.339 1200.62L302.553 1207.25L309.187 1188.04L327.882 1194.49L334.874 1174.24L355.646 1181.41M309.082 1138.32L324.31 1156.38L339.851 1143.28L352.954 1158.82L368.074 1146.07L381.886 1162.45L398.686 1148.28M203.8 1146.03L221.393 1130.26L234.958 1145.4L250.097 1131.84L263.296 1146.57L279.253 1132.27L293.918 1148.63M269.808 1239.05L292.885 1233.99L297.233 1253.85L317.09 1249.5L321.319 1268.82L342.25 1264.24L346.949 1285.71M350.235 1251.64L339.05 1230.83L356.954 1221.21L347.329 1203.3L364.75 1193.94M236.278 1271.37L255.807 1258.07L267.245 1274.88L284.049 1263.44L295.178 1279.79M246.186 1180.19L262.431 1163.04L277.189 1177.01L291.168 1162.26L305.527 1175.86M199.589 1262.69L223.071 1260.11L220.854 1239.91L241.059 1237.69L238.902 1218.03L260.2 1215.69L257.802 1193.85M206.973 1241.79L197.821 1220.01L216.561 1212.14L208.686 1193.4L226.919 1185.73L218.618 1165.98L238.878 1157.47M390.194 1265.84L374.573 1248.12L389.821 1234.67L376.38 1219.43L391.216 1206.35L377.048 1190.27L393.533 1175.74M529.483 1189.02L521.774 1211.35L502.56 1204.72L495.926 1223.93L477.231 1217.48L470.239 1237.73L449.467 1230.56M496.031 1273.65L480.803 1255.59L465.262 1268.69L452.159 1253.15L437.039 1265.9L423.227 1249.52L406.427 1263.69M601.314 1265.94L583.72 1281.7L570.155 1266.57L555.016 1280.13L541.817 1265.4L525.861 1279.7L511.195 1263.33M535.305 1172.92L512.228 1177.98L507.88 1158.12L488.023 1162.47L483.794 1143.15L462.863 1147.73L458.164 1126.26M454.878 1160.33L466.063 1181.14L448.159 1190.76L457.784 1208.67L440.363 1218.03M568.835 1140.6L549.306 1153.9L537.868 1137.09L521.064 1148.53L509.935 1132.18M558.927 1231.78L542.682 1248.93L527.924 1234.95L513.945 1249.71L499.586 1236.11M605.524 1149.28L582.042 1151.86L584.259 1172.06L564.054 1174.28L566.211 1193.94L544.913 1196.28L547.311 1218.12M598.14 1170.18L607.292 1191.96L588.553 1199.83L596.427 1218.57L578.194 1226.23L586.495 1245.99L566.235 1254.5M414.919 1146.13L430.54 1163.85L415.292 1177.29L428.733 1192.54L413.897 1205.62L428.065 1221.69L411.58 1236.23M443.535 1122.61L424.411 1108.74L412.477 1125.19L396.022 1113.26L384.41 1129.27L367.065 1116.69L354.164 1134.48M377.645 968.705L393.59 951.275L408.588 964.995L422.309 949.997L436.902 963.347" stroke="#1D1E1D" stroke-width="5.49385"/>
<path d="M-145.242 1389.48L-137.533 1367.15L-118.318 1373.79L-111.685 1354.57L-92.9897 1361.03L-85.9977 1340.77L-65.2253 1347.94M-111.789 1304.85L-96.5612 1322.91L-81.0208 1309.81L-67.9177 1325.35L-52.7973 1312.6L-38.9858 1328.98L-22.1854 1314.82M-217.072 1312.56L-199.479 1296.8L-185.913 1311.94L-170.775 1298.37L-157.576 1313.1L-141.619 1298.8L-126.953 1315.17M-151.063 1405.58L-127.986 1400.53L-123.639 1420.38L-103.782 1416.04L-99.5521 1435.36L-78.6218 1430.78L-73.9221 1452.24M-70.6365 1418.17L-81.8218 1397.36L-63.9176 1387.74L-73.5422 1369.84L-56.1218 1360.47M-184.593 1437.9L-165.065 1424.61L-153.626 1441.41L-136.823 1429.97L-125.694 1446.32M-174.685 1346.72L-158.44 1329.57L-143.682 1343.55L-129.704 1328.79L-115.344 1342.39M-221.282 1429.22L-197.8 1426.65L-200.018 1406.44L-179.812 1404.22L-181.97 1384.56L-160.672 1382.23L-163.07 1360.38M-213.899 1408.32L-223.051 1386.55L-204.311 1378.67L-212.186 1359.93L-193.953 1352.27L-202.253 1332.52L-181.994 1324M-46.2988 1414.65L-31.0502 1401.21L-44.4919 1385.96L-29.6554 1372.88L-43.8237 1356.81L-27.3387 1342.28M108.612 1355.55L100.903 1377.88L81.6884 1371.25L75.0549 1390.47L56.3598 1384.01L49.3678 1404.26L28.5954 1397.09M75.1594 1440.18L59.9314 1422.12L44.391 1435.23L31.2878 1419.69L16.1674 1432.44L2.35595 1416.06L-14.4445 1430.22M180.442 1432.47L162.849 1448.24L149.283 1433.1L134.145 1446.67L120.946 1431.94L104.989 1446.24L90.3236 1429.87M114.433 1339.46L91.3562 1344.51L87.009 1324.65L67.152 1329L62.9223 1309.68L41.992 1314.26L37.2923 1292.8M34.0066 1326.87L45.192 1347.67L27.2877 1357.3L36.9123 1375.2L19.4919 1384.57M147.963 1307.14L128.435 1320.43L116.996 1303.63L100.193 1315.06L89.0637 1298.72M138.056 1398.32L121.81 1415.47L107.052 1401.49L93.0738 1416.25L78.7146 1402.65M184.653 1315.81L161.17 1318.39L163.388 1338.6L143.182 1340.82L145.34 1360.47L124.042 1362.81L126.44 1384.66M177.269 1336.71L186.421 1358.49L167.681 1366.37L175.556 1385.11L157.323 1392.77L165.623 1412.52L145.364 1421.04M-5.95244 1312.67L9.66895 1330.39L-5.57964 1343.83L7.86204 1359.08L-6.97441 1372.16L7.19381 1388.23L-9.29112 1402.76M-142.289 1558.66L-134.58 1536.33L-115.365 1542.96L-108.732 1523.75L-90.0367 1530.2L-83.0447 1509.95L-62.2723 1517.12M-108.836 1474.03L-93.6082 1492.09L-78.0679 1478.99L-64.9647 1494.53L-49.8443 1481.78L-36.0328 1498.16L-19.2324 1483.99M-214.119 1481.74L-196.526 1465.98L-182.96 1481.11L-167.822 1467.55L-154.623 1482.28L-138.666 1467.98L-124.001 1484.34M-148.11 1574.76L-125.033 1569.7L-120.686 1589.56L-100.829 1585.21L-96.5992 1604.53L-75.6689 1599.95L-70.9691 1621.42M-67.6835 1587.35L-78.8689 1566.54L-60.9646 1556.92L-70.5892 1539.01L-53.1688 1529.65M-181.64 1607.08L-162.112 1593.78L-150.673 1610.59L-133.87 1599.15L-122.741 1615.5M-171.732 1515.9L-155.487 1498.75L-140.729 1512.72L-126.751 1497.97L-112.391 1511.57M-218.329 1598.4L-194.847 1595.82L-197.065 1575.62L-176.859 1573.4L-179.017 1553.74L-157.719 1551.4L-160.117 1529.56M-210.946 1577.5L-220.098 1555.72L-201.358 1547.85L-209.233 1529.11L-191 1521.44L-199.3 1501.69L-179.041 1493.18M-27.7244 1601.55L-43.3458 1583.83L-28.0973 1570.38L-41.5389 1555.14L-26.7025 1542.06L-40.8707 1525.98L-24.3858 1511.45M111.565 1524.73L103.856 1547.06L84.6413 1540.43L78.0079 1559.64L59.3128 1553.19L52.3208 1573.44L31.5484 1566.27M78.1124 1609.36L62.8843 1591.3L47.344 1604.4L34.2408 1588.86L19.1204 1601.61L5.30894 1585.23L-11.4915 1599.4M183.395 1601.65L165.802 1617.41L152.236 1602.28L137.098 1615.84L123.899 1601.11L107.942 1615.41L93.2766 1599.05M117.386 1508.63L94.3092 1513.69L89.962 1493.83L70.105 1498.18L65.8753 1478.86L44.945 1483.44L40.2452 1461.97M36.9596 1496.04L48.145 1516.85L30.2407 1526.47L39.8653 1544.38L22.4449 1553.74M150.916 1476.31L131.388 1489.61L119.949 1472.8L103.146 1484.24L92.0167 1467.89M141.008 1567.49L124.763 1584.64L110.005 1570.67L96.0268 1585.42L81.6676 1571.82M187.606 1484.99L164.123 1487.57L166.341 1507.77L146.135 1509.99L148.293 1529.65L126.995 1531.99L129.393 1553.83M180.222 1505.89L189.374 1527.67L170.634 1535.54L178.509 1554.28L160.276 1561.95L168.576 1581.7L148.317 1590.21M-2.99946 1481.84L12.6219 1499.56L-2.62664 1513.01L10.815 1528.25L-4.02143 1541.33L10.1468 1557.41L-6.33814 1571.94M25.6161 1458.32L6.49268 1444.45L-5.44162 1460.9L-21.8967 1448.97L-33.5084 1464.98L-50.853 1452.4L-63.7549 1470.19M-40.2738 1304.42L-24.3281 1286.99L-9.3301 1300.71L4.39059 1285.71L18.9832 1299.06" stroke="#1D1E1D" stroke-width="5.49385"/>
<path d="M272.677 1389.48L280.386 1367.15L299.6 1373.79L306.234 1354.57L324.929 1361.03L331.921 1340.77L352.693 1347.94M306.129 1304.85L321.357 1322.91L336.898 1309.81L350.001 1325.35L365.121 1312.6L378.933 1328.98L395.733 1314.82M200.847 1312.56L218.44 1296.8L232.005 1311.94L247.144 1298.37L260.343 1313.1L276.3 1298.8L290.965 1315.17M266.855 1405.58L289.932 1400.53L294.28 1420.38L314.137 1416.04L318.366 1435.36L339.297 1430.78L343.996 1452.24M347.282 1418.17L336.097 1397.36L354.001 1387.74L344.376 1369.84L361.797 1360.47M233.325 1437.9L252.854 1424.61L264.292 1441.41L281.096 1429.97L292.225 1446.32M243.233 1346.72L259.478 1329.57L274.236 1343.55L288.215 1328.79L302.574 1342.39M196.636 1429.22L220.119 1426.65L217.901 1406.44L238.106 1404.22L235.949 1384.56L257.247 1382.23L254.849 1360.38M204.02 1408.32L194.868 1386.55L213.608 1378.67L205.733 1359.93L223.966 1352.27L215.665 1332.52L235.925 1324M371.62 1414.65L386.868 1401.21L373.427 1385.96L388.263 1372.88L374.095 1356.81L390.58 1342.28M526.53 1355.55L518.821 1377.88L499.607 1371.25L492.973 1390.47L474.278 1384.01L467.286 1404.26L446.514 1397.09M493.078 1440.18L477.85 1422.12L462.309 1435.23L449.206 1419.69L434.086 1432.44L420.274 1416.06L403.474 1430.22M598.361 1432.47L580.767 1448.24L567.202 1433.1L552.063 1446.67L538.864 1431.94L522.908 1446.24L508.242 1429.87M532.352 1339.46L509.275 1344.51L504.927 1324.65L485.07 1329L480.841 1309.68L459.91 1314.26L455.211 1292.8M451.925 1326.87L463.11 1347.67L445.206 1357.3L454.831 1375.2L437.41 1384.57M565.882 1307.14L546.353 1320.43L534.915 1303.63L518.111 1315.06L506.982 1298.72M555.974 1398.32L539.729 1415.47L524.971 1401.49L510.992 1416.25L496.633 1402.65M602.571 1315.81L579.089 1318.39L581.306 1338.6L561.101 1340.82L563.259 1360.47L541.96 1362.81L544.358 1384.66M595.187 1336.71L604.339 1358.49L585.6 1366.37L593.474 1385.11L575.241 1392.77L583.542 1412.52L563.282 1421.04M411.966 1312.67L427.587 1330.39L412.339 1343.83L425.78 1359.08L410.944 1372.16L425.112 1388.23L408.627 1402.76M275.63 1558.66L283.339 1536.33L302.553 1542.96L309.187 1523.75L327.882 1530.2L334.874 1509.95L355.646 1517.12M309.082 1474.03L324.31 1492.09L339.851 1478.99L352.954 1494.53L368.074 1481.78L381.886 1498.16L398.686 1483.99M203.8 1481.74L221.393 1465.98L234.958 1481.11L250.097 1467.55L263.296 1482.28L279.253 1467.98L293.918 1484.34M269.808 1574.76L292.885 1569.7L297.233 1589.56L317.09 1585.21L321.319 1604.53L342.25 1599.95L346.949 1621.42M350.235 1587.35L339.05 1566.54L356.954 1556.92L347.329 1539.01L364.75 1529.65M236.278 1607.08L255.807 1593.78L267.245 1610.59L284.049 1599.15L295.178 1615.5M246.186 1515.9L262.431 1498.75L277.189 1512.72L291.168 1497.97L305.527 1511.57M199.589 1598.4L223.071 1595.82L220.854 1575.62L241.059 1573.4L238.902 1553.74L260.2 1551.4L257.802 1529.56M206.973 1577.5L197.821 1555.72L216.561 1547.85L208.686 1529.11L226.919 1521.44L218.618 1501.69L238.878 1493.18M390.194 1601.55L374.573 1583.83L389.821 1570.38L376.38 1555.14L391.216 1542.06L377.048 1525.98L393.533 1511.45M529.483 1524.73L521.774 1547.06L502.56 1540.43L495.926 1559.64L477.231 1553.19L470.239 1573.44L449.467 1566.27M496.031 1609.36L480.803 1591.3L465.262 1604.4L452.159 1588.86L437.039 1601.61L423.227 1585.23L406.427 1599.4M601.314 1601.65L583.72 1617.41L570.155 1602.28L555.016 1615.84L541.817 1601.11L525.861 1615.41L511.195 1599.05M535.305 1508.63L512.228 1513.69L507.88 1493.83L488.023 1498.18L483.794 1478.86L462.863 1483.44L458.164 1461.97M454.878 1496.04L466.063 1516.85L448.159 1526.47L457.784 1544.38L440.363 1553.74M568.835 1476.31L549.306 1489.61L537.868 1472.8L521.064 1484.24L509.935 1467.89M558.927 1567.49L542.682 1584.64L527.924 1570.67L513.945 1585.42L499.586 1571.82M605.524 1484.99L582.042 1487.57L584.259 1507.77L564.054 1509.99L566.211 1529.65L544.913 1531.99L547.311 1553.83M598.14 1505.89L607.292 1527.67L588.553 1535.54L596.427 1554.28L578.194 1561.95L586.495 1581.7L566.235 1590.21M414.919 1481.84L430.54 1499.56L415.292 1513.01L428.733 1528.25L413.897 1541.33L428.065 1557.41L411.58 1571.94M443.535 1458.32L424.411 1444.45L412.477 1460.9L396.022 1448.97L384.41 1464.98L367.065 1452.4L354.164 1470.19M377.645 1304.42L393.59 1286.99L408.588 1300.71L422.309 1285.71L436.902 1299.06" stroke="#1D1E1D" stroke-width="5.49385"/>
<path d="M-145.242 1725.19L-137.533 1702.86L-118.318 1709.5L-111.685 1690.28L-92.9897 1696.74L-85.9977 1676.48L-65.2253 1683.66M-111.789 1640.56L-96.5612 1658.62L-81.0208 1645.52L-67.9177 1661.06L-52.7973 1648.31L-38.9858 1664.69L-22.1854 1650.53M-217.072 1648.28L-199.479 1632.51L-185.913 1647.65L-170.775 1634.08L-157.576 1648.81L-141.619 1634.51L-126.953 1650.88M-151.063 1741.29L-127.986 1736.24L-123.639 1756.1L-103.782 1751.75L-99.5521 1771.07L-78.6218 1766.49L-73.9221 1787.95M-70.6365 1753.88L-81.8218 1733.08L-63.9176 1723.45L-73.5422 1705.55L-56.1218 1696.18M-184.593 1773.61L-165.065 1760.32L-153.626 1777.12L-136.823 1765.68L-125.694 1782.03M-174.685 1682.43L-158.44 1665.28L-143.682 1679.26L-129.704 1664.5L-115.344 1678.1M-221.282 1764.93L-197.8 1762.36L-200.018 1742.15L-179.812 1739.93L-181.97 1720.27L-160.672 1717.94L-163.07 1696.09M-213.899 1744.03L-223.051 1722.26L-204.311 1714.38L-212.186 1695.64L-193.953 1687.98L-202.253 1668.23L-181.994 1659.71M-46.2988 1750.36L-31.0502 1736.92L-44.4919 1721.67L-29.6554 1708.59L-43.8237 1692.52L-27.3387 1677.99M108.612 1691.26L100.903 1713.59L81.6884 1706.96L75.0549 1726.18L56.3598 1719.72L49.3678 1739.97L28.5954 1732.8M75.1594 1775.9L59.9314 1757.83L44.391 1770.94L31.2878 1755.4L16.1674 1768.15L2.35595 1751.77L-14.4445 1765.93M180.442 1768.18L162.849 1783.95L149.283 1768.81L134.145 1782.38L120.946 1767.65L104.989 1781.95L90.3236 1765.58M114.433 1675.17L91.3562 1680.22L87.009 1660.36L67.152 1664.71L62.9223 1645.39L41.992 1649.97L37.2923 1628.51M34.0066 1662.58L45.192 1683.38L27.2877 1693.01L36.9123 1710.91L19.4919 1720.28M147.963 1642.85L128.435 1656.14L116.996 1639.34L100.193 1650.78L89.0637 1634.43M138.056 1734.03L121.81 1751.18L107.052 1737.2L93.0738 1751.96L78.7146 1738.36M184.653 1651.52L161.17 1654.1L163.388 1674.31L143.182 1676.53L145.34 1696.19L124.042 1698.52L126.44 1720.37M177.269 1672.42L186.421 1694.2L167.681 1702.08L175.556 1720.82L157.323 1728.48L165.623 1748.23L145.364 1756.75M-5.95244 1648.38L9.66895 1666.1L-5.57964 1679.54L7.86204 1694.79L-6.97441 1707.87L7.19381 1723.94L-9.29112 1738.47M-142.289 1894.37L-134.58 1872.04L-115.365 1878.67L-108.732 1859.46L-90.0367 1865.91L-83.0447 1845.66L-62.2723 1852.83M-108.836 1809.74L-93.6082 1827.8L-78.0679 1814.7L-64.9647 1830.24L-49.8443 1817.49L-36.0328 1833.87L-19.2324 1819.7M-214.119 1817.45L-196.526 1801.69L-182.96 1816.82L-167.822 1803.26L-154.623 1817.99L-138.666 1803.69L-124.001 1820.06M-148.11 1910.47L-125.033 1905.41L-120.686 1925.27L-100.829 1920.92L-96.5992 1940.24L-75.6689 1935.66L-70.9691 1957.13M-67.6835 1923.06L-78.8689 1902.25L-60.9646 1892.63L-70.5892 1874.72L-53.1688 1865.36M-181.64 1942.79L-162.112 1929.49L-150.673 1946.3L-133.87 1934.86L-122.741 1951.21M-171.732 1851.61L-155.487 1834.46L-140.729 1848.44L-126.751 1833.68L-112.391 1847.28M-218.329 1934.11L-194.847 1931.53L-197.065 1911.33L-176.859 1909.11L-179.017 1889.45L-157.719 1887.11L-160.117 1865.27M-210.946 1913.21L-220.098 1891.43L-201.358 1883.56L-209.233 1864.82L-191 1857.16L-199.3 1837.4L-179.041 1828.89M-27.7244 1937.26L-43.3458 1919.54L-28.0973 1906.1L-41.5389 1890.85L-26.7025 1877.77L-40.8707 1861.7L-24.3858 1847.16M111.565 1860.44L103.856 1882.77L84.6413 1876.14L78.0079 1895.35L59.3128 1888.9L52.3208 1909.15L31.5484 1901.98M78.1124 1945.07L62.8843 1927.01L47.344 1940.11L34.2408 1924.57L19.1204 1937.32L5.30894 1920.94L-11.4915 1935.11M183.395 1937.36L165.802 1953.13L152.236 1937.99L137.098 1951.55L123.899 1936.82L107.942 1951.12L93.2766 1934.76M117.386 1844.34L94.3092 1849.4L89.962 1829.54L70.105 1833.89L65.8753 1814.57L44.945 1819.15L40.2452 1797.68M36.9596 1831.75L48.145 1852.56L30.2407 1862.18L39.8653 1880.09L22.4449 1889.45M150.916 1812.02L131.388 1825.32L119.949 1808.51L103.146 1819.95L92.0167 1803.6M141.008 1903.2L124.763 1920.35L110.005 1906.38L96.0268 1921.13L81.6676 1907.53M187.606 1820.7L164.123 1823.28L166.341 1843.48L146.135 1845.7L148.293 1865.36L126.995 1867.7L129.393 1889.54M180.222 1841.6L189.374 1863.38L170.634 1871.25L178.509 1889.99L160.276 1897.66L168.576 1917.41L148.317 1925.92M-2.99946 1817.55L12.6219 1835.27L-2.62664 1848.72L10.815 1863.96L-4.02143 1877.04L10.1468 1893.12L-6.33814 1907.65M25.6161 1794.03L6.49268 1780.16L-5.44162 1796.61L-21.8967 1784.68L-33.5084 1800.69L-50.853 1788.11L-63.7549 1805.9M-40.2738 1640.13L-24.3281 1622.7L-9.3301 1636.42L4.39059 1621.42L18.9832 1634.77" stroke="#1D1E1D" stroke-width="5.49385"/>
<path d="M272.677 1725.19L280.386 1702.86L299.6 1709.5L306.234 1690.28L324.929 1696.74L331.921 1676.48L352.693 1683.66M306.129 1640.56L321.357 1658.62L336.898 1645.52L350.001 1661.06L365.121 1648.31L378.933 1664.69L395.733 1650.53M200.847 1648.28L218.44 1632.51L232.005 1647.65L247.144 1634.08L260.343 1648.81L276.3 1634.51L290.965 1650.88M266.855 1741.29L289.932 1736.24L294.28 1756.1L314.137 1751.75L318.366 1771.07L339.297 1766.49L343.996 1787.95M347.282 1753.88L336.097 1733.08L354.001 1723.45L344.376 1705.55L361.797 1696.18M233.325 1773.61L252.854 1760.32L264.292 1777.12L281.096 1765.68L292.225 1782.03M243.233 1682.43L259.478 1665.28L274.236 1679.26L288.215 1664.5L302.574 1678.1M196.636 1764.93L220.119 1762.36L217.901 1742.15L238.106 1739.93L235.949 1720.27L257.247 1717.94L254.849 1696.09M204.02 1744.03L194.868 1722.26L213.608 1714.38L205.733 1695.64L223.966 1687.98L215.665 1668.23L235.925 1659.71M371.62 1750.36L386.868 1736.92L373.427 1721.67L388.263 1708.59L374.095 1692.52L390.58 1677.99M526.53 1691.26L518.821 1713.59L499.607 1706.96L492.973 1726.18L474.278 1719.72L467.286 1739.97L446.514 1732.8M493.078 1775.9L477.85 1757.83L462.309 1770.94L449.206 1755.4L434.086 1768.15L420.274 1751.77L403.474 1765.93M598.361 1768.18L580.767 1783.95L567.202 1768.81L552.063 1782.38L538.864 1767.65L522.908 1781.95L508.242 1765.58M532.352 1675.17L509.275 1680.22L504.927 1660.36L485.07 1664.71L480.841 1645.39L459.91 1649.97L455.211 1628.51M451.925 1662.58L463.11 1683.38L445.206 1693.01L454.831 1710.91L437.41 1720.28M565.882 1642.85L546.353 1656.14L534.915 1639.34L518.111 1650.78L506.982 1634.43M555.974 1734.03L539.729 1751.18L524.971 1737.2L510.992 1751.96L496.633 1738.36M602.571 1651.52L579.089 1654.1L581.306 1674.31L561.101 1676.53L563.259 1696.19L541.96 1698.52L544.358 1720.37M595.187 1672.42L604.339 1694.2L585.6 1702.08L593.474 1720.82L575.241 1728.48L583.542 1748.23L563.282 1756.75M411.966 1648.38L427.587 1666.1L412.339 1679.54L425.78 1694.79L410.944 1707.87L425.112 1723.94L408.627 1738.47M275.63 1894.37L283.339 1872.04L302.553 1878.67L309.187 1859.46L327.882 1865.91L334.874 1845.66L355.646 1852.83M309.082 1809.74L324.31 1827.8L339.851 1814.7L352.954 1830.24L368.074 1817.49L381.886 1833.87L398.686 1819.7M203.8 1817.45L221.393 1801.69L234.958 1816.82L250.097 1803.26L263.296 1817.99L279.253 1803.69L293.918 1820.06M269.808 1910.47L292.885 1905.41L297.233 1925.27L317.09 1920.92L321.319 1940.24L342.25 1935.66L346.949 1957.13M350.235 1923.06L339.05 1902.25L356.954 1892.63L347.329 1874.72L364.75 1865.36M236.278 1942.79L255.807 1929.49L267.245 1946.3L284.049 1934.86L295.178 1951.21M246.186 1851.61L262.431 1834.46L277.189 1848.44L291.168 1833.68L305.527 1847.28M199.589 1934.11L223.071 1931.53L220.854 1911.33L241.059 1909.11L238.902 1889.45L260.2 1887.11L257.802 1865.27M206.973 1913.21L197.821 1891.43L216.561 1883.56L208.686 1864.82L226.919 1857.16L218.618 1837.4L238.878 1828.89M390.194 1937.26L374.573 1919.54L389.821 1906.1L376.38 1890.85L391.216 1877.77L377.048 1861.7L393.533 1847.16M529.483 1860.44L521.774 1882.77L502.56 1876.14L495.926 1895.35L477.231 1888.9L470.239 1909.15L449.467 1901.98M496.031 1945.07L480.803 1927.01L465.262 1940.11L452.159 1924.57L437.039 1937.32L423.227 1920.94L406.427 1935.11M601.314 1937.36L583.72 1953.13L570.155 1937.99L555.016 1951.55L541.817 1936.82L525.861 1951.12L511.195 1934.76M535.305 1844.34L512.228 1849.4L507.88 1829.54L488.023 1833.89L483.794 1814.57L462.863 1819.15L458.164 1797.68M454.878 1831.75L466.063 1852.56L448.159 1862.18L457.784 1880.09L440.363 1889.45M568.835 1812.02L549.306 1825.32L537.868 1808.51L521.064 1819.95L509.935 1803.6M558.927 1903.2L542.682 1920.35L527.924 1906.38L513.945 1921.13L499.586 1907.53M605.524 1820.7L582.042 1823.28L584.259 1843.48L564.054 1845.7L566.211 1865.36L544.913 1867.7L547.311 1889.54M598.14 1841.6L607.292 1863.38L588.553 1871.25L596.427 1889.99L578.194 1897.66L586.495 1917.41L566.235 1925.92M414.919 1817.55L430.54 1835.27L415.292 1848.72L428.733 1863.96L413.897 1877.04L428.065 1893.12L411.58 1907.65M443.535 1794.03L424.411 1780.16L412.477 1796.61L396.022 1784.68L384.41 1800.69L367.065 1788.11L354.164 1805.9M377.645 1640.13L393.59 1622.7L408.588 1636.42L422.309 1621.42L436.902 1634.77" stroke="#1D1E1D" stroke-width="5.49385"/>
</g>
</svg>
