<svg width="385" height="1917" viewBox="0 0 385 1917" fill="none" xmlns="http://www.w3.org/2000/svg">
<mask id="mask0_28_11727" style="mask-type:alpha" maskUnits="userSpaceOnUse" x="0" y="0" width="385" height="1917">
<path d="M385 0L0 1916.81V0H385Z" fill="white"/>
</mask>
<g mask="url(#mask0_28_11727)">
<path d="M-145.242 46.6428L-137.533 24.3126L-118.318 30.946L-111.685 11.7316L-92.9897 18.1857L-85.9977 -2.0673L-65.2253 5.10399M-111.789 -37.9878L-96.5612 -19.9273L-81.0208 -33.0305L-67.9177 -17.4901L-52.7973 -30.2392L-38.9858 -13.8588L-22.1854 -28.0244M-217.072 -30.2763L-199.479 -46.0416L-185.913 -30.9031L-170.775 -44.4687L-157.576 -29.7393L-141.619 -44.0381L-126.953 -27.6722M-151.063 62.739L-127.986 57.6869L-123.639 77.5438L-103.782 73.1966L-99.5521 92.5168L-78.6218 87.9346L-73.9221 109.402M-70.6365 75.3317L-81.8218 54.524L-63.9176 44.8994L-73.5422 26.9951L-56.1218 17.6306M-184.593 95.06L-165.065 81.7669L-153.626 98.5706L-136.823 87.1323L-125.694 103.482M-174.685 3.88045L-158.44 -13.2708L-143.682 0.707719L-129.704 -14.0503L-115.344 -0.449614M-221.282 86.3832L-197.8 83.8056L-200.018 63.5998L-179.812 61.3819L-181.97 41.7221L-160.672 39.3843L-163.07 17.5401M-213.899 65.4835L-223.051 43.7047L-204.311 35.8298L-212.186 17.0899L-193.953 9.42781L-202.253 -10.325L-181.994 -18.8385M-46.2988 71.8092L-31.0502 58.3676L-44.4919 43.119L-29.6554 30.0407L-43.8237 13.9678L-27.3387 -0.563668M108.612 12.7133L100.903 35.0436L81.6884 28.4101L75.0549 47.6246L56.3598 41.1704L49.3678 61.4234L28.5954 54.2521M75.1594 97.3439L59.9314 79.2835L44.391 92.3867L31.2878 76.8463L16.1674 89.5953L2.35595 73.2149L-14.4445 87.3805M180.442 89.6324L162.849 105.398L149.283 90.2593L134.145 103.825L120.946 89.0955L104.989 103.394L90.3236 87.0284M114.433 -3.38292L91.3562 1.66928L87.009 -18.1877L67.152 -13.8404L62.9223 -33.1607L41.992 -28.5785L37.2923 -50.0454M34.0066 -15.9756L45.192 4.8321L27.2877 14.4567L36.9123 32.361L19.4919 41.7255M147.963 -35.7039L128.435 -22.4108L116.996 -39.2144L100.193 -27.7761L89.0637 -44.1256M138.056 55.4757L121.81 72.6269L107.052 58.6484L93.0738 73.4064L78.7146 59.8057M184.653 -27.0271L161.17 -24.4495L163.388 -4.24362L143.182 -2.02573L145.34 17.6341L124.042 19.9718L126.44 41.816M177.269 -6.12734L186.421 15.6514L167.681 23.5263L175.556 42.2662L157.323 49.9283L165.623 69.6811L145.364 78.1946M-5.95244 -30.1744L9.66895 -12.4531L-5.57964 0.988544L7.86204 16.2371L-6.97441 29.3155L7.19381 45.3883L-9.29112 59.9198M-142.289 215.819L-134.58 193.489L-115.365 200.122L-108.732 180.908L-90.0367 187.362L-83.0447 167.109L-62.2723 174.28M-108.836 131.188L-93.6082 149.249L-78.0679 136.146L-64.9647 151.686L-49.8443 138.937L-36.0328 155.317L-19.2324 141.152M-214.119 138.9L-196.526 123.135L-182.96 138.273L-167.822 124.708L-154.623 139.437L-138.666 125.138L-124.001 141.504M-148.11 231.915L-125.033 226.863L-120.686 246.72L-100.829 242.373L-96.5992 261.693L-75.6689 257.111L-70.9691 278.578M-67.6835 244.508L-78.8689 223.7L-60.9646 214.076L-70.5892 196.171L-53.1688 186.807M-181.64 264.236L-162.112 250.943L-150.673 267.747L-133.87 256.308L-122.741 272.658M-171.732 173.057L-155.487 155.905L-140.729 169.884L-126.751 155.126L-112.391 168.727M-218.329 255.559L-194.847 252.982L-197.065 232.776L-176.859 230.558L-179.017 210.898L-157.719 208.56L-160.117 186.716M-210.946 234.66L-220.098 212.881L-201.358 205.006L-209.233 186.266L-191 178.604L-199.3 158.851L-179.041 150.338M-27.7244 258.707L-43.3458 240.985L-28.0973 227.544L-41.5389 212.295L-26.7025 199.217L-40.8707 183.144L-24.3858 168.613M111.565 181.889L103.856 204.22L84.6413 197.586L78.0079 216.801L59.3128 210.347L52.3208 230.6L31.5484 223.428M78.1124 266.52L62.8843 248.46L47.344 261.563L34.2408 246.022L19.1204 258.772L5.30894 242.391L-11.4915 256.557M183.395 258.809L165.802 274.574L152.236 259.435L137.098 273.001L123.899 258.272L107.942 272.57L93.2766 256.205M117.386 165.793L94.3092 170.845L89.962 150.989L70.105 155.336L65.8753 136.015L44.945 140.598L40.2452 119.131M36.9596 153.201L48.145 174.008L30.2407 183.633L39.8653 201.537L22.4449 210.902M150.916 133.472L131.388 146.765L119.949 129.962L103.146 141.4L92.0167 125.051M141.008 224.652L124.763 241.803L110.005 227.825L96.0268 242.583L81.6676 228.982M187.606 142.149L164.123 144.727L166.341 164.933L146.135 167.15L148.293 186.81L126.995 189.148L129.393 210.992M180.222 163.049L189.374 184.828L170.634 192.703L178.509 211.442L160.276 219.105L168.576 238.857L148.317 247.371M-2.99946 139.002L12.6219 156.723L-2.62664 170.165L10.815 185.413L-4.02143 198.492L10.1468 214.564L-6.33814 229.096M25.6161 115.477L6.49268 101.607L-5.44162 118.062L-21.8967 106.128L-33.5084 122.138L-50.853 109.559L-63.7549 127.348M-40.2738 -38.4254L-24.3281 -55.8555L-9.3301 -42.1348L4.39059 -57.1328L18.9832 -43.783" stroke="#1D1E1D" stroke-width="5.49385"/>
<path d="M272.676 46.6428L280.385 24.3126L299.6 30.946L306.233 11.7316L324.928 18.1857L331.92 -2.0673L352.693 5.10399M306.129 -37.9878L321.357 -19.9273L336.897 -33.0305L350 -17.4901L365.121 -30.2392L378.932 -13.8588L395.733 -28.0244M200.846 -30.2763L218.439 -46.0416L232.005 -30.9031L247.143 -44.4687L260.342 -29.7393L276.299 -44.0381L290.964 -27.6722M266.855 62.739L289.932 57.6869L294.279 77.5438L314.136 73.1966L318.366 92.5168L339.296 87.9346L343.996 109.402M347.282 75.3317L336.096 54.524L354 44.8994L344.376 26.9951L361.796 17.6306M233.325 95.06L252.853 81.7669L264.292 98.5706L281.095 87.1323L292.224 103.482M243.233 3.88045L259.478 -13.2708L274.236 0.707719L288.214 -14.0503L302.573 -0.449614M196.636 86.3832L220.118 83.8056L217.9 63.5998L238.106 61.3819L235.948 41.7221L257.246 39.3843L254.848 17.5401M204.019 65.4835L194.867 43.7047L213.607 35.8298L205.732 17.0899L223.965 9.42781L215.665 -10.325L235.924 -18.8385M371.619 71.8092L386.868 58.3676L373.426 43.119L388.263 30.0407L374.094 13.9678L390.579 -0.563668M526.53 12.7133L518.821 35.0436L499.606 28.4101L492.973 47.6246L474.278 41.1704L467.286 61.4234L446.513 54.2521M493.077 97.3439L477.849 79.2835L462.309 92.3867L449.206 76.8463L434.085 89.5953L420.274 73.2149L403.474 87.3805M598.36 89.6324L580.767 105.398L567.201 90.2593L552.063 103.825L538.864 89.0955L522.907 103.394L508.242 87.0284M532.351 -3.38292L509.274 1.66928L504.927 -18.1877L485.07 -13.8404L480.84 -33.1607L459.91 -28.5785L455.21 -50.0454M451.925 -15.9756L463.11 4.8321L445.206 14.4567L454.83 32.361L437.41 41.7255M565.881 -35.7039L546.353 -22.4108L534.914 -39.2144L518.111 -27.7761L506.982 -44.1256M555.973 55.4757L539.728 72.6269L524.97 58.6484L510.992 73.4064L496.633 59.8057M602.571 -27.0271L579.088 -24.4495L581.306 -4.24362L561.1 -2.02573L563.258 17.6341L541.96 19.9718L544.358 41.816M595.187 -6.12734L604.339 15.6514L585.599 23.5263L593.474 42.2662L575.241 49.9283L583.541 69.6811L563.282 78.1946M411.966 -30.1744L427.587 -12.4531L412.338 0.988544L425.78 16.2371L410.944 29.3155L425.112 45.3883L408.627 59.9198M275.629 215.819L283.338 193.489L302.553 200.122L309.186 180.908L327.881 187.362L334.873 167.109L355.646 174.28M309.082 131.188L324.31 149.249L339.85 136.146L352.953 151.686L368.074 138.937L381.885 155.317L398.686 141.152M203.799 138.9L221.392 123.135L234.958 138.273L250.096 124.708L263.295 139.437L279.252 125.138L293.917 141.504M269.808 231.915L292.885 226.863L297.232 246.72L317.089 242.373L321.319 261.693L342.249 257.111L346.949 278.578M350.234 244.508L339.049 223.7L356.953 214.076L347.329 196.171L364.749 186.807M236.278 264.236L255.806 250.943L267.245 267.747L284.048 256.308L295.177 272.658M246.186 173.057L262.431 155.905L277.189 169.884L291.167 155.126L305.526 168.727M199.588 255.559L223.071 252.982L220.853 232.776L241.059 230.558L238.901 210.898L260.199 208.56L257.801 186.716M206.972 234.66L197.82 212.881L216.56 205.006L208.685 186.266L226.918 178.604L218.618 158.851L238.877 150.338M390.194 258.707L374.572 240.985L389.821 227.544L376.379 212.295L391.216 199.217L377.047 183.144L393.532 168.613M529.483 181.889L521.774 204.22L502.559 197.586L495.926 216.801L477.231 210.347L470.239 230.6L449.466 223.428M496.03 266.52L480.802 248.46L465.262 261.563L452.159 246.022L437.038 258.772L423.227 242.391L406.427 256.557M601.313 258.809L583.72 274.574L570.154 259.435L555.016 273.001L541.817 258.272L525.86 272.57L511.195 256.205M535.304 165.793L512.227 170.845L507.88 150.989L488.023 155.336L483.793 136.015L462.863 140.598L458.163 119.131M454.878 153.201L466.063 174.008L448.159 183.633L457.783 201.537L440.363 210.902M568.834 133.472L549.306 146.765L537.867 129.962L521.064 141.4L509.935 125.051M558.926 224.652L542.681 241.803L527.923 227.825L513.945 242.583L499.586 228.982M605.524 142.149L582.041 144.727L584.259 164.933L564.053 167.15L566.211 186.81L544.913 189.148L547.311 210.992M598.14 163.049L607.292 184.828L588.552 192.703L596.427 211.442L578.194 219.105L586.494 238.857L566.235 247.371M414.919 139.002L430.54 156.723L415.291 170.165L428.733 185.413L413.897 198.492L428.065 214.564L411.58 229.096M443.534 115.477L424.411 101.607L412.476 118.062L396.021 106.128L384.41 122.138L367.065 109.559L354.163 127.348M377.644 -38.4254L393.59 -55.8555L408.588 -42.1348L422.309 -57.1328L436.901 -43.783" stroke="#1D1E1D" stroke-width="5.49385"/>
<path d="M-145.242 382.354L-137.533 360.023L-118.318 366.657L-111.685 347.443L-92.9897 353.897L-85.9977 333.644L-65.2253 340.815M-111.789 297.723L-96.5612 315.784L-81.0208 302.68L-67.9177 318.221L-52.7973 305.472L-38.9858 321.852L-22.1854 307.687M-217.072 305.435L-199.479 289.669L-185.913 304.808L-170.775 291.242L-157.576 305.972L-141.619 291.673L-126.953 308.039M-151.063 398.45L-127.986 393.398L-123.639 413.255L-103.782 408.908L-99.5521 428.228L-78.6218 423.646L-73.9221 445.112M-70.6365 411.043L-81.8218 390.235L-63.9176 380.61L-73.5422 362.706L-56.1218 353.342M-184.593 430.771L-165.065 417.478L-153.626 434.281L-136.823 422.843L-125.694 439.193M-174.685 339.591L-158.44 322.44L-143.682 336.419L-129.704 321.661L-115.344 335.261M-221.282 422.094L-197.8 419.517L-200.018 399.311L-179.812 397.093L-181.97 377.433L-160.672 375.095L-163.07 353.251M-213.899 401.194L-223.051 379.416L-204.311 371.541L-212.186 352.801L-193.953 345.139L-202.253 325.386L-181.994 316.872M-46.2988 407.52L-31.0502 394.079L-44.4919 378.83L-29.6554 365.752L-43.8237 349.679L-27.3387 335.147M108.612 348.424L100.903 370.755L81.6884 364.121L75.0549 383.335L56.3598 376.881L49.3678 397.134L28.5954 389.963M75.1594 433.055L59.9314 414.994L44.391 428.098L31.2878 412.557L16.1674 425.306L2.35595 408.926L-14.4445 423.091M180.442 425.343L162.849 441.109L149.283 425.97L134.145 439.536L120.946 424.806L104.989 439.105L90.3236 422.739M114.433 332.328L91.3562 337.38L87.009 317.523L67.152 321.871L62.9223 302.55L41.992 307.132L37.2923 285.665M34.0066 319.735L45.192 340.543L27.2877 350.168L36.9123 368.072L19.4919 377.436M147.963 300.007L128.435 313.3L116.996 296.497L100.193 307.935L89.0637 291.585M138.056 391.187L121.81 408.338L107.052 394.359L93.0738 409.117L78.7146 395.517M184.653 308.684L161.17 311.261L163.388 331.467L143.182 333.685L145.34 353.345L124.042 355.683L126.44 377.527M177.269 329.584L186.421 351.362L167.681 359.237L175.556 377.977L157.323 385.639L165.623 405.392L145.364 413.906M-5.95244 305.537L9.66895 323.258L-5.57964 336.699L7.86204 351.948L-6.97441 365.026L7.19381 381.099L-9.29112 395.631M-142.289 551.53L-134.58 529.2L-115.365 535.833L-108.732 516.619L-90.0367 523.073L-83.0447 502.82L-62.2723 509.991M-108.836 466.899L-93.6082 484.96L-78.0679 471.857L-64.9647 487.397L-49.8443 474.648L-36.0328 491.028L-19.2324 476.863M-214.119 474.611L-196.526 458.846L-182.96 473.984L-167.822 460.418L-154.623 475.148L-138.666 460.849L-124.001 477.215M-148.11 567.626L-125.033 562.574L-120.686 582.431L-100.829 578.084L-96.5992 597.404L-75.6689 592.822L-70.9691 614.289M-67.6835 580.219L-78.8689 559.411L-60.9646 549.787L-70.5892 531.882L-53.1688 522.518M-181.64 599.947L-162.112 586.654L-150.673 603.458L-133.87 592.019L-122.741 608.369M-171.732 508.768L-155.487 491.616L-140.729 505.595L-126.751 490.837L-112.391 504.438M-218.329 591.27L-194.847 588.693L-197.065 568.487L-176.859 566.269L-179.017 546.609L-157.719 544.271L-160.117 522.427M-210.946 570.371L-220.098 548.592L-201.358 540.717L-209.233 521.977L-191 514.315L-199.3 494.562L-179.041 486.049M-27.7244 594.418L-43.3458 576.696L-28.0973 563.255L-41.5389 548.006L-26.7025 534.928L-40.8707 518.855L-24.3858 504.323M111.565 517.6L103.856 539.931L84.6413 533.297L78.0079 552.512L59.3128 546.058L52.3208 566.311L31.5484 559.139M78.1124 602.231L62.8843 584.171L47.344 597.274L34.2408 581.733L19.1204 594.482L5.30894 578.102L-11.4915 592.268M183.395 594.52L165.802 610.285L152.236 595.146L137.098 608.712L123.899 593.983L107.942 608.281L93.2766 591.915M117.386 501.504L94.3092 506.556L89.962 486.699L70.105 491.047L65.8753 471.726L44.945 476.309L40.2452 454.842M36.9596 488.912L48.145 509.719L30.2407 519.344L39.8653 537.248L22.4449 546.613M150.916 469.183L131.388 482.476L119.949 465.673L103.146 477.111L92.0167 460.762M141.008 560.363L124.763 577.514L110.005 563.536L96.0268 578.294L81.6676 564.693M187.606 477.86L164.123 480.438L166.341 500.644L146.135 502.861L148.293 522.521L126.995 524.859L129.393 546.703M180.222 498.76L189.374 520.539L170.634 528.413L178.509 547.153L160.276 554.815L168.576 574.568L148.317 583.082M-2.99946 474.713L12.6219 492.434L-2.62664 505.876L10.815 521.124L-4.02143 534.203L10.1468 550.275L-6.33814 564.807M25.6161 451.188L6.49268 437.318L-5.44162 453.773L-21.8967 441.839L-33.5084 457.849L-50.853 445.27L-63.7549 463.059M-40.2738 297.286L-24.3281 279.855L-9.3301 293.576L4.39059 278.578L18.9832 291.928" stroke="#1D1E1D" stroke-width="5.49385"/>
<path d="M272.676 382.354L280.385 360.023L299.6 366.657L306.233 347.443L324.928 353.897L331.92 333.644L352.693 340.815M306.129 297.723L321.357 315.784L336.897 302.68L350 318.221L365.121 305.472L378.932 321.852L395.733 307.687M200.846 305.435L218.439 289.669L232.005 304.808L247.143 291.242L260.342 305.972L276.299 291.673L290.964 308.039M266.855 398.45L289.932 393.398L294.279 413.255L314.136 408.908L318.366 428.228L339.296 423.646L343.996 445.112M347.282 411.043L336.096 390.235L354 380.61L344.376 362.706L361.796 353.342M233.325 430.771L252.853 417.478L264.292 434.281L281.095 422.843L292.224 439.193M243.233 339.591L259.478 322.44L274.236 336.419L288.214 321.661L302.573 335.261M196.636 422.094L220.118 419.517L217.9 399.311L238.106 397.093L235.948 377.433L257.246 375.095L254.848 353.251M204.019 401.194L194.867 379.416L213.607 371.541L205.732 352.801L223.965 345.139L215.665 325.386L235.924 316.872M371.619 407.52L386.868 394.079L373.426 378.83L388.263 365.752L374.094 349.679L390.579 335.147M526.53 348.424L518.821 370.755L499.606 364.121L492.973 383.335L474.278 376.881L467.286 397.134L446.513 389.963M493.077 433.055L477.849 414.994L462.309 428.098L449.206 412.557L434.085 425.306L420.274 408.926L403.474 423.091M598.36 425.343L580.767 441.109L567.201 425.97L552.063 439.536L538.864 424.806L522.907 439.105L508.242 422.739M532.351 332.328L509.274 337.38L504.927 317.523L485.07 321.871L480.84 302.55L459.91 307.132L455.21 285.665M451.925 319.735L463.11 340.543L445.206 350.168L454.83 368.072L437.41 377.436M565.881 300.007L546.353 313.3L534.914 296.497L518.111 307.935L506.982 291.585M555.973 391.187L539.728 408.338L524.97 394.359L510.992 409.117L496.633 395.517M602.571 308.684L579.088 311.261L581.306 331.467L561.1 333.685L563.258 353.345L541.96 355.683L544.358 377.527M595.187 329.584L604.339 351.362L585.599 359.237L593.474 377.977L575.241 385.639L583.541 405.392L563.282 413.906M411.966 305.537L427.587 323.258L412.338 336.699L425.78 351.948L410.944 365.026L425.112 381.099L408.627 395.631M275.629 551.53L283.338 529.2L302.553 535.833L309.186 516.619L327.881 523.073L334.873 502.82L355.646 509.991M309.082 466.899L324.31 484.96L339.85 471.857L352.953 487.397L368.074 474.648L381.885 491.028L398.686 476.863M203.799 474.611L221.392 458.846L234.958 473.984L250.096 460.418L263.295 475.148L279.252 460.849L293.917 477.215M269.808 567.626L292.885 562.574L297.232 582.431L317.089 578.084L321.319 597.404L342.249 592.822L346.949 614.289M350.234 580.219L339.049 559.411L356.953 549.787L347.329 531.882L364.749 522.518M236.278 599.947L255.806 586.654L267.245 603.458L284.048 592.019L295.177 608.369M246.186 508.768L262.431 491.616L277.189 505.595L291.167 490.837L305.526 504.438M199.588 591.27L223.071 588.693L220.853 568.487L241.059 566.269L238.901 546.609L260.199 544.271L257.801 522.427M206.972 570.371L197.82 548.592L216.56 540.717L208.685 521.977L226.918 514.315L218.618 494.562L238.877 486.049M390.194 594.418L374.572 576.696L389.821 563.255L376.379 548.006L391.216 534.928L377.047 518.855L393.532 504.323M529.483 517.6L521.774 539.931L502.559 533.297L495.926 552.512L477.231 546.058L470.239 566.311L449.466 559.139M496.03 602.231L480.802 584.171L465.262 597.274L452.159 581.733L437.038 594.482L423.227 578.102L406.427 592.268M601.313 594.52L583.72 610.285L570.154 595.146L555.016 608.712L541.817 593.983L525.86 608.281L511.195 591.915M535.304 501.504L512.227 506.556L507.88 486.699L488.023 491.047L483.793 471.726L462.863 476.309L458.163 454.842M454.878 488.912L466.063 509.719L448.159 519.344L457.783 537.248L440.363 546.613M568.834 469.183L549.306 482.476L537.867 465.673L521.064 477.111L509.935 460.762M558.926 560.363L542.681 577.514L527.923 563.536L513.945 578.294L499.586 564.693M605.524 477.86L582.041 480.438L584.259 500.644L564.053 502.861L566.211 522.521L544.913 524.859L547.311 546.703M598.14 498.76L607.292 520.539L588.552 528.413L596.427 547.153L578.194 554.815L586.494 574.568L566.235 583.082M414.919 474.713L430.54 492.434L415.291 505.876L428.733 521.124L413.897 534.203L428.065 550.275L411.58 564.807M443.534 451.188L424.411 437.318L412.476 453.773L396.021 441.839L384.41 457.849L367.065 445.27L354.163 463.059M377.644 297.286L393.59 279.855L408.588 293.576L422.309 278.578L436.901 291.928" stroke="#1D1E1D" stroke-width="5.49385"/>
<path d="M-145.242 718.065L-137.533 695.734L-118.318 702.368L-111.685 683.153L-92.9897 689.608L-85.9977 669.355L-65.2253 676.526M-111.789 633.434L-96.5612 651.495L-81.0208 638.391L-67.9177 653.932L-52.7973 641.183L-38.9858 657.563L-22.1854 643.397M-217.072 641.146L-199.479 625.38L-185.913 640.519L-170.775 626.953L-157.576 641.683L-141.619 627.384L-126.953 643.75M-151.063 734.161L-127.986 729.109L-123.639 748.966L-103.782 744.618L-99.5521 763.939L-78.6218 759.356L-73.9221 780.823M-70.6365 746.754L-81.8218 725.946L-63.9176 716.321L-73.5422 698.417L-56.1218 689.053M-184.593 766.482L-165.065 753.189L-153.626 769.992L-136.823 758.554L-125.694 774.904M-174.685 675.302L-158.44 658.151L-143.682 672.13L-129.704 657.372L-115.344 670.972M-221.282 757.805L-197.8 755.228L-200.018 735.022L-179.812 732.804L-181.97 713.144L-160.672 710.806L-163.07 688.962M-213.899 736.905L-223.051 715.127L-204.311 707.252L-212.186 688.512L-193.953 680.85L-202.253 661.097L-181.994 652.583M-46.2988 743.231L-31.0502 729.789L-44.4919 714.541L-29.6554 701.463L-43.8237 685.39L-27.3387 670.858M108.612 684.135L100.903 706.465L81.6884 699.832L75.0549 719.046L56.3598 712.592L49.3678 732.845L28.5954 725.674M75.1594 768.766L59.9314 750.705L44.391 763.809L31.2878 748.268L16.1674 761.017L2.35595 744.637L-14.4445 758.802M180.442 761.054L162.849 776.82L149.283 761.681L134.145 775.247L120.946 760.517L104.989 774.816L90.3236 758.45M114.433 668.039L91.3562 673.091L87.009 653.234L67.152 657.581L62.9223 638.261L41.992 642.843L37.2923 621.376M34.0066 655.446L45.192 676.254L27.2877 685.879L36.9123 703.783L19.4919 713.147M147.963 635.718L128.435 649.011L116.996 632.207L100.193 643.646L89.0637 627.296M138.056 726.898L121.81 744.049L107.052 730.07L93.0738 744.828L78.7146 731.228M184.653 644.395L161.17 646.972L163.388 667.178L143.182 669.396L145.34 689.056L124.042 691.394L126.44 713.238M177.269 665.295L186.421 687.073L167.681 694.948L175.556 713.688L157.323 721.35L165.623 741.103L145.364 749.616M-5.95244 641.247L9.66895 658.969L-5.57964 672.41L7.86204 687.659L-6.97441 700.737L7.19381 716.81L-9.29112 731.342M-142.289 887.241L-134.58 864.911L-115.365 871.544L-108.732 852.33L-90.0367 858.784L-83.0447 838.531L-62.2723 845.702M-108.836 802.61L-93.6082 820.671L-78.0679 807.568L-64.9647 823.108L-49.8443 810.359L-36.0328 826.739L-19.2324 812.574M-214.119 810.322L-196.526 794.556L-182.96 809.695L-167.822 796.129L-154.623 810.859L-138.666 796.56L-124.001 812.926M-148.11 903.337L-125.033 898.285L-120.686 918.142L-100.829 913.795L-96.5992 933.115L-75.6689 928.533L-70.9691 950M-67.6835 915.93L-78.8689 895.122L-60.9646 885.497L-70.5892 867.593L-53.1688 858.229M-181.64 935.658L-162.112 922.365L-150.673 939.169L-133.87 927.73L-122.741 944.08M-171.732 844.479L-155.487 827.327L-140.729 841.306L-126.751 826.548L-112.391 840.148M-218.329 926.981L-194.847 924.404L-197.065 904.198L-176.859 901.98L-179.017 882.32L-157.719 879.982L-160.117 858.138M-210.946 906.082L-220.098 884.303L-201.358 876.428L-209.233 857.688L-191 850.026L-199.3 830.273L-179.041 821.76M-27.7244 930.129L-43.3458 912.407L-28.0973 898.966L-41.5389 883.717L-26.7025 870.639L-40.8707 854.566L-24.3858 840.034M111.565 853.311L103.856 875.642L84.6413 869.008L78.0079 888.223L59.3128 881.768L52.3208 902.022L31.5484 894.85M78.1124 937.942L62.8843 919.882L47.344 932.985L34.2408 917.444L19.1204 930.193L5.30894 913.813L-11.4915 927.979M183.395 930.23L165.802 945.996L152.236 930.857L137.098 944.423L123.899 929.694L107.942 943.992L93.2766 927.626M117.386 837.215L94.3092 842.267L89.962 822.41L70.105 826.758L65.8753 807.437L44.945 812.02L40.2452 790.553M36.9596 824.622L48.145 845.43L30.2407 855.055L39.8653 872.959L22.4449 882.324M150.916 804.894L131.388 818.187L119.949 801.384L103.146 812.822L92.0167 796.472M141.008 896.074L124.763 913.225L110.005 899.246L96.0268 914.004L81.6676 900.404M187.606 813.571L164.123 816.149L166.341 836.354L146.135 838.572L148.293 858.232L126.995 860.57L129.393 882.414M180.222 834.471L189.374 856.249L170.634 864.124L178.509 882.864L160.276 890.526L168.576 910.279L148.317 918.793M-2.99946 810.424L12.6219 828.145L-2.62664 841.587L10.815 856.835L-4.02143 869.914L10.1468 885.986L-6.33814 900.518M25.6161 786.899L6.49268 773.029L-5.44162 789.484L-21.8967 777.55L-33.5084 793.56L-50.853 780.981L-63.7549 798.77M-40.2738 632.996L-24.3281 615.566L-9.3301 629.287L4.39059 614.289L18.9832 627.639" stroke="#1D1E1D" stroke-width="5.49385"/>
<path d="M272.676 718.065L280.385 695.734L299.6 702.368L306.233 683.153L324.928 689.608L331.92 669.355L352.693 676.526M306.129 633.434L321.357 651.495L336.897 638.391L350 653.932L365.121 641.183L378.932 657.563L395.733 643.397M200.846 641.146L218.439 625.38L232.005 640.519L247.143 626.953L260.342 641.683L276.299 627.384L290.964 643.75M266.855 734.161L289.932 729.109L294.279 748.966L314.136 744.618L318.366 763.939L339.296 759.356L343.996 780.823M347.282 746.754L336.096 725.946L354 716.321L344.376 698.417L361.796 689.053M233.325 766.482L252.853 753.189L264.292 769.992L281.095 758.554L292.224 774.904M243.233 675.302L259.478 658.151L274.236 672.13L288.214 657.372L302.573 670.972M196.636 757.805L220.118 755.228L217.9 735.022L238.106 732.804L235.948 713.144L257.246 710.806L254.848 688.962M204.019 736.905L194.867 715.127L213.607 707.252L205.732 688.512L223.965 680.85L215.665 661.097L235.924 652.583M371.619 743.231L386.868 729.789L373.426 714.541L388.263 701.463L374.094 685.39L390.579 670.858M526.53 684.135L518.821 706.465L499.606 699.832L492.973 719.046L474.278 712.592L467.286 732.845L446.513 725.674M493.077 768.766L477.849 750.705L462.309 763.809L449.206 748.268L434.085 761.017L420.274 744.637L403.474 758.802M598.36 761.054L580.767 776.82L567.201 761.681L552.063 775.247L538.864 760.517L522.907 774.816L508.242 758.45M532.351 668.039L509.274 673.091L504.927 653.234L485.07 657.581L480.84 638.261L459.91 642.843L455.21 621.376M451.925 655.446L463.11 676.254L445.206 685.879L454.83 703.783L437.41 713.147M565.881 635.718L546.353 649.011L534.914 632.207L518.111 643.646L506.982 627.296M555.973 726.898L539.728 744.049L524.97 730.07L510.992 744.828L496.633 731.228M602.571 644.395L579.088 646.972L581.306 667.178L561.1 669.396L563.258 689.056L541.96 691.394L544.358 713.238M595.187 665.295L604.339 687.073L585.599 694.948L593.474 713.688L575.241 721.35L583.541 741.103L563.282 749.616M411.966 641.247L427.587 658.969L412.338 672.41L425.78 687.659L410.944 700.737L425.112 716.81L408.627 731.342M275.629 887.241L283.338 864.911L302.553 871.544L309.186 852.33L327.881 858.784L334.873 838.531L355.646 845.702M309.082 802.61L324.31 820.671L339.85 807.568L352.953 823.108L368.074 810.359L381.885 826.739L398.686 812.574M203.799 810.322L221.392 794.556L234.958 809.695L250.096 796.129L263.295 810.859L279.252 796.56L293.917 812.926M269.808 903.337L292.885 898.285L297.232 918.142L317.089 913.795L321.319 933.115L342.249 928.533L346.949 950M350.234 915.93L339.049 895.122L356.953 885.497L347.329 867.593L364.749 858.229M236.278 935.658L255.806 922.365L267.245 939.169L284.048 927.73L295.177 944.08M246.186 844.479L262.431 827.327L277.189 841.306L291.167 826.548L305.526 840.148M199.588 926.981L223.071 924.404L220.853 904.198L241.059 901.98L238.901 882.32L260.199 879.982L257.801 858.138M206.972 906.082L197.82 884.303L216.56 876.428L208.685 857.688L226.918 850.026L218.618 830.273L238.877 821.76M390.194 930.129L374.572 912.407L389.821 898.966L376.379 883.717L391.216 870.639L377.047 854.566L393.532 840.034M529.483 853.311L521.774 875.642L502.559 869.008L495.926 888.223L477.231 881.768L470.239 902.022L449.466 894.85M496.03 937.942L480.802 919.882L465.262 932.985L452.159 917.444L437.038 930.193L423.227 913.813L406.427 927.979M601.313 930.23L583.72 945.996L570.154 930.857L555.016 944.423L541.817 929.694L525.86 943.992L511.195 927.626M535.304 837.215L512.227 842.267L507.88 822.41L488.023 826.758L483.793 807.437L462.863 812.02L458.163 790.553M454.878 824.622L466.063 845.43L448.159 855.055L457.783 872.959L440.363 882.324M568.834 804.894L549.306 818.187L537.867 801.384L521.064 812.822L509.935 796.472M558.926 896.074L542.681 913.225L527.923 899.246L513.945 914.004L499.586 900.404M605.524 813.571L582.041 816.149L584.259 836.354L564.053 838.572L566.211 858.232L544.913 860.57L547.311 882.414M598.14 834.471L607.292 856.249L588.552 864.124L596.427 882.864L578.194 890.526L586.494 910.279L566.235 918.793M414.919 810.424L430.54 828.145L415.291 841.587L428.733 856.835L413.897 869.914L428.065 885.986L411.58 900.518M443.534 786.899L424.411 773.029L412.476 789.484L396.021 777.55L384.41 793.56L367.065 780.981L354.163 798.77M377.644 632.996L393.59 615.566L408.588 629.287L422.309 614.289L436.901 627.639" stroke="#1D1E1D" stroke-width="5.49385"/>
<path d="M-145.242 1053.78L-137.533 1031.45L-118.318 1038.08L-111.685 1018.86L-92.9897 1025.32L-85.9977 1005.07L-65.2253 1012.24M-111.789 969.145L-96.5612 987.205L-81.0208 974.102L-67.9177 989.643L-52.7973 976.894L-38.9858 993.274L-22.1854 979.108M-217.072 976.857L-199.479 961.091L-185.913 976.23L-170.775 962.664L-157.576 977.393L-141.619 963.095L-126.953 979.461M-151.063 1069.87L-127.986 1064.82L-123.639 1084.68L-103.782 1080.33L-99.5521 1099.65L-78.6218 1095.07L-73.9221 1116.53M-70.6365 1082.46L-81.8218 1061.66L-63.9176 1052.03L-73.5422 1034.13L-56.1218 1024.76M-184.593 1102.19L-165.065 1088.9L-153.626 1105.7L-136.823 1094.27L-125.694 1110.61M-174.685 1011.01L-158.44 993.862L-143.682 1007.84L-129.704 993.083L-115.344 1006.68M-221.282 1093.52L-197.8 1090.94L-200.018 1070.73L-179.812 1068.51L-181.97 1048.85L-160.672 1046.52L-163.07 1024.67M-213.899 1072.62L-223.051 1050.84L-204.311 1042.96L-212.186 1024.22L-193.953 1016.56L-202.253 996.808L-181.994 988.294M-46.2988 1078.94L-31.0502 1065.5L-44.4919 1050.25L-29.6554 1037.17L-43.8237 1021.1L-27.3387 1006.57M108.612 1019.85L100.903 1042.18L81.6884 1035.54L75.0549 1054.76L56.3598 1048.3L49.3678 1068.56L28.5954 1061.38M75.1594 1104.48L59.9314 1086.42L44.391 1099.52L31.2878 1083.98L16.1674 1096.73L2.35595 1080.35L-14.4445 1094.51M180.442 1096.77L162.849 1112.53L149.283 1097.39L134.145 1110.96L120.946 1096.23L104.989 1110.53L90.3236 1094.16M114.433 1003.75L91.3562 1008.8L87.009 988.945L67.152 993.292L62.9223 973.972L41.992 978.554L37.2923 957.087M34.0066 991.157L45.192 1011.96L27.2877 1021.59L36.9123 1039.49L19.4919 1048.86M147.963 971.429L128.435 984.722L116.996 967.918L100.193 979.357L89.0637 963.007M138.056 1062.61L121.81 1079.76L107.052 1065.78L93.0738 1080.54L78.7146 1066.94M184.653 980.106L161.17 982.683L163.388 1002.89L143.182 1005.11L145.34 1024.77L124.042 1027.1L126.44 1048.95M177.269 1001.01L186.421 1022.78L167.681 1030.66L175.556 1049.4L157.323 1057.06L165.623 1076.81L145.364 1085.33M-5.95244 976.958L9.66895 994.68L-5.57964 1008.12L7.86204 1023.37L-6.97441 1036.45L7.19381 1052.52L-9.29112 1067.05M-142.289 1222.95L-134.58 1200.62L-115.365 1207.26L-108.732 1188.04L-90.0367 1194.49L-83.0447 1174.24L-62.2723 1181.41M-108.836 1138.32L-93.6082 1156.38L-78.0679 1143.28L-64.9647 1158.82L-49.8443 1146.07L-36.0328 1162.45L-19.2324 1148.28M-214.119 1146.03L-196.526 1130.27L-182.96 1145.41L-167.822 1131.84L-154.623 1146.57L-138.666 1132.27L-124.001 1148.64M-148.11 1239.05L-125.033 1234L-120.686 1253.85L-100.829 1249.51L-96.5992 1268.83L-75.6689 1264.24L-70.9691 1285.71M-67.6835 1251.64L-78.8689 1230.83L-60.9646 1221.21L-70.5892 1203.3L-53.1688 1193.94M-181.64 1271.37L-162.112 1258.08L-150.673 1274.88L-133.87 1263.44L-122.741 1279.79M-171.732 1180.19L-155.487 1163.04L-140.729 1177.02L-126.751 1162.26L-112.391 1175.86M-218.329 1262.69L-194.847 1260.11L-197.065 1239.91L-176.859 1237.69L-179.017 1218.03L-157.719 1215.69L-160.117 1193.85M-210.946 1241.79L-220.098 1220.01L-201.358 1212.14L-209.233 1193.4L-191 1185.74L-199.3 1165.98L-179.041 1157.47M-27.7244 1265.84L-43.3458 1248.12L-28.0973 1234.68L-41.5389 1219.43L-26.7025 1206.35L-40.8707 1190.28L-24.3858 1175.75M111.565 1189.02L103.856 1211.35L84.6413 1204.72L78.0079 1223.93L59.3128 1217.48L52.3208 1237.73L31.5484 1230.56M78.1124 1273.65L62.8843 1255.59L47.344 1268.7L34.2408 1253.16L19.1204 1265.9L5.30894 1249.52L-11.4915 1263.69M183.395 1265.94L165.802 1281.71L152.236 1266.57L137.098 1280.13L123.899 1265.4L107.942 1279.7L93.2766 1263.34M117.386 1172.93L94.3092 1177.98L89.962 1158.12L70.105 1162.47L65.8753 1143.15L44.945 1147.73L40.2452 1126.26M36.9596 1160.33L48.145 1181.14L30.2407 1190.77L39.8653 1208.67L22.4449 1218.03M150.916 1140.61L131.388 1153.9L119.949 1137.09L103.146 1148.53L92.0167 1132.18M141.008 1231.78L124.763 1248.94L110.005 1234.96L96.0268 1249.72L81.6676 1236.11M187.606 1149.28L164.123 1151.86L166.341 1172.07L146.135 1174.28L148.293 1193.94L126.995 1196.28L129.393 1218.13M180.222 1170.18L189.374 1191.96L170.634 1199.84L178.509 1218.58L160.276 1226.24L168.576 1245.99L148.317 1254.5M-2.99946 1146.13L12.6219 1163.86L-2.62664 1177.3L10.815 1192.55L-4.02143 1205.62L10.1468 1221.7L-6.33814 1236.23M25.6161 1122.61L6.49268 1108.74L-5.44162 1125.2L-21.8967 1113.26L-33.5084 1129.27L-50.853 1116.69L-63.7549 1134.48M-40.2738 968.707L-24.3281 951.277L-9.3301 964.998L4.39059 950L18.9832 963.35" stroke="#1D1E1D" stroke-width="5.49385"/>
<path d="M272.676 1053.78L280.385 1031.45L299.6 1038.08L306.233 1018.86L324.928 1025.32L331.92 1005.07L352.693 1012.24M306.129 969.145L321.357 987.205L336.897 974.102L350 989.643L365.121 976.894L378.932 993.274L395.733 979.108M200.846 976.857L218.439 961.091L232.005 976.23L247.143 962.664L260.342 977.393L276.299 963.095L290.964 979.461M266.855 1069.87L289.932 1064.82L294.279 1084.68L314.136 1080.33L318.366 1099.65L339.296 1095.07L343.996 1116.53M347.282 1082.46L336.096 1061.66L354 1052.03L344.376 1034.13L361.796 1024.76M233.325 1102.19L252.853 1088.9L264.292 1105.7L281.095 1094.27L292.224 1110.61M243.233 1011.01L259.478 993.862L274.236 1007.84L288.214 993.083L302.573 1006.68M196.636 1093.52L220.118 1090.94L217.9 1070.73L238.106 1068.51L235.948 1048.85L257.246 1046.52L254.848 1024.67M204.019 1072.62L194.867 1050.84L213.607 1042.96L205.732 1024.22L223.965 1016.56L215.665 996.808L235.924 988.294M371.619 1078.94L386.868 1065.5L373.426 1050.25L388.263 1037.17L374.094 1021.1L390.579 1006.57M526.53 1019.85L518.821 1042.18L499.606 1035.54L492.973 1054.76L474.278 1048.3L467.286 1068.56L446.513 1061.38M493.077 1104.48L477.849 1086.42L462.309 1099.52L449.206 1083.98L434.085 1096.73L420.274 1080.35L403.474 1094.51M598.36 1096.77L580.767 1112.53L567.201 1097.39L552.063 1110.96L538.864 1096.23L522.907 1110.53L508.242 1094.16M532.351 1003.75L509.274 1008.8L504.927 988.945L485.07 993.292L480.84 973.972L459.91 978.554L455.21 957.087M451.925 991.157L463.11 1011.96L445.206 1021.59L454.83 1039.49L437.41 1048.86M565.881 971.429L546.353 984.722L534.914 967.918L518.111 979.357L506.982 963.007M555.973 1062.61L539.728 1079.76L524.97 1065.78L510.992 1080.54L496.633 1066.94M602.571 980.106L579.088 982.683L581.306 1002.89L561.1 1005.11L563.258 1024.77L541.96 1027.1L544.358 1048.95M595.187 1001.01L604.339 1022.78L585.599 1030.66L593.474 1049.4L575.241 1057.06L583.541 1076.81L563.282 1085.33M411.966 976.958L427.587 994.68L412.338 1008.12L425.78 1023.37L410.944 1036.45L425.112 1052.52L408.627 1067.05M275.629 1222.95L283.338 1200.62L302.553 1207.26L309.186 1188.04L327.881 1194.49L334.873 1174.24L355.646 1181.41M309.082 1138.32L324.31 1156.38L339.85 1143.28L352.953 1158.82L368.074 1146.07L381.885 1162.45L398.686 1148.28M203.799 1146.03L221.392 1130.27L234.958 1145.41L250.096 1131.84L263.295 1146.57L279.252 1132.27L293.917 1148.64M269.808 1239.05L292.885 1234L297.232 1253.85L317.089 1249.51L321.319 1268.83L342.249 1264.24L346.949 1285.71M350.234 1251.64L339.049 1230.83L356.953 1221.21L347.329 1203.3L364.749 1193.94M236.278 1271.37L255.806 1258.08L267.245 1274.88L284.048 1263.44L295.177 1279.79M246.186 1180.19L262.431 1163.04L277.189 1177.02L291.167 1162.26L305.526 1175.86M199.588 1262.69L223.071 1260.11L220.853 1239.91L241.059 1237.69L238.901 1218.03L260.199 1215.69L257.801 1193.85M206.972 1241.79L197.82 1220.01L216.56 1212.14L208.685 1193.4L226.918 1185.74L218.618 1165.98L238.877 1157.47M390.194 1265.84L374.572 1248.12L389.821 1234.68L376.379 1219.43L391.216 1206.35L377.047 1190.28L393.532 1175.75M529.483 1189.02L521.774 1211.35L502.559 1204.72L495.926 1223.93L477.231 1217.48L470.239 1237.73L449.466 1230.56M496.03 1273.65L480.802 1255.59L465.262 1268.7L452.159 1253.16L437.038 1265.9L423.227 1249.52L406.427 1263.69M601.313 1265.94L583.72 1281.71L570.154 1266.57L555.016 1280.13L541.817 1265.4L525.86 1279.7L511.195 1263.34M535.304 1172.93L512.227 1177.98L507.88 1158.12L488.023 1162.47L483.793 1143.15L462.863 1147.73L458.163 1126.26M454.878 1160.33L466.063 1181.14L448.159 1190.77L457.783 1208.67L440.363 1218.03M568.834 1140.61L549.306 1153.9L537.867 1137.09L521.064 1148.53L509.935 1132.18M558.926 1231.78L542.681 1248.94L527.923 1234.96L513.945 1249.72L499.586 1236.11M605.524 1149.28L582.041 1151.86L584.259 1172.07L564.053 1174.28L566.211 1193.94L544.913 1196.28L547.311 1218.13M598.14 1170.18L607.292 1191.96L588.552 1199.84L596.427 1218.58L578.194 1226.24L586.494 1245.99L566.235 1254.5M414.919 1146.13L430.54 1163.86L415.291 1177.3L428.733 1192.55L413.897 1205.62L428.065 1221.7L411.58 1236.23M443.534 1122.61L424.411 1108.74L412.476 1125.2L396.021 1113.26L384.41 1129.27L367.065 1116.69L354.163 1134.48M377.644 968.707L393.59 951.277L408.588 964.998L422.309 950L436.901 963.35" stroke="#1D1E1D" stroke-width="5.49385"/>
<path d="M-145.242 1389.49L-137.533 1367.16L-118.318 1373.79L-111.685 1354.58L-92.9897 1361.03L-85.9977 1340.78L-65.2253 1347.95M-111.789 1304.86L-96.5612 1322.92L-81.0208 1309.81L-67.9177 1325.35L-52.7973 1312.6L-38.9858 1328.98L-22.1854 1314.82M-217.072 1312.57L-199.479 1296.8L-185.913 1311.94L-170.775 1298.38L-157.576 1313.1L-141.619 1298.81L-126.953 1315.17M-151.063 1405.58L-127.986 1400.53L-123.639 1420.39L-103.782 1416.04L-99.5521 1435.36L-78.6218 1430.78L-73.9221 1452.25M-70.6365 1418.18L-81.8218 1397.37L-63.9176 1387.74L-73.5422 1369.84L-56.1218 1360.47M-184.593 1437.9L-165.065 1424.61L-153.626 1441.41L-136.823 1429.98L-125.694 1446.33M-174.685 1346.72L-158.44 1329.57L-143.682 1343.55L-129.704 1328.79L-115.344 1342.39M-221.282 1429.23L-197.8 1426.65L-200.018 1406.44L-179.812 1404.23L-181.97 1384.57L-160.672 1382.23L-163.07 1360.38M-213.899 1408.33L-223.051 1386.55L-204.311 1378.67L-212.186 1359.93L-193.953 1352.27L-202.253 1332.52L-181.994 1324.01M-46.2988 1414.65L-31.0502 1401.21L-44.4919 1385.96L-29.6554 1372.88L-43.8237 1356.81L-27.3387 1342.28M108.612 1355.56L100.903 1377.89L81.6884 1371.25L75.0549 1390.47L56.3598 1384.01L49.3678 1404.27L28.5954 1397.1M75.1594 1440.19L59.9314 1422.13L44.391 1435.23L31.2878 1419.69L16.1674 1432.44L2.35595 1416.06L-14.4445 1430.22M180.442 1432.48L162.849 1448.24L149.283 1433.1L134.145 1446.67L120.946 1431.94L104.989 1446.24L90.3236 1429.87M114.433 1339.46L91.3562 1344.51L87.009 1324.66L67.152 1329L62.9223 1309.68L41.992 1314.27L37.2923 1292.8M34.0066 1326.87L45.192 1347.68L27.2877 1357.3L36.9123 1375.2L19.4919 1384.57M147.963 1307.14L128.435 1320.43L116.996 1303.63L100.193 1315.07L89.0637 1298.72M138.056 1398.32L121.81 1415.47L107.052 1401.49L93.0738 1416.25L78.7146 1402.65M184.653 1315.82L161.17 1318.39L163.388 1338.6L143.182 1340.82L145.34 1360.48L124.042 1362.82L126.44 1384.66M177.269 1336.72L186.421 1358.5L167.681 1366.37L175.556 1385.11L157.323 1392.77L165.623 1412.52L145.364 1421.04M-5.95244 1312.67L9.66895 1330.39L-5.57964 1343.83L7.86204 1359.08L-6.97441 1372.16L7.19381 1388.23L-9.29112 1402.76M-142.289 1558.66L-134.58 1536.33L-115.365 1542.97L-108.732 1523.75L-90.0367 1530.21L-83.0447 1509.95L-62.2723 1517.12M-108.836 1474.03L-93.6082 1492.09L-78.0679 1478.99L-64.9647 1494.53L-49.8443 1481.78L-36.0328 1498.16L-19.2324 1484M-214.119 1481.74L-196.526 1465.98L-182.96 1481.12L-167.822 1467.55L-154.623 1482.28L-138.666 1467.98L-124.001 1484.35M-148.11 1574.76L-125.033 1569.71L-120.686 1589.56L-100.829 1585.22L-96.5992 1604.54L-75.6689 1599.95L-70.9691 1621.42M-67.6835 1587.35L-78.8689 1566.54L-60.9646 1556.92L-70.5892 1539.02L-53.1688 1529.65M-181.64 1607.08L-162.112 1593.79L-150.673 1610.59L-133.87 1599.15L-122.741 1615.5M-171.732 1515.9L-155.487 1498.75L-140.729 1512.73L-126.751 1497.97L-112.391 1511.57M-218.329 1598.4L-194.847 1595.83L-197.065 1575.62L-176.859 1573.4L-179.017 1553.74L-157.719 1551.4L-160.117 1529.56M-210.946 1577.5L-220.098 1555.72L-201.358 1547.85L-209.233 1529.11L-191 1521.45L-199.3 1501.69L-179.041 1493.18M-27.7244 1601.55L-43.3458 1583.83L-28.0973 1570.39L-41.5389 1555.14L-26.7025 1542.06L-40.8707 1525.99L-24.3858 1511.46M111.565 1524.73L103.856 1547.06L84.6413 1540.43L78.0079 1559.64L59.3128 1553.19L52.3208 1573.44L31.5484 1566.27M78.1124 1609.36L62.8843 1591.3L47.344 1604.41L34.2408 1588.87L19.1204 1601.62L5.30894 1585.23L-11.4915 1599.4M183.395 1601.65L165.802 1617.42L152.236 1602.28L137.098 1615.84L123.899 1601.12L107.942 1615.41L93.2766 1599.05M117.386 1508.64L94.3092 1513.69L89.962 1493.83L70.105 1498.18L65.8753 1478.86L44.945 1483.44L40.2452 1461.97M36.9596 1496.04L48.145 1516.85L30.2407 1526.48L39.8653 1544.38L22.4449 1553.75M150.916 1476.32L131.388 1489.61L119.949 1472.81L103.146 1484.24L92.0167 1467.89M141.008 1567.5L124.763 1584.65L110.005 1570.67L96.0268 1585.43L81.6676 1571.83M187.606 1484.99L164.123 1487.57L166.341 1507.78L146.135 1509.99L148.293 1529.65L126.995 1531.99L129.393 1553.84M180.222 1505.89L189.374 1527.67L170.634 1535.55L178.509 1554.29L160.276 1561.95L168.576 1581.7L148.317 1590.21M-2.99946 1481.85L12.6219 1499.57L-2.62664 1513.01L10.815 1528.26L-4.02143 1541.34L10.1468 1557.41L-6.33814 1571.94M25.6161 1458.32L6.49268 1444.45L-5.44162 1460.91L-21.8967 1448.97L-33.5084 1464.98L-50.853 1452.4L-63.7549 1470.19M-40.2738 1304.42L-24.3281 1286.99L-9.3301 1300.71L4.39059 1285.71L18.9832 1299.06" stroke="#1D1E1D" stroke-width="5.49385"/>
<path d="M272.676 1389.49L280.385 1367.16L299.6 1373.79L306.233 1354.58L324.928 1361.03L331.92 1340.78L352.693 1347.95M306.129 1304.86L321.357 1322.92L336.897 1309.81L350 1325.35L365.121 1312.6L378.932 1328.98L395.733 1314.82M200.846 1312.57L218.439 1296.8L232.005 1311.94L247.143 1298.38L260.342 1313.1L276.299 1298.81L290.964 1315.17M266.855 1405.58L289.932 1400.53L294.279 1420.39L314.136 1416.04L318.366 1435.36L339.296 1430.78L343.996 1452.25M347.282 1418.18L336.096 1397.37L354 1387.74L344.376 1369.84L361.796 1360.47M233.325 1437.9L252.853 1424.61L264.292 1441.41L281.095 1429.98L292.224 1446.33M243.233 1346.72L259.478 1329.57L274.236 1343.55L288.214 1328.79L302.573 1342.39M196.636 1429.23L220.118 1426.65L217.9 1406.44L238.106 1404.23L235.948 1384.57L257.246 1382.23L254.848 1360.38M204.019 1408.33L194.867 1386.55L213.607 1378.67L205.732 1359.93L223.965 1352.27L215.665 1332.52L235.924 1324.01M371.619 1414.65L386.868 1401.21L373.426 1385.96L388.263 1372.88L374.094 1356.81L390.579 1342.28M526.53 1355.56L518.821 1377.89L499.606 1371.25L492.973 1390.47L474.278 1384.01L467.286 1404.27L446.513 1397.1M493.077 1440.19L477.849 1422.13L462.309 1435.23L449.206 1419.69L434.085 1432.44L420.274 1416.06L403.474 1430.22M598.36 1432.48L580.767 1448.24L567.201 1433.1L552.063 1446.67L538.864 1431.94L522.907 1446.24L508.242 1429.87M532.351 1339.46L509.274 1344.51L504.927 1324.66L485.07 1329L480.84 1309.68L459.91 1314.27L455.21 1292.8M451.925 1326.87L463.11 1347.68L445.206 1357.3L454.83 1375.2L437.41 1384.57M565.881 1307.14L546.353 1320.43L534.914 1303.63L518.111 1315.07L506.982 1298.72M555.973 1398.32L539.728 1415.47L524.97 1401.49L510.992 1416.25L496.633 1402.65M602.571 1315.82L579.088 1318.39L581.306 1338.6L561.1 1340.82L563.258 1360.48L541.96 1362.82L544.358 1384.66M595.187 1336.72L604.339 1358.5L585.599 1366.37L593.474 1385.11L575.241 1392.77L583.541 1412.52L563.282 1421.04M411.966 1312.67L427.587 1330.39L412.338 1343.83L425.78 1359.08L410.944 1372.16L425.112 1388.23L408.627 1402.76M275.629 1558.66L283.338 1536.33L302.553 1542.97L309.186 1523.75L327.881 1530.21L334.873 1509.95L355.646 1517.12M309.082 1474.03L324.31 1492.09L339.85 1478.99L352.953 1494.53L368.074 1481.78L381.885 1498.16L398.686 1484M203.799 1481.74L221.392 1465.98L234.958 1481.12L250.096 1467.55L263.295 1482.28L279.252 1467.98L293.917 1484.35M269.808 1574.76L292.885 1569.71L297.232 1589.56L317.089 1585.22L321.319 1604.54L342.249 1599.95L346.949 1621.42M350.234 1587.35L339.049 1566.54L356.953 1556.92L347.329 1539.02L364.749 1529.65M236.278 1607.08L255.806 1593.79L267.245 1610.59L284.048 1599.15L295.177 1615.5M246.186 1515.9L262.431 1498.75L277.189 1512.73L291.167 1497.97L305.526 1511.57M199.588 1598.4L223.071 1595.83L220.853 1575.62L241.059 1573.4L238.901 1553.74L260.199 1551.4L257.801 1529.56M206.972 1577.5L197.82 1555.72L216.56 1547.85L208.685 1529.11L226.918 1521.45L218.618 1501.69L238.877 1493.18M390.194 1601.55L374.572 1583.83L389.821 1570.39L376.379 1555.14L391.216 1542.06L377.047 1525.99L393.532 1511.46M529.483 1524.73L521.774 1547.06L502.559 1540.43L495.926 1559.64L477.231 1553.19L470.239 1573.44L449.466 1566.27M496.03 1609.36L480.802 1591.3L465.262 1604.41L452.159 1588.87L437.038 1601.62L423.227 1585.23L406.427 1599.4M601.313 1601.65L583.72 1617.42L570.154 1602.28L555.016 1615.84L541.817 1601.12L525.86 1615.41L511.195 1599.05M535.304 1508.64L512.227 1513.69L507.88 1493.83L488.023 1498.18L483.793 1478.86L462.863 1483.44L458.163 1461.97M454.878 1496.04L466.063 1516.85L448.159 1526.48L457.783 1544.38L440.363 1553.75M568.834 1476.32L549.306 1489.61L537.867 1472.81L521.064 1484.24L509.935 1467.89M558.926 1567.5L542.681 1584.65L527.923 1570.67L513.945 1585.43L499.586 1571.83M605.524 1484.99L582.041 1487.57L584.259 1507.78L564.053 1509.99L566.211 1529.65L544.913 1531.99L547.311 1553.84M598.14 1505.89L607.292 1527.67L588.552 1535.55L596.427 1554.29L578.194 1561.95L586.494 1581.7L566.235 1590.21M414.919 1481.85L430.54 1499.57L415.291 1513.01L428.733 1528.26L413.897 1541.34L428.065 1557.41L411.58 1571.94M443.534 1458.32L424.411 1444.45L412.476 1460.91L396.021 1448.97L384.41 1464.98L367.065 1452.4L354.163 1470.19M377.644 1304.42L393.59 1286.99L408.588 1300.71L422.309 1285.71L436.901 1299.06" stroke="#1D1E1D" stroke-width="5.49385"/>
<path d="M-145.242 1725.2L-137.533 1702.87L-118.318 1709.5L-111.685 1690.29L-92.9897 1696.74L-85.9977 1676.49L-65.2253 1683.66M-111.789 1640.57L-96.5612 1658.63L-81.0208 1645.52L-67.9177 1661.06L-52.7973 1648.32L-38.9858 1664.7L-22.1854 1650.53M-217.072 1648.28L-199.479 1632.51L-185.913 1647.65L-170.775 1634.09L-157.576 1648.82L-141.619 1634.52L-126.953 1650.88M-151.063 1741.29L-127.986 1736.24L-123.639 1756.1L-103.782 1751.75L-99.5521 1771.07L-78.6218 1766.49L-73.9221 1787.96M-70.6365 1753.89L-81.8218 1733.08L-63.9176 1723.45L-73.5422 1705.55L-56.1218 1696.19M-184.593 1773.61L-165.065 1760.32L-153.626 1777.13L-136.823 1765.69L-125.694 1782.04M-174.685 1682.44L-158.44 1665.28L-143.682 1679.26L-129.704 1664.5L-115.344 1678.11M-221.282 1764.94L-197.8 1762.36L-200.018 1742.15L-179.812 1739.94L-181.97 1720.28L-160.672 1717.94L-163.07 1696.09M-213.899 1744.04L-223.051 1722.26L-204.311 1714.38L-212.186 1695.64L-193.953 1687.98L-202.253 1668.23L-181.994 1659.72M-46.2988 1750.36L-31.0502 1736.92L-44.4919 1721.67L-29.6554 1708.6L-43.8237 1692.52L-27.3387 1677.99M108.612 1691.27L100.903 1713.6L81.6884 1706.96L75.0549 1726.18L56.3598 1719.73L49.3678 1739.98L28.5954 1732.81M75.1594 1775.9L59.9314 1757.84L44.391 1770.94L31.2878 1755.4L16.1674 1768.15L2.35595 1751.77L-14.4445 1765.94M180.442 1768.19L162.849 1783.95L149.283 1768.81L134.145 1782.38L120.946 1767.65L104.989 1781.95L90.3236 1765.58M114.433 1675.17L91.3562 1680.22L87.009 1660.37L67.152 1664.71L62.9223 1645.39L41.992 1649.98L37.2923 1628.51M34.0066 1662.58L45.192 1683.39L27.2877 1693.01L36.9123 1710.92L19.4919 1720.28M147.963 1642.85L128.435 1656.14L116.996 1639.34L100.193 1650.78L89.0637 1634.43M138.056 1734.03L121.81 1751.18L107.052 1737.2L93.0738 1751.96L78.7146 1738.36M184.653 1651.53L161.17 1654.11L163.388 1674.31L143.182 1676.53L145.34 1696.19L124.042 1698.53L126.44 1720.37M177.269 1672.43L186.421 1694.21L167.681 1702.08L175.556 1720.82L157.323 1728.48L165.623 1748.24L145.364 1756.75M-5.95244 1648.38L9.66895 1666.1L-5.57964 1679.54L7.86204 1694.79L-6.97441 1707.87L7.19381 1723.94L-9.29112 1738.47M-142.289 1894.37L-134.58 1872.04L-115.365 1878.68L-108.732 1859.46L-90.0367 1865.92L-83.0447 1845.66L-62.2723 1852.83M-108.836 1809.74L-93.6082 1827.8L-78.0679 1814.7L-64.9647 1830.24L-49.8443 1817.49L-36.0328 1833.87L-19.2324 1819.71M-214.119 1817.45L-196.526 1801.69L-182.96 1816.83L-167.822 1803.26L-154.623 1817.99L-138.666 1803.69L-124.001 1820.06M-148.11 1910.47L-125.033 1905.42L-120.686 1925.27L-100.829 1920.93L-96.5992 1940.25L-75.6689 1935.67L-70.9691 1957.13M-67.6835 1923.06L-78.8689 1902.25L-60.9646 1892.63L-70.5892 1874.73L-53.1688 1865.36M-181.64 1942.79L-162.112 1929.5L-150.673 1946.3L-133.87 1934.86L-122.741 1951.21M-171.732 1851.61L-155.487 1834.46L-140.729 1848.44L-126.751 1833.68L-112.391 1847.28M-218.329 1934.11L-194.847 1931.54L-197.065 1911.33L-176.859 1909.11L-179.017 1889.45L-157.719 1887.12L-160.117 1865.27M-210.946 1913.21L-220.098 1891.44L-201.358 1883.56L-209.233 1864.82L-191 1857.16L-199.3 1837.41L-179.041 1828.89M-27.7244 1937.26L-43.3458 1919.54L-28.0973 1906.1L-41.5389 1890.85L-26.7025 1877.77L-40.8707 1861.7L-24.3858 1847.17M111.565 1860.44L103.856 1882.77L84.6413 1876.14L78.0079 1895.36L59.3128 1888.9L52.3208 1909.15L31.5484 1901.98M78.1124 1945.07L62.8843 1927.01L47.344 1940.12L34.2408 1924.58L19.1204 1937.33L5.30894 1920.95L-11.4915 1935.11M183.395 1937.36L165.802 1953.13L152.236 1937.99L137.098 1951.56L123.899 1936.83L107.942 1951.13L93.2766 1934.76M117.386 1844.35L94.3092 1849.4L89.962 1829.54L70.105 1833.89L65.8753 1814.57L44.945 1819.15L40.2452 1797.69M36.9596 1831.76L48.145 1852.56L30.2407 1862.19L39.8653 1880.09L22.4449 1889.46M150.916 1812.03L131.388 1825.32L119.949 1808.52L103.146 1819.95L92.0167 1803.61M141.008 1903.21L124.763 1920.36L110.005 1906.38L96.0268 1921.14L81.6676 1907.54M187.606 1820.7L164.123 1823.28L166.341 1843.49L146.135 1845.71L148.293 1865.36L126.995 1867.7L129.393 1889.55M180.222 1841.6L189.374 1863.38L170.634 1871.26L178.509 1890L160.276 1897.66L168.576 1917.41L148.317 1925.93M-2.99946 1817.56L12.6219 1835.28L-2.62664 1848.72L10.815 1863.97L-4.02143 1877.05L10.1468 1893.12L-6.33814 1907.65M25.6161 1794.03L6.49268 1780.16L-5.44162 1796.62L-21.8967 1784.68L-33.5084 1800.69L-50.853 1788.11L-63.7549 1805.9M-40.2738 1640.13L-24.3281 1622.7L-9.3301 1636.42L4.39059 1621.42L18.9832 1634.77" stroke="#1D1E1D" stroke-width="5.49385"/>
<path d="M272.676 1725.2L280.385 1702.87L299.6 1709.5L306.233 1690.29L324.928 1696.74L331.92 1676.49L352.693 1683.66M306.129 1640.57L321.357 1658.63L336.897 1645.52L350 1661.06L365.121 1648.32L378.932 1664.7L395.733 1650.53M200.846 1648.28L218.439 1632.51L232.005 1647.65L247.143 1634.09L260.342 1648.82L276.299 1634.52L290.964 1650.88M266.855 1741.29L289.932 1736.24L294.279 1756.1L314.136 1751.75L318.366 1771.07L339.296 1766.49L343.996 1787.96M347.282 1753.89L336.096 1733.08L354 1723.45L344.376 1705.55L361.796 1696.19M233.325 1773.61L252.853 1760.32L264.292 1777.13L281.095 1765.69L292.224 1782.04M243.233 1682.44L259.478 1665.28L274.236 1679.26L288.214 1664.5L302.573 1678.11M196.636 1764.94L220.118 1762.36L217.9 1742.15L238.106 1739.94L235.948 1720.28L257.246 1717.94L254.848 1696.09M204.019 1744.04L194.867 1722.26L213.607 1714.38L205.732 1695.64L223.965 1687.98L215.665 1668.23L235.924 1659.72M371.619 1750.36L386.868 1736.92L373.426 1721.67L388.263 1708.6L374.094 1692.52L390.579 1677.99M526.53 1691.27L518.821 1713.6L499.606 1706.96L492.973 1726.18L474.278 1719.73L467.286 1739.98L446.513 1732.81M493.077 1775.9L477.849 1757.84L462.309 1770.94L449.206 1755.4L434.085 1768.15L420.274 1751.77L403.474 1765.94M598.36 1768.19L580.767 1783.95L567.201 1768.81L552.063 1782.38L538.864 1767.65L522.907 1781.95L508.242 1765.58M532.351 1675.17L509.274 1680.22L504.927 1660.37L485.07 1664.71L480.84 1645.39L459.91 1649.98L455.21 1628.51M451.925 1662.58L463.11 1683.39L445.206 1693.01L454.83 1710.92L437.41 1720.28M565.881 1642.85L546.353 1656.14L534.914 1639.34L518.111 1650.78L506.982 1634.43M555.973 1734.03L539.728 1751.18L524.97 1737.2L510.992 1751.96L496.633 1738.36M602.571 1651.53L579.088 1654.11L581.306 1674.31L561.1 1676.53L563.258 1696.19L541.96 1698.53L544.358 1720.37M595.187 1672.43L604.339 1694.21L585.599 1702.08L593.474 1720.82L575.241 1728.48L583.541 1748.24L563.282 1756.75M411.966 1648.38L427.587 1666.1L412.338 1679.54L425.78 1694.79L410.944 1707.87L425.112 1723.94L408.627 1738.47M275.629 1894.37L283.338 1872.04L302.553 1878.68L309.186 1859.46L327.881 1865.92L334.873 1845.66L355.646 1852.83M309.082 1809.74L324.31 1827.8L339.85 1814.7L352.953 1830.24L368.074 1817.49L381.885 1833.87L398.686 1819.71M203.799 1817.45L221.392 1801.69L234.958 1816.83L250.096 1803.26L263.295 1817.99L279.252 1803.69L293.917 1820.06M269.808 1910.47L292.885 1905.42L297.232 1925.27L317.089 1920.93L321.319 1940.25L342.249 1935.67L346.949 1957.13M350.234 1923.06L339.049 1902.25L356.953 1892.63L347.329 1874.73L364.749 1865.36M236.278 1942.79L255.806 1929.5L267.245 1946.3L284.048 1934.86L295.177 1951.21M246.186 1851.61L262.431 1834.46L277.189 1848.44L291.167 1833.68L305.526 1847.28M199.588 1934.11L223.071 1931.54L220.853 1911.33L241.059 1909.11L238.901 1889.45L260.199 1887.12L257.801 1865.27M206.972 1913.21L197.82 1891.44L216.56 1883.56L208.685 1864.82L226.918 1857.16L218.618 1837.41L238.877 1828.89M390.194 1937.26L374.572 1919.54L389.821 1906.1L376.379 1890.85L391.216 1877.77L377.047 1861.7L393.532 1847.17M529.483 1860.44L521.774 1882.77L502.559 1876.14L495.926 1895.36L477.231 1888.9L470.239 1909.15L449.466 1901.98M496.03 1945.07L480.802 1927.01L465.262 1940.12L452.159 1924.58L437.038 1937.33L423.227 1920.95L406.427 1935.11M601.313 1937.36L583.72 1953.13L570.154 1937.99L555.016 1951.56L541.817 1936.83L525.86 1951.13L511.195 1934.76M535.304 1844.35L512.227 1849.4L507.88 1829.54L488.023 1833.89L483.793 1814.57L462.863 1819.15L458.163 1797.69M454.878 1831.76L466.063 1852.56L448.159 1862.19L457.783 1880.09L440.363 1889.46M568.834 1812.03L549.306 1825.32L537.867 1808.52L521.064 1819.95L509.935 1803.61M558.926 1903.21L542.681 1920.36L527.923 1906.38L513.945 1921.14L499.586 1907.54M605.524 1820.7L582.041 1823.28L584.259 1843.49L564.053 1845.71L566.211 1865.36L544.913 1867.7L547.311 1889.55M598.14 1841.6L607.292 1863.38L588.552 1871.26L596.427 1890L578.194 1897.66L586.494 1917.41L566.235 1925.93M414.919 1817.56L430.54 1835.28L415.291 1848.72L428.733 1863.97L413.897 1877.05L428.065 1893.12L411.58 1907.65M443.534 1794.03L424.411 1780.16L412.476 1796.62L396.021 1784.68L384.41 1800.69L367.065 1788.11L354.163 1805.9M377.644 1640.13L393.59 1622.7L408.588 1636.42L422.309 1621.42L436.901 1634.77" stroke="#1D1E1D" stroke-width="5.49385"/>
</g>
</svg>
