<svg width="1440" height="1024" viewBox="0 0 1440 1024" fill="none" xmlns="http://www.w3.org/2000/svg">
<g clip-path="url(#clip0_28_9496)">
<rect width="1440" height="1024" fill="white"/>
<rect width="1440" height="1024" fill="#F2F2F2"/>
<line x1="1892.18" y1="-121.441" x2="-99.5018" y2="60.8244" stroke="#ECECEC" stroke-width="2.14275"/>
<line x1="1901.29" y1="-21.855" x2="-90.3885" y2="160.41" stroke="#ECECEC" stroke-width="2.14275"/>
<line x1="1910.4" y1="77.731" x2="-81.2752" y2="259.996" stroke="#ECECEC" stroke-width="2.14275"/>
<line x1="1919.52" y1="177.309" x2="-72.1619" y2="359.574" stroke="#ECECEC" stroke-width="2.14275"/>
<line x1="1928.63" y1="276.895" x2="-63.0486" y2="459.16" stroke="#ECECEC" stroke-width="2.14275"/>
<line x1="1937.74" y1="376.481" x2="-53.9354" y2="558.746" stroke="#ECECEC" stroke-width="2.14275"/>
<line x1="1946.86" y1="476.059" x2="-44.8221" y2="658.324" stroke="#ECECEC" stroke-width="2.14275"/>
<line x1="1955.97" y1="575.645" x2="-35.7088" y2="757.91" stroke="#ECECEC" stroke-width="2.14275"/>
<line x1="1965.08" y1="675.231" x2="-26.5955" y2="857.496" stroke="#ECECEC" stroke-width="2.14275"/>
<line x1="1974.2" y1="774.817" x2="-17.4822" y2="957.082" stroke="#ECECEC" stroke-width="2.14275"/>
<line x1="1983.31" y1="874.395" x2="-8.36895" y2="1056.66" stroke="#ECECEC" stroke-width="2.14275"/>
<line x1="1992.42" y1="973.981" x2="0.744333" y2="1156.25" stroke="#ECECEC" stroke-width="2.14275"/>
<line x1="-46.0054" y1="-59.5742" x2="90.6936" y2="1434.18" stroke="#ECECEC" stroke-width="2.14275"/>
<line x1="53.5786" y1="-68.6836" x2="190.278" y2="1425.07" stroke="#ECECEC" stroke-width="2.14275"/>
<line x1="153.163" y1="-77.8008" x2="289.862" y2="1415.96" stroke="#ECECEC" stroke-width="2.14275"/>
<line x1="252.747" y1="-86.9101" x2="389.446" y2="1406.85" stroke="#ECECEC" stroke-width="2.14275"/>
<line x1="352.331" y1="-96.0273" x2="489.03" y2="1397.73" stroke="#ECECEC" stroke-width="2.14275"/>
<line x1="451.915" y1="-105.137" x2="588.614" y2="1388.62" stroke="#ECECEC" stroke-width="2.14275"/>
<line x1="551.499" y1="-114.254" x2="688.198" y2="1379.5" stroke="#ECECEC" stroke-width="2.14275"/>
<line x1="651.082" y1="-123.363" x2="787.781" y2="1370.39" stroke="#ECECEC" stroke-width="2.14275"/>
<line x1="750.666" y1="-132.48" x2="887.365" y2="1361.28" stroke="#ECECEC" stroke-width="2.14275"/>
<line x1="850.25" y1="-141.59" x2="986.948" y2="1352.17" stroke="#ECECEC" stroke-width="2.14275"/>
<line x1="949.834" y1="-150.707" x2="1086.53" y2="1343.05" stroke="#ECECEC" stroke-width="2.14275"/>
<line x1="1049.42" y1="-159.816" x2="1186.12" y2="1333.94" stroke="#ECECEC" stroke-width="2.14275"/>
<line x1="1149" y1="-168.934" x2="1285.7" y2="1324.82" stroke="#ECECEC" stroke-width="2.14275"/>
<line x1="1248.59" y1="-178.043" x2="1385.28" y2="1315.72" stroke="#ECECEC" stroke-width="2.14275"/>
<line x1="1348.17" y1="-187.16" x2="1484.87" y2="1306.6" stroke="#ECECEC" stroke-width="2.14275"/>
</g>
<defs>
<clipPath id="clip0_28_9496">
<rect width="1440" height="1024" fill="white"/>
</clipPath>
</defs>
</svg>
