<svg width="357" height="535" viewBox="0 0 357 535" fill="none" xmlns="http://www.w3.org/2000/svg">
<g clip-path="url(#clip0_40_532)">
<rect x="5.30286" y="5.30286" width="346.394" height="524.394" rx="14.5829" fill="#C0A7D1" stroke="#1D1E1D" stroke-width="10.6057"/>
<path d="M324.812 64.1431L357.308 45.3295L357.308 82.9567L324.812 64.1431Z" fill="#1D1E1D"/>
<path d="M293.287 64.1431L325.782 45.3295L325.782 82.9567L293.287 64.1431Z" fill="#1D1E1D"/>
<path d="M261.758 64.1431L294.253 45.3295L294.253 82.9567L261.758 64.1431Z" fill="#1D1E1D"/>
<ellipse cx="22.8261" cy="25.8986" rx="5.64058" ry="5.65638" fill="#1D1E1D"/>
<ellipse cx="113.076" cy="25.8986" rx="5.64058" ry="5.65638" fill="#1D1E1D"/>
<ellipse cx="67.9492" cy="25.8986" rx="5.64058" ry="5.65638" fill="#1D1E1D"/>
<ellipse cx="158.201" cy="25.8986" rx="5.64058" ry="5.65638" fill="#1D1E1D"/>
<ellipse cx="22.8261" cy="71.1486" rx="5.64058" ry="5.65638" fill="#1D1E1D"/>
<ellipse cx="113.076" cy="71.1486" rx="5.64058" ry="5.65638" fill="#1D1E1D"/>
<ellipse cx="67.9492" cy="71.1486" rx="5.64058" ry="5.65638" fill="#1D1E1D"/>
<ellipse cx="158.201" cy="71.1486" rx="5.64058" ry="5.65638" fill="#1D1E1D"/>
<ellipse cx="45.3886" cy="48.5314" rx="5.64058" ry="5.65638" fill="#1D1E1D"/>
<ellipse cx="135.639" cy="48.5314" rx="5.64058" ry="5.65638" fill="#1D1E1D"/>
<ellipse cx="90.5117" cy="48.5314" rx="5.64058" ry="5.65638" fill="#1D1E1D"/>
<ellipse cx="180.762" cy="48.5314" rx="5.64058" ry="5.65638" fill="#1D1E1D"/>
<ellipse cx="45.3886" cy="3.28138" rx="5.64058" ry="5.65638" fill="#1D1E1D"/>
<ellipse cx="45.3886" cy="93.7814" rx="5.64058" ry="5.65638" fill="#1D1E1D"/>
<ellipse cx="135.639" cy="3.28138" rx="5.64058" ry="5.65638" fill="#1D1E1D"/>
<ellipse cx="135.639" cy="93.7814" rx="5.64058" ry="5.65638" fill="#1D1E1D"/>
<ellipse cx="90.5117" cy="3.28138" rx="5.64058" ry="5.65638" fill="#1D1E1D"/>
<ellipse cx="90.5117" cy="93.7814" rx="5.64058" ry="5.65638" fill="#1D1E1D"/>
<ellipse cx="180.762" cy="3.28138" rx="5.64058" ry="5.65638" fill="#1D1E1D"/>
<ellipse cx="180.762" cy="93.7814" rx="5.64058" ry="5.65638" fill="#1D1E1D"/>
<ellipse cx="22.8261" cy="48.5314" rx="5.64058" ry="5.65638" fill="#1D1E1D"/>
<ellipse cx="113.076" cy="48.5314" rx="5.64058" ry="5.65638" fill="#1D1E1D"/>
<ellipse cx="67.9492" cy="48.5314" rx="5.64058" ry="5.65638" fill="#1D1E1D"/>
<ellipse cx="158.201" cy="48.5314" rx="5.64058" ry="5.65638" fill="#1D1E1D"/>
<ellipse cx="22.8261" cy="3.28138" rx="5.64058" ry="5.65638" fill="#1D1E1D"/>
<ellipse cx="22.8261" cy="93.7814" rx="5.64058" ry="5.65638" fill="#1D1E1D"/>
<ellipse cx="113.076" cy="3.28138" rx="5.64058" ry="5.65638" fill="#1D1E1D"/>
<ellipse cx="113.076" cy="93.7814" rx="5.64058" ry="5.65638" fill="#1D1E1D"/>
<ellipse cx="67.9492" cy="3.28138" rx="5.64058" ry="5.65638" fill="#1D1E1D"/>
<ellipse cx="67.9492" cy="93.7814" rx="5.64058" ry="5.65638" fill="#1D1E1D"/>
<ellipse cx="158.201" cy="3.28138" rx="5.64058" ry="5.65638" fill="#1D1E1D"/>
<ellipse cx="158.201" cy="93.7814" rx="5.64058" ry="5.65638" fill="#1D1E1D"/>
<ellipse cx="45.3886" cy="25.8986" rx="5.64058" ry="5.65638" fill="#1D1E1D"/>
<ellipse cx="135.639" cy="25.8986" rx="5.64058" ry="5.65638" fill="#1D1E1D"/>
<ellipse cx="90.5117" cy="25.8986" rx="5.64058" ry="5.65638" fill="#1D1E1D"/>
<ellipse cx="180.762" cy="25.8986" rx="5.64058" ry="5.65638" fill="#1D1E1D"/>
<ellipse cx="45.3886" cy="71.1486" rx="5.64058" ry="5.65638" fill="#1D1E1D"/>
<ellipse cx="135.639" cy="71.1486" rx="5.64058" ry="5.65638" fill="#1D1E1D"/>
<ellipse cx="90.5117" cy="71.1486" rx="5.64058" ry="5.65638" fill="#1D1E1D"/>
<ellipse cx="180.762" cy="71.1486" rx="5.64058" ry="5.65638" fill="#1D1E1D"/>
<path d="M240.234 441.789C240.234 441.789 239.551 485.938 259.994 482.301C283.991 478.033 269.972 431.578 294.304 430.166C315.995 428.908 308.687 504.719 337.529 465.871" stroke="#1D1E1D" stroke-width="9.28"/>
<path d="M232.023 425.883C232.023 425.883 231.34 470.031 251.783 466.395C275.78 462.126 261.761 415.672 286.093 414.26C307.784 413.002 300.476 488.812 329.318 449.964" stroke="white" stroke-width="9.28"/>
<path d="M44.2932 377.432L90.2086 475.779L-17.9197 466.37L44.2932 377.432Z" fill="#1D1E1D"/>
<rect x="114.314" y="160.953" width="140.526" height="220.069" fill="#1D1E1D"/>
<rect x="106.012" y="153" width="140.526" height="220.069" fill="#FFF8A0"/>
<rect x="120.594" y="167.586" width="111.36" height="84.8457" fill="#1D1E1D"/>
<rect x="133.916" y="280.43" width="11.6002" height="37.2426" fill="#1D1E1D"/>
<rect x="157.115" y="292.852" width="12.4142" height="34.8005" transform="rotate(90 157.115 292.852)" fill="#1D1E1D"/>
<circle cx="205.814" cy="308.93" r="8.5" fill="#1D1E1D"/>
<circle cx="223.814" cy="288.93" r="8.5" fill="#1D1E1D"/>
</g>
<defs>
<clipPath id="clip0_40_532">
<rect width="357" height="535" fill="white"/>
</clipPath>
</defs>
</svg>
