<svg width="359" height="464" viewBox="0 0 359 464" fill="none" xmlns="http://www.w3.org/2000/svg">
<g clip-path="url(#clip0_40_532)">
<rect x="5.9884" y="5.30286" width="347.337" height="453.394" rx="14.5829" fill="#C0A7D1" stroke="#1D1E1D" stroke-width="10.6057"/>
<path d="M326.406 64.1431L358.992 45.3295L358.992 82.9567L326.406 64.1431Z" fill="#1D1E1D"/>
<path d="M294.793 64.1431L327.379 45.3295L327.379 82.9567L294.793 64.1431Z" fill="#1D1E1D"/>
<path d="M263.176 64.1431L295.762 45.3295L295.762 82.9567L263.176 64.1431Z" fill="#1D1E1D"/>
<circle cx="23.5763" cy="25.8986" r="5.65638" fill="#1D1E1D"/>
<circle cx="114.08" cy="25.8986" r="5.65638" fill="#1D1E1D"/>
<circle cx="68.8263" cy="25.8986" r="5.65638" fill="#1D1E1D"/>
<circle cx="159.33" cy="25.8986" r="5.65638" fill="#1D1E1D"/>
<circle cx="23.5763" cy="71.1486" r="5.65638" fill="#1D1E1D"/>
<circle cx="114.08" cy="71.1486" r="5.65638" fill="#1D1E1D"/>
<circle cx="68.8263" cy="71.1486" r="5.65638" fill="#1D1E1D"/>
<circle cx="159.33" cy="71.1486" r="5.65638" fill="#1D1E1D"/>
<circle cx="46.2013" cy="48.5314" r="5.65638" fill="#1D1E1D"/>
<circle cx="136.705" cy="48.5314" r="5.65638" fill="#1D1E1D"/>
<circle cx="91.4513" cy="48.5314" r="5.65638" fill="#1D1E1D"/>
<circle cx="181.955" cy="48.5314" r="5.65638" fill="#1D1E1D"/>
<circle cx="46.2013" cy="3.28138" r="5.65638" fill="#1D1E1D"/>
<circle cx="46.2013" cy="93.7814" r="5.65638" fill="#1D1E1D"/>
<circle cx="136.705" cy="3.28138" r="5.65638" fill="#1D1E1D"/>
<circle cx="136.705" cy="93.7814" r="5.65638" fill="#1D1E1D"/>
<circle cx="91.4513" cy="3.28138" r="5.65638" fill="#1D1E1D"/>
<circle cx="91.4513" cy="93.7814" r="5.65638" fill="#1D1E1D"/>
<circle cx="181.955" cy="3.28138" r="5.65638" fill="#1D1E1D"/>
<circle cx="181.955" cy="93.7814" r="5.65638" fill="#1D1E1D"/>
<circle cx="23.5763" cy="48.5314" r="5.65638" fill="#1D1E1D"/>
<circle cx="114.08" cy="48.5314" r="5.65638" fill="#1D1E1D"/>
<circle cx="68.8263" cy="48.5314" r="5.65638" fill="#1D1E1D"/>
<circle cx="159.33" cy="48.5314" r="5.65638" fill="#1D1E1D"/>
<circle cx="23.5763" cy="3.28138" r="5.65638" fill="#1D1E1D"/>
<circle cx="23.5763" cy="93.7814" r="5.65638" fill="#1D1E1D"/>
<circle cx="114.08" cy="3.28138" r="5.65638" fill="#1D1E1D"/>
<circle cx="114.08" cy="93.7814" r="5.65638" fill="#1D1E1D"/>
<circle cx="68.8263" cy="3.28138" r="5.65638" fill="#1D1E1D"/>
<circle cx="68.8263" cy="93.7814" r="5.65638" fill="#1D1E1D"/>
<circle cx="159.33" cy="3.28138" r="5.65638" fill="#1D1E1D"/>
<circle cx="159.33" cy="93.7814" r="5.65638" fill="#1D1E1D"/>
<circle cx="46.2013" cy="25.8986" r="5.65638" fill="#1D1E1D"/>
<circle cx="136.705" cy="25.8986" r="5.65638" fill="#1D1E1D"/>
<circle cx="91.4513" cy="25.8986" r="5.65638" fill="#1D1E1D"/>
<circle cx="181.955" cy="25.8986" r="5.65638" fill="#1D1E1D"/>
<circle cx="46.2013" cy="71.1486" r="5.65638" fill="#1D1E1D"/>
<circle cx="136.705" cy="71.1486" r="5.65638" fill="#1D1E1D"/>
<circle cx="91.4513" cy="71.1486" r="5.65638" fill="#1D1E1D"/>
<circle cx="181.955" cy="71.1486" r="5.65638" fill="#1D1E1D"/>
<path d="M240.92 402.43C240.92 402.43 240.237 446.578 260.68 442.942C284.676 438.673 270.657 392.219 294.989 390.807C316.68 389.548 309.373 465.359 338.215 426.511" stroke="#1D1E1D" stroke-width="9.28"/>
<path d="M232.709 386.523C232.709 386.523 232.026 430.672 252.469 427.036C276.465 422.767 262.446 376.313 286.778 374.901C308.469 373.642 301.162 449.453 330.004 410.605" stroke="white" stroke-width="9.28"/>
<path d="M43.4865 334.206L89.402 432.552L-18.7264 423.143L43.4865 334.206Z" fill="#1D1E1D"/>
<rect x="115" y="129.523" width="140.526" height="220.069" fill="#1D1E1D"/>
<rect x="106.697" y="121.57" width="140.526" height="220.069" fill="#FFF8A0"/>
<rect x="121.279" y="136.156" width="111.36" height="84.8457" fill="#1D1E1D"/>
<rect x="134.602" y="249" width="11.6002" height="37.2426" fill="#1D1E1D"/>
<rect x="157.801" y="261.422" width="12.4142" height="34.8005" transform="rotate(90 157.801 261.422)" fill="#1D1E1D"/>
<circle cx="206.5" cy="277.5" r="8.5" fill="#1D1E1D"/>
<circle cx="224.5" cy="257.5" r="8.5" fill="#1D1E1D"/>
</g>
<defs>
<clipPath id="clip0_40_532">
<rect width="357.943" height="464" fill="white" transform="translate(0.685547)"/>
</clipPath>
</defs>
</svg>
