<svg width="359" height="464" viewBox="0 0 359 464" fill="none" xmlns="http://www.w3.org/2000/svg">
<g clip-path="url(#clip0_40_530)">
<mask id="mask0_40_530" style="mask-type:alpha" maskUnits="userSpaceOnUse" x="0" y="0" width="359" height="464">
<rect x="6.85709" y="6.62857" width="344.686" height="450.743" rx="13.2571" fill="#FF847C" stroke="#1D1E1D" stroke-width="13.2571"/>
</mask>
<g mask="url(#mask0_40_530)">
<rect x="6.85709" y="6.62857" width="344.686" height="450.743" rx="13.2571" fill="#FF847C" stroke="#1D1E1D" stroke-width="13.2571"/>
<rect x="275.979" y="208.141" width="6.62857" height="26.5143" fill="#1D1E1D"/>
<rect x="103.094" y="179.219" width="172.148" height="26.5143" transform="rotate(-18.49 103.094 179.219)" fill="#1D1E1D"/>
<path d="M90.377 342.037V229.352H282.606V342.037H90.377Z" fill="white"/>
<path d="M83.75 338.06V229.352H277.304V338.06H83.75Z" fill="#1D1E1D"/>
<rect x="83.7461" y="181.656" width="187.646" height="26.5003" transform="rotate(-18.4869 83.7461 181.656)" fill="#1D1E1D"/>
<path fill-rule="evenodd" clip-rule="evenodd" d="M261.712 122.152L270.114 147.283L251.385 153.545L256.094 124.03L261.712 122.152Z" fill="white"/>
<path fill-rule="evenodd" clip-rule="evenodd" d="M88.7374 196.589L83.75 181.672L91.5331 179.07L88.7374 196.589Z" fill="white"/>
<path d="M109.578 173.038L104.868 202.555L123.601 196.291L128.311 166.774L109.578 173.038Z" fill="white"/>
<path d="M146.357 160.733L141.647 190.25L160.38 183.987L165.09 154.47L146.357 160.733Z" fill="white"/>
<path d="M183.133 148.452L178.422 177.969L197.155 171.706L201.866 142.188L183.133 148.452Z" fill="white"/>
<path d="M219.908 136.131L215.198 165.648L233.931 159.385L238.641 129.868L219.908 136.131Z" fill="white"/>
<rect x="89.0527" y="202.836" width="187.646" height="26.5003" fill="#1D1E1D"/>
<path fill-rule="evenodd" clip-rule="evenodd" d="M258.277 229.336H277.303V202.836H271.598L258.277 229.336Z" fill="white"/>
<path fill-rule="evenodd" clip-rule="evenodd" d="M90.3789 202.852V218.58L98.5853 202.852H90.3789Z" fill="white"/>
<path d="M117.61 202.852L103.783 229.352H123.535L137.362 202.852H117.61Z" fill="white"/>
<path d="M156.393 202.852L142.566 229.352H162.319L176.145 202.852H156.393Z" fill="white"/>
<path d="M195.166 202.859L181.34 229.36H201.092L214.919 202.859H195.166Z" fill="white"/>
<path d="M233.946 202.836L220.119 229.336H239.871L253.698 202.836H233.946Z" fill="white"/>
<path d="M173.899 234.661L83.75 181.633V234.661H173.899Z" fill="#1D1E1D"/>
<circle cx="249.241" cy="390.866" r="3.75619" fill="white"/>
<circle cx="249.241" cy="450.967" r="3.75619" fill="white"/>
<circle cx="309.34" cy="390.866" r="3.75619" fill="white"/>
<circle cx="309.34" cy="450.967" r="3.75619" fill="white"/>
<circle cx="279.289" cy="390.866" r="3.75619" fill="white"/>
<circle cx="279.289" cy="450.967" r="3.75619" fill="white"/>
<circle cx="339.389" cy="390.866" r="3.75619" fill="white"/>
<circle cx="339.389" cy="450.967" r="3.75619" fill="white"/>
<circle cx="249.241" cy="420.912" r="3.75619" fill="white"/>
<circle cx="309.34" cy="420.912" r="3.75619" fill="white"/>
<circle cx="279.289" cy="420.912" r="3.75619" fill="white"/>
<circle cx="339.389" cy="420.912" r="3.75619" fill="white"/>
<circle cx="264.266" cy="405.897" r="3.75619" fill="white"/>
<circle cx="264.266" cy="465.998" r="3.75619" fill="white"/>
<circle cx="324.366" cy="405.897" r="3.75619" fill="white"/>
<circle cx="324.366" cy="465.998" r="3.75619" fill="white"/>
<circle cx="294.315" cy="405.897" r="3.75619" fill="white"/>
<circle cx="294.315" cy="465.998" r="3.75619" fill="white"/>
<circle cx="354.414" cy="405.897" r="3.75619" fill="white"/>
<circle cx="354.414" cy="465.998" r="3.75619" fill="white"/>
<circle cx="264.266" cy="435.944" r="3.75619" fill="white"/>
<circle cx="324.366" cy="435.944" r="3.75619" fill="white"/>
<circle cx="294.315" cy="435.944" r="3.75619" fill="white"/>
<circle cx="354.414" cy="435.944" r="3.75619" fill="white"/>
<circle cx="249.241" cy="405.897" r="3.75619" fill="white"/>
<circle cx="249.241" cy="465.998" r="3.75619" fill="white"/>
<circle cx="309.34" cy="405.897" r="3.75619" fill="white"/>
<circle cx="309.34" cy="465.998" r="3.75619" fill="white"/>
<circle cx="279.289" cy="405.897" r="3.75619" fill="white"/>
<circle cx="279.289" cy="465.998" r="3.75619" fill="white"/>
<circle cx="339.389" cy="405.897" r="3.75619" fill="white"/>
<circle cx="339.389" cy="465.998" r="3.75619" fill="white"/>
<circle cx="249.241" cy="435.944" r="3.75619" fill="white"/>
<circle cx="309.34" cy="435.944" r="3.75619" fill="white"/>
<circle cx="279.289" cy="435.944" r="3.75619" fill="white"/>
<circle cx="339.389" cy="435.944" r="3.75619" fill="white"/>
<circle cx="264.266" cy="390.866" r="3.75619" fill="white"/>
<circle cx="264.266" cy="450.967" r="3.75619" fill="white"/>
<circle cx="324.366" cy="390.866" r="3.75619" fill="white"/>
<circle cx="324.366" cy="450.967" r="3.75619" fill="white"/>
<circle cx="294.315" cy="390.866" r="3.75619" fill="white"/>
<circle cx="294.315" cy="450.967" r="3.75619" fill="white"/>
<circle cx="354.414" cy="390.866" r="3.75619" fill="white"/>
<circle cx="354.414" cy="450.967" r="3.75619" fill="white"/>
<circle cx="264.266" cy="420.912" r="3.75619" fill="white"/>
<circle cx="324.366" cy="420.912" r="3.75619" fill="white"/>
<circle cx="294.315" cy="420.912" r="3.75619" fill="white"/>
<circle cx="354.414" cy="420.912" r="3.75619" fill="white"/>
<path d="M90.9073 44.5888L39.2452 181.637L-53.6109 68.372L90.9073 44.5888Z" fill="#1D1E1D"/>
<path d="M230.318 47.6975L251.231 -18.2028L310.524 17.3567L230.318 47.6975Z" stroke="white" stroke-width="7.95429"/>
</g>
</g>
<defs>
<clipPath id="clip0_40_530">
<rect width="357.943" height="464" fill="white" transform="translate(0.228516)"/>
</clipPath>
</defs>
</svg>
