<svg width="358" height="535" viewBox="0 0 358 535" fill="none" xmlns="http://www.w3.org/2000/svg">
<g clip-path="url(#clip0_40_529)">
<rect x="6.62857" y="6.62857" width="344.743" height="521.743" rx="13.2571" fill="#3FC2E0" stroke="#1D1E1D" stroke-width="13.2571"/>
<circle cx="182.372" cy="270.696" r="102.743" fill="white"/>
<circle cx="175.743" cy="262.743" r="102.743" fill="#1D1E1D"/>
<circle cx="175.081" cy="262.079" r="42.4229" fill="#3FC2E0"/>
<circle cx="175.081" cy="262.079" r="7.95429" fill="#1D1E1D"/>
<path d="M108.795 262.077C108.795 226.201 137.285 197.117 172.429 197.117" stroke="white" stroke-width="2.65143"/>
<path d="M98.1895 262.081C98.1895 220.348 131.428 186.516 172.429 186.516" stroke="white" stroke-width="6.62857"/>
<path d="M202.618 79.0822L317.545 174.355L233.705 225.092L202.618 79.0822Z" fill="white"/>
<mask id="mask0_40_529" style="mask-type:alpha" maskUnits="userSpaceOnUse" x="214" y="80" width="116" height="147">
<path d="M214.423 80.0431L329.35 175.316L245.509 226.053L214.423 80.0431Z" fill="white"/>
</mask>
<g mask="url(#mask0_40_529)">
<rect x="225.637" y="104.375" width="34.8177" height="6.96353" transform="rotate(-39.0423 225.637 104.375)" fill="#1D1E1D"/>
<rect x="209.908" y="121.148" width="34.8177" height="6.96353" transform="rotate(-20.8751 209.908 121.148)" fill="#1D1E1D"/>
<rect x="245.824" y="99.9922" width="34.8177" height="6.96353" transform="rotate(43.4961 245.824 99.9922)" fill="#1D1E1D"/>
<rect x="237.092" y="121.945" width="20.2559" height="6.96353" transform="rotate(16.4702 237.092 121.945)" fill="#1D1E1D"/>
<rect x="262.662" y="157.266" width="20.2559" height="6.96353" transform="rotate(69.979 262.662 157.266)" fill="#1D1E1D"/>
<rect x="314.127" y="154.18" width="20.2559" height="6.96353" transform="rotate(69.979 314.127 154.18)" fill="#1D1E1D"/>
<rect x="298.832" y="142.773" width="20.2559" height="6.96353" transform="rotate(141.585 298.832 142.773)" fill="#1D1E1D"/>
<rect x="298.434" y="194.508" width="30.8827" height="6.96353" transform="rotate(-165.68 298.434 194.508)" fill="#1D1E1D"/>
<rect x="290.645" y="222.969" width="30.8827" height="6.96353" transform="rotate(-122.223 290.645 222.969)" fill="#1D1E1D"/>
<rect x="270.031" y="215.875" width="16.6297" height="6.96353" transform="rotate(-122.223 270.031 215.875)" fill="#1D1E1D"/>
<rect x="277.221" y="226.812" width="30.8827" height="6.96353" transform="rotate(-165.68 277.221 226.812)" fill="#1D1E1D"/>
<rect x="308.857" y="196.812" width="30.8827" height="6.96353" transform="rotate(-112.883 308.857 196.812)" fill="#1D1E1D"/>
<rect x="227.205" y="127.586" width="31.4824" height="6.96353" transform="rotate(61.714 227.205 127.586)" fill="#1D1E1D"/>
<rect x="212.086" y="83.0469" width="31.4824" height="6.96353" transform="rotate(61.714 212.086 83.0469)" fill="#1D1E1D"/>
<rect x="229.352" y="62.0547" width="31.4824" height="6.96353" transform="rotate(87.6144 229.352 62.0547)" fill="#1D1E1D"/>
<rect x="250.754" y="137.734" width="31.4824" height="6.96353" transform="rotate(87.6144 250.754 137.734)" fill="#1D1E1D"/>
<rect x="264.979" y="133.68" width="31.4824" height="6.96353" transform="rotate(65.0133 264.979 133.68)" fill="#1D1E1D"/>
<rect x="235.387" y="163.586" width="31.4824" height="6.96353" transform="rotate(65.0133 235.387 163.586)" fill="#1D1E1D"/>
<rect x="265.568" y="192.531" width="31.4824" height="6.96353" transform="rotate(137.058 265.568 192.531)" fill="#1D1E1D"/>
<rect x="299.387" y="119.992" width="31.4824" height="6.96353" transform="rotate(137.058 299.387 119.992)" fill="#1D1E1D"/>
<rect x="302.041" y="156.25" width="31.4824" height="6.96353" transform="rotate(137.058 302.041 156.25)" fill="#1D1E1D"/>
</g>
<path d="M97.2305 471.721L129.817 452.908L129.817 490.535L97.2305 471.721Z" fill="#1D1E1D"/>
<path d="M65.6172 471.721L98.2033 452.908L98.2033 490.535L65.6172 471.721Z" fill="#1D1E1D"/>
<path d="M34 471.721L66.5861 452.908L66.5862 490.535L34 471.721Z" fill="#1D1E1D"/>
<path d="M290.902 378.997C304.551 395.262 302.429 419.512 286.164 433.161C269.898 446.809 245.648 444.687 232 428.422" stroke="white" stroke-width="13.2571"/>
<path d="M300.1 379.114C313.748 395.38 311.626 419.629 295.361 433.278C279.095 446.926 254.846 444.804 241.197 428.539" stroke="#1D1E1D" stroke-width="13.2571"/>
<path d="M64.6183 69.0929L60.2845 49.0888L78.8264 41.682L75.0973 20.5114L93.6391 13.1046L90.2123 -8.64916" stroke="white" stroke-width="8.31568"/>
<path d="M68.2198 70.9445L63.8861 50.9404L82.428 43.5335L78.6988 22.363L97.2407 14.9561L93.8139 -6.7976" stroke="#1D1E1D" stroke-width="8.31568"/>
<path d="M-14.5991 80.7138L-10.0217 60.764L9.91033 61.9382L15.5307 41.1895L35.4627 42.3637L41.6045 21.2155" stroke="white" stroke-width="8.31568"/>
<path d="M-12.1323 83.9325L-7.55488 63.9828L12.3771 65.157L17.9975 44.4082L37.9295 45.5824L44.0713 24.4342" stroke="#1D1E1D" stroke-width="8.31568"/>
</g>
<defs>
<clipPath id="clip0_40_529">
<rect width="358" height="535" fill="white"/>
</clipPath>
</defs>
</svg>
