<svg width="358" height="464" viewBox="0 0 358 464" fill="none" xmlns="http://www.w3.org/2000/svg">
<g clip-path="url(#clip0_40_529)">
<rect x="6.62857" y="6.62857" width="344.686" height="450.743" rx="13.2571" fill="#3FC2E0" stroke="#1D1E1D" stroke-width="13.2571"/>
<circle cx="186.262" cy="240.618" r="102.743" fill="white"/>
<circle cx="179.633" cy="232.665" r="102.743" fill="#1D1E1D"/>
<circle cx="178.972" cy="232.001" r="42.4229" fill="#3FC2E0"/>
<circle cx="178.972" cy="232.001" r="7.95429" fill="#1D1E1D"/>
<path d="M112.686 231.999C112.686 196.123 141.176 167.039 176.32 167.039" stroke="white" stroke-width="2.65143"/>
<path d="M102.08 232.003C102.08 190.269 135.318 156.438 176.32 156.438" stroke="white" stroke-width="6.62857"/>
<path d="M210.177 44.1369L325.104 139.41L241.263 190.146L210.177 44.1369Z" fill="white"/>
<mask id="mask0_40_529" style="mask-type:alpha" maskUnits="userSpaceOnUse" x="221" y="45" width="116" height="147">
<path d="M221.982 45.0978L336.909 140.371L253.068 191.107L221.982 45.0978Z" fill="white"/>
</mask>
<g mask="url(#mask0_40_529)">
<rect x="233.195" y="69.4297" width="34.8177" height="6.96353" transform="rotate(-39.0423 233.195 69.4297)" fill="#1D1E1D"/>
<rect x="217.467" y="86.2031" width="34.8177" height="6.96353" transform="rotate(-20.8751 217.467 86.2031)" fill="#1D1E1D"/>
<rect x="253.383" y="65.0469" width="34.8177" height="6.96353" transform="rotate(43.4961 253.383 65.0469)" fill="#1D1E1D"/>
<rect x="244.65" y="87" width="20.2559" height="6.96353" transform="rotate(16.4702 244.65 87)" fill="#1D1E1D"/>
<rect x="270.221" y="122.32" width="20.2559" height="6.96353" transform="rotate(69.979 270.221 122.32)" fill="#1D1E1D"/>
<rect x="321.686" y="119.234" width="20.2559" height="6.96353" transform="rotate(69.979 321.686 119.234)" fill="#1D1E1D"/>
<rect x="306.391" y="107.828" width="20.2559" height="6.96353" transform="rotate(141.585 306.391 107.828)" fill="#1D1E1D"/>
<rect x="305.992" y="159.562" width="30.8827" height="6.96353" transform="rotate(-165.68 305.992 159.562)" fill="#1D1E1D"/>
<rect x="298.203" y="188.023" width="30.8827" height="6.96353" transform="rotate(-122.223 298.203 188.023)" fill="#1D1E1D"/>
<rect x="277.59" y="180.93" width="16.6297" height="6.96353" transform="rotate(-122.223 277.59 180.93)" fill="#1D1E1D"/>
<rect x="284.779" y="191.867" width="30.8827" height="6.96353" transform="rotate(-165.68 284.779 191.867)" fill="#1D1E1D"/>
<rect x="316.416" y="161.867" width="30.8827" height="6.96353" transform="rotate(-112.883 316.416 161.867)" fill="#1D1E1D"/>
<rect x="234.764" y="92.6406" width="31.4824" height="6.96353" transform="rotate(61.714 234.764 92.6406)" fill="#1D1E1D"/>
<rect x="219.645" y="48.1016" width="31.4824" height="6.96353" transform="rotate(61.714 219.645 48.1016)" fill="#1D1E1D"/>
<rect x="236.91" y="27.1094" width="31.4824" height="6.96353" transform="rotate(87.6144 236.91 27.1094)" fill="#1D1E1D"/>
<rect x="258.312" y="102.789" width="31.4824" height="6.96353" transform="rotate(87.6144 258.312 102.789)" fill="#1D1E1D"/>
<rect x="272.537" y="98.7344" width="31.4824" height="6.96353" transform="rotate(65.0133 272.537 98.7344)" fill="#1D1E1D"/>
<rect x="242.945" y="128.641" width="31.4824" height="6.96353" transform="rotate(65.0133 242.945 128.641)" fill="#1D1E1D"/>
<rect x="273.127" y="157.586" width="31.4824" height="6.96353" transform="rotate(137.058 273.127 157.586)" fill="#1D1E1D"/>
<rect x="306.945" y="85.0469" width="31.4824" height="6.96353" transform="rotate(137.058 306.945 85.0469)" fill="#1D1E1D"/>
<rect x="309.6" y="121.305" width="31.4824" height="6.96353" transform="rotate(137.058 309.6 121.305)" fill="#1D1E1D"/>
</g>
<path d="M93.7207 414.127L126.307 395.314L126.307 432.941L93.7207 414.127Z" fill="#1D1E1D"/>
<path d="M62.1074 414.127L94.6936 395.314L94.6936 432.941L62.1074 414.127Z" fill="#1D1E1D"/>
<path d="M30.4902 414.127L63.0764 395.314L63.0764 432.941L30.4902 414.127Z" fill="#1D1E1D"/>
<path d="M299.555 357.505C313.203 373.77 311.081 398.02 294.816 411.668C278.55 425.317 254.301 423.195 240.652 406.93" stroke="white" stroke-width="13.2571"/>
<path d="M308.752 357.622C322.4 373.887 320.279 398.137 304.013 411.786C287.748 425.434 263.498 423.312 249.85 407.047" stroke="#1D1E1D" stroke-width="13.2571"/>
<path d="M64.6183 69.0929L60.2845 49.0888L78.8264 41.682L75.0973 20.5114L93.6391 13.1046L90.2123 -8.64916" stroke="white" stroke-width="8.31568"/>
<path d="M68.2198 70.9445L63.8861 50.9404L82.428 43.5335L78.6988 22.363L97.2407 14.9561L93.8139 -6.7976" stroke="#1D1E1D" stroke-width="8.31568"/>
<path d="M-14.5991 80.7138L-10.0217 60.764L9.91033 61.9382L15.5307 41.1895L35.4627 42.3637L41.6045 21.2155" stroke="white" stroke-width="8.31568"/>
<path d="M-12.1323 83.9325L-7.55488 63.9828L12.3771 65.157L17.9975 44.4082L37.9295 45.5824L44.0713 24.4342" stroke="#1D1E1D" stroke-width="8.31568"/>
</g>
<defs>
<clipPath id="clip0_40_529">
<rect width="357.943" height="464" fill="white"/>
</clipPath>
</defs>
</svg>
