<svg width="358" height="535" viewBox="0 0 358 535" fill="none" xmlns="http://www.w3.org/2000/svg">
<g clip-path="url(#clip0_40_531)">
<rect x="6.62857" y="6.62857" width="344.743" height="521.743" rx="13.2571" fill="#54E5C4" stroke="#1D1E1D" stroke-width="13.2571"/>
<rect x="53.0293" y="203.305" width="265.143" height="132.571" fill="white"/>
<rect x="46.4004" y="198" width="265.143" height="132.571" fill="#1D1E1D"/>
<rect x="57.0059" y="234.062" width="243.148" height="61.8412" fill="#54E5C4"/>
<rect x="127.122" y="236.714" width="102.919" height="56.5384" fill="#1D1E1D" stroke="#54E5C4" stroke-width="5.30286"/>
<rect x="136.549" y="251.031" width="86.1714" height="3.97714" fill="white"/>
<rect x="136.549" y="262.961" width="86.1714" height="3.97714" fill="white"/>
<rect x="136.549" y="274.891" width="86.1714" height="3.97714" fill="white"/>
<path fill-rule="evenodd" clip-rule="evenodd" d="M124.489 322.746V205.953C92.5833 206.358 66.8438 232.348 66.8438 264.35C66.8438 296.351 92.5833 322.341 124.489 322.746Z" fill="#1D1E1D"/>
<path d="M116.036 284.65C105.169 284.65 96.3594 275.841 96.3594 264.974C96.3594 254.106 105.169 245.297 116.036 245.297" stroke="#3D3D3D" stroke-width="22.4877"/>
<path fill-rule="evenodd" clip-rule="evenodd" d="M232.689 322.746V205.953C264.594 206.358 290.334 232.348 290.334 264.35C290.334 296.351 264.594 322.341 232.689 322.746Z" fill="#1D1E1D"/>
<path d="M241.142 284.65C252.009 284.65 260.818 275.841 260.818 264.974C260.818 254.106 252.009 245.297 241.142 245.297" stroke="#3D3D3D" stroke-width="22.4877"/>
<path d="M72.824 56.8984C72.824 56.8984 52.8558 96.2792 72.8239 101.973C96.2629 108.656 104.028 60.7576 126.516 70.1556C146.563 78.5334 106.761 143.468 149.714 121.196" stroke="#1D1E1D" stroke-width="9.28"/>
<path d="M72.4177 39C72.4177 39 52.4496 78.3807 72.4176 84.0743C95.8566 90.7575 103.621 42.8592 126.11 52.2571C146.157 60.635 106.355 125.569 149.308 103.297" stroke="white" stroke-width="9.28"/>
<path d="M296.557 412.721L329.143 393.908L329.143 431.535L296.557 412.721Z" fill="#1D1E1D"/>
<path d="M264.943 412.721L297.53 393.908L297.53 431.535L264.943 412.721Z" fill="#1D1E1D"/>
<path d="M233.326 412.721L265.912 393.908L265.912 431.535L233.326 412.721Z" fill="#1D1E1D"/>
<path d="M31.9022 412.997C45.5505 429.262 43.429 453.512 27.1636 467.161C10.8981 480.809 -13.3517 478.687 -27 462.422" stroke="white" stroke-width="13.2571"/>
<path d="M39.7733 414.442C53.4216 430.708 51.3001 454.958 35.0346 468.606C18.7692 482.254 -5.48061 480.133 -19.1289 463.867" stroke="#1D1E1D" stroke-width="13.2571"/>
</g>
<defs>
<clipPath id="clip0_40_531">
<rect width="358" height="535" fill="white"/>
</clipPath>
</defs>
</svg>
