<svg width="359" height="464" viewBox="0 0 359 464" fill="none" xmlns="http://www.w3.org/2000/svg">
<g clip-path="url(#clip0_40_531)">
<rect x="7.0856" y="6.62857" width="344.686" height="450.743" rx="13.2571" fill="#54E5C4" stroke="#1D1E1D" stroke-width="13.2571"/>
<rect x="53.4863" y="171.023" width="265.143" height="132.571" fill="white"/>
<rect x="46.8574" y="165.719" width="265.143" height="132.571" fill="#1D1E1D"/>
<rect x="57.4629" y="201.781" width="243.148" height="61.8412" fill="#54E5C4"/>
<rect x="127.579" y="204.433" width="102.919" height="56.5384" fill="#1D1E1D" stroke="#54E5C4" stroke-width="5.30286"/>
<rect x="137.006" y="218.75" width="86.1714" height="3.97714" fill="white"/>
<rect x="137.006" y="230.68" width="86.1714" height="3.97714" fill="white"/>
<rect x="137.006" y="242.609" width="86.1714" height="3.97714" fill="white"/>
<path fill-rule="evenodd" clip-rule="evenodd" d="M124.946 290.465V173.672C93.0403 174.077 67.3008 200.067 67.3008 232.068C67.3008 264.07 93.0403 290.06 124.946 290.465Z" fill="#1D1E1D"/>
<path d="M116.493 252.369C105.626 252.369 96.8164 243.56 96.8164 232.692C96.8164 221.825 105.626 213.016 116.493 213.016" stroke="#3D3D3D" stroke-width="22.4877"/>
<path fill-rule="evenodd" clip-rule="evenodd" d="M233.146 290.465V173.672C265.051 174.077 290.791 200.067 290.791 232.068C290.791 264.07 265.051 290.06 233.146 290.465Z" fill="#1D1E1D"/>
<path d="M241.599 252.369C252.466 252.369 261.275 243.56 261.275 232.692C261.275 221.825 252.466 213.016 241.599 213.016" stroke="#3D3D3D" stroke-width="22.4877"/>
<path d="M73.281 56.8984C73.281 56.8984 53.3129 96.2792 73.2809 101.973C96.7199 108.656 104.485 60.7576 126.973 70.1556C147.02 78.5334 107.218 143.468 150.171 121.196" stroke="#1D1E1D" stroke-width="9.28"/>
<path d="M72.8748 39C72.8748 39 52.9066 78.3807 72.8747 84.0743C96.3137 90.7575 104.078 42.8592 126.567 52.2571C146.614 60.635 106.812 125.569 149.765 103.297" stroke="white" stroke-width="9.28"/>
<path d="M297.014 377.018L329.6 358.204L329.6 395.832L297.014 377.018Z" fill="#1D1E1D"/>
<path d="M265.4 377.018L297.987 358.204L297.987 395.832L265.4 377.018Z" fill="#1D1E1D"/>
<path d="M233.783 377.018L266.369 358.204L266.369 395.832L233.783 377.018Z" fill="#1D1E1D"/>
<path d="M34.1698 365.895C47.8181 382.161 45.6965 406.411 29.4311 420.059C13.1657 433.707 -11.0841 431.586 -24.7324 415.32" stroke="white" stroke-width="13.2571"/>
<path d="M42.0409 367.341C55.6892 383.606 53.5676 407.856 37.3022 421.504C21.0368 435.153 -3.21303 433.031 -16.8613 416.766" stroke="#1D1E1D" stroke-width="13.2571"/>
</g>
<defs>
<clipPath id="clip0_40_531">
<rect width="357.943" height="464" fill="white" transform="translate(0.457031)"/>
</clipPath>
</defs>
</svg>
