<svg width="407" height="588" viewBox="0 0 407 588" fill="none" xmlns="http://www.w3.org/2000/svg">
<rect x="256.277" y="340.703" width="150.345" height="194.891" rx="8.35249" fill="#1D1E1D"/>
<rect x="249" y="333.992" width="144.345" height="188.891" rx="5.35249" fill="white" stroke="#1D1E1D" stroke-width="6"/>
<path d="M293.833 400.502L289.972 400.651L289.389 405.74L294.143 405.579C294.358 405.587 294.466 405.695 294.466 405.901L294.143 408.471C294.126 408.645 294.019 408.752 293.82 408.794L286.187 409.042C286.005 409.042 285.914 408.963 285.914 408.806L288.061 390.026C288.094 389.852 288.202 389.757 288.384 389.741L295.186 389.505C295.392 389.53 295.496 389.641 295.496 389.84L295.186 392.409C295.161 392.616 295.053 392.728 294.863 392.744L290.866 392.856L290.332 397.473L294.155 397.337C294.371 397.345 294.478 397.453 294.478 397.66L294.155 400.192C294.122 400.382 294.015 400.486 293.833 400.502ZM301.578 404.933L304.42 394.37C304.47 394.18 304.582 394.081 304.756 394.072L307.362 393.986C307.569 394.002 307.672 394.11 307.672 394.308L302.621 408.62C302.546 408.827 302.439 408.938 302.298 408.955L299.753 409.042C299.596 409.034 299.505 408.955 299.48 408.806L297.544 394.37C297.569 394.18 297.672 394.081 297.854 394.072L300.3 393.986C300.49 393.994 300.593 394.101 300.61 394.308L301.578 404.933ZM309.435 406.671C309.245 406.175 309.112 405.686 309.038 405.206C308.972 404.718 308.939 404.052 308.939 403.208C308.939 402.364 309.03 401.321 309.212 400.08C309.816 395.943 311.694 393.874 314.847 393.874C316.063 393.874 316.994 394.292 317.64 395.128C318.285 395.963 318.608 397.047 318.608 398.38C318.608 399.712 318.525 401.007 318.36 402.265C318.335 402.488 318.206 402.604 317.975 402.612L311.843 402.823C311.835 402.947 311.831 403.113 311.831 403.32C311.831 404.255 311.992 404.995 312.315 405.542C312.646 406.088 313.142 406.361 313.804 406.361C314.466 406.361 315.079 406.266 315.641 406.075C316.212 405.877 316.547 405.777 316.647 405.777C316.746 405.777 316.833 405.81 316.907 405.877C316.982 405.943 317.019 406.034 317.019 406.15L316.771 408.334C316.763 408.458 316.738 408.541 316.696 408.583C316.663 408.616 316.593 408.653 316.485 408.694C315.484 408.984 314.52 409.129 313.593 409.129C312.666 409.129 311.946 409.017 311.433 408.794C310.92 408.57 310.507 408.285 310.192 407.937C309.886 407.581 309.634 407.159 309.435 406.671ZM312.141 399.708L312.029 400.502L315.269 400.341C315.41 400.332 315.501 400.308 315.542 400.266C315.666 400.142 315.728 399.803 315.728 399.248C315.728 398.686 315.707 398.293 315.666 398.069C315.633 397.838 315.571 397.602 315.48 397.362C315.29 396.832 314.963 396.567 314.499 396.567C314.044 396.567 313.684 396.646 313.419 396.803C312.832 397.167 312.406 398.135 312.141 399.708ZM325.708 394.308L325.571 395.45C326.763 394.399 327.905 393.874 328.997 393.874C330.387 393.874 331.264 394.635 331.628 396.158C331.728 396.571 331.777 396.965 331.777 397.337C331.777 397.701 331.765 397.995 331.74 398.218L330.549 408.62C330.515 408.827 330.412 408.938 330.238 408.955L327.731 409.042C327.549 409.025 327.458 408.947 327.458 408.806L328.587 398.975C328.612 398.76 328.625 398.566 328.625 398.392C328.625 397.713 328.463 397.254 328.141 397.014C327.826 396.766 327.425 396.642 326.937 396.642C326.448 396.642 325.939 396.745 325.41 396.952L324.082 408.62C324.049 408.827 323.945 408.938 323.771 408.955L321.264 409.042C321.082 409.025 320.991 408.947 320.991 408.806L322.629 394.37C322.663 394.188 322.766 394.089 322.94 394.072L325.373 393.986C325.596 393.994 325.708 394.101 325.708 394.308ZM336.209 394.035C336.399 392.215 336.523 391.276 336.581 391.218C336.639 391.151 336.726 391.114 336.842 391.106L339.212 391.019C339.436 391.036 339.548 391.139 339.548 391.329C339.39 392.248 339.258 393.129 339.15 393.973L342.042 393.874C342.241 393.882 342.34 393.99 342.34 394.197L341.993 396.17C341.96 396.369 341.856 396.472 341.683 396.48L338.84 396.592C338.277 401.656 337.996 404.449 337.996 404.971C337.996 405.939 338.41 406.423 339.237 406.423C339.659 406.423 340.069 406.357 340.466 406.224C340.863 406.092 341.112 406.026 341.211 406.026C341.385 406.026 341.471 406.133 341.471 406.348L341.211 408.521C341.194 408.645 341.161 408.736 341.112 408.794C341.07 408.852 340.867 408.922 340.503 409.005C340.148 409.087 339.535 409.129 338.666 409.129C337.392 409.129 336.449 408.835 335.836 408.247C335.224 407.652 334.918 406.766 334.918 405.591C334.918 404.416 335.245 401.429 335.898 396.629L334.682 396.679C334.475 396.671 334.372 396.567 334.372 396.369L334.707 394.37C334.732 394.18 334.839 394.081 335.029 394.072L336.209 394.035ZM356.751 408.434C356.735 408.533 356.706 408.603 356.664 408.645C356.623 408.686 356.217 408.777 355.448 408.918C354.678 409.058 353.9 409.129 353.114 409.129C351.823 409.129 350.835 408.711 350.148 407.875C349.461 407.039 349.118 405.901 349.118 404.462C349.118 401.905 349.424 398.934 350.036 395.55C350.359 393.729 350.756 392.451 351.228 391.714C351.724 390.945 352.32 390.407 353.015 390.1C353.884 389.72 354.811 389.53 355.795 389.53C356.788 389.53 357.45 389.558 357.781 389.616C358.121 389.666 358.311 389.695 358.352 389.703C358.46 389.736 358.514 389.84 358.514 390.014L358.228 392.322C358.195 392.537 358.112 392.645 357.98 392.645C357.848 392.645 357.541 392.612 357.061 392.546C356.582 392.471 356.193 392.434 355.895 392.434C355.1 392.434 354.496 392.637 354.083 393.042C353.669 393.439 353.358 394.209 353.152 395.351C352.953 396.485 352.759 398.011 352.568 399.931C352.378 401.843 352.283 403.307 352.283 404.325C352.283 405.525 352.812 406.125 353.872 406.125C354.178 406.125 354.711 406.075 355.473 405.976C356.234 405.868 356.668 405.815 356.776 405.815C356.95 405.815 357.037 405.918 357.037 406.125L356.751 408.434ZM295.397 478.292C293.998 478.292 292.935 477.887 292.207 477.076C291.487 476.273 291.127 475.102 291.127 473.563C291.127 472.032 291.305 469.599 291.66 466.265C292.016 462.93 292.339 460.431 292.629 458.768C292.918 457.104 293.125 456.02 293.249 455.516C293.382 455.011 293.589 454.46 293.87 453.865C294.151 453.261 294.491 452.801 294.888 452.487C295.823 451.734 297.134 451.357 298.822 451.357C298.963 451.357 299.058 451.382 299.108 451.432C299.166 451.481 299.195 451.581 299.195 451.73L298.922 453.902C298.897 454.109 298.806 454.212 298.649 454.212C297.838 454.212 297.213 454.44 296.774 454.895C296.344 455.35 295.997 456.339 295.732 457.861C295.475 459.384 295.148 461.813 294.751 465.148C294.354 468.474 294.155 471.213 294.155 473.365C294.155 474.697 294.681 475.363 295.732 475.363C295.906 475.363 295.992 475.466 295.992 475.673L295.707 477.97C295.682 478.185 295.579 478.292 295.397 478.292ZM304.917 458.035C304.917 456.802 304.425 456.186 303.44 456.186C303.142 456.186 302.637 456.244 301.926 456.36C301.214 456.467 300.808 456.521 300.709 456.521C300.527 456.521 300.436 456.409 300.436 456.186L300.734 453.852C300.742 453.745 300.767 453.67 300.808 453.629C300.85 453.587 301.007 453.534 301.28 453.467C301.553 453.393 302.004 453.319 302.633 453.244C303.27 453.17 303.8 453.132 304.222 453.132C305.397 453.132 306.336 453.521 307.039 454.299C307.743 455.077 308.095 456.066 308.095 457.266C308.095 458.466 307.846 459.62 307.35 460.729C306.853 461.829 306.187 462.984 305.351 464.192C304.524 465.392 303.878 466.401 303.415 467.22C302.96 468.04 302.637 468.855 302.447 469.666L306.903 469.479C307.102 469.488 307.201 469.599 307.201 469.815L306.903 472.434C306.886 472.632 306.775 472.744 306.568 472.769L299.356 473.042C299.149 473.025 299.046 472.914 299.046 472.707V472.061C299.046 470.53 299.389 469 300.076 467.469C300.697 466.087 301.499 464.639 302.484 463.124C303.469 461.61 304.118 460.518 304.433 459.847C304.756 459.169 304.917 458.565 304.917 458.035ZM314.599 473.178C312.124 473.178 310.887 471.59 310.887 468.412C310.887 467.609 310.962 466.356 311.111 464.651C311.26 462.946 311.446 461.465 311.669 460.207C311.901 458.95 312.054 458.13 312.129 457.75C312.211 457.369 312.323 456.943 312.464 456.471C312.613 456 312.766 455.615 312.923 455.317C313.08 455.019 313.283 454.713 313.531 454.398C313.779 454.084 314.057 453.836 314.363 453.654C315.05 453.256 315.885 453.058 316.87 453.058C319.328 453.058 320.557 454.68 320.557 457.924C320.557 458.734 320.482 459.984 320.333 461.672C320.184 463.36 320.002 464.825 319.787 466.066C319.572 467.299 319.423 468.11 319.34 468.499C319.257 468.88 319.146 469.306 319.005 469.777C318.864 470.241 318.711 470.626 318.546 470.932C318.389 471.23 318.186 471.536 317.938 471.85C317.689 472.156 317.412 472.396 317.106 472.57C316.419 472.976 315.583 473.178 314.599 473.178ZM314.934 459.09C314.743 460.191 314.549 461.742 314.35 463.745C314.16 465.739 314.065 467.311 314.065 468.462C314.065 469.612 314.367 470.187 314.971 470.187C315.327 470.187 315.625 469.959 315.865 469.504C316.105 469.049 316.32 468.275 316.51 467.183C316.709 466.083 316.903 464.531 317.094 462.529C317.292 460.526 317.391 458.945 317.391 457.787C317.391 456.628 317.089 456.049 316.485 456.049C316.138 456.049 315.84 456.281 315.592 456.744C315.352 457.199 315.132 457.981 314.934 459.09ZM326.353 453.343L330.251 453.207C330.408 453.207 330.487 453.314 330.487 453.53L328.637 469.852L330.71 469.765C330.909 469.773 331.008 469.877 331.008 470.075L330.71 472.458C330.685 472.674 330.582 472.785 330.4 472.794L323.25 473.042C323.043 473.034 322.94 472.934 322.94 472.744L323.225 470.348C323.25 470.141 323.358 470.038 323.548 470.038L325.497 469.964L327.011 456.595L325.087 456.657C324.88 456.649 324.777 456.554 324.777 456.372C324.777 456.264 324.938 455.834 325.261 455.081C325.584 454.328 325.799 453.856 325.906 453.666C326.014 453.467 326.163 453.36 326.353 453.343ZM338.319 453.343L342.216 453.207C342.373 453.207 342.452 453.314 342.452 453.53L340.603 469.852L342.675 469.765C342.874 469.773 342.973 469.877 342.973 470.075L342.675 472.458C342.651 472.674 342.547 472.785 342.365 472.794L335.216 473.042C335.009 473.034 334.905 472.934 334.905 472.744L335.191 470.348C335.216 470.141 335.323 470.038 335.514 470.038L337.462 469.964L338.977 456.595L337.053 456.657C336.846 456.649 336.742 456.554 336.742 456.372C336.742 456.264 336.904 455.834 337.226 455.081C337.549 454.328 337.764 453.856 337.872 453.666C337.979 453.467 338.128 453.36 338.319 453.343ZM347.963 451.357C349.362 451.357 350.421 451.763 351.141 452.574C351.869 453.376 352.233 454.547 352.233 456.086C352.233 457.617 352.055 460.05 351.699 463.385C351.344 466.72 351.021 469.219 350.731 470.882C350.442 472.545 350.231 473.629 350.098 474.134C349.974 474.639 349.771 475.189 349.49 475.785C349.209 476.389 348.873 476.848 348.485 477.163C347.541 477.916 346.225 478.292 344.537 478.292C344.397 478.292 344.302 478.267 344.252 478.218C344.194 478.168 344.165 478.069 344.165 477.92L344.438 475.748C344.463 475.541 344.554 475.437 344.711 475.437C345.522 475.437 346.143 475.21 346.573 474.755C347.012 474.3 347.359 473.311 347.616 471.788C347.88 470.266 348.211 467.841 348.609 464.515C349.006 461.18 349.204 458.437 349.204 456.285C349.204 454.953 348.679 454.287 347.628 454.287C347.454 454.287 347.367 454.183 347.367 453.976L347.653 451.68C347.678 451.465 347.781 451.357 347.963 451.357Z" fill="#1D1E1D"/>
<rect x="256.277" y="61.7109" width="150.345" height="194.891" rx="8.35249" fill="#1D1E1D"/>
<rect x="249" y="55" width="144.345" height="188.891" rx="5.35249" fill="white" stroke="#1D1E1D" stroke-width="6"/>
<path d="M293.274 121.51L289.414 121.659L288.83 126.748L293.584 126.587C293.8 126.595 293.907 126.702 293.907 126.909L293.584 129.479C293.568 129.652 293.46 129.76 293.262 129.801L285.628 130.05C285.446 130.05 285.355 129.971 285.355 129.814L287.502 111.034C287.535 110.86 287.643 110.765 287.825 110.748L294.627 110.513C294.834 110.537 294.937 110.649 294.937 110.848L294.627 113.417C294.602 113.624 294.495 113.736 294.304 113.752L290.308 113.864L289.774 118.481L293.597 118.345C293.812 118.353 293.92 118.461 293.92 118.667L293.597 121.2C293.564 121.39 293.456 121.493 293.274 121.51ZM301.019 125.941L303.862 115.378C303.912 115.188 304.023 115.089 304.197 115.08L306.804 114.993C307.01 115.01 307.114 115.118 307.114 115.316L302.062 129.628C301.988 129.835 301.88 129.946 301.739 129.963L299.195 130.05C299.038 130.041 298.947 129.963 298.922 129.814L296.985 115.378C297.01 115.188 297.114 115.089 297.296 115.08L299.741 114.993C299.931 115.002 300.035 115.109 300.051 115.316L301.019 125.941ZM308.876 127.679C308.686 127.182 308.554 126.694 308.479 126.214C308.413 125.726 308.38 125.06 308.38 124.216C308.38 123.372 308.471 122.329 308.653 121.088C309.257 116.95 311.136 114.882 314.288 114.882C315.505 114.882 316.436 115.3 317.081 116.135C317.727 116.971 318.049 118.055 318.049 119.387C318.049 120.72 317.967 122.015 317.801 123.272C317.776 123.496 317.648 123.612 317.416 123.62L311.284 123.831C311.276 123.955 311.272 124.121 311.272 124.328C311.272 125.263 311.433 126.003 311.756 126.549C312.087 127.095 312.584 127.369 313.246 127.369C313.908 127.369 314.52 127.273 315.083 127.083C315.654 126.884 315.989 126.785 316.088 126.785C316.187 126.785 316.274 126.818 316.349 126.884C316.423 126.951 316.46 127.042 316.46 127.158L316.212 129.342C316.204 129.466 316.179 129.549 316.138 129.59C316.105 129.623 316.034 129.661 315.927 129.702C314.925 129.992 313.961 130.137 313.035 130.137C312.108 130.137 311.388 130.025 310.875 129.801C310.362 129.578 309.948 129.292 309.634 128.945C309.327 128.589 309.075 128.167 308.876 127.679ZM311.582 120.716L311.471 121.51L314.71 121.349C314.851 121.34 314.942 121.315 314.983 121.274C315.108 121.15 315.17 120.811 315.17 120.256C315.17 119.694 315.149 119.3 315.108 119.077C315.074 118.845 315.012 118.61 314.921 118.37C314.731 117.84 314.404 117.575 313.941 117.575C313.486 117.575 313.126 117.654 312.861 117.811C312.273 118.175 311.847 119.143 311.582 120.716ZM325.149 115.316L325.013 116.458C326.204 115.407 327.346 114.882 328.438 114.882C329.829 114.882 330.706 115.643 331.07 117.166C331.169 117.579 331.219 117.972 331.219 118.345C331.219 118.709 331.206 119.003 331.182 119.226L329.99 129.628C329.957 129.835 329.853 129.946 329.68 129.963L327.172 130.05C326.99 130.033 326.899 129.954 326.899 129.814L328.029 119.983C328.054 119.768 328.066 119.574 328.066 119.4C328.066 118.721 327.905 118.262 327.582 118.022C327.268 117.774 326.866 117.65 326.378 117.65C325.89 117.65 325.381 117.753 324.851 117.96L323.523 129.628C323.49 129.835 323.387 129.946 323.213 129.963L320.706 130.05C320.523 130.033 320.432 129.954 320.432 129.814L322.071 115.378C322.104 115.196 322.207 115.097 322.381 115.08L324.814 114.993C325.037 115.002 325.149 115.109 325.149 115.316ZM335.65 115.043C335.84 113.223 335.965 112.283 336.022 112.225C336.08 112.159 336.167 112.122 336.283 112.114L338.654 112.027C338.877 112.043 338.989 112.147 338.989 112.337C338.832 113.256 338.699 114.137 338.592 114.981L341.484 114.882C341.683 114.89 341.782 114.998 341.782 115.204L341.434 117.178C341.401 117.377 341.298 117.48 341.124 117.488L338.282 117.6C337.719 122.664 337.437 125.457 337.437 125.978C337.437 126.947 337.851 127.431 338.679 127.431C339.101 127.431 339.51 127.364 339.908 127.232C340.305 127.1 340.553 127.033 340.652 127.033C340.826 127.033 340.913 127.141 340.913 127.356L340.652 129.528C340.636 129.652 340.603 129.743 340.553 129.801C340.512 129.859 340.309 129.93 339.945 130.012C339.589 130.095 338.977 130.137 338.108 130.137C336.833 130.137 335.89 129.843 335.278 129.255C334.665 128.659 334.359 127.774 334.359 126.599C334.359 125.424 334.686 122.437 335.34 117.637L334.123 117.687C333.916 117.679 333.813 117.575 333.813 117.377L334.148 115.378C334.173 115.188 334.281 115.089 334.471 115.08L335.65 115.043ZM356.006 110.947L357.459 129.64C357.459 129.83 357.351 129.934 357.136 129.95L354.542 130.05C354.368 130.05 354.281 129.971 354.281 129.814L354.095 125.718L351.277 125.829L350.346 129.652C350.322 129.768 350.288 129.847 350.247 129.888C350.206 129.93 350.131 129.954 350.024 129.963L347.454 130.05C347.289 130.05 347.206 129.971 347.206 129.814L352.655 111.034C352.713 110.852 352.825 110.757 352.99 110.748L355.721 110.649C355.895 110.657 355.99 110.757 356.006 110.947ZM353.66 116.061L351.923 123.186L353.983 123.111L353.66 116.061ZM295.397 199.3C293.998 199.3 292.935 198.895 292.207 198.084C291.487 197.281 291.127 196.11 291.127 194.571C291.127 193.04 291.305 190.607 291.66 187.272C292.016 183.938 292.339 181.439 292.629 179.775C292.918 178.112 293.125 177.028 293.249 176.523C293.382 176.019 293.589 175.468 293.87 174.872C294.151 174.268 294.491 173.809 294.888 173.495C295.823 172.742 297.134 172.365 298.822 172.365C298.963 172.365 299.058 172.39 299.108 172.44C299.166 172.489 299.195 172.589 299.195 172.738L298.922 174.91C298.897 175.117 298.806 175.22 298.649 175.22C297.838 175.22 297.213 175.448 296.774 175.903C296.344 176.358 295.997 177.347 295.732 178.869C295.475 180.392 295.148 182.821 294.751 186.155C294.354 189.482 294.155 192.221 294.155 194.372C294.155 195.705 294.681 196.371 295.732 196.371C295.906 196.371 295.992 196.474 295.992 196.681L295.707 198.977C295.682 199.193 295.579 199.3 295.397 199.3ZM302.422 174.351L306.32 174.215C306.477 174.215 306.555 174.322 306.555 174.537L304.706 190.86L306.779 190.773C306.977 190.781 307.077 190.884 307.077 191.083L306.779 193.466C306.754 193.681 306.651 193.793 306.468 193.801L299.319 194.05C299.112 194.041 299.009 193.942 299.009 193.752L299.294 191.356C299.319 191.149 299.427 191.046 299.617 191.046L301.566 190.971L303.08 177.603L301.156 177.665C300.949 177.657 300.846 177.562 300.846 177.38C300.846 177.272 301.007 176.842 301.33 176.089C301.652 175.336 301.868 174.864 301.975 174.674C302.083 174.475 302.232 174.368 302.422 174.351ZM312.327 190.934L314.574 191.158C315.302 191.158 315.84 190.98 316.187 190.624C316.543 190.26 316.808 189.627 316.982 188.725C317.156 187.814 317.292 186.921 317.391 186.044C316.597 186.524 315.869 186.764 315.207 186.764C313.891 186.764 312.952 186.313 312.389 185.411C311.827 184.509 311.545 183.226 311.545 181.563C311.545 176.565 313.283 174.066 316.758 174.066C318.256 174.066 319.324 174.55 319.961 175.518C320.606 176.486 320.929 177.922 320.929 179.825C320.929 181.124 320.821 182.672 320.606 184.467C320.399 186.263 320.205 187.55 320.023 188.328C319.849 189.105 319.717 189.647 319.626 189.954C319.535 190.26 319.41 190.607 319.253 190.996C319.096 191.377 318.922 191.708 318.732 191.989C318.55 192.262 318.314 192.544 318.024 192.833C317.735 193.115 317.416 193.342 317.069 193.516C316.274 193.913 315.426 194.112 314.524 194.112C313.622 194.112 312.964 194.074 312.551 194C312.145 193.934 311.913 193.88 311.855 193.839C311.806 193.789 311.781 193.702 311.781 193.578L312.066 191.207C312.091 191.025 312.178 190.934 312.327 190.934ZM316.423 184.194C316.82 184.194 317.218 184.124 317.615 183.983C317.756 182.378 317.826 181.178 317.826 180.384C317.826 179.589 317.809 179.047 317.776 178.758C317.751 178.468 317.693 178.145 317.602 177.789C317.404 177.061 316.953 176.697 316.249 176.697C315.513 176.697 315.025 177.218 314.785 178.261C314.586 179.113 314.487 180.189 314.487 181.488C314.487 183.292 315.132 184.194 316.423 184.194ZM331.616 177.318L329.369 177.094C328.641 177.094 328.099 177.276 327.743 177.64C327.396 177.996 327.135 178.629 326.961 179.54C326.788 180.442 326.651 181.331 326.552 182.208C327.346 181.728 328.074 181.488 328.736 181.488C330.052 181.488 330.991 181.939 331.554 182.841C332.117 183.743 332.398 185.026 332.398 186.689C332.398 191.687 330.66 194.186 327.185 194.186C325.687 194.186 324.615 193.702 323.97 192.734C323.333 191.766 323.014 190.33 323.014 188.427C323.014 187.128 323.118 185.58 323.325 183.785C323.54 181.989 323.734 180.702 323.908 179.924C324.09 179.146 324.227 178.604 324.318 178.298C324.409 177.992 324.533 177.649 324.69 177.268C324.847 176.879 325.017 176.548 325.199 176.275C325.389 175.994 325.629 175.712 325.919 175.431C326.208 175.141 326.527 174.91 326.874 174.736C327.669 174.339 328.517 174.14 329.419 174.14C330.321 174.14 330.975 174.177 331.38 174.252C331.794 174.318 332.026 174.376 332.075 174.426C332.133 174.467 332.162 174.55 332.162 174.674L331.877 177.045C331.852 177.227 331.765 177.318 331.616 177.318ZM327.52 184.058C327.123 184.058 326.726 184.128 326.328 184.269C326.188 185.874 326.117 187.074 326.117 187.868C326.117 188.663 326.13 189.205 326.155 189.494C326.188 189.784 326.25 190.103 326.341 190.45C326.539 191.187 326.99 191.555 327.694 191.555C328.43 191.555 328.918 191.033 329.158 189.991C329.357 189.138 329.456 188.063 329.456 186.764C329.456 184.96 328.811 184.058 327.52 184.058ZM344.798 178.162C344.798 179.006 344.55 179.949 344.053 180.992C343.565 182.026 342.874 182.903 341.98 183.623C343.561 184.972 344.351 186.445 344.351 188.042C344.351 189.97 343.904 191.476 343.011 192.56C342.117 193.644 340.731 194.186 338.852 194.186C336.684 194.186 335.331 193.206 334.794 191.244C334.645 190.698 334.57 190.103 334.57 189.457C334.57 186.693 335.671 184.6 337.872 183.176C337.268 182.564 336.809 181.935 336.494 181.29C336.188 180.644 336.035 179.945 336.035 179.192C336.035 178.439 336.122 177.781 336.296 177.218C336.469 176.656 336.701 176.184 336.991 175.803C337.289 175.414 337.636 175.088 338.033 174.823C338.803 174.318 339.68 174.066 340.665 174.066C342.055 174.066 343.089 174.438 343.768 175.183C344.455 175.928 344.798 176.921 344.798 178.162ZM337.45 189.01C337.45 190.591 338.062 191.381 339.287 191.381C340.586 191.381 341.236 190.4 341.236 188.439C341.236 187.595 341.074 186.875 340.752 186.279C340.437 185.675 340.007 185.121 339.461 184.616C338.807 185.146 338.306 185.812 337.959 186.615C337.62 187.409 337.45 188.208 337.45 189.01ZM338.915 179.589C338.915 180.185 339.018 180.694 339.225 181.116C339.44 181.53 339.775 181.927 340.23 182.308C340.677 181.894 341.045 181.368 341.335 180.731C341.633 180.086 341.782 179.432 341.782 178.77C341.782 178.1 341.662 177.587 341.422 177.231C341.19 176.875 340.884 176.697 340.503 176.697C339.444 176.697 338.915 177.661 338.915 179.589ZM347.963 172.365C349.362 172.365 350.421 172.771 351.141 173.582C351.869 174.384 352.233 175.555 352.233 177.094C352.233 178.625 352.055 181.058 351.699 184.393C351.344 187.728 351.021 190.227 350.731 191.89C350.442 193.553 350.231 194.637 350.098 195.142C349.974 195.647 349.771 196.197 349.49 196.793C349.209 197.397 348.873 197.856 348.485 198.171C347.541 198.924 346.225 199.3 344.537 199.3C344.397 199.3 344.302 199.275 344.252 199.226C344.194 199.176 344.165 199.077 344.165 198.928L344.438 196.756C344.463 196.549 344.554 196.445 344.711 196.445C345.522 196.445 346.143 196.218 346.573 195.763C347.012 195.307 347.359 194.319 347.616 192.796C347.88 191.273 348.211 188.849 348.609 185.522C349.006 182.188 349.204 179.444 349.204 177.293C349.204 175.961 348.679 175.294 347.628 175.294C347.454 175.294 347.367 175.191 347.367 174.984L347.653 172.688C347.678 172.473 347.781 172.365 347.963 172.365Z" fill="#1D1E1D"/>
<circle cx="321" cy="294" r="15" fill="#1D1E1D"/>
<circle cx="321" cy="573" r="15" fill="#1D1E1D"/>
<circle cx="321" cy="15" r="15" fill="#1D1E1D"/>
<path d="M190 294C198.5 294 205 300.5 205 309" stroke="#1D1E1D" stroke-width="4"/>
<path d="M190 294C198.5 294 205 287.5 205 279" stroke="#1D1E1D" stroke-width="4"/>
<path d="M294.414 295.414C295.195 294.633 295.195 293.367 294.414 292.586L281.686 279.858C280.905 279.077 279.639 279.077 278.858 279.858C278.077 280.639 278.077 281.905 278.858 282.686L290.172 294L278.858 305.314C278.077 306.095 278.077 307.361 278.858 308.142C279.639 308.923 280.905 308.923 281.686 308.142L294.414 295.414ZM133 296L293 296L293 292L133 292L133 296Z" fill="#1D1E1D"/>
<path d="M220 573C211.5 573 205 566.5 205 558" stroke="#1D1E1D" stroke-width="4"/>
<path d="M294.414 574.414C295.195 573.633 295.195 572.367 294.414 571.586L281.686 558.858C280.905 558.077 279.639 558.077 278.858 558.858C278.077 559.639 278.077 560.905 278.858 561.686L290.172 573L278.858 584.314C278.077 585.095 278.077 586.361 278.858 587.142C279.639 587.923 280.905 587.923 281.686 587.142L294.414 574.414ZM220 575L293 575L293 571L220 571L220 575Z" fill="#1D1E1D"/>
<path d="M205 309L205 558" stroke="#1D1E1D" stroke-width="4"/>
<path d="M220 15C211.5 15 205 21.5 205 30" stroke="#1D1E1D" stroke-width="4"/>
<path d="M294.414 16.4142C295.195 15.6332 295.195 14.3668 294.414 13.5858L281.686 0.857864C280.905 0.0768157 279.639 0.0768157 278.858 0.857864C278.077 1.63891 278.077 2.90524 278.858 3.68629L290.172 15L278.858 26.3137C278.077 27.0948 278.077 28.3611 278.858 29.1421C279.639 29.9232 280.905 29.9232 281.686 29.1421L294.414 16.4142ZM220 17L293 17L293 13L220 13L220 17Z" fill="#1D1E1D"/>
<path d="M205 279L205 30" stroke="#1D1E1D" stroke-width="4"/>
<rect x="10.2773" y="199.711" width="150.345" height="194.891" rx="8.35249" fill="#1D1E1D"/>
<rect x="3" y="193" width="144.345" height="188.891" rx="5.35249" fill="white" stroke="#1D1E1D" stroke-width="6" stroke-dasharray="8 8"/>
<path d="M46.9762 259.51L43.1159 259.659L42.5325 264.748L47.2865 264.587C47.5016 264.595 47.6092 264.702 47.6092 264.909L47.2865 267.479C47.2699 267.652 47.1624 267.76 46.9638 267.801L39.3301 268.05C39.1481 268.05 39.0571 267.971 39.0571 267.814L41.2044 249.034C41.2375 248.86 41.3451 248.765 41.5271 248.748L48.3291 248.513C48.536 248.537 48.6395 248.649 48.6395 248.848L48.3291 251.417C48.3043 251.624 48.1967 251.736 48.0064 251.752L44.0096 251.864L43.4759 256.481L47.2989 256.345C47.5141 256.353 47.6216 256.461 47.6216 256.667L47.2989 259.2C47.2658 259.39 47.1582 259.493 46.9762 259.51ZM54.7215 263.941L57.564 253.378C57.6136 253.188 57.7253 253.089 57.8991 253.08L60.5057 252.993C60.7126 253.01 60.816 253.118 60.816 253.316L55.7642 267.628C55.6897 267.835 55.5821 267.946 55.4415 267.963L52.8969 268.05C52.7397 268.041 52.6487 267.963 52.6238 267.814L50.6875 253.378C50.7123 253.188 50.8158 253.089 50.9978 253.08L53.4431 252.993C53.6334 253.002 53.7368 253.109 53.7534 253.316L54.7215 263.941ZM62.5786 265.679C62.3883 265.182 62.2559 264.694 62.1814 264.214C62.1152 263.726 62.0821 263.06 62.0821 262.216C62.0821 261.372 62.1731 260.329 62.3552 259.088C62.9592 254.95 64.8377 252.882 67.9904 252.882C69.2068 252.882 70.1378 253.3 70.7832 254.135C71.4286 254.971 71.7514 256.055 71.7514 257.387C71.7514 258.72 71.6686 260.015 71.5031 261.272C71.4783 261.496 71.35 261.612 71.1183 261.62L64.9866 261.831C64.9783 261.955 64.9742 262.121 64.9742 262.328C64.9742 263.263 65.1356 264.003 65.4583 264.549C65.7893 265.095 66.2858 265.369 66.9478 265.369C67.6098 265.369 68.2221 265.273 68.7848 265.083C69.3558 264.884 69.6909 264.785 69.7902 264.785C69.8895 264.785 69.9764 264.818 70.0509 264.884C70.1253 264.951 70.1626 265.042 70.1626 265.158L69.9143 267.342C69.9061 267.466 69.8812 267.549 69.8399 267.59C69.8068 267.623 69.7364 267.661 69.6288 267.702C68.6276 267.992 67.6635 268.137 66.7368 268.137C65.81 268.137 65.09 268.025 64.577 267.801C64.0639 267.578 63.6502 267.292 63.3358 266.945C63.0296 266.589 62.7772 266.167 62.5786 265.679ZM65.2845 258.716L65.1728 259.51L68.4124 259.349C68.5531 259.34 68.6441 259.315 68.6855 259.274C68.8096 259.15 68.8717 258.811 68.8717 258.256C68.8717 257.694 68.851 257.3 68.8096 257.077C68.7765 256.845 68.7145 256.61 68.6234 256.37C68.4331 255.84 68.1063 255.575 67.6429 255.575C67.1877 255.575 66.8278 255.654 66.563 255.811C65.9755 256.175 65.5493 257.143 65.2845 258.716ZM78.8513 253.316L78.7147 254.458C79.9063 253.407 81.0483 252.882 82.1406 252.882C83.5308 252.882 84.4079 253.643 84.772 255.166C84.8713 255.579 84.9209 255.972 84.9209 256.345C84.9209 256.709 84.9085 257.003 84.8837 257.226L83.6921 267.628C83.659 267.835 83.5556 267.946 83.3818 267.963L80.8745 268.05C80.6924 268.033 80.6014 267.954 80.6014 267.814L81.731 257.983C81.7558 257.768 81.7682 257.574 81.7682 257.4C81.7682 256.721 81.6068 256.262 81.2841 256.022C80.9697 255.774 80.5683 255.65 80.0801 255.65C79.5919 255.65 79.083 255.753 78.5534 255.96L77.2252 267.628C77.1921 267.835 77.0887 267.946 76.9149 267.963L74.4076 268.05C74.2256 268.033 74.1346 267.954 74.1346 267.814L75.773 253.378C75.8061 253.196 75.9095 253.097 76.0833 253.08L78.5161 252.993C78.7396 253.002 78.8513 253.109 78.8513 253.316ZM89.3522 253.043C89.5425 251.223 89.6666 250.283 89.7246 250.225C89.7825 250.159 89.8694 250.122 89.9852 250.114L92.356 250.027C92.5794 250.043 92.6911 250.147 92.6911 250.337C92.5339 251.256 92.4015 252.137 92.2939 252.981L95.186 252.882C95.3846 252.89 95.4839 252.998 95.4839 253.204L95.1364 255.178C95.1033 255.377 94.9998 255.48 94.8261 255.488L91.9836 255.6C91.4209 260.664 91.1396 263.457 91.1396 263.978C91.1396 264.947 91.5533 265.431 92.3808 265.431C92.8028 265.431 93.2124 265.364 93.6096 265.232C94.0068 265.1 94.2551 265.033 94.3544 265.033C94.5282 265.033 94.615 265.141 94.615 265.356L94.3544 267.528C94.3378 267.652 94.3047 267.743 94.2551 267.801C94.2137 267.859 94.011 267.93 93.6469 268.012C93.2911 268.095 92.6787 268.137 91.8098 268.137C90.5355 268.137 89.5922 267.843 88.9798 267.255C88.3675 266.659 88.0613 265.774 88.0613 264.599C88.0613 263.424 88.3881 260.437 89.0419 255.637L87.8255 255.687C87.6186 255.679 87.5151 255.575 87.5151 255.377L87.8503 253.378C87.8751 253.188 87.9827 253.089 88.173 253.08L89.3522 253.043ZM112.774 252.559C112.774 255.025 111.823 256.725 109.92 257.66C110.565 257.934 111.07 258.356 111.434 258.927C111.798 259.489 111.98 260.213 111.98 261.099C111.98 261.984 111.848 262.824 111.583 263.618C111.326 264.413 110.925 265.133 110.379 265.778C109.22 267.152 107.379 267.88 104.855 267.963L102.187 268.05C102.005 268.033 101.914 267.954 101.914 267.814L104.048 249.133C104.065 248.984 104.102 248.885 104.16 248.835C104.218 248.777 104.735 248.715 105.712 248.649C106.688 248.575 107.619 248.537 108.505 248.537C109.994 248.537 111.078 248.897 111.757 249.617C112.435 250.329 112.774 251.309 112.774 252.559ZM106.73 258.889C106.39 258.889 106.167 258.893 106.059 258.902L105.389 264.947C106.572 264.947 107.466 264.57 108.07 263.817C108.682 263.064 108.989 262.075 108.989 260.85C108.989 260.271 108.79 259.8 108.393 259.435C107.996 259.071 107.441 258.889 106.73 258.889ZM106.27 256.928C108.645 256.912 109.833 255.654 109.833 253.155C109.833 251.839 109.154 251.181 107.797 251.181C107.416 251.181 107.118 251.194 106.903 251.218L106.27 256.928ZM58.0605 337.3C56.662 337.3 55.5987 336.895 54.8705 336.084C54.1506 335.281 53.7906 334.11 53.7906 332.571C53.7906 331.04 53.9685 328.607 54.3243 325.272C54.6802 321.938 55.0029 319.439 55.2925 317.775C55.5821 316.112 55.789 315.028 55.9131 314.523C56.0455 314.019 56.2524 313.468 56.5337 312.872C56.8151 312.268 57.1544 311.809 57.5516 311.495C58.4866 310.742 59.7982 310.365 61.4863 310.365C61.627 310.365 61.7221 310.39 61.7718 310.44C61.8297 310.489 61.8587 310.589 61.8587 310.738L61.5856 312.91C61.5608 313.117 61.4698 313.22 61.3125 313.22C60.5016 313.22 59.8768 313.448 59.4383 313.903C59.008 314.358 58.6604 315.347 58.3956 316.869C58.1391 318.392 57.8122 320.821 57.415 324.155C57.0178 327.482 56.8192 330.221 56.8192 332.372C56.8192 333.705 57.3447 334.371 58.3956 334.371C58.5694 334.371 58.6563 334.474 58.6563 334.681L58.3708 336.977C58.346 337.193 58.2425 337.3 58.0605 337.3ZM63.373 326.675C63.1992 326.675 63.1123 326.588 63.1123 326.414C63.1123 325.008 63.3192 323.824 63.7329 322.864C64.1219 321.987 64.5729 321.226 65.0859 320.581C65.8555 319.621 66.3685 318.88 66.625 318.359C66.8816 317.829 67.0098 317.25 67.0098 316.621C67.0098 315.554 66.5092 315.02 65.5079 315.02C65.0776 315.02 64.548 315.078 63.9191 315.194C63.2902 315.309 62.9137 315.367 62.7896 315.367C62.6076 315.367 62.5165 315.252 62.5165 315.02L62.8144 312.661C62.831 312.504 62.9344 312.393 63.1247 312.326C64.5646 312.07 65.6238 311.942 66.3023 311.942C67.4774 311.942 68.4166 312.335 69.1199 313.121C69.8233 313.899 70.175 314.854 70.175 315.988C70.175 317.122 70.0136 318.057 69.6909 318.793C69.3765 319.521 68.9751 320.204 68.4869 320.841C67.9987 321.47 67.6677 321.909 67.4939 322.157C67.3201 322.405 67.1008 322.765 66.8361 323.237C66.3644 324.089 66.1285 325.095 66.1285 326.253C66.1285 326.46 66.0251 326.567 65.8182 326.576L63.373 326.675ZM64.3536 332.137C63.8157 332.137 63.3813 331.967 63.0503 331.628C62.7193 331.28 62.5538 330.842 62.5538 330.312C62.5538 329.774 62.7689 329.294 63.1992 328.872C63.6378 328.45 64.126 328.239 64.6639 328.239C65.21 328.239 65.6486 328.409 65.9796 328.748C66.3189 329.087 66.4885 329.526 66.4885 330.064C66.4885 330.602 66.2692 331.081 65.8306 331.504C65.3921 331.926 64.8997 332.137 64.3536 332.137ZM73.5512 326.675C73.3774 326.675 73.2905 326.588 73.2905 326.414C73.2905 325.008 73.4974 323.824 73.9111 322.864C74.3001 321.987 74.751 321.226 75.2641 320.581C76.0337 319.621 76.5467 318.88 76.8032 318.359C77.0597 317.829 77.188 317.25 77.188 316.621C77.188 315.554 76.6874 315.02 75.6861 315.02C75.2558 315.02 74.7262 315.078 74.0973 315.194C73.4684 315.309 73.0919 315.367 72.9678 315.367C72.7857 315.367 72.6947 315.252 72.6947 315.02L72.9926 312.661C73.0092 312.504 73.1126 312.393 73.3029 312.326C74.7428 312.07 75.802 311.942 76.4805 311.942C77.6555 311.942 78.5947 312.335 79.2981 313.121C80.0015 313.899 80.3532 314.854 80.3532 315.988C80.3532 317.122 80.1918 318.057 79.8691 318.793C79.5546 319.521 79.1533 320.204 78.6651 320.841C78.1769 321.47 77.8459 321.909 77.6721 322.157C77.4983 322.405 77.279 322.765 77.0142 323.237C76.5426 324.089 76.3067 325.095 76.3067 326.253C76.3067 326.46 76.2033 326.567 75.9964 326.576L73.5512 326.675ZM74.5317 332.137C73.9939 332.137 73.5594 331.967 73.2284 331.628C72.8974 331.28 72.7319 330.842 72.7319 330.312C72.7319 329.774 72.9471 329.294 73.3774 328.872C73.816 328.45 74.3042 328.239 74.8421 328.239C75.3882 328.239 75.8268 328.409 76.1578 328.748C76.497 329.087 76.6667 329.526 76.6667 330.064C76.6667 330.602 76.4474 331.081 76.0088 331.504C75.5703 331.926 75.0779 332.137 74.5317 332.137ZM83.7293 326.675C83.5556 326.675 83.4687 326.588 83.4687 326.414C83.4687 325.008 83.6756 323.824 84.0893 322.864C84.4782 321.987 84.9292 321.226 85.4423 320.581C86.2118 319.621 86.7249 318.88 86.9814 318.359C87.2379 317.829 87.3662 317.25 87.3662 316.621C87.3662 315.554 86.8656 315.02 85.8643 315.02C85.434 315.02 84.9044 315.078 84.2755 315.194C83.6466 315.309 83.2701 315.367 83.146 315.367C82.9639 315.367 82.8729 315.252 82.8729 315.02L83.1708 312.661C83.1873 312.504 83.2908 312.393 83.4811 312.326C84.9209 312.07 85.9801 311.942 86.6587 311.942C87.8337 311.942 88.7729 312.335 89.4763 313.121C90.1797 313.899 90.5314 314.854 90.5314 315.988C90.5314 317.122 90.37 318.057 90.0473 318.793C89.7328 319.521 89.3315 320.204 88.8433 320.841C88.355 321.47 88.024 321.909 87.8503 322.157C87.6765 322.405 87.4572 322.765 87.1924 323.237C86.7207 324.089 86.4849 325.095 86.4849 326.253C86.4849 326.46 86.3815 326.567 86.1746 326.576L83.7293 326.675ZM84.7099 332.137C84.1721 332.137 83.7376 331.967 83.4066 331.628C83.0756 331.28 82.9101 330.842 82.9101 330.312C82.9101 329.774 83.1253 329.294 83.5556 328.872C83.9941 328.45 84.4824 328.239 85.0202 328.239C85.5664 328.239 86.005 328.409 86.336 328.748C86.6752 329.087 86.8449 329.526 86.8449 330.064C86.8449 330.602 86.6256 331.081 86.187 331.504C85.7484 331.926 85.2561 332.137 84.7099 332.137ZM93.2993 310.365C94.6978 310.365 95.757 310.771 96.4769 311.582C97.2051 312.384 97.5692 313.555 97.5692 315.094C97.5692 316.625 97.3913 319.058 97.0355 322.393C96.6796 325.728 96.3569 328.227 96.0673 329.89C95.7777 331.553 95.5667 332.637 95.4343 333.142C95.3101 333.647 95.1074 334.197 94.8261 334.793C94.5447 335.397 94.2096 335.856 93.8206 336.171C92.8773 336.924 91.5616 337.3 89.8735 337.3C89.7328 337.3 89.6377 337.275 89.588 337.226C89.5301 337.176 89.5011 337.077 89.5011 336.928L89.7742 334.756C89.799 334.549 89.89 334.445 90.0473 334.445C90.8582 334.445 91.4788 334.218 91.9091 333.763C92.3477 333.307 92.6953 332.319 92.9518 330.796C93.2166 329.273 93.5476 326.849 93.9448 323.522C94.342 320.188 94.5406 317.444 94.5406 315.293C94.5406 313.961 94.0151 313.294 92.9642 313.294C92.7904 313.294 92.7035 313.191 92.7035 312.984L92.989 310.688C93.0138 310.473 93.1173 310.365 93.2993 310.365Z" fill="#1D1E1D"/>
</svg>
