<svg width="1000" height="1000" viewBox="0 0 1000 1000" fill="none" xmlns="http://www.w3.org/2000/svg">
<rect width="1000" height="1000" fill="white"/>
<mask id="mask0_100_1611" style="mask-type:alpha" maskUnits="userSpaceOnUse" x="0" y="0" width="1000" height="1000">
<rect width="1000" height="1000" fill="white"/>
</mask>
<g mask="url(#mask0_100_1611)">
<path d="M658.134 411.51L769.622 482.53L783.845 460.262L672.357 389.242L658.134 411.51Z" fill="#1D1E1D"/>
<path d="M736.204 419.351L821.195 318.178L800.933 301.203L715.942 402.376L736.204 419.351Z" fill="#1D1E1D"/>
<path d="M693.796 340.345L764.623 310.351L754.298 286.035L683.471 316.029L693.796 340.345Z" fill="#1D1E1D"/>
<path d="M775.082 196.262L793.057 121.559L767.341 115.388L749.367 190.091L775.082 196.262Z" fill="#1D1E1D"/>
<path d="M937.396 242.127L1010.28 217.546L1001.82 192.523L928.935 217.103L937.396 242.127Z" fill="#1D1E1D"/>
<path d="M965.547 171.147L983.521 96.4448L957.806 90.2738L939.831 164.977L965.547 171.147Z" fill="#1D1E1D"/>
<path d="M960.554 0.70752L1028.2 -35.8833L1015.61 -59.1075L947.958 -22.5167L960.554 0.70752Z" fill="#1D1E1D"/>
<path d="M1047.76 191.316L1020.48 119.477L995.753 128.841L1023.03 200.68L1047.76 191.316Z" fill="#1D1E1D"/>
<path d="M917.814 235.321L852.505 194.715L838.527 217.137L903.836 257.743L917.814 235.321Z" fill="#1D1E1D"/>
<path d="M982.545 420.81L951.987 350.301L927.715 360.792L958.273 431.301L982.545 420.81Z" fill="#1D1E1D"/>
<path d="M1020.99 286.385L966.937 341.05L985.754 359.609L1039.81 304.945L1020.99 286.385Z" fill="#1D1E1D"/>
<path d="M847.877 332.06L846.344 408.874L872.786 409.4L874.319 332.586L847.877 332.06Z" fill="#1D1E1D"/>
<path d="M781.781 412.567L845.151 456.129L860.147 434.373L796.777 390.811L781.781 412.567Z" fill="#1D1E1D"/>
<path d="M884.208 34.4696L774.581 76.1212L783.985 100.807L893.613 59.1556L884.208 34.4696Z" fill="#1D1E1D"/>
<path d="M852.562 -75.7073L801.671 29.8289L825.5 41.2885L876.39 -64.2477L852.562 -75.7073Z" fill="#1D1E1D"/>
<path d="M777.657 -27.8048L750.253 29.0241L774.082 40.4838L801.485 -16.3451L777.657 -27.8048Z" fill="#1D1E1D"/>
<path d="M672.195 -74.198L631.613 -25.8658L651.879 -8.89539L692.461 -57.2275L672.195 -74.198Z" fill="#1D1E1D"/>
<path d="M633.713 34.2509L649.216 95.3964L674.855 88.9133L659.352 27.7679L633.713 34.2509Z" fill="#1D1E1D"/>
<path d="M701.222 353.74L639.712 339.418L633.707 365.14L695.217 379.463L701.222 353.74Z" fill="#1D1E1D"/>
<path d="M654.55 493.089L662.095 430.466L635.837 427.311L628.292 489.934L654.55 493.089Z" fill="#1D1E1D"/>
<path d="M800.229 -76.4515L690.601 -34.8L700.006 -10.114L809.633 -51.7656L800.229 -76.4515Z" fill="#1D1E1D"/>
<path d="M924.134 16.1464L891.069 128.532L916.444 135.977L949.509 23.5919L924.134 16.1464Z" fill="#1D1E1D"/>
<path d="M954.111 -80.8383L866.688 -2.74622L884.32 16.9399L971.743 -61.1521L954.111 -80.8383Z" fill="#1D1E1D"/>
<path d="M967.698 35.2909L1043.48 124.693L1063.67 107.628L987.884 18.2255L967.698 35.2909Z" fill="#1D1E1D"/>
<path d="M1223.61 -52.7823L1340.7 -45.8005L1342.27 -72.1656L1225.19 -79.1476L1223.61 -52.7823Z" fill="#1D1E1D"/>
<path d="M1059.29 56.913L1068.49 -59.8617L1042.13 -61.9343L1032.92 54.8402L1059.29 56.913Z" fill="#1D1E1D"/>
<path d="M665.817 315.278L691.939 198.752L666.131 192.982L640.008 309.508L665.817 315.278Z" fill="#1D1E1D"/>
<path d="M709.339 574.674L700.74 455.573L674.361 457.472L682.96 576.573L709.339 574.674Z" fill="#1D1E1D"/>
<path d="M657.684 772.95L668.842 654.061L642.509 651.596L631.352 770.485L657.684 772.95Z" fill="#1D1E1D"/>
<path d="M738.558 274.993L729.959 155.892L703.58 157.792L712.179 276.893L738.558 274.993Z" fill="#1D1E1D"/>
<path d="M793.971 284.124L831.866 170.869L806.782 162.498L768.887 275.753L793.971 284.124Z" fill="#1D1E1D"/>
<path d="M1029.13 225.725L937.947 302.973L955.056 323.114L1046.24 245.866L1029.13 225.725Z" fill="#1D1E1D"/>
<path d="M647.089 176.558L731.218 91.7054L712.425 73.1218L628.295 157.975L647.089 176.558Z" fill="#1D1E1D"/>
<path d="M770.86 62.1124L674.659 -8.80286L658.953 12.4473L755.154 83.3624L770.86 62.1124Z" fill="#1D1E1D"/>
<path d="M929.708 320.921L833.507 250.006L817.801 271.256L914.002 342.171L929.708 320.921Z" fill="#1D1E1D"/>
<path d="M924.11 183.158L827.909 112.242L812.203 133.492L908.404 204.408L924.11 183.158Z" fill="#1D1E1D"/>
<path d="M1072.85 431.589L1184.34 502.609L1198.56 480.341L1087.07 409.321L1072.85 431.589Z" fill="#1D1E1D"/>
<path d="M1006.28 375.135L1134.38 407.9L1140.94 382.314L1012.84 349.549L1006.28 375.135Z" fill="#1D1E1D"/>
<path d="M1150.92 439.43L1235.91 338.258L1215.65 321.282L1130.66 422.455L1150.92 439.43Z" fill="#1D1E1D"/>
<path d="M1108.5 360.424L1179.33 330.43L1169.01 306.114L1098.18 336.108L1108.5 360.424Z" fill="#1D1E1D"/>
<path d="M1189.79 216.341L1207.76 141.638L1182.05 135.467L1164.07 210.17L1189.79 216.341Z" fill="#1D1E1D"/>
<path d="M1325.24 259.643L1259.93 219.038L1245.95 241.46L1311.26 282.065L1325.24 259.643Z" fill="#1D1E1D"/>
<path d="M1349.34 186.154L1348.89 262.982L1375.34 263.135L1375.79 186.307L1349.34 186.154Z" fill="#1D1E1D"/>
<path d="M1374.4 347.632L1352.58 273.958L1327.22 281.45L1349.04 355.124L1374.4 347.632Z" fill="#1D1E1D"/>
<path d="M1262.59 352.139L1261.06 428.953L1287.5 429.479L1289.03 352.665L1262.59 352.139Z" fill="#1D1E1D"/>
<path d="M1254.08 527.983L1317.45 571.546L1332.44 549.79L1269.07 506.227L1254.08 527.983Z" fill="#1D1E1D"/>
<path d="M1264.83 498.335L1322.82 447.847L1305.44 427.939L1247.45 478.427L1264.83 498.335Z" fill="#1D1E1D"/>
<path d="M1297.42 506.34L1360.79 549.903L1375.79 528.147L1312.42 484.584L1297.42 506.34Z" fill="#1D1E1D"/>
<path d="M1308.74 60.6117L1199.11 102.263L1208.52 126.949L1318.14 85.2977L1308.74 60.6117Z" fill="#1D1E1D"/>
<path d="M1358.23 -45.8497L1273.84 35.5053L1292.21 54.5078L1376.6 -26.8474L1358.23 -45.8497Z" fill="#1D1E1D"/>
<path d="M1267.09 -43.3135L1216.2 62.2227L1240.03 73.6823L1290.92 -31.8539L1267.09 -43.3135Z" fill="#1D1E1D"/>
<path d="M1192.36 -7.69946L1164.96 49.1294L1188.79 60.589L1216.19 3.76013L1192.36 -7.69946Z" fill="#1D1E1D"/>
<path d="M1214.78 -52.0004L1105.15 -10.3488L1114.56 14.3373L1224.18 -27.3143L1214.78 -52.0004Z" fill="#1D1E1D"/>
<path d="M1347.08 47.4652L1314.02 159.851L1339.39 167.296L1372.46 54.9107L1347.08 47.4652Z" fill="#1D1E1D"/>
<path d="M1068.77 343.452L1113.13 232.563L1088.57 222.765L1044.21 333.654L1068.77 343.452Z" fill="#1D1E1D"/>
<path d="M1030.89 517.802L1075.25 406.913L1050.69 397.115L1006.33 508.004L1030.89 517.802Z" fill="#1D1E1D"/>
<path d="M1105.09 589.474L1096.49 470.373L1070.11 472.272L1078.71 591.374L1105.09 589.474Z" fill="#1D1E1D"/>
<path d="M1153.27 295.072L1144.67 175.971L1118.29 177.871L1126.89 296.972L1153.27 295.072Z" fill="#1D1E1D"/>
<path d="M1208.68 304.224L1246.58 190.969L1221.5 182.599L1183.6 295.853L1208.68 304.224Z" fill="#1D1E1D"/>
<path d="M1084.15 204.272L1122.04 91.0178L1096.96 82.647L1059.06 195.902L1084.15 204.272Z" fill="#1D1E1D"/>
<path d="M1185.57 82.1915L1089.37 11.2762L1073.66 32.5263L1169.86 103.441L1185.57 82.1915Z" fill="#1D1E1D"/>
<path d="M1336.3 338.332L1240.1 267.417L1224.39 288.667L1320.59 359.582L1336.3 338.332Z" fill="#1D1E1D"/>
<path d="M1338.82 203.237L1242.62 132.322L1226.91 153.572L1323.11 224.487L1338.82 203.237Z" fill="#1D1E1D"/>
<path d="M933.169 537.205L820.189 468.577L806.445 491.143L919.425 559.771L933.169 537.205Z" fill="#1D1E1D"/>
<path d="M1000.93 592.243L872.157 562.215L866.143 587.935L994.917 617.963L1000.93 592.243Z" fill="#1D1E1D"/>
<path d="M854.946 531.055L772.136 634.015L792.755 650.555L875.565 547.594L854.946 531.055Z" fill="#1D1E1D"/>
<path d="M899.036 609.109L828.866 640.606L839.708 664.697L909.878 633.2L899.036 609.109Z" fill="#1D1E1D"/>
<path d="M1031.06 662.752L1067.31 730.521L1090.64 718.078L1054.39 650.309L1031.06 662.752Z" fill="#1D1E1D"/>
<path d="M1086.2 754.398L1014.26 727.186L1004.89 751.886L1076.83 779.098L1086.2 754.398Z" fill="#1D1E1D"/>
<path d="M990.767 571.657L1064.99 551.442L1058.03 525.961L983.809 546.175L990.767 571.657Z" fill="#1D1E1D"/>
<path d="M820.755 745.163L804.381 820.231L830.223 825.853L846.597 750.784L820.755 745.163Z" fill="#1D1E1D"/>
<path d="M885.352 799.969L820.635 841.51L834.935 863.728L899.652 822.188L885.352 799.969Z" fill="#1D1E1D"/>
<path d="M1019.99 887.575L971.68 947.367L992.263 963.953L1040.57 904.16L1019.99 887.575Z" fill="#1D1E1D"/>
<path d="M1150.99 935.532L1080.24 965.718L1090.63 990.006L1161.38 959.82L1150.99 935.532Z" fill="#1D1E1D"/>
<path d="M677.314 718.91L743.476 758.115L756.972 735.401L690.81 696.196L677.314 718.91Z" fill="#1D1E1D"/>
<path d="M745.167 620.692L745.058 543.863L718.611 543.9L718.719 620.729L745.167 620.692Z" fill="#1D1E1D"/>
<path d="M809.532 538.79L745.246 496.588L730.718 518.658L795.005 560.861L809.532 538.79Z" fill="#1D1E1D"/>
<path d="M705.349 907.015L818.908 877.694L812.288 852.123L698.729 881.443L705.349 907.015Z" fill="#1D1E1D"/>
<path d="M751.819 1021.55L800.443 914.954L776.375 904.004L727.751 1010.6L751.819 1021.55Z" fill="#1D1E1D"/>
<path d="M823.062 978.966L849.245 921.566L825.177 910.617L798.994 968.017L823.062 978.966Z" fill="#1D1E1D"/>
<path d="M784.951 1042.28L886.898 984.36L873.82 961.403L771.872 1019.33L784.951 1042.28Z" fill="#1D1E1D"/>
<path d="M747.5 832.004L630.686 821.426L628.298 847.73L745.111 858.308L747.5 832.004Z" fill="#1D1E1D"/>
<path d="M939.126 625.236L897.147 737.045L921.911 746.318L963.89 634.509L939.126 625.236Z" fill="#1D1E1D"/>
<path d="M967.01 446.912L940.637 563.382L966.434 569.208L992.807 452.738L967.01 446.912Z" fill="#1D1E1D"/>
<path d="M892.724 383.315L903.865 502.205L930.198 499.744L919.056 380.854L892.724 383.315Z" fill="#1D1E1D"/>
<path d="M853.143 671.792L864.285 790.683L890.617 788.222L879.476 669.331L853.143 671.792Z" fill="#1D1E1D"/>
<path d="M950.349 717.262L1000.01 825.886L1024.07 814.916L974.407 706.292L950.349 717.262Z" fill="#1D1E1D"/>
<path d="M800.083 667.444L764.616 781.481L789.873 789.315L825.34 675.279L800.083 667.444Z" fill="#1D1E1D"/>
<path d="M926.719 764.754L891.252 878.79L916.51 886.625L951.976 772.588L926.719 764.754Z" fill="#1D1E1D"/>
<path d="M965.324 964.664L855.852 1012.69L866.489 1036.87L975.962 988.846L965.324 964.664Z" fill="#1D1E1D"/>
<path d="M1004.42 969.957L1104.13 1035.87L1118.73 1013.85L1019.02 947.934L1004.42 969.957Z" fill="#1D1E1D"/>
<path d="M945.249 1037L1064.34 1047.7L1066.71 1021.39L947.618 1010.69L945.249 1037Z" fill="#1D1E1D"/>
<path d="M953.402 801.192L952.439 920.599L978.886 920.811L979.848 801.405L953.402 801.192Z" fill="#1D1E1D"/>
<path d="M827.929 888.927L925.624 957.777L940.873 936.197L843.179 867.348L827.929 888.927Z" fill="#1D1E1D"/>
<path d="M663.589 633.521L761.283 702.371L776.532 680.791L678.838 611.941L663.589 633.521Z" fill="#1D1E1D"/>
<path d="M992.979 693.378L1063.49 596.939L1042.13 581.364L971.619 677.803L992.979 693.378Z" fill="#1D1E1D"/>
<path d="M642.095 1020.64L724.213 933.846L704.989 915.707L622.871 1002.5L642.095 1020.64Z" fill="#1D1E1D"/>
<path d="M670.024 777.033L774.202 835.64L787.182 812.628L683.004 754.021L670.024 777.033Z" fill="#1D1E1D"/>
<path d="M1234.47 525.554L1236.11 393.503L1209.66 393.177L1208.02 525.227L1234.47 525.554Z" fill="#1D1E1D"/>
<path d="M1261.04 554.85L1178.23 657.811L1198.85 674.351L1281.66 571.39L1261.04 554.85Z" fill="#1D1E1D"/>
<path d="M1313.75 629.205L1243.58 660.701L1254.42 684.792L1324.59 653.295L1313.75 629.205Z" fill="#1D1E1D"/>
<path d="M1371.87 588.421L1294.95 587.747L1294.71 614.158L1371.64 614.832L1371.87 588.421Z" fill="#1D1E1D"/>
<path d="M1235.55 775L1219.18 850.069L1245.02 855.69L1261.4 780.622L1235.55 775Z" fill="#1D1E1D"/>
<path d="M1350.83 852.841L1327.22 925.964L1352.39 934.069L1376 860.946L1350.83 852.841Z" fill="#1D1E1D"/>
<path d="M1040.29 789.673L1023.92 864.742L1049.76 870.364L1066.13 795.295L1040.29 789.673Z" fill="#1D1E1D"/>
<path d="M1092.03 738.989L1158.19 778.194L1171.69 755.48L1105.52 716.275L1092.03 738.989Z" fill="#1D1E1D"/>
<path d="M1159.87 640.771L1159.77 563.942L1133.32 563.979L1133.43 640.808L1159.87 640.771Z" fill="#1D1E1D"/>
<path d="M670.192 596.359L653.818 521.291L627.976 526.912L644.35 601.981L670.192 596.359Z" fill="#1D1E1D"/>
<path d="M622.876 872.164L659.958 939.48L683.13 926.749L646.049 859.433L622.876 872.164Z" fill="#1D1E1D"/>
<path d="M703.602 966.567L682.474 1040.44L707.905 1047.7L729.033 973.821L703.602 966.567Z" fill="#1D1E1D"/>
<path d="M1224.24 558.89L1159.95 516.688L1145.42 538.759L1209.71 580.961L1224.24 558.89Z" fill="#1D1E1D"/>
<path d="M1078.04 -35.5566L1141.45 -79.072L1156.43 -57.3048L1093.02 -13.7894L1078.04 -35.5566Z" fill="#1D1E1D"/>
<path d="M1119.96 933.228L1228.67 889.25L1218.74 864.77L1110.03 908.748L1119.96 933.228Z" fill="#1D1E1D"/>
<path d="M1163.82 1036.22L1212.45 929.627L1188.38 918.678L1139.75 1025.27L1163.82 1036.22Z" fill="#1D1E1D"/>
<path d="M1228.62 1001.7L1275.14 959.036L1257.25 939.584L1210.73 982.251L1228.62 1001.7Z" fill="#1D1E1D"/>
<path d="M1374.92 1035.24L1345.12 979.62L1321.8 992.08L1351.6 1047.7L1374.92 1035.24Z" fill="#1D1E1D"/>
<path d="M1200.16 1042.28L1314.72 1017.12L1309.03 991.326L1194.48 1016.49L1200.16 1042.28Z" fill="#1D1E1D"/>
<path d="M1081.91 947.199L1112.56 834.135L1087.03 827.232L1056.38 940.296L1081.91 947.199Z" fill="#1D1E1D"/>
<path d="M1342.91 635.128L1319.16 752.157L1345.08 757.405L1368.83 640.375L1342.91 635.128Z" fill="#1D1E1D"/>
<path d="M1302.84 378.39L1351.02 487.679L1375.22 477.037L1327.05 367.748L1302.84 378.39Z" fill="#1D1E1D"/>
<path d="M1270.39 695.492L1281.53 814.382L1307.86 811.921L1296.72 693.031L1270.39 695.492Z" fill="#1D1E1D"/>
<path d="M1214.8 687.545L1179.33 801.581L1204.59 809.415L1240.05 695.379L1214.8 687.545Z" fill="#1D1E1D"/>
<path d="M1355.58 776.678L1283.88 872.24L1305.04 888.077L1376.74 792.516L1355.58 776.678Z" fill="#1D1E1D"/>
<path d="M1237.82 908.506L1335.52 977.355L1350.77 955.775L1253.07 886.926L1237.82 908.506Z" fill="#1D1E1D"/>
<path d="M1078.3 653.643L1175.99 722.492L1191.24 700.912L1093.55 632.063L1078.3 653.643Z" fill="#1D1E1D"/>
<path d="M1086.84 791.28L1184.54 860.129L1199.79 838.549L1102.09 769.7L1086.84 791.28Z" fill="#1D1E1D"/>
<path d="M-95.7369 555.357L15.7508 484.337L29.9738 506.605L-81.5139 577.625L-95.7369 555.357Z" fill="#1D1E1D"/>
<path d="M-17.6674 547.516L67.3235 648.689L47.0618 665.664L-37.9291 564.491L-17.6674 547.516Z" fill="#1D1E1D"/>
<path d="M-60.0752 626.522L10.7518 656.516L0.426529 680.833L-70.4005 650.838L-60.0752 626.522Z" fill="#1D1E1D"/>
<path d="M21.2113 770.605L39.1857 845.308L13.4701 851.479L-4.50425 776.776L21.2113 770.605Z" fill="#1D1E1D"/>
<path d="M183.525 724.74L256.414 749.321L247.952 774.345L175.064 749.764L183.525 724.74Z" fill="#1D1E1D"/>
<path d="M211.676 795.72L229.65 870.422L203.935 876.593L185.96 801.891L211.676 795.72Z" fill="#1D1E1D"/>
<path d="M206.683 966.16L274.33 1002.75L261.734 1025.97L194.087 989.384L206.683 966.16Z" fill="#1D1E1D"/>
<path d="M293.886 775.551L266.612 847.39L241.882 838.026L269.156 766.187L293.886 775.551Z" fill="#1D1E1D"/>
<path d="M163.943 731.546L98.6337 772.152L84.6556 749.73L149.965 709.124L163.943 731.546Z" fill="#1D1E1D"/>
<path d="M228.674 546.057L198.116 616.566L173.844 606.075L204.402 535.567L228.674 546.057Z" fill="#1D1E1D"/>
<path d="M267.124 680.482L213.065 625.817L231.883 607.258L285.942 661.923L267.124 680.482Z" fill="#1D1E1D"/>
<path d="M94.0057 634.807L92.4726 557.993L118.915 557.467L120.448 634.281L94.0057 634.807Z" fill="#1D1E1D"/>
<path d="M27.9098 554.301L91.2797 510.738L106.276 532.494L42.9058 576.057L27.9098 554.301Z" fill="#1D1E1D"/>
<path d="M130.337 932.398L20.7099 890.746L30.1143 866.06L139.741 907.712L130.337 932.398Z" fill="#1D1E1D"/>
<path d="M98.6908 1042.57L47.8002 937.038L71.6287 925.579L122.519 1031.11L98.6908 1042.57Z" fill="#1D1E1D"/>
<path d="M23.7854 994.672L-3.61807 937.843L20.2105 926.383L47.614 983.212L23.7854 994.672Z" fill="#1D1E1D"/>
<path d="M-81.676 1041.07L-122.258 992.733L-101.992 975.763L-61.4101 1024.09L-81.676 1041.07Z" fill="#1D1E1D"/>
<path d="M-120.158 932.616L-104.655 871.471L-79.0164 877.954L-94.5193 939.099L-120.158 932.616Z" fill="#1D1E1D"/>
<path d="M-52.6489 613.127L-114.159 627.449L-120.164 601.727L-58.6543 587.405L-52.6489 613.127Z" fill="#1D1E1D"/>
<path d="M-99.3213 473.778L-91.7763 536.401L-118.035 539.556L-125.579 476.933L-99.3213 473.778Z" fill="#1D1E1D"/>
<path d="M46.3574 1043.32L-63.2698 1001.67L-53.8655 976.981L55.7617 1018.63L46.3574 1043.32Z" fill="#1D1E1D"/>
<path d="M170.262 950.721L137.198 838.335L162.573 830.89L195.637 943.275L170.262 950.721Z" fill="#1D1E1D"/>
<path d="M200.24 1047.71L112.817 969.613L130.449 949.927L217.872 1028.02L200.24 1047.71Z" fill="#1D1E1D"/>
<path d="M213.827 931.576L289.612 842.174L309.798 859.24L234.013 948.642L213.827 931.576Z" fill="#1D1E1D"/>
<path d="M469.74 1019.65L586.824 1012.67L588.4 1039.03L471.316 1046.01L469.74 1019.65Z" fill="#1D1E1D"/>
<path d="M305.415 909.954L314.62 1026.73L288.254 1028.8L279.049 912.027L305.415 909.954Z" fill="#1D1E1D"/>
<path d="M-88.0543 651.589L-61.9317 768.115L-87.7404 773.885L-113.863 657.359L-88.0543 651.589Z" fill="#1D1E1D"/>
<path d="M-44.5324 392.193L-53.1313 511.294L-79.5104 509.395L-70.9115 390.294L-44.5324 392.193Z" fill="#1D1E1D"/>
<path d="M-96.1872 193.917L-85.0295 312.807L-111.362 315.271L-122.519 196.382L-96.1872 193.917Z" fill="#1D1E1D"/>
<path d="M-15.3128 691.874L-23.9117 810.975L-50.2908 809.076L-41.6919 689.975L-15.3128 691.874Z" fill="#1D1E1D"/>
<path d="M40.1004 682.743L77.9954 795.998L52.9111 804.369L15.0162 691.114L40.1004 682.743Z" fill="#1D1E1D"/>
<path d="M275.256 741.142L184.075 663.895L201.185 643.754L292.365 721.001L275.256 741.142Z" fill="#1D1E1D"/>
<path d="M-106.782 790.309L-22.6529 875.162L-41.4465 893.745L-125.576 808.893L-106.782 790.309Z" fill="#1D1E1D"/>
<path d="M16.9891 904.755L-79.2118 975.67L-94.9184 954.42L1.28242 883.505L16.9891 904.755Z" fill="#1D1E1D"/>
<path d="M175.837 645.946L79.6363 716.861L63.9297 695.611L160.131 624.696L175.837 645.946Z" fill="#1D1E1D"/>
<path d="M170.239 783.71L74.0384 854.625L58.3317 833.375L154.533 762.46L170.239 783.71Z" fill="#1D1E1D"/>
<path d="M318.976 535.278L430.464 464.258L444.687 486.526L333.199 557.546L318.976 535.278Z" fill="#1D1E1D"/>
<path d="M252.404 591.732L380.507 558.967L387.069 584.553L258.966 617.319L252.404 591.732Z" fill="#1D1E1D"/>
<path d="M397.046 527.437L482.037 628.61L461.775 645.585L376.784 544.412L397.046 527.437Z" fill="#1D1E1D"/>
<path d="M354.633 606.443L425.46 636.437L415.134 660.754L344.307 630.759L354.633 606.443Z" fill="#1D1E1D"/>
<path d="M435.919 750.526L453.894 825.229L428.178 831.4L410.204 756.697L435.919 750.526Z" fill="#1D1E1D"/>
<path d="M571.367 707.224L506.058 747.83L492.08 725.408L557.389 684.802L571.367 707.224Z" fill="#1D1E1D"/>
<path d="M595.468 780.713L595.023 703.885L621.47 703.733L621.915 780.56L595.468 780.713Z" fill="#1D1E1D"/>
<path d="M620.532 619.235L598.711 692.909L573.349 685.417L595.17 611.743L620.532 619.235Z" fill="#1D1E1D"/>
<path d="M508.719 614.728L507.186 537.914L533.628 537.388L535.161 614.202L508.719 614.728Z" fill="#1D1E1D"/>
<path d="M500.207 438.884L563.577 395.321L578.573 417.077L515.203 460.64L500.207 438.884Z" fill="#1D1E1D"/>
<path d="M510.959 468.532L568.947 519.02L551.567 538.928L493.579 488.44L510.959 468.532Z" fill="#1D1E1D"/>
<path d="M543.551 460.527L606.921 416.964L621.917 438.72L558.547 482.283L543.551 460.527Z" fill="#1D1E1D"/>
<path d="M554.867 906.255L445.24 864.604L454.644 839.918L564.272 881.569L554.867 906.255Z" fill="#1D1E1D"/>
<path d="M604.355 1012.72L519.968 931.362L538.337 912.359L622.724 993.715L604.355 1012.72Z" fill="#1D1E1D"/>
<path d="M513.222 1010.18L462.331 904.645L486.159 893.185L537.05 998.721L513.222 1010.18Z" fill="#1D1E1D"/>
<path d="M438.491 974.567L411.087 917.738L434.916 906.278L462.319 963.107L438.491 974.567Z" fill="#1D1E1D"/>
<path d="M460.909 1018.87L351.282 977.216L360.686 952.53L470.313 994.182L460.909 1018.87Z" fill="#1D1E1D"/>
<path d="M593.212 919.402L560.148 807.017L585.523 799.571L618.587 911.956L593.212 919.402Z" fill="#1D1E1D"/>
<path d="M314.902 623.415L359.261 734.304L334.701 744.102L290.342 633.214L314.902 623.415Z" fill="#1D1E1D"/>
<path d="M277.023 449.065L321.382 559.954L296.822 569.752L252.463 458.863L277.023 449.065Z" fill="#1D1E1D"/>
<path d="M351.215 377.393L342.616 496.494L316.237 494.595L324.835 375.494L351.215 377.393Z" fill="#1D1E1D"/>
<path d="M399.395 671.795L390.796 790.896L364.417 788.997L373.016 669.896L399.395 671.795Z" fill="#1D1E1D"/>
<path d="M454.814 662.643L492.709 775.898L467.624 784.268L429.729 671.014L454.814 662.643Z" fill="#1D1E1D"/>
<path d="M330.278 762.595L368.173 875.849L343.089 884.22L305.194 770.966L330.278 762.595Z" fill="#1D1E1D"/>
<path d="M431.697 884.676L335.496 955.591L319.789 934.341L415.99 863.426L431.697 884.676Z" fill="#1D1E1D"/>
<path d="M582.425 628.535L486.225 699.45L470.518 678.2L566.719 607.285L582.425 628.535Z" fill="#1D1E1D"/>
<path d="M584.948 763.63L488.747 834.546L473.04 813.296L569.241 742.38L584.948 763.63Z" fill="#1D1E1D"/>
<path d="M179.298 429.662L66.3179 498.29L52.5739 475.725L165.554 407.096L179.298 429.662Z" fill="#1D1E1D"/>
<path d="M247.06 374.624L118.286 404.653L112.272 378.932L241.046 348.904L247.06 374.624Z" fill="#1D1E1D"/>
<path d="M101.075 435.813L18.2646 332.852L38.8844 316.312L121.694 419.273L101.075 435.813Z" fill="#1D1E1D"/>
<path d="M145.165 357.758L74.9949 326.261L85.8373 302.17L156.007 333.667L145.165 357.758Z" fill="#1D1E1D"/>
<path d="M277.193 304.115L313.436 236.346L336.765 248.789L300.521 316.558L277.193 304.115Z" fill="#1D1E1D"/>
<path d="M332.331 212.47L260.386 239.682L251.018 214.982L322.963 187.77L332.331 212.47Z" fill="#1D1E1D"/>
<path d="M236.896 395.211L311.117 415.425L304.159 440.907L229.937 420.692L236.896 395.211Z" fill="#1D1E1D"/>
<path d="M66.8841 221.704L50.5098 146.636L76.3514 141.014L92.7257 216.083L66.8841 221.704Z" fill="#1D1E1D"/>
<path d="M131.481 166.898L66.7639 125.357L81.0639 103.139L145.781 144.679L131.481 166.898Z" fill="#1D1E1D"/>
<path d="M266.118 79.2924L217.809 19.5002L238.391 2.91457L286.701 62.7068L266.118 79.2924Z" fill="#1D1E1D"/>
<path d="M397.115 31.3351L326.369 1.14937L336.76 -23.1388L407.506 7.04687L397.115 31.3351Z" fill="#1D1E1D"/>
<path d="M-76.5568 247.957L-10.395 208.752L3.10092 231.466L-63.061 270.671L-76.5568 247.957Z" fill="#1D1E1D"/>
<path d="M-8.7043 346.175L-8.81271 423.004L-35.2603 422.967L-35.1519 346.138L-8.7043 346.175Z" fill="#1D1E1D"/>
<path d="M55.6614 428.077L-8.62484 470.279L-23.1526 448.209L41.1336 406.006L55.6614 428.077Z" fill="#1D1E1D"/>
<path d="M-48.5218 59.8524L65.037 89.1733L58.4168 114.745L-55.1421 85.4237L-48.5218 59.8524Z" fill="#1D1E1D"/>
<path d="M-2.05249 -54.683L46.5718 51.9135L22.5038 62.8628L-26.1205 -43.7337L-2.05249 -54.683Z" fill="#1D1E1D"/>
<path d="M69.1906 -12.0992L95.3737 45.3007L71.3058 56.25L45.1227 -1.14993L69.1906 -12.0992Z" fill="#1D1E1D"/>
<path d="M31.0795 -75.4173L133.027 -17.4927L119.949 5.46404L18.0009 -52.4606L31.0795 -75.4173Z" fill="#1D1E1D"/>
<path d="M-6.37143 134.864L-123.185 145.442L-125.573 119.137L-8.75978 108.559L-6.37143 134.864Z" fill="#1D1E1D"/>
<path d="M185.255 341.631L143.276 229.822L168.039 220.549L210.019 332.358L185.255 341.631Z" fill="#1D1E1D"/>
<path d="M213.139 519.955L186.766 403.485L212.563 397.66L238.936 514.129L213.139 519.955Z" fill="#1D1E1D"/>
<path d="M138.853 583.553L149.994 464.662L176.327 467.123L165.185 586.014L138.853 583.553Z" fill="#1D1E1D"/>
<path d="M99.2722 295.075L110.414 176.184L136.746 178.645L125.605 297.536L99.2722 295.075Z" fill="#1D1E1D"/>
<path d="M196.478 249.605L246.139 140.982L270.198 151.951L220.536 260.575L196.478 249.605Z" fill="#1D1E1D"/>
<path d="M46.2115 299.423L10.7449 185.386L36.0022 177.552L71.4689 291.588L46.2115 299.423Z" fill="#1D1E1D"/>
<path d="M172.848 202.113L137.381 88.0768L162.638 80.2424L198.105 194.279L172.848 202.113Z" fill="#1D1E1D"/>
<path d="M211.453 2.20286L101.981 -45.8249L112.618 -70.0065L222.09 -21.9787L211.453 2.20286Z" fill="#1D1E1D"/>
<path d="M250.554 -3.0903L350.258 -69.0026L364.857 -46.9786L265.152 18.9336L250.554 -3.0903Z" fill="#1D1E1D"/>
<path d="M191.378 -70.1319L310.468 -80.8281L312.837 -54.5221L193.747 -43.8259L191.378 -70.1319Z" fill="#1D1E1D"/>
<path d="M199.531 165.675L198.568 46.2685L225.014 46.0558L225.977 165.462L199.531 165.675Z" fill="#1D1E1D"/>
<path d="M74.0584 77.9397L171.752 9.0905L187.002 30.6704L89.3075 99.5196L74.0584 77.9397Z" fill="#1D1E1D"/>
<path d="M-90.2818 333.346L7.41225 264.497L22.6613 286.077L-75.0328 354.926L-90.2818 333.346Z" fill="#1D1E1D"/>
<path d="M239.108 273.489L309.618 369.928L288.258 385.503L217.748 289.064L239.108 273.489Z" fill="#1D1E1D"/>
<path d="M-111.776 -53.7742L-29.6578 33.0212L-48.8816 51.1605L-131 -35.6349L-111.776 -53.7742Z" fill="#1D1E1D"/>
<path d="M-83.8475 189.834L20.3307 131.227L33.3112 154.24L-70.867 212.846L-83.8475 189.834Z" fill="#1D1E1D"/>
<path d="M480.599 441.313L482.235 573.364L455.789 573.69L454.154 441.64L480.599 441.313Z" fill="#1D1E1D"/>
<path d="M507.164 412.017L424.354 309.056L444.974 292.516L527.784 395.477L507.164 412.017Z" fill="#1D1E1D"/>
<path d="M559.874 337.663L489.704 306.166L500.547 282.075L570.717 313.572L559.874 337.663Z" fill="#1D1E1D"/>
<path d="M618.003 378.446L541.074 379.12L540.842 352.709L617.771 352.035L618.003 378.446Z" fill="#1D1E1D"/>
<path d="M481.683 191.867L465.309 116.799L491.15 111.177L507.525 186.246L481.683 191.867Z" fill="#1D1E1D"/>
<path d="M596.957 114.026L573.351 40.903L598.522 32.7985L622.129 105.921L596.957 114.026Z" fill="#1D1E1D"/>
<path d="M286.42 177.194L270.046 102.125L295.888 96.5036L312.262 171.572L286.42 177.194Z" fill="#1D1E1D"/>
<path d="M338.156 227.878L404.318 188.673L417.814 211.387L351.652 250.592L338.156 227.878Z" fill="#1D1E1D"/>
<path d="M406.004 326.096L405.895 402.925L379.448 402.888L379.556 326.059L406.004 326.096Z" fill="#1D1E1D"/>
<path d="M-83.6791 370.508L-100.053 445.577L-125.895 439.955L-109.521 364.886L-83.6791 370.508Z" fill="#1D1E1D"/>
<path d="M-130.995 94.7031L-93.9134 27.3877L-70.7408 40.1183L-107.822 107.434L-130.995 94.7031Z" fill="#1D1E1D"/>
<path d="M-50.2687 0.300468L-71.3971 -73.5743L-45.9665 -80.8281L-24.8381 -6.95332L-50.2687 0.300468Z" fill="#1D1E1D"/>
<path d="M470.364 407.977L406.078 450.179L391.55 428.109L455.836 385.906L470.364 407.977Z" fill="#1D1E1D"/>
<path d="M324.172 1002.42L387.574 1045.94L402.554 1024.17L339.152 980.657L324.172 1002.42Z" fill="#1D1E1D"/>
<path d="M366.088 33.6389L474.8 77.6169L464.87 102.097L356.158 58.1189L366.088 33.6389Z" fill="#1D1E1D"/>
<path d="M409.951 -69.3562L458.575 37.2403L434.507 48.1896L385.883 -58.4069L409.951 -69.3562Z" fill="#1D1E1D"/>
<path d="M474.752 -34.8364L521.268 7.83089L503.377 27.2831L456.861 -15.3842L474.752 -34.8364Z" fill="#1D1E1D"/>
<path d="M621.048 -68.3681L591.252 -12.7529L567.933 -25.2129L597.729 -80.8281L621.048 -68.3681Z" fill="#1D1E1D"/>
<path d="M446.29 -75.4173L560.844 -50.2539L555.163 -24.4584L440.608 -49.6218L446.29 -75.4173Z" fill="#1D1E1D"/>
<path d="M328.034 19.668L358.69 132.732L333.162 139.635L302.506 26.5712L328.034 19.668Z" fill="#1D1E1D"/>
<path d="M589.043 331.74L565.287 214.71L591.208 209.462L614.963 326.492L589.043 331.74Z" fill="#1D1E1D"/>
<path d="M548.969 588.477L597.146 479.189L621.352 489.83L573.175 599.119L548.969 588.477Z" fill="#1D1E1D"/>
<path d="M516.518 271.375L527.659 152.485L553.992 154.946L542.85 273.837L516.518 271.375Z" fill="#1D1E1D"/>
<path d="M460.925 279.323L425.458 165.286L450.715 157.452L486.182 271.488L460.925 279.323Z" fill="#1D1E1D"/>
<path d="M601.704 190.189L530.006 94.6276L551.172 78.7901L622.87 174.352L601.704 190.189Z" fill="#1D1E1D"/>
<path d="M483.953 58.3614L581.647 -10.4879L596.896 11.092L499.202 79.9412L483.953 58.3614Z" fill="#1D1E1D"/>
<path d="M324.426 313.224L422.12 244.375L437.369 265.955L339.675 334.804L324.426 313.224Z" fill="#1D1E1D"/>
<path d="M332.971 175.588L430.665 106.738L445.914 128.318L348.22 197.167L332.971 175.588Z" fill="#1D1E1D"/>
</g>
<circle cx="261.5" cy="500.5" r="191" fill="#FF847C" stroke="#1D1E1D" stroke-width="25"/>
<circle cx="739.5" cy="500.5" r="191" fill="#FF847C" stroke="#1D1E1D" stroke-width="25"/>
<rect x="454" y="485" width="92" height="30" fill="#1D1E1D"/>
<rect x="614" y="485" width="250" height="30" fill="#1D1E1D"/>
<circle cx="739.5" cy="524.5" r="34.5" fill="#1D1E1D"/>
<rect x="126" y="485" width="250" height="30" fill="#1D1E1D"/>
<circle cx="251.5" cy="524.5" r="34.5" fill="#1D1E1D"/>
</svg>
