<svg width="1000" height="1000" viewBox="0 0 1000 1000" fill="none" xmlns="http://www.w3.org/2000/svg">
<rect width="1000" height="1000" fill="#C0A7D1"/>
<mask id="mask0_100_1614" style="mask-type:alpha" maskUnits="userSpaceOnUse" x="0" y="0" width="1000" height="1000">
<rect width="1000" height="1000" fill="white"/>
</mask>
<g mask="url(#mask0_100_1614)">
<path d="M723.146 896.801L795.073 822.673L858.857 884.563L920.748 820.779L982.808 880.997L1048.04 813.764L1117 880.673" stroke="white" stroke-width="20"/>
<path d="M719 878.144L790.926 804.017L854.711 865.907L916.601 802.123L978.662 862.34L1043.9 795.108L1112.85 862.017" stroke="#1D1E1D" stroke-width="20"/>
<path d="M188.648 146.285L297.722 83.3111L297.722 209.258L188.648 146.285Z" fill="#1D1E1D"/>
<path d="M82.8281 146.285L191.901 83.3111L191.901 209.258L82.8281 146.285Z" fill="#1D1E1D"/>
<path d="M-23 146.285L86.0731 83.3111L86.0732 209.258L-23 146.285Z" fill="#1D1E1D"/>
<path d="M188.648 124.714L297.722 61.7408L297.722 187.688L188.648 124.714Z" fill="#FFF8A0"/>
<path d="M82.8281 124.714L191.901 61.7408L191.901 187.688L82.8281 124.714Z" fill="#3FC2E0"/>
<path d="M-23 124.714L86.0731 61.7408L86.0732 187.688L-23 124.714Z" fill="#FF847C"/>
<path d="M663.813 -494.156C663.813 -487.304 658.258 -481.75 651.406 -481.75C644.555 -481.75 639 -487.304 639 -494.156C639 -501.008 644.555 -506.563 651.406 -506.562C658.258 -506.562 663.813 -501.008 663.813 -494.156Z" fill="#1D1E1D"/>
<path d="M713.438 -494.156C713.438 -487.304 707.883 -481.75 701.031 -481.75C694.18 -481.75 688.625 -487.304 688.625 -494.156C688.625 -501.008 694.18 -506.562 701.031 -506.562C707.883 -506.562 713.438 -501.008 713.438 -494.156Z" fill="#1D1E1D"/>
<path d="M763.063 -494.156C763.063 -487.304 757.508 -481.75 750.656 -481.75C743.805 -481.75 738.25 -487.304 738.25 -494.156C738.25 -501.008 743.805 -506.562 750.656 -506.562C757.508 -506.562 763.063 -501.008 763.063 -494.156Z" fill="#1D1E1D"/>
<path d="M812.688 -494.156C812.688 -487.304 807.133 -481.75 800.281 -481.75C793.43 -481.75 787.875 -487.304 787.875 -494.156C787.875 -501.008 793.43 -506.562 800.281 -506.562C807.133 -506.562 812.688 -501.008 812.688 -494.156Z" fill="#1D1E1D"/>
<path d="M862.313 -494.156C862.313 -487.304 856.758 -481.75 849.906 -481.75C843.055 -481.75 837.5 -487.304 837.5 -494.156C837.5 -501.008 843.055 -506.562 849.906 -506.562C856.758 -506.562 862.313 -501.008 862.313 -494.156Z" fill="#1D1E1D"/>
<path d="M911.938 -494.156C911.938 -487.304 906.383 -481.75 899.531 -481.75C892.679 -481.75 887.125 -487.304 887.125 -494.156C887.125 -501.008 892.68 -506.562 899.531 -506.562C906.383 -506.562 911.938 -501.008 911.938 -494.156Z" fill="#1D1E1D"/>
<path d="M961.562 -494.156C961.562 -487.304 956.008 -481.75 949.156 -481.75C942.304 -481.75 936.75 -487.304 936.75 -494.156C936.75 -501.008 942.304 -506.562 949.156 -506.562C956.008 -506.562 961.562 -501.008 961.562 -494.156Z" fill="#1D1E1D"/>
<path d="M1011.19 -494.156C1011.19 -487.304 1005.63 -481.75 998.781 -481.75C991.929 -481.75 986.375 -487.304 986.375 -494.156C986.375 -501.008 991.929 -506.562 998.781 -506.562C1005.63 -506.562 1011.19 -501.008 1011.19 -494.156Z" fill="#1D1E1D"/>
<path d="M1060.81 -494.156C1060.81 -487.304 1055.26 -481.75 1048.41 -481.75C1041.55 -481.75 1036 -487.304 1036 -494.156C1036 -501.008 1041.55 -506.562 1048.41 -506.562C1055.26 -506.562 1060.81 -501.008 1060.81 -494.156Z" fill="#1D1E1D"/>
<path d="M1110.44 -494.156C1110.44 -487.304 1104.88 -481.75 1098.03 -481.75C1091.18 -481.75 1085.62 -487.304 1085.62 -494.156C1085.62 -501.008 1091.18 -506.562 1098.03 -506.562C1104.88 -506.562 1110.44 -501.008 1110.44 -494.156Z" fill="#1D1E1D"/>
<path d="M1160.06 -494.156C1160.06 -487.304 1154.51 -481.75 1147.66 -481.75C1140.8 -481.75 1135.25 -487.304 1135.25 -494.156C1135.25 -501.008 1140.8 -506.562 1147.66 -506.562C1154.51 -506.562 1160.06 -501.008 1160.06 -494.156Z" fill="#1D1E1D"/>
<path d="M1209.69 -494.156C1209.69 -487.304 1204.13 -481.75 1197.28 -481.75C1190.43 -481.75 1184.87 -487.304 1184.87 -494.156C1184.87 -501.008 1190.43 -506.562 1197.28 -506.562C1204.13 -506.562 1209.69 -501.008 1209.69 -494.156Z" fill="#1D1E1D"/>
<path d="M1259.31 -494.156C1259.31 -487.304 1253.76 -481.75 1246.91 -481.75C1240.05 -481.75 1234.5 -487.304 1234.5 -494.156C1234.5 -501.008 1240.05 -506.562 1246.91 -506.562C1253.76 -506.562 1259.31 -501.008 1259.31 -494.156Z" fill="#1D1E1D"/>
<path d="M1308.94 -494.156C1308.94 -487.304 1303.38 -481.75 1296.53 -481.75C1289.68 -481.75 1284.12 -487.304 1284.12 -494.156C1284.12 -501.008 1289.68 -506.562 1296.53 -506.562C1303.38 -506.562 1308.94 -501.008 1308.94 -494.156Z" fill="#1D1E1D"/>
<path d="M1358.56 -494.156C1358.56 -487.304 1353.01 -481.75 1346.16 -481.75C1339.3 -481.75 1333.75 -487.304 1333.75 -494.156C1333.75 -501.008 1339.3 -506.562 1346.16 -506.562C1353.01 -506.562 1358.56 -501.008 1358.56 -494.156Z" fill="#1D1E1D"/>
<path d="M1408.19 -494.156C1408.19 -487.304 1402.63 -481.75 1395.78 -481.75C1388.93 -481.75 1383.37 -487.304 1383.37 -494.156C1383.37 -501.008 1388.93 -506.562 1395.78 -506.562C1402.63 -506.562 1408.19 -501.008 1408.19 -494.156Z" fill="#1D1E1D"/>
<path d="M1457.81 -494.156C1457.81 -487.304 1452.26 -481.75 1445.41 -481.75C1438.55 -481.75 1433 -487.304 1433 -494.156C1433 -501.008 1438.55 -506.562 1445.41 -506.562C1452.26 -506.562 1457.81 -501.008 1457.81 -494.156Z" fill="#1D1E1D"/>
<path d="M1507.44 -494.156C1507.44 -487.304 1501.88 -481.75 1495.03 -481.75C1488.18 -481.75 1482.62 -487.304 1482.62 -494.156C1482.62 -501.008 1488.18 -506.562 1495.03 -506.562C1501.88 -506.562 1507.44 -501.008 1507.44 -494.156Z" fill="#1D1E1D"/>
<path d="M1557.06 -494.156C1557.06 -487.304 1551.51 -481.75 1544.66 -481.75C1537.8 -481.75 1532.25 -487.304 1532.25 -494.156C1532.25 -501.008 1537.8 -506.562 1544.66 -506.562C1551.51 -506.562 1557.06 -501.008 1557.06 -494.156Z" fill="#1D1E1D"/>
<path d="M1606.69 -494.156C1606.69 -487.304 1601.13 -481.75 1594.28 -481.75C1587.43 -481.75 1581.87 -487.304 1581.87 -494.156C1581.87 -501.008 1587.43 -506.562 1594.28 -506.562C1601.13 -506.562 1606.69 -501.008 1606.69 -494.156Z" fill="#1D1E1D"/>
<path d="M1656.31 -494.156C1656.31 -487.304 1650.76 -481.75 1643.91 -481.75C1637.05 -481.75 1631.5 -487.304 1631.5 -494.156C1631.5 -501.008 1637.05 -506.562 1643.91 -506.562C1650.76 -506.562 1656.31 -501.008 1656.31 -494.156Z" fill="#1D1E1D"/>
<path d="M1705.94 -494.156C1705.94 -487.304 1700.38 -481.75 1693.53 -481.75C1686.68 -481.75 1681.12 -487.304 1681.12 -494.156C1681.12 -501.008 1686.68 -506.562 1693.53 -506.562C1700.38 -506.562 1705.94 -501.008 1705.94 -494.156Z" fill="#1D1E1D"/>
<path d="M663.813 -444.531C663.813 -437.679 658.258 -432.125 651.406 -432.125C644.555 -432.125 639 -437.679 639 -444.531C639 -451.383 644.555 -456.938 651.406 -456.938C658.258 -456.938 663.813 -451.383 663.813 -444.531Z" fill="#1D1E1D"/>
<path d="M713.438 -444.531C713.438 -437.679 707.883 -432.125 701.031 -432.125C694.18 -432.125 688.625 -437.679 688.625 -444.531C688.625 -451.383 694.18 -456.938 701.031 -456.938C707.883 -456.938 713.438 -451.383 713.438 -444.531Z" fill="#1D1E1D"/>
<path d="M763.063 -444.531C763.063 -437.679 757.508 -432.125 750.656 -432.125C743.805 -432.125 738.25 -437.679 738.25 -444.531C738.25 -451.383 743.805 -456.938 750.656 -456.937C757.508 -456.937 763.063 -451.383 763.063 -444.531Z" fill="#1D1E1D"/>
<path d="M812.688 -444.531C812.688 -437.679 807.133 -432.125 800.281 -432.125C793.43 -432.125 787.875 -437.679 787.875 -444.531C787.875 -451.383 793.43 -456.937 800.281 -456.937C807.133 -456.937 812.688 -451.383 812.688 -444.531Z" fill="#1D1E1D"/>
<path d="M862.313 -444.531C862.313 -437.679 856.758 -432.125 849.906 -432.125C843.055 -432.125 837.5 -437.679 837.5 -444.531C837.5 -451.383 843.055 -456.937 849.906 -456.937C856.758 -456.937 862.313 -451.383 862.313 -444.531Z" fill="#1D1E1D"/>
<path d="M911.938 -444.531C911.938 -437.679 906.383 -432.125 899.531 -432.125C892.679 -432.125 887.125 -437.679 887.125 -444.531C887.125 -451.383 892.679 -456.937 899.531 -456.937C906.383 -456.937 911.938 -451.383 911.938 -444.531Z" fill="#1D1E1D"/>
<path d="M961.562 -444.531C961.562 -437.679 956.008 -432.125 949.156 -432.125C942.304 -432.125 936.75 -437.679 936.75 -444.531C936.75 -451.383 942.304 -456.937 949.156 -456.937C956.008 -456.937 961.562 -451.383 961.562 -444.531Z" fill="#1D1E1D"/>
<path d="M1011.19 -444.531C1011.19 -437.679 1005.63 -432.125 998.781 -432.125C991.929 -432.125 986.375 -437.679 986.375 -444.531C986.375 -451.383 991.929 -456.937 998.781 -456.937C1005.63 -456.937 1011.19 -451.383 1011.19 -444.531Z" fill="#1D1E1D"/>
<path d="M1060.81 -444.531C1060.81 -437.679 1055.26 -432.125 1048.41 -432.125C1041.55 -432.125 1036 -437.679 1036 -444.531C1036 -451.383 1041.55 -456.937 1048.41 -456.937C1055.26 -456.937 1060.81 -451.383 1060.81 -444.531Z" fill="#1D1E1D"/>
<path d="M1110.44 -444.531C1110.44 -437.679 1104.88 -432.125 1098.03 -432.125C1091.18 -432.125 1085.62 -437.679 1085.62 -444.531C1085.62 -451.383 1091.18 -456.937 1098.03 -456.937C1104.88 -456.937 1110.44 -451.383 1110.44 -444.531Z" fill="#1D1E1D"/>
<path d="M1160.06 -444.531C1160.06 -437.679 1154.51 -432.125 1147.66 -432.125C1140.8 -432.125 1135.25 -437.679 1135.25 -444.531C1135.25 -451.383 1140.8 -456.937 1147.66 -456.937C1154.51 -456.937 1160.06 -451.383 1160.06 -444.531Z" fill="#1D1E1D"/>
<path d="M1209.69 -444.531C1209.69 -437.679 1204.13 -432.125 1197.28 -432.125C1190.43 -432.125 1184.87 -437.679 1184.87 -444.531C1184.87 -451.383 1190.43 -456.937 1197.28 -456.937C1204.13 -456.937 1209.69 -451.383 1209.69 -444.531Z" fill="#1D1E1D"/>
<path d="M1259.31 -444.531C1259.31 -437.679 1253.76 -432.125 1246.91 -432.125C1240.05 -432.125 1234.5 -437.679 1234.5 -444.531C1234.5 -451.383 1240.05 -456.937 1246.91 -456.937C1253.76 -456.937 1259.31 -451.383 1259.31 -444.531Z" fill="#1D1E1D"/>
<path d="M1308.94 -444.531C1308.94 -437.679 1303.38 -432.125 1296.53 -432.125C1289.68 -432.125 1284.12 -437.679 1284.12 -444.531C1284.12 -451.383 1289.68 -456.937 1296.53 -456.937C1303.38 -456.937 1308.94 -451.383 1308.94 -444.531Z" fill="#1D1E1D"/>
<path d="M1358.56 -444.531C1358.56 -437.679 1353.01 -432.125 1346.16 -432.125C1339.3 -432.125 1333.75 -437.679 1333.75 -444.531C1333.75 -451.383 1339.3 -456.937 1346.16 -456.937C1353.01 -456.937 1358.56 -451.383 1358.56 -444.531Z" fill="#1D1E1D"/>
<path d="M1408.19 -444.531C1408.19 -437.679 1402.63 -432.125 1395.78 -432.125C1388.93 -432.125 1383.37 -437.679 1383.37 -444.531C1383.37 -451.383 1388.93 -456.937 1395.78 -456.937C1402.63 -456.937 1408.19 -451.383 1408.19 -444.531Z" fill="#1D1E1D"/>
<path d="M1457.81 -444.531C1457.81 -437.679 1452.26 -432.125 1445.41 -432.125C1438.55 -432.125 1433 -437.679 1433 -444.531C1433 -451.383 1438.55 -456.937 1445.41 -456.937C1452.26 -456.937 1457.81 -451.383 1457.81 -444.531Z" fill="#1D1E1D"/>
<path d="M1507.44 -444.531C1507.44 -437.679 1501.88 -432.125 1495.03 -432.125C1488.18 -432.125 1482.62 -437.679 1482.62 -444.531C1482.62 -451.383 1488.18 -456.937 1495.03 -456.937C1501.88 -456.937 1507.44 -451.383 1507.44 -444.531Z" fill="#1D1E1D"/>
<path d="M1557.06 -444.531C1557.06 -437.679 1551.51 -432.125 1544.66 -432.125C1537.8 -432.125 1532.25 -437.679 1532.25 -444.531C1532.25 -451.383 1537.8 -456.937 1544.66 -456.937C1551.51 -456.937 1557.06 -451.383 1557.06 -444.531Z" fill="#1D1E1D"/>
<path d="M1606.69 -444.531C1606.69 -437.679 1601.13 -432.125 1594.28 -432.125C1587.43 -432.125 1581.87 -437.679 1581.87 -444.531C1581.87 -451.383 1587.43 -456.937 1594.28 -456.937C1601.13 -456.937 1606.69 -451.383 1606.69 -444.531Z" fill="#1D1E1D"/>
<path d="M1656.31 -444.531C1656.31 -437.679 1650.76 -432.125 1643.91 -432.125C1637.05 -432.125 1631.5 -437.679 1631.5 -444.531C1631.5 -451.383 1637.05 -456.937 1643.91 -456.937C1650.76 -456.937 1656.31 -451.383 1656.31 -444.531Z" fill="#1D1E1D"/>
<path d="M1705.94 -444.531C1705.94 -437.679 1700.38 -432.125 1693.53 -432.125C1686.68 -432.125 1681.12 -437.679 1681.12 -444.531C1681.12 -451.383 1686.68 -456.937 1693.53 -456.937C1700.38 -456.937 1705.94 -451.383 1705.94 -444.531Z" fill="#1D1E1D"/>
<path d="M663.813 -394.906C663.813 -388.055 658.258 -382.5 651.406 -382.5C644.555 -382.5 639 -388.055 639 -394.906C639 -401.758 644.555 -407.313 651.406 -407.313C658.258 -407.313 663.813 -401.758 663.813 -394.906Z" fill="#1D1E1D"/>
<path d="M713.438 -394.906C713.438 -388.055 707.883 -382.5 701.031 -382.5C694.18 -382.5 688.625 -388.055 688.625 -394.906C688.625 -401.758 694.18 -407.313 701.031 -407.313C707.883 -407.313 713.438 -401.758 713.438 -394.906Z" fill="#1D1E1D"/>
<path d="M763.063 -394.906C763.063 -388.054 757.508 -382.5 750.656 -382.5C743.805 -382.5 738.25 -388.054 738.25 -394.906C738.25 -401.758 743.805 -407.313 750.656 -407.313C757.508 -407.313 763.063 -401.758 763.063 -394.906Z" fill="#1D1E1D"/>
<path d="M812.688 -394.906C812.688 -388.054 807.133 -382.5 800.281 -382.5C793.43 -382.5 787.875 -388.054 787.875 -394.906C787.875 -401.758 793.43 -407.313 800.281 -407.313C807.133 -407.313 812.688 -401.758 812.688 -394.906Z" fill="#1D1E1D"/>
<path d="M862.313 -394.906C862.313 -388.054 856.758 -382.5 849.906 -382.5C843.054 -382.5 837.5 -388.054 837.5 -394.906C837.5 -401.758 843.055 -407.312 849.906 -407.312C856.758 -407.312 862.313 -401.758 862.313 -394.906Z" fill="#1D1E1D"/>
<path d="M911.938 -394.906C911.938 -388.054 906.383 -382.5 899.531 -382.5C892.679 -382.5 887.125 -388.054 887.125 -394.906C887.125 -401.758 892.679 -407.312 899.531 -407.312C906.383 -407.312 911.938 -401.758 911.938 -394.906Z" fill="#1D1E1D"/>
<path d="M961.562 -394.906C961.562 -388.054 956.008 -382.5 949.156 -382.5C942.304 -382.5 936.75 -388.054 936.75 -394.906C936.75 -401.758 942.304 -407.312 949.156 -407.312C956.008 -407.312 961.562 -401.758 961.562 -394.906Z" fill="#1D1E1D"/>
<path d="M1011.19 -394.906C1011.19 -388.054 1005.63 -382.5 998.781 -382.5C991.929 -382.5 986.375 -388.054 986.375 -394.906C986.375 -401.758 991.929 -407.312 998.781 -407.312C1005.63 -407.312 1011.19 -401.758 1011.19 -394.906Z" fill="#1D1E1D"/>
<path d="M1060.81 -394.906C1060.81 -388.054 1055.26 -382.5 1048.41 -382.5C1041.55 -382.5 1036 -388.054 1036 -394.906C1036 -401.758 1041.55 -407.312 1048.41 -407.312C1055.26 -407.312 1060.81 -401.758 1060.81 -394.906Z" fill="#1D1E1D"/>
<path d="M1110.44 -394.906C1110.44 -388.054 1104.88 -382.5 1098.03 -382.5C1091.18 -382.5 1085.62 -388.054 1085.62 -394.906C1085.62 -401.758 1091.18 -407.312 1098.03 -407.312C1104.88 -407.312 1110.44 -401.758 1110.44 -394.906Z" fill="#1D1E1D"/>
<path d="M1160.06 -394.906C1160.06 -388.054 1154.51 -382.5 1147.66 -382.5C1140.8 -382.5 1135.25 -388.054 1135.25 -394.906C1135.25 -401.758 1140.8 -407.312 1147.66 -407.312C1154.51 -407.312 1160.06 -401.758 1160.06 -394.906Z" fill="#1D1E1D"/>
<path d="M1209.69 -394.906C1209.69 -388.054 1204.13 -382.5 1197.28 -382.5C1190.43 -382.5 1184.87 -388.054 1184.87 -394.906C1184.87 -401.758 1190.43 -407.312 1197.28 -407.312C1204.13 -407.312 1209.69 -401.758 1209.69 -394.906Z" fill="#1D1E1D"/>
<path d="M1259.31 -394.906C1259.31 -388.054 1253.76 -382.5 1246.91 -382.5C1240.05 -382.5 1234.5 -388.054 1234.5 -394.906C1234.5 -401.758 1240.05 -407.312 1246.91 -407.312C1253.76 -407.312 1259.31 -401.758 1259.31 -394.906Z" fill="#1D1E1D"/>
<path d="M1308.94 -394.906C1308.94 -388.054 1303.38 -382.5 1296.53 -382.5C1289.68 -382.5 1284.12 -388.054 1284.12 -394.906C1284.12 -401.758 1289.68 -407.312 1296.53 -407.312C1303.38 -407.312 1308.94 -401.758 1308.94 -394.906Z" fill="#1D1E1D"/>
<path d="M1358.56 -394.906C1358.56 -388.054 1353.01 -382.5 1346.16 -382.5C1339.3 -382.5 1333.75 -388.054 1333.75 -394.906C1333.75 -401.758 1339.3 -407.312 1346.16 -407.312C1353.01 -407.312 1358.56 -401.758 1358.56 -394.906Z" fill="#1D1E1D"/>
<path d="M1408.19 -394.906C1408.19 -388.054 1402.63 -382.5 1395.78 -382.5C1388.93 -382.5 1383.37 -388.054 1383.37 -394.906C1383.37 -401.758 1388.93 -407.312 1395.78 -407.312C1402.63 -407.312 1408.19 -401.758 1408.19 -394.906Z" fill="#1D1E1D"/>
<path d="M1457.81 -394.906C1457.81 -388.054 1452.26 -382.5 1445.41 -382.5C1438.55 -382.5 1433 -388.054 1433 -394.906C1433 -401.758 1438.55 -407.312 1445.41 -407.312C1452.26 -407.312 1457.81 -401.758 1457.81 -394.906Z" fill="#1D1E1D"/>
<path d="M1507.44 -394.906C1507.44 -388.054 1501.88 -382.5 1495.03 -382.5C1488.18 -382.5 1482.62 -388.054 1482.62 -394.906C1482.62 -401.758 1488.18 -407.312 1495.03 -407.312C1501.88 -407.312 1507.44 -401.758 1507.44 -394.906Z" fill="#1D1E1D"/>
<path d="M1557.06 -394.906C1557.06 -388.054 1551.51 -382.5 1544.66 -382.5C1537.8 -382.5 1532.25 -388.054 1532.25 -394.906C1532.25 -401.758 1537.8 -407.312 1544.66 -407.312C1551.51 -407.312 1557.06 -401.758 1557.06 -394.906Z" fill="#1D1E1D"/>
<path d="M1606.69 -394.906C1606.69 -388.054 1601.13 -382.5 1594.28 -382.5C1587.43 -382.5 1581.87 -388.054 1581.87 -394.906C1581.87 -401.758 1587.43 -407.312 1594.28 -407.312C1601.13 -407.312 1606.69 -401.758 1606.69 -394.906Z" fill="#1D1E1D"/>
<path d="M1656.31 -394.906C1656.31 -388.054 1650.76 -382.5 1643.91 -382.5C1637.05 -382.5 1631.5 -388.054 1631.5 -394.906C1631.5 -401.758 1637.05 -407.312 1643.91 -407.312C1650.76 -407.312 1656.31 -401.758 1656.31 -394.906Z" fill="#1D1E1D"/>
<path d="M1705.94 -394.906C1705.94 -388.054 1700.38 -382.5 1693.53 -382.5C1686.68 -382.5 1681.12 -388.054 1681.12 -394.906C1681.12 -401.758 1686.68 -407.312 1693.53 -407.312C1700.38 -407.312 1705.94 -401.758 1705.94 -394.906Z" fill="#1D1E1D"/>
<path d="M663.813 -345.281C663.813 -338.43 658.258 -332.875 651.406 -332.875C644.555 -332.875 639 -338.43 639 -345.281C639 -352.133 644.555 -357.688 651.406 -357.688C658.258 -357.688 663.813 -352.133 663.813 -345.281Z" fill="#1D1E1D"/>
<path d="M713.438 -345.281C713.438 -338.43 707.883 -332.875 701.031 -332.875C694.18 -332.875 688.625 -338.43 688.625 -345.281C688.625 -352.133 694.18 -357.688 701.031 -357.688C707.883 -357.688 713.438 -352.133 713.438 -345.281Z" fill="#1D1E1D"/>
<path d="M763.063 -345.281C763.063 -338.43 757.508 -332.875 750.656 -332.875C743.805 -332.875 738.25 -338.43 738.25 -345.281C738.25 -352.133 743.805 -357.688 750.656 -357.688C757.508 -357.688 763.063 -352.133 763.063 -345.281Z" fill="#1D1E1D"/>
<path d="M812.688 -345.281C812.688 -338.43 807.133 -332.875 800.281 -332.875C793.43 -332.875 787.875 -338.43 787.875 -345.281C787.875 -352.133 793.43 -357.688 800.281 -357.688C807.133 -357.688 812.688 -352.133 812.688 -345.281Z" fill="#1D1E1D"/>
<path d="M862.313 -345.281C862.313 -338.429 856.758 -332.875 849.906 -332.875C843.054 -332.875 837.5 -338.429 837.5 -345.281C837.5 -352.133 843.054 -357.688 849.906 -357.688C856.758 -357.688 862.313 -352.133 862.313 -345.281Z" fill="#1D1E1D"/>
<path d="M911.937 -345.281C911.937 -338.429 906.383 -332.875 899.531 -332.875C892.679 -332.875 887.125 -338.429 887.125 -345.281C887.125 -352.133 892.679 -357.688 899.531 -357.688C906.383 -357.688 911.937 -352.133 911.937 -345.281Z" fill="#1D1E1D"/>
<path d="M961.562 -345.281C961.562 -338.429 956.008 -332.875 949.156 -332.875C942.304 -332.875 936.75 -338.429 936.75 -345.281C936.75 -352.133 942.304 -357.687 949.156 -357.687C956.008 -357.687 961.562 -352.133 961.562 -345.281Z" fill="#1D1E1D"/>
<path d="M1011.19 -345.281C1011.19 -338.429 1005.63 -332.875 998.781 -332.875C991.929 -332.875 986.375 -338.429 986.375 -345.281C986.375 -352.133 991.929 -357.687 998.781 -357.687C1005.63 -357.687 1011.19 -352.133 1011.19 -345.281Z" fill="#1D1E1D"/>
<path d="M1060.81 -345.281C1060.81 -338.429 1055.26 -332.875 1048.41 -332.875C1041.55 -332.875 1036 -338.429 1036 -345.281C1036 -352.133 1041.55 -357.687 1048.41 -357.687C1055.26 -357.687 1060.81 -352.133 1060.81 -345.281Z" fill="#1D1E1D"/>
<path d="M1110.44 -345.281C1110.44 -338.429 1104.88 -332.875 1098.03 -332.875C1091.18 -332.875 1085.62 -338.429 1085.62 -345.281C1085.62 -352.133 1091.18 -357.687 1098.03 -357.687C1104.88 -357.687 1110.44 -352.133 1110.44 -345.281Z" fill="#1D1E1D"/>
<path d="M1160.06 -345.281C1160.06 -338.429 1154.51 -332.875 1147.66 -332.875C1140.8 -332.875 1135.25 -338.429 1135.25 -345.281C1135.25 -352.133 1140.8 -357.687 1147.66 -357.687C1154.51 -357.687 1160.06 -352.133 1160.06 -345.281Z" fill="#1D1E1D"/>
<path d="M1209.69 -345.281C1209.69 -338.429 1204.13 -332.875 1197.28 -332.875C1190.43 -332.875 1184.87 -338.429 1184.87 -345.281C1184.87 -352.133 1190.43 -357.687 1197.28 -357.687C1204.13 -357.687 1209.69 -352.133 1209.69 -345.281Z" fill="#1D1E1D"/>
<path d="M1259.31 -345.281C1259.31 -338.429 1253.76 -332.875 1246.91 -332.875C1240.05 -332.875 1234.5 -338.429 1234.5 -345.281C1234.5 -352.133 1240.05 -357.687 1246.91 -357.687C1253.76 -357.687 1259.31 -352.133 1259.31 -345.281Z" fill="#1D1E1D"/>
<path d="M1308.94 -345.281C1308.94 -338.429 1303.38 -332.875 1296.53 -332.875C1289.68 -332.875 1284.12 -338.429 1284.12 -345.281C1284.12 -352.133 1289.68 -357.687 1296.53 -357.687C1303.38 -357.687 1308.94 -352.133 1308.94 -345.281Z" fill="#1D1E1D"/>
<path d="M1358.56 -345.281C1358.56 -338.429 1353.01 -332.875 1346.16 -332.875C1339.3 -332.875 1333.75 -338.429 1333.75 -345.281C1333.75 -352.133 1339.3 -357.687 1346.16 -357.687C1353.01 -357.687 1358.56 -352.133 1358.56 -345.281Z" fill="#1D1E1D"/>
<path d="M1408.19 -345.281C1408.19 -338.429 1402.63 -332.875 1395.78 -332.875C1388.93 -332.875 1383.37 -338.429 1383.37 -345.281C1383.37 -352.133 1388.93 -357.687 1395.78 -357.687C1402.63 -357.687 1408.19 -352.133 1408.19 -345.281Z" fill="#1D1E1D"/>
<path d="M1457.81 -345.281C1457.81 -338.429 1452.26 -332.875 1445.41 -332.875C1438.55 -332.875 1433 -338.429 1433 -345.281C1433 -352.133 1438.55 -357.687 1445.41 -357.687C1452.26 -357.687 1457.81 -352.133 1457.81 -345.281Z" fill="#1D1E1D"/>
<path d="M1507.44 -345.281C1507.44 -338.429 1501.88 -332.875 1495.03 -332.875C1488.18 -332.875 1482.62 -338.429 1482.62 -345.281C1482.62 -352.133 1488.18 -357.687 1495.03 -357.687C1501.88 -357.687 1507.44 -352.133 1507.44 -345.281Z" fill="#1D1E1D"/>
<path d="M1557.06 -345.281C1557.06 -338.429 1551.51 -332.875 1544.66 -332.875C1537.8 -332.875 1532.25 -338.429 1532.25 -345.281C1532.25 -352.133 1537.8 -357.687 1544.66 -357.687C1551.51 -357.687 1557.06 -352.133 1557.06 -345.281Z" fill="#1D1E1D"/>
<path d="M1606.69 -345.281C1606.69 -338.429 1601.13 -332.875 1594.28 -332.875C1587.43 -332.875 1581.87 -338.429 1581.87 -345.281C1581.87 -352.133 1587.43 -357.687 1594.28 -357.687C1601.13 -357.687 1606.69 -352.133 1606.69 -345.281Z" fill="#1D1E1D"/>
<path d="M1656.31 -345.281C1656.31 -338.429 1650.76 -332.875 1643.91 -332.875C1637.05 -332.875 1631.5 -338.429 1631.5 -345.281C1631.5 -352.133 1637.05 -357.687 1643.91 -357.687C1650.76 -357.687 1656.31 -352.133 1656.31 -345.281Z" fill="#1D1E1D"/>
<path d="M1705.94 -345.281C1705.94 -338.429 1700.38 -332.875 1693.53 -332.875C1686.68 -332.875 1681.12 -338.429 1681.12 -345.281C1681.12 -352.133 1686.68 -357.687 1693.53 -357.687C1700.38 -357.687 1705.94 -352.133 1705.94 -345.281Z" fill="#1D1E1D"/>
<path d="M663.813 -295.656C663.813 -288.805 658.258 -283.25 651.406 -283.25C644.555 -283.25 639 -288.805 639 -295.656C639 -302.508 644.555 -308.063 651.406 -308.063C658.258 -308.063 663.813 -302.508 663.813 -295.656Z" fill="#1D1E1D"/>
<path d="M713.438 -295.656C713.438 -288.805 707.883 -283.25 701.031 -283.25C694.18 -283.25 688.625 -288.805 688.625 -295.656C688.625 -302.508 694.18 -308.063 701.031 -308.063C707.883 -308.063 713.438 -302.508 713.438 -295.656Z" fill="#1D1E1D"/>
<path d="M763.063 -295.656C763.063 -288.805 757.508 -283.25 750.656 -283.25C743.805 -283.25 738.25 -288.805 738.25 -295.656C738.25 -302.508 743.805 -308.063 750.656 -308.063C757.508 -308.063 763.063 -302.508 763.063 -295.656Z" fill="#1D1E1D"/>
<path d="M812.688 -295.656C812.688 -288.805 807.133 -283.25 800.281 -283.25C793.429 -283.25 787.875 -288.805 787.875 -295.656C787.875 -302.508 793.43 -308.063 800.281 -308.063C807.133 -308.063 812.688 -302.508 812.688 -295.656Z" fill="#1D1E1D"/>
<path d="M862.313 -295.656C862.313 -288.805 856.758 -283.25 849.906 -283.25C843.054 -283.25 837.5 -288.805 837.5 -295.656C837.5 -302.508 843.054 -308.063 849.906 -308.063C856.758 -308.063 862.313 -302.508 862.313 -295.656Z" fill="#1D1E1D"/>
<path d="M911.937 -295.656C911.937 -288.805 906.383 -283.25 899.531 -283.25C892.679 -283.25 887.125 -288.805 887.125 -295.656C887.125 -302.508 892.679 -308.063 899.531 -308.063C906.383 -308.063 911.937 -302.508 911.937 -295.656Z" fill="#1D1E1D"/>
<path d="M961.562 -295.656C961.562 -288.804 956.008 -283.25 949.156 -283.25C942.304 -283.25 936.75 -288.804 936.75 -295.656C936.75 -302.508 942.304 -308.063 949.156 -308.063C956.008 -308.063 961.562 -302.508 961.562 -295.656Z" fill="#1D1E1D"/>
<path d="M1011.19 -295.656C1011.19 -288.804 1005.63 -283.25 998.781 -283.25C991.929 -283.25 986.375 -288.804 986.375 -295.656C986.375 -302.508 991.929 -308.063 998.781 -308.063C1005.63 -308.063 1011.19 -302.508 1011.19 -295.656Z" fill="#1D1E1D"/>
<path d="M1060.81 -295.656C1060.81 -288.804 1055.26 -283.25 1048.41 -283.25C1041.55 -283.25 1036 -288.804 1036 -295.656C1036 -302.508 1041.55 -308.062 1048.41 -308.062C1055.26 -308.062 1060.81 -302.508 1060.81 -295.656Z" fill="#1D1E1D"/>
<path d="M1110.44 -295.656C1110.44 -288.804 1104.88 -283.25 1098.03 -283.25C1091.18 -283.25 1085.62 -288.804 1085.62 -295.656C1085.62 -302.508 1091.18 -308.062 1098.03 -308.062C1104.88 -308.062 1110.44 -302.508 1110.44 -295.656Z" fill="#1D1E1D"/>
<path d="M1160.06 -295.656C1160.06 -288.804 1154.51 -283.25 1147.66 -283.25C1140.8 -283.25 1135.25 -288.804 1135.25 -295.656C1135.25 -302.508 1140.8 -308.062 1147.66 -308.062C1154.51 -308.062 1160.06 -302.508 1160.06 -295.656Z" fill="#1D1E1D"/>
<path d="M1209.69 -295.656C1209.69 -288.804 1204.13 -283.25 1197.28 -283.25C1190.43 -283.25 1184.87 -288.804 1184.87 -295.656C1184.87 -302.508 1190.43 -308.062 1197.28 -308.062C1204.13 -308.062 1209.69 -302.508 1209.69 -295.656Z" fill="#1D1E1D"/>
<path d="M1259.31 -295.656C1259.31 -288.804 1253.76 -283.25 1246.91 -283.25C1240.05 -283.25 1234.5 -288.804 1234.5 -295.656C1234.5 -302.508 1240.05 -308.062 1246.91 -308.062C1253.76 -308.062 1259.31 -302.508 1259.31 -295.656Z" fill="#1D1E1D"/>
<path d="M1308.94 -295.656C1308.94 -288.804 1303.38 -283.25 1296.53 -283.25C1289.68 -283.25 1284.12 -288.804 1284.12 -295.656C1284.12 -302.508 1289.68 -308.062 1296.53 -308.062C1303.38 -308.062 1308.94 -302.508 1308.94 -295.656Z" fill="#1D1E1D"/>
<path d="M1358.56 -295.656C1358.56 -288.804 1353.01 -283.25 1346.16 -283.25C1339.3 -283.25 1333.75 -288.804 1333.75 -295.656C1333.75 -302.508 1339.3 -308.062 1346.16 -308.062C1353.01 -308.062 1358.56 -302.508 1358.56 -295.656Z" fill="#1D1E1D"/>
<path d="M1408.19 -295.656C1408.19 -288.804 1402.63 -283.25 1395.78 -283.25C1388.93 -283.25 1383.37 -288.804 1383.37 -295.656C1383.37 -302.508 1388.93 -308.062 1395.78 -308.062C1402.63 -308.062 1408.19 -302.508 1408.19 -295.656Z" fill="#1D1E1D"/>
<path d="M1457.81 -295.656C1457.81 -288.804 1452.26 -283.25 1445.41 -283.25C1438.55 -283.25 1433 -288.804 1433 -295.656C1433 -302.508 1438.55 -308.062 1445.41 -308.062C1452.26 -308.062 1457.81 -302.508 1457.81 -295.656Z" fill="#1D1E1D"/>
<path d="M1507.44 -295.656C1507.44 -288.804 1501.88 -283.25 1495.03 -283.25C1488.18 -283.25 1482.62 -288.804 1482.62 -295.656C1482.62 -302.508 1488.18 -308.062 1495.03 -308.062C1501.88 -308.062 1507.44 -302.508 1507.44 -295.656Z" fill="#1D1E1D"/>
<path d="M1557.06 -295.656C1557.06 -288.804 1551.51 -283.25 1544.66 -283.25C1537.8 -283.25 1532.25 -288.804 1532.25 -295.656C1532.25 -302.508 1537.8 -308.062 1544.66 -308.062C1551.51 -308.062 1557.06 -302.508 1557.06 -295.656Z" fill="#1D1E1D"/>
<path d="M1606.69 -295.656C1606.69 -288.804 1601.13 -283.25 1594.28 -283.25C1587.43 -283.25 1581.87 -288.804 1581.87 -295.656C1581.87 -302.508 1587.43 -308.062 1594.28 -308.062C1601.13 -308.062 1606.69 -302.508 1606.69 -295.656Z" fill="#1D1E1D"/>
<path d="M1656.31 -295.656C1656.31 -288.804 1650.76 -283.25 1643.91 -283.25C1637.05 -283.25 1631.5 -288.804 1631.5 -295.656C1631.5 -302.508 1637.05 -308.062 1643.91 -308.062C1650.76 -308.062 1656.31 -302.508 1656.31 -295.656Z" fill="#1D1E1D"/>
<path d="M1705.94 -295.656C1705.94 -288.804 1700.38 -283.25 1693.53 -283.25C1686.68 -283.25 1681.12 -288.804 1681.12 -295.656C1681.12 -302.508 1686.68 -308.062 1693.53 -308.062C1700.38 -308.062 1705.94 -302.508 1705.94 -295.656Z" fill="#1D1E1D"/>
<path d="M663.813 -246.031C663.813 -239.18 658.258 -233.625 651.406 -233.625C644.555 -233.625 639 -239.18 639 -246.031C639 -252.883 644.555 -258.438 651.406 -258.438C658.258 -258.438 663.813 -252.883 663.813 -246.031Z" fill="#1D1E1D"/>
<path d="M713.438 -246.031C713.438 -239.18 707.883 -233.625 701.031 -233.625C694.18 -233.625 688.625 -239.18 688.625 -246.031C688.625 -252.883 694.18 -258.438 701.031 -258.438C707.883 -258.438 713.438 -252.883 713.438 -246.031Z" fill="#1D1E1D"/>
<path d="M763.063 -246.031C763.063 -239.18 757.508 -233.625 750.656 -233.625C743.805 -233.625 738.25 -239.18 738.25 -246.031C738.25 -252.883 743.805 -258.438 750.656 -258.438C757.508 -258.438 763.063 -252.883 763.063 -246.031Z" fill="#1D1E1D"/>
<path d="M812.688 -246.031C812.688 -239.18 807.133 -233.625 800.281 -233.625C793.429 -233.625 787.875 -239.18 787.875 -246.031C787.875 -252.883 793.429 -258.438 800.281 -258.438C807.133 -258.438 812.688 -252.883 812.688 -246.031Z" fill="#1D1E1D"/>
<path d="M862.312 -246.031C862.312 -239.18 856.758 -233.625 849.906 -233.625C843.054 -233.625 837.5 -239.18 837.5 -246.031C837.5 -252.883 843.054 -258.438 849.906 -258.438C856.758 -258.438 862.312 -252.883 862.312 -246.031Z" fill="#1D1E1D"/>
<path d="M911.937 -246.031C911.937 -239.18 906.383 -233.625 899.531 -233.625C892.679 -233.625 887.125 -239.18 887.125 -246.031C887.125 -252.883 892.679 -258.438 899.531 -258.438C906.383 -258.438 911.937 -252.883 911.937 -246.031Z" fill="#1D1E1D"/>
<path d="M961.562 -246.031C961.562 -239.18 956.008 -233.625 949.156 -233.625C942.304 -233.625 936.75 -239.18 936.75 -246.031C936.75 -252.883 942.304 -258.438 949.156 -258.438C956.008 -258.438 961.562 -252.883 961.562 -246.031Z" fill="#1D1E1D"/>
<path d="M1011.19 -246.031C1011.19 -239.18 1005.63 -233.625 998.781 -233.625C991.929 -233.625 986.375 -239.18 986.375 -246.031C986.375 -252.883 991.929 -258.438 998.781 -258.438C1005.63 -258.438 1011.19 -252.883 1011.19 -246.031Z" fill="#1D1E1D"/>
<path d="M1060.81 -246.031C1060.81 -239.179 1055.26 -233.625 1048.41 -233.625C1041.55 -233.625 1036 -239.179 1036 -246.031C1036 -252.883 1041.55 -258.438 1048.41 -258.438C1055.26 -258.438 1060.81 -252.883 1060.81 -246.031Z" fill="#1D1E1D"/>
<path d="M1110.44 -246.031C1110.44 -239.179 1104.88 -233.625 1098.03 -233.625C1091.18 -233.625 1085.62 -239.179 1085.62 -246.031C1085.62 -252.883 1091.18 -258.438 1098.03 -258.438C1104.88 -258.438 1110.44 -252.883 1110.44 -246.031Z" fill="#1D1E1D"/>
<path d="M1160.06 -246.031C1160.06 -239.179 1154.51 -233.625 1147.66 -233.625C1140.8 -233.625 1135.25 -239.179 1135.25 -246.031C1135.25 -252.883 1140.8 -258.437 1147.66 -258.437C1154.51 -258.437 1160.06 -252.883 1160.06 -246.031Z" fill="#1D1E1D"/>
<path d="M1209.69 -246.031C1209.69 -239.179 1204.13 -233.625 1197.28 -233.625C1190.43 -233.625 1184.87 -239.179 1184.87 -246.031C1184.87 -252.883 1190.43 -258.437 1197.28 -258.437C1204.13 -258.437 1209.69 -252.883 1209.69 -246.031Z" fill="#1D1E1D"/>
<path d="M1259.31 -246.031C1259.31 -239.179 1253.76 -233.625 1246.91 -233.625C1240.05 -233.625 1234.5 -239.179 1234.5 -246.031C1234.5 -252.883 1240.05 -258.437 1246.91 -258.437C1253.76 -258.437 1259.31 -252.883 1259.31 -246.031Z" fill="#1D1E1D"/>
<path d="M1308.94 -246.031C1308.94 -239.179 1303.38 -233.625 1296.53 -233.625C1289.68 -233.625 1284.12 -239.179 1284.12 -246.031C1284.12 -252.883 1289.68 -258.437 1296.53 -258.437C1303.38 -258.437 1308.94 -252.883 1308.94 -246.031Z" fill="#1D1E1D"/>
<path d="M1358.56 -246.031C1358.56 -239.179 1353.01 -233.625 1346.16 -233.625C1339.3 -233.625 1333.75 -239.179 1333.75 -246.031C1333.75 -252.883 1339.3 -258.437 1346.16 -258.437C1353.01 -258.437 1358.56 -252.883 1358.56 -246.031Z" fill="#1D1E1D"/>
<path d="M1408.19 -246.031C1408.19 -239.179 1402.63 -233.625 1395.78 -233.625C1388.93 -233.625 1383.37 -239.179 1383.37 -246.031C1383.37 -252.883 1388.93 -258.437 1395.78 -258.437C1402.63 -258.437 1408.19 -252.883 1408.19 -246.031Z" fill="#1D1E1D"/>
<path d="M1457.81 -246.031C1457.81 -239.179 1452.26 -233.625 1445.41 -233.625C1438.55 -233.625 1433 -239.179 1433 -246.031C1433 -252.883 1438.55 -258.437 1445.41 -258.437C1452.26 -258.437 1457.81 -252.883 1457.81 -246.031Z" fill="#1D1E1D"/>
<path d="M1507.44 -246.031C1507.44 -239.179 1501.88 -233.625 1495.03 -233.625C1488.18 -233.625 1482.62 -239.179 1482.62 -246.031C1482.62 -252.883 1488.18 -258.437 1495.03 -258.437C1501.88 -258.437 1507.44 -252.883 1507.44 -246.031Z" fill="#1D1E1D"/>
<path d="M1557.06 -246.031C1557.06 -239.179 1551.51 -233.625 1544.66 -233.625C1537.8 -233.625 1532.25 -239.179 1532.25 -246.031C1532.25 -252.883 1537.8 -258.437 1544.66 -258.437C1551.51 -258.437 1557.06 -252.883 1557.06 -246.031Z" fill="#1D1E1D"/>
<path d="M1606.69 -246.031C1606.69 -239.179 1601.13 -233.625 1594.28 -233.625C1587.43 -233.625 1581.87 -239.179 1581.87 -246.031C1581.87 -252.883 1587.43 -258.437 1594.28 -258.437C1601.13 -258.437 1606.69 -252.883 1606.69 -246.031Z" fill="#1D1E1D"/>
<path d="M1656.31 -246.031C1656.31 -239.179 1650.76 -233.625 1643.91 -233.625C1637.05 -233.625 1631.5 -239.179 1631.5 -246.031C1631.5 -252.883 1637.05 -258.437 1643.91 -258.437C1650.76 -258.437 1656.31 -252.883 1656.31 -246.031Z" fill="#1D1E1D"/>
<path d="M1705.94 -246.031C1705.94 -239.179 1700.38 -233.625 1693.53 -233.625C1686.68 -233.625 1681.12 -239.179 1681.12 -246.031C1681.12 -252.883 1686.68 -258.437 1693.53 -258.437C1700.38 -258.437 1705.94 -252.883 1705.94 -246.031Z" fill="#1D1E1D"/>
<path d="M663.813 -196.406C663.813 -189.555 658.258 -184 651.406 -184C644.555 -184 639 -189.555 639 -196.406C639 -203.258 644.555 -208.813 651.406 -208.813C658.258 -208.813 663.813 -203.258 663.813 -196.406Z" fill="#1D1E1D"/>
<path d="M713.438 -196.406C713.438 -189.555 707.883 -184 701.031 -184C694.18 -184 688.625 -189.555 688.625 -196.406C688.625 -203.258 694.18 -208.813 701.031 -208.813C707.883 -208.813 713.438 -203.258 713.438 -196.406Z" fill="#1D1E1D"/>
<path d="M763.063 -196.406C763.063 -189.555 757.508 -184 750.656 -184C743.804 -184 738.25 -189.555 738.25 -196.406C738.25 -203.258 743.805 -208.813 750.656 -208.813C757.508 -208.813 763.063 -203.258 763.063 -196.406Z" fill="#1D1E1D"/>
<path d="M812.688 -196.406C812.688 -189.555 807.133 -184 800.281 -184C793.429 -184 787.875 -189.555 787.875 -196.406C787.875 -203.258 793.429 -208.813 800.281 -208.813C807.133 -208.813 812.688 -203.258 812.688 -196.406Z" fill="#1D1E1D"/>
<path d="M862.312 -196.406C862.312 -189.555 856.758 -184 849.906 -184C843.054 -184 837.5 -189.555 837.5 -196.406C837.5 -203.258 843.054 -208.813 849.906 -208.813C856.758 -208.813 862.312 -203.258 862.312 -196.406Z" fill="#1D1E1D"/>
<path d="M911.937 -196.406C911.937 -189.555 906.383 -184 899.531 -184C892.679 -184 887.125 -189.555 887.125 -196.406C887.125 -203.258 892.679 -208.813 899.531 -208.813C906.383 -208.813 911.937 -203.258 911.937 -196.406Z" fill="#1D1E1D"/>
<path d="M961.562 -196.406C961.562 -189.555 956.008 -184 949.156 -184C942.304 -184 936.75 -189.555 936.75 -196.406C936.75 -203.258 942.304 -208.813 949.156 -208.813C956.008 -208.813 961.562 -203.258 961.562 -196.406Z" fill="#1D1E1D"/>
<path d="M1011.19 -196.406C1011.19 -189.555 1005.63 -184 998.781 -184C991.929 -184 986.375 -189.555 986.375 -196.406C986.375 -203.258 991.929 -208.813 998.781 -208.813C1005.63 -208.813 1011.19 -203.258 1011.19 -196.406Z" fill="#1D1E1D"/>
<path d="M1060.81 -196.406C1060.81 -189.555 1055.26 -184 1048.41 -184C1041.55 -184 1036 -189.555 1036 -196.406C1036 -203.258 1041.55 -208.813 1048.41 -208.813C1055.26 -208.813 1060.81 -203.258 1060.81 -196.406Z" fill="#1D1E1D"/>
<path d="M1110.44 -196.406C1110.44 -189.555 1104.88 -184 1098.03 -184C1091.18 -184 1085.62 -189.555 1085.62 -196.406C1085.62 -203.258 1091.18 -208.813 1098.03 -208.813C1104.88 -208.813 1110.44 -203.258 1110.44 -196.406Z" fill="#1D1E1D"/>
<path d="M1160.06 -196.406C1160.06 -189.554 1154.51 -184 1147.66 -184C1140.8 -184 1135.25 -189.555 1135.25 -196.406C1135.25 -203.258 1140.8 -208.813 1147.66 -208.813C1154.51 -208.813 1160.06 -203.258 1160.06 -196.406Z" fill="#1D1E1D"/>
<path d="M1209.69 -196.406C1209.69 -189.554 1204.13 -184 1197.28 -184C1190.43 -184 1184.87 -189.554 1184.87 -196.406C1184.87 -203.258 1190.43 -208.813 1197.28 -208.813C1204.13 -208.813 1209.69 -203.258 1209.69 -196.406Z" fill="#1D1E1D"/>
<path d="M1259.31 -196.406C1259.31 -189.554 1253.76 -184 1246.91 -184C1240.05 -184 1234.5 -189.554 1234.5 -196.406C1234.5 -203.258 1240.05 -208.812 1246.91 -208.812C1253.76 -208.812 1259.31 -203.258 1259.31 -196.406Z" fill="#1D1E1D"/>
<path d="M1308.94 -196.406C1308.94 -189.554 1303.38 -184 1296.53 -184C1289.68 -184 1284.12 -189.554 1284.12 -196.406C1284.12 -203.258 1289.68 -208.812 1296.53 -208.812C1303.38 -208.812 1308.94 -203.258 1308.94 -196.406Z" fill="#1D1E1D"/>
<path d="M1358.56 -196.406C1358.56 -189.554 1353.01 -184 1346.16 -184C1339.3 -184 1333.75 -189.554 1333.75 -196.406C1333.75 -203.258 1339.3 -208.812 1346.16 -208.812C1353.01 -208.812 1358.56 -203.258 1358.56 -196.406Z" fill="#1D1E1D"/>
<path d="M1408.19 -196.406C1408.19 -189.554 1402.63 -184 1395.78 -184C1388.93 -184 1383.37 -189.554 1383.37 -196.406C1383.37 -203.258 1388.93 -208.812 1395.78 -208.812C1402.63 -208.812 1408.19 -203.258 1408.19 -196.406Z" fill="#1D1E1D"/>
<path d="M1457.81 -196.406C1457.81 -189.554 1452.26 -184 1445.41 -184C1438.55 -184 1433 -189.554 1433 -196.406C1433 -203.258 1438.55 -208.812 1445.41 -208.812C1452.26 -208.812 1457.81 -203.258 1457.81 -196.406Z" fill="#1D1E1D"/>
<path d="M1507.44 -196.406C1507.44 -189.554 1501.88 -184 1495.03 -184C1488.18 -184 1482.62 -189.554 1482.62 -196.406C1482.62 -203.258 1488.18 -208.812 1495.03 -208.812C1501.88 -208.812 1507.44 -203.258 1507.44 -196.406Z" fill="#1D1E1D"/>
<path d="M1557.06 -196.406C1557.06 -189.554 1551.51 -184 1544.66 -184C1537.8 -184 1532.25 -189.554 1532.25 -196.406C1532.25 -203.258 1537.8 -208.812 1544.66 -208.812C1551.51 -208.812 1557.06 -203.258 1557.06 -196.406Z" fill="#1D1E1D"/>
<path d="M1606.69 -196.406C1606.69 -189.554 1601.13 -184 1594.28 -184C1587.43 -184 1581.87 -189.554 1581.87 -196.406C1581.87 -203.258 1587.43 -208.812 1594.28 -208.812C1601.13 -208.812 1606.69 -203.258 1606.69 -196.406Z" fill="#1D1E1D"/>
<path d="M1656.31 -196.406C1656.31 -189.554 1650.76 -184 1643.91 -184C1637.05 -184 1631.5 -189.554 1631.5 -196.406C1631.5 -203.258 1637.05 -208.812 1643.91 -208.812C1650.76 -208.812 1656.31 -203.258 1656.31 -196.406Z" fill="#1D1E1D"/>
<path d="M1705.94 -196.406C1705.94 -189.554 1700.38 -184 1693.53 -184C1686.68 -184 1681.12 -189.554 1681.12 -196.406C1681.12 -203.258 1686.68 -208.812 1693.53 -208.812C1700.38 -208.812 1705.94 -203.258 1705.94 -196.406Z" fill="#1D1E1D"/>
<path d="M663.813 -146.781C663.813 -139.93 658.258 -134.375 651.406 -134.375C644.555 -134.375 639 -139.93 639 -146.781C639 -153.633 644.555 -159.188 651.406 -159.188C658.258 -159.188 663.813 -153.633 663.813 -146.781Z" fill="#1D1E1D"/>
<path d="M713.438 -146.781C713.438 -139.93 707.883 -134.375 701.031 -134.375C694.18 -134.375 688.625 -139.93 688.625 -146.781C688.625 -153.633 694.18 -159.188 701.031 -159.188C707.883 -159.188 713.438 -153.633 713.438 -146.781Z" fill="#1D1E1D"/>
<path d="M763.063 -146.781C763.063 -139.93 757.508 -134.375 750.656 -134.375C743.804 -134.375 738.25 -139.93 738.25 -146.781C738.25 -153.633 743.804 -159.188 750.656 -159.188C757.508 -159.188 763.063 -153.633 763.063 -146.781Z" fill="#1D1E1D"/>
<path d="M812.687 -146.781C812.687 -139.93 807.133 -134.375 800.281 -134.375C793.429 -134.375 787.875 -139.93 787.875 -146.781C787.875 -153.633 793.429 -159.188 800.281 -159.188C807.133 -159.188 812.687 -153.633 812.687 -146.781Z" fill="#1D1E1D"/>
<path d="M862.312 -146.781C862.312 -139.93 856.758 -134.375 849.906 -134.375C843.054 -134.375 837.5 -139.93 837.5 -146.781C837.5 -153.633 843.054 -159.188 849.906 -159.188C856.758 -159.188 862.312 -153.633 862.312 -146.781Z" fill="#1D1E1D"/>
<path d="M911.937 -146.781C911.937 -139.93 906.383 -134.375 899.531 -134.375C892.679 -134.375 887.125 -139.93 887.125 -146.781C887.125 -153.633 892.679 -159.188 899.531 -159.188C906.383 -159.188 911.937 -153.633 911.937 -146.781Z" fill="#1D1E1D"/>
<path d="M961.562 -146.781C961.562 -139.93 956.008 -134.375 949.156 -134.375C942.304 -134.375 936.75 -139.93 936.75 -146.781C936.75 -153.633 942.304 -159.188 949.156 -159.188C956.008 -159.188 961.562 -153.633 961.562 -146.781Z" fill="#1D1E1D"/>
<path d="M1011.19 -146.781C1011.19 -139.93 1005.63 -134.375 998.781 -134.375C991.929 -134.375 986.375 -139.93 986.375 -146.781C986.375 -153.633 991.929 -159.188 998.781 -159.188C1005.63 -159.188 1011.19 -153.633 1011.19 -146.781Z" fill="#1D1E1D"/>
<path d="M1060.81 -146.781C1060.81 -139.93 1055.26 -134.375 1048.41 -134.375C1041.55 -134.375 1036 -139.93 1036 -146.781C1036 -153.633 1041.55 -159.188 1048.41 -159.188C1055.26 -159.188 1060.81 -153.633 1060.81 -146.781Z" fill="#1D1E1D"/>
<path d="M1110.44 -146.781C1110.44 -139.93 1104.88 -134.375 1098.03 -134.375C1091.18 -134.375 1085.62 -139.93 1085.62 -146.781C1085.62 -153.633 1091.18 -159.188 1098.03 -159.188C1104.88 -159.188 1110.44 -153.633 1110.44 -146.781Z" fill="#1D1E1D"/>
<path d="M1160.06 -146.781C1160.06 -139.93 1154.51 -134.375 1147.66 -134.375C1140.8 -134.375 1135.25 -139.93 1135.25 -146.781C1135.25 -153.633 1140.8 -159.188 1147.66 -159.188C1154.51 -159.188 1160.06 -153.633 1160.06 -146.781Z" fill="#1D1E1D"/>
<path d="M1209.69 -146.781C1209.69 -139.929 1204.13 -134.375 1197.28 -134.375C1190.43 -134.375 1184.87 -139.93 1184.87 -146.781C1184.87 -153.633 1190.43 -159.188 1197.28 -159.188C1204.13 -159.188 1209.69 -153.633 1209.69 -146.781Z" fill="#1D1E1D"/>
<path d="M1259.31 -146.781C1259.31 -139.929 1253.76 -134.375 1246.91 -134.375C1240.05 -134.375 1234.5 -139.929 1234.5 -146.781C1234.5 -153.633 1240.05 -159.188 1246.91 -159.188C1253.76 -159.188 1259.31 -153.633 1259.31 -146.781Z" fill="#1D1E1D"/>
<path d="M1308.94 -146.781C1308.94 -139.929 1303.38 -134.375 1296.53 -134.375C1289.68 -134.375 1284.12 -139.929 1284.12 -146.781C1284.12 -153.633 1289.68 -159.188 1296.53 -159.188C1303.38 -159.188 1308.94 -153.633 1308.94 -146.781Z" fill="#1D1E1D"/>
<path d="M1358.56 -146.781C1358.56 -139.929 1353.01 -134.375 1346.16 -134.375C1339.3 -134.375 1333.75 -139.929 1333.75 -146.781C1333.75 -153.633 1339.3 -159.188 1346.16 -159.188C1353.01 -159.188 1358.56 -153.633 1358.56 -146.781Z" fill="#1D1E1D"/>
<path d="M1408.19 -146.781C1408.19 -139.929 1402.63 -134.375 1395.78 -134.375C1388.93 -134.375 1383.37 -139.929 1383.37 -146.781C1383.37 -153.633 1388.93 -159.188 1395.78 -159.188C1402.63 -159.188 1408.19 -153.633 1408.19 -146.781Z" fill="#1D1E1D"/>
<path d="M1457.81 -146.781C1457.81 -139.929 1452.26 -134.375 1445.41 -134.375C1438.55 -134.375 1433 -139.929 1433 -146.781C1433 -153.633 1438.55 -159.187 1445.41 -159.187C1452.26 -159.187 1457.81 -153.633 1457.81 -146.781Z" fill="#1D1E1D"/>
<path d="M1507.44 -146.781C1507.44 -139.929 1501.88 -134.375 1495.03 -134.375C1488.18 -134.375 1482.62 -139.929 1482.62 -146.781C1482.62 -153.633 1488.18 -159.187 1495.03 -159.187C1501.88 -159.187 1507.44 -153.633 1507.44 -146.781Z" fill="#1D1E1D"/>
<path d="M1557.06 -146.781C1557.06 -139.929 1551.51 -134.375 1544.66 -134.375C1537.8 -134.375 1532.25 -139.929 1532.25 -146.781C1532.25 -153.633 1537.8 -159.187 1544.66 -159.187C1551.51 -159.187 1557.06 -153.633 1557.06 -146.781Z" fill="#1D1E1D"/>
<path d="M1606.69 -146.781C1606.69 -139.929 1601.13 -134.375 1594.28 -134.375C1587.43 -134.375 1581.87 -139.929 1581.87 -146.781C1581.87 -153.633 1587.43 -159.187 1594.28 -159.187C1601.13 -159.187 1606.69 -153.633 1606.69 -146.781Z" fill="#1D1E1D"/>
<path d="M1656.31 -146.781C1656.31 -139.929 1650.76 -134.375 1643.91 -134.375C1637.05 -134.375 1631.5 -139.929 1631.5 -146.781C1631.5 -153.633 1637.05 -159.187 1643.91 -159.187C1650.76 -159.187 1656.31 -153.633 1656.31 -146.781Z" fill="#1D1E1D"/>
<path d="M1705.94 -146.781C1705.94 -139.929 1700.38 -134.375 1693.53 -134.375C1686.68 -134.375 1681.12 -139.929 1681.12 -146.781C1681.12 -153.633 1686.68 -159.187 1693.53 -159.187C1700.38 -159.187 1705.94 -153.633 1705.94 -146.781Z" fill="#1D1E1D"/>
<path d="M663.813 -97.1564C663.813 -90.3046 658.258 -84.7502 651.406 -84.7502C644.555 -84.7502 639 -90.3046 639 -97.1564C639 -104.008 644.555 -109.563 651.406 -109.563C658.258 -109.563 663.813 -104.008 663.813 -97.1564Z" fill="#1D1E1D"/>
<path d="M713.438 -97.1564C713.438 -90.3046 707.883 -84.7502 701.031 -84.7502C694.179 -84.7502 688.625 -90.3046 688.625 -97.1564C688.625 -104.008 694.179 -109.563 701.031 -109.563C707.883 -109.563 713.438 -104.008 713.438 -97.1564Z" fill="#1D1E1D"/>
<path d="M763.063 -97.1564C763.063 -90.3046 757.508 -84.7502 750.656 -84.7502C743.804 -84.7502 738.25 -90.3046 738.25 -97.1564C738.25 -104.008 743.804 -109.563 750.656 -109.563C757.508 -109.563 763.063 -104.008 763.063 -97.1564Z" fill="#1D1E1D"/>
<path d="M812.687 -97.1564C812.687 -90.3046 807.133 -84.7501 800.281 -84.7501C793.429 -84.7501 787.875 -90.3046 787.875 -97.1564C787.875 -104.008 793.429 -109.563 800.281 -109.563C807.133 -109.563 812.687 -104.008 812.687 -97.1564Z" fill="#1D1E1D"/>
<path d="M862.312 -97.1564C862.312 -90.3046 856.758 -84.7501 849.906 -84.7501C843.054 -84.7501 837.5 -90.3046 837.5 -97.1564C837.5 -104.008 843.054 -109.563 849.906 -109.563C856.758 -109.563 862.312 -104.008 862.312 -97.1564Z" fill="#1D1E1D"/>
<path d="M911.937 -97.1564C911.937 -90.3046 906.383 -84.7501 899.531 -84.7501C892.679 -84.7501 887.125 -90.3046 887.125 -97.1564C887.125 -104.008 892.679 -109.563 899.531 -109.563C906.383 -109.563 911.937 -104.008 911.937 -97.1564Z" fill="#1D1E1D"/>
<path d="M961.562 -97.1564C961.562 -90.3046 956.008 -84.7501 949.156 -84.7501C942.304 -84.7501 936.75 -90.3046 936.75 -97.1564C936.75 -104.008 942.304 -109.563 949.156 -109.563C956.008 -109.563 961.562 -104.008 961.562 -97.1564Z" fill="#1D1E1D"/>
<path d="M1011.19 -97.1563C1011.19 -90.3045 1005.63 -84.7501 998.781 -84.7501C991.929 -84.7501 986.375 -90.3045 986.375 -97.1563C986.375 -104.008 991.929 -109.563 998.781 -109.563C1005.63 -109.563 1011.19 -104.008 1011.19 -97.1563Z" fill="#1D1E1D"/>
<path d="M1060.81 -97.1563C1060.81 -90.3045 1055.26 -84.7501 1048.41 -84.7501C1041.55 -84.7501 1036 -90.3045 1036 -97.1563C1036 -104.008 1041.55 -109.563 1048.41 -109.563C1055.26 -109.563 1060.81 -104.008 1060.81 -97.1563Z" fill="#1D1E1D"/>
<path d="M1110.44 -97.1563C1110.44 -90.3045 1104.88 -84.7501 1098.03 -84.7501C1091.18 -84.7501 1085.62 -90.3045 1085.62 -97.1563C1085.62 -104.008 1091.18 -109.563 1098.03 -109.563C1104.88 -109.563 1110.44 -104.008 1110.44 -97.1563Z" fill="#1D1E1D"/>
<path d="M1160.06 -97.1563C1160.06 -90.3045 1154.51 -84.7501 1147.66 -84.7501C1140.8 -84.7501 1135.25 -90.3045 1135.25 -97.1563C1135.25 -104.008 1140.8 -109.563 1147.66 -109.563C1154.51 -109.563 1160.06 -104.008 1160.06 -97.1563Z" fill="#1D1E1D"/>
<path d="M1209.69 -97.1563C1209.69 -90.3045 1204.13 -84.75 1197.28 -84.75C1190.43 -84.75 1184.87 -90.3045 1184.87 -97.1563C1184.87 -104.008 1190.43 -109.563 1197.28 -109.563C1204.13 -109.563 1209.69 -104.008 1209.69 -97.1563Z" fill="#1D1E1D"/>
<path d="M1259.31 -97.1563C1259.31 -90.3045 1253.76 -84.75 1246.91 -84.75C1240.05 -84.75 1234.5 -90.3045 1234.5 -97.1563C1234.5 -104.008 1240.05 -109.563 1246.91 -109.563C1253.76 -109.563 1259.31 -104.008 1259.31 -97.1563Z" fill="#1D1E1D"/>
<path d="M1308.94 -97.1563C1308.94 -90.3045 1303.38 -84.75 1296.53 -84.75C1289.68 -84.75 1284.12 -90.3045 1284.12 -97.1563C1284.12 -104.008 1289.68 -109.563 1296.53 -109.563C1303.38 -109.563 1308.94 -104.008 1308.94 -97.1563Z" fill="#1D1E1D"/>
<path d="M1358.56 -97.1563C1358.56 -90.3045 1353.01 -84.75 1346.16 -84.75C1339.3 -84.75 1333.75 -90.3045 1333.75 -97.1563C1333.75 -104.008 1339.3 -109.563 1346.16 -109.563C1353.01 -109.563 1358.56 -104.008 1358.56 -97.1563Z" fill="#1D1E1D"/>
<path d="M1408.19 -97.1563C1408.19 -90.3045 1402.63 -84.75 1395.78 -84.75C1388.93 -84.75 1383.37 -90.3045 1383.37 -97.1563C1383.37 -104.008 1388.93 -109.563 1395.78 -109.563C1402.63 -109.563 1408.19 -104.008 1408.19 -97.1563Z" fill="#1D1E1D"/>
<path d="M1457.81 -97.1562C1457.81 -90.3045 1452.26 -84.75 1445.41 -84.75C1438.55 -84.75 1433 -90.3045 1433 -97.1562C1433 -104.008 1438.55 -109.562 1445.41 -109.562C1452.26 -109.562 1457.81 -104.008 1457.81 -97.1562Z" fill="#1D1E1D"/>
<path d="M1507.44 -97.1562C1507.44 -90.3045 1501.88 -84.75 1495.03 -84.75C1488.18 -84.75 1482.62 -90.3045 1482.62 -97.1562C1482.62 -104.008 1488.18 -109.562 1495.03 -109.562C1501.88 -109.562 1507.44 -104.008 1507.44 -97.1562Z" fill="#1D1E1D"/>
<path d="M1557.06 -97.1562C1557.06 -90.3045 1551.51 -84.75 1544.66 -84.75C1537.8 -84.75 1532.25 -90.3045 1532.25 -97.1562C1532.25 -104.008 1537.8 -109.562 1544.66 -109.562C1551.51 -109.562 1557.06 -104.008 1557.06 -97.1562Z" fill="#1D1E1D"/>
<path d="M1606.69 -97.1562C1606.69 -90.3045 1601.13 -84.75 1594.28 -84.75C1587.43 -84.75 1581.87 -90.3045 1581.87 -97.1562C1581.87 -104.008 1587.43 -109.562 1594.28 -109.562C1601.13 -109.562 1606.69 -104.008 1606.69 -97.1562Z" fill="#1D1E1D"/>
<path d="M1656.31 -97.1562C1656.31 -90.3044 1650.76 -84.75 1643.91 -84.75C1637.05 -84.75 1631.5 -90.3044 1631.5 -97.1562C1631.5 -104.008 1637.05 -109.562 1643.91 -109.562C1650.76 -109.562 1656.31 -104.008 1656.31 -97.1562Z" fill="#1D1E1D"/>
<path d="M1705.94 -97.1562C1705.94 -90.3044 1700.38 -84.75 1693.53 -84.75C1686.68 -84.75 1681.12 -90.3044 1681.12 -97.1562C1681.12 -104.008 1686.68 -109.562 1693.53 -109.562C1700.38 -109.562 1705.94 -104.008 1705.94 -97.1562Z" fill="#1D1E1D"/>
<path d="M663.813 -47.5314C663.813 -40.6796 658.258 -35.1252 651.406 -35.1252C644.555 -35.1252 639 -40.6796 639 -47.5314C639 -54.3832 644.555 -59.9377 651.406 -59.9377C658.258 -59.9377 663.813 -54.3832 663.813 -47.5314Z" fill="#1D1E1D"/>
<path d="M713.438 -47.5314C713.438 -40.6796 707.883 -35.1252 701.031 -35.1252C694.179 -35.1252 688.625 -40.6796 688.625 -47.5314C688.625 -54.3832 694.179 -59.9377 701.031 -59.9377C707.883 -59.9377 713.438 -54.3832 713.438 -47.5314Z" fill="#1D1E1D"/>
<path d="M763.063 -47.5314C763.063 -40.6796 757.508 -35.1252 750.656 -35.1252C743.804 -35.1252 738.25 -40.6796 738.25 -47.5314C738.25 -54.3832 743.804 -59.9377 750.656 -59.9377C757.508 -59.9377 763.063 -54.3832 763.063 -47.5314Z" fill="#1D1E1D"/>
<path d="M812.687 -47.5314C812.687 -40.6796 807.133 -35.1251 800.281 -35.1251C793.429 -35.1251 787.875 -40.6796 787.875 -47.5314C787.875 -54.3832 793.429 -59.9376 800.281 -59.9376C807.133 -59.9376 812.687 -54.3832 812.687 -47.5314Z" fill="#1D1E1D"/>
<path d="M862.312 -47.5314C862.312 -40.6796 856.758 -35.1251 849.906 -35.1251C843.054 -35.1251 837.5 -40.6796 837.5 -47.5314C837.5 -54.3832 843.054 -59.9376 849.906 -59.9376C856.758 -59.9376 862.312 -54.3832 862.312 -47.5314Z" fill="#1D1E1D"/>
<path d="M911.937 -47.5314C911.937 -40.6796 906.383 -35.1251 899.531 -35.1251C892.679 -35.1251 887.125 -40.6796 887.125 -47.5314C887.125 -54.3832 892.679 -59.9376 899.531 -59.9376C906.383 -59.9376 911.937 -54.3832 911.937 -47.5314Z" fill="#1D1E1D"/>
<path d="M961.562 -47.5314C961.562 -40.6796 956.008 -35.1251 949.156 -35.1251C942.304 -35.1251 936.75 -40.6796 936.75 -47.5314C936.75 -54.3832 942.304 -59.9376 949.156 -59.9376C956.008 -59.9376 961.562 -54.3832 961.562 -47.5314Z" fill="#1D1E1D"/>
<path d="M1011.19 -47.5313C1011.19 -40.6796 1005.63 -35.1251 998.781 -35.1251C991.929 -35.1251 986.375 -40.6796 986.375 -47.5313C986.375 -54.3831 991.929 -59.9376 998.781 -59.9376C1005.63 -59.9376 1011.19 -54.3831 1011.19 -47.5313Z" fill="#1D1E1D"/>
<path d="M1060.81 -47.5313C1060.81 -40.6796 1055.26 -35.1251 1048.41 -35.1251C1041.55 -35.1251 1036 -40.6796 1036 -47.5313C1036 -54.3831 1041.55 -59.9376 1048.41 -59.9376C1055.26 -59.9376 1060.81 -54.3831 1060.81 -47.5313Z" fill="#1D1E1D"/>
<path d="M1110.44 -47.5313C1110.44 -40.6796 1104.88 -35.1251 1098.03 -35.1251C1091.18 -35.1251 1085.62 -40.6796 1085.62 -47.5313C1085.62 -54.3831 1091.18 -59.9376 1098.03 -59.9376C1104.88 -59.9376 1110.44 -54.3831 1110.44 -47.5313Z" fill="#1D1E1D"/>
<path d="M1160.06 -47.5313C1160.06 -40.6796 1154.51 -35.1251 1147.66 -35.1251C1140.8 -35.1251 1135.25 -40.6796 1135.25 -47.5313C1135.25 -54.3831 1140.8 -59.9376 1147.66 -59.9376C1154.51 -59.9376 1160.06 -54.3831 1160.06 -47.5313Z" fill="#1D1E1D"/>
<path d="M1209.69 -47.5313C1209.69 -40.6795 1204.13 -35.1251 1197.28 -35.1251C1190.43 -35.1251 1184.87 -40.6796 1184.87 -47.5313C1184.87 -54.3831 1190.43 -59.9376 1197.28 -59.9375C1204.13 -59.9375 1209.69 -54.3831 1209.69 -47.5313Z" fill="#1D1E1D"/>
<path d="M1259.31 -47.5313C1259.31 -40.6795 1253.76 -35.1251 1246.91 -35.1251C1240.05 -35.1251 1234.5 -40.6795 1234.5 -47.5313C1234.5 -54.3831 1240.05 -59.9376 1246.91 -59.9375C1253.76 -59.9375 1259.31 -54.3831 1259.31 -47.5313Z" fill="#1D1E1D"/>
<path d="M1308.94 -47.5313C1308.94 -40.6795 1303.38 -35.1251 1296.53 -35.1251C1289.68 -35.1251 1284.12 -40.6795 1284.12 -47.5313C1284.12 -54.3831 1289.68 -59.9376 1296.53 -59.9375C1303.38 -59.9375 1308.94 -54.3831 1308.94 -47.5313Z" fill="#1D1E1D"/>
<path d="M1358.56 -47.5313C1358.56 -40.6795 1353.01 -35.1251 1346.16 -35.1251C1339.3 -35.1251 1333.75 -40.6795 1333.75 -47.5313C1333.75 -54.3831 1339.3 -59.9376 1346.16 -59.9375C1353.01 -59.9375 1358.56 -54.3831 1358.56 -47.5313Z" fill="#1D1E1D"/>
<path d="M1408.19 -47.5313C1408.19 -40.6795 1402.63 -35.1251 1395.78 -35.1251C1388.93 -35.1251 1383.37 -40.6795 1383.37 -47.5313C1383.37 -54.3831 1388.93 -59.9376 1395.78 -59.9375C1402.63 -59.9375 1408.19 -54.3831 1408.19 -47.5313Z" fill="#1D1E1D"/>
<path d="M1457.81 -47.5313C1457.81 -40.6795 1452.26 -35.125 1445.41 -35.125C1438.55 -35.125 1433 -40.6795 1433 -47.5313C1433 -54.383 1438.55 -59.9375 1445.41 -59.9375C1452.26 -59.9375 1457.81 -54.383 1457.81 -47.5313Z" fill="#1D1E1D"/>
<path d="M1507.44 -47.5313C1507.44 -40.6795 1501.88 -35.125 1495.03 -35.125C1488.18 -35.125 1482.62 -40.6795 1482.62 -47.5313C1482.62 -54.383 1488.18 -59.9375 1495.03 -59.9375C1501.88 -59.9375 1507.44 -54.383 1507.44 -47.5313Z" fill="#1D1E1D"/>
<path d="M1557.06 -47.5313C1557.06 -40.6795 1551.51 -35.125 1544.66 -35.125C1537.8 -35.125 1532.25 -40.6795 1532.25 -47.5313C1532.25 -54.383 1537.8 -59.9375 1544.66 -59.9375C1551.51 -59.9375 1557.06 -54.383 1557.06 -47.5313Z" fill="#1D1E1D"/>
<path d="M1606.69 -47.5313C1606.69 -40.6795 1601.13 -35.125 1594.28 -35.125C1587.43 -35.125 1581.87 -40.6795 1581.87 -47.5313C1581.87 -54.383 1587.43 -59.9375 1594.28 -59.9375C1601.13 -59.9375 1606.69 -54.383 1606.69 -47.5313Z" fill="#1D1E1D"/>
<path d="M1656.31 -47.5312C1656.31 -40.6794 1650.76 -35.125 1643.91 -35.125C1637.05 -35.125 1631.5 -40.6794 1631.5 -47.5312C1631.5 -54.383 1637.05 -59.9375 1643.91 -59.9375C1650.76 -59.9375 1656.31 -54.383 1656.31 -47.5312Z" fill="#1D1E1D"/>
<path d="M1705.94 -47.5312C1705.94 -40.6794 1700.38 -35.125 1693.53 -35.125C1686.68 -35.125 1681.12 -40.6794 1681.12 -47.5312C1681.12 -54.383 1686.68 -59.9375 1693.53 -59.9375C1700.38 -59.9375 1705.94 -54.383 1705.94 -47.5312Z" fill="#1D1E1D"/>
<path d="M663.813 2.09356C663.813 8.94534 658.258 14.4998 651.406 14.4998C644.554 14.4998 639 8.94534 639 2.09356C639 -4.75822 644.555 -10.3127 651.406 -10.3127C658.258 -10.3127 663.813 -4.75822 663.813 2.09356Z" fill="#1D1E1D"/>
<path d="M713.438 2.09356C713.438 8.94534 707.883 14.4998 701.031 14.4998C694.179 14.4998 688.625 8.94534 688.625 2.09356C688.625 -4.75822 694.179 -10.3127 701.031 -10.3127C707.883 -10.3127 713.438 -4.75822 713.438 2.09356Z" fill="#1D1E1D"/>
<path d="M763.062 2.0936C763.062 8.94538 757.508 14.4998 750.656 14.4998C743.804 14.4998 738.25 8.94534 738.25 2.09356C738.25 -4.75822 743.804 -10.3127 750.656 -10.3127C757.508 -10.3127 763.062 -4.75818 763.062 2.0936Z" fill="#1D1E1D"/>
<path d="M812.687 2.0936C812.687 8.94538 807.133 14.4998 800.281 14.4998C793.429 14.4998 787.875 8.94538 787.875 2.0936C787.875 -4.75818 793.429 -10.3126 800.281 -10.3126C807.133 -10.3126 812.687 -4.75818 812.687 2.0936Z" fill="#1D1E1D"/>
<path d="M862.312 2.0936C862.312 8.94538 856.758 14.4998 849.906 14.4998C843.054 14.4998 837.5 8.94538 837.5 2.0936C837.5 -4.75818 843.054 -10.3126 849.906 -10.3126C856.758 -10.3126 862.312 -4.75818 862.312 2.0936Z" fill="#1D1E1D"/>
<path d="M911.937 2.0936C911.937 8.94538 906.383 14.4998 899.531 14.4998C892.679 14.4998 887.125 8.94538 887.125 2.0936C887.125 -4.75818 892.679 -10.3126 899.531 -10.3126C906.383 -10.3126 911.937 -4.75818 911.937 2.0936Z" fill="#1D1E1D"/>
<path d="M961.562 2.0936C961.562 8.94538 956.008 14.4998 949.156 14.4998C942.304 14.4998 936.75 8.94538 936.75 2.0936C936.75 -4.75818 942.304 -10.3126 949.156 -10.3126C956.008 -10.3126 961.562 -4.75818 961.562 2.0936Z" fill="#1D1E1D"/>
<path d="M1011.19 2.09364C1011.19 8.94542 1005.63 14.4999 998.781 14.4999C991.929 14.4999 986.375 8.94542 986.375 2.09364C986.375 -4.75814 991.929 -10.3126 998.781 -10.3126C1005.63 -10.3126 1011.19 -4.75814 1011.19 2.09364Z" fill="#1D1E1D"/>
<path d="M1060.81 2.09364C1060.81 8.94542 1055.26 14.4999 1048.41 14.4999C1041.55 14.4999 1036 8.94542 1036 2.09364C1036 -4.75814 1041.55 -10.3126 1048.41 -10.3126C1055.26 -10.3126 1060.81 -4.75814 1060.81 2.09364Z" fill="#1D1E1D"/>
<path d="M1110.44 2.09364C1110.44 8.94542 1104.88 14.4999 1098.03 14.4999C1091.18 14.4999 1085.62 8.94542 1085.62 2.09364C1085.62 -4.75814 1091.18 -10.3126 1098.03 -10.3126C1104.88 -10.3126 1110.44 -4.75814 1110.44 2.09364Z" fill="#1D1E1D"/>
<path d="M1160.06 2.09364C1160.06 8.94542 1154.51 14.4999 1147.66 14.4999C1140.8 14.4999 1135.25 8.94542 1135.25 2.09364C1135.25 -4.75814 1140.8 -10.3126 1147.66 -10.3126C1154.51 -10.3126 1160.06 -4.75814 1160.06 2.09364Z" fill="#1D1E1D"/>
<path d="M1209.69 2.09368C1209.69 8.94546 1204.13 14.4999 1197.28 14.4999C1190.43 14.4999 1184.87 8.94542 1184.87 2.09364C1184.87 -4.75814 1190.43 -10.3126 1197.28 -10.3126C1204.13 -10.3126 1209.69 -4.7581 1209.69 2.09368Z" fill="#1D1E1D"/>
<path d="M1259.31 2.09368C1259.31 8.94546 1253.76 14.4999 1246.91 14.4999C1240.05 14.4999 1234.5 8.94546 1234.5 2.09368C1234.5 -4.7581 1240.05 -10.3126 1246.91 -10.3126C1253.76 -10.3126 1259.31 -4.7581 1259.31 2.09368Z" fill="#1D1E1D"/>
<path d="M1308.94 2.09368C1308.94 8.94546 1303.38 14.4999 1296.53 14.4999C1289.68 14.4999 1284.12 8.94546 1284.12 2.09368C1284.12 -4.7581 1289.68 -10.3126 1296.53 -10.3126C1303.38 -10.3126 1308.94 -4.7581 1308.94 2.09368Z" fill="#1D1E1D"/>
<path d="M1358.56 2.09368C1358.56 8.94546 1353.01 14.4999 1346.16 14.4999C1339.3 14.4999 1333.75 8.94546 1333.75 2.09368C1333.75 -4.7581 1339.3 -10.3126 1346.16 -10.3126C1353.01 -10.3126 1358.56 -4.7581 1358.56 2.09368Z" fill="#1D1E1D"/>
<path d="M1408.19 2.09368C1408.19 8.94546 1402.63 14.4999 1395.78 14.4999C1388.93 14.4999 1383.37 8.94546 1383.37 2.09368C1383.37 -4.7581 1388.93 -10.3126 1395.78 -10.3126C1402.63 -10.3126 1408.19 -4.7581 1408.19 2.09368Z" fill="#1D1E1D"/>
<path d="M1457.81 2.09372C1457.81 8.9455 1452.26 14.5 1445.41 14.5C1438.55 14.5 1433 8.9455 1433 2.09372C1433 -4.75806 1438.55 -10.3125 1445.41 -10.3125C1452.26 -10.3125 1457.81 -4.75806 1457.81 2.09372Z" fill="#1D1E1D"/>
<path d="M1507.44 2.09372C1507.44 8.9455 1501.88 14.5 1495.03 14.5C1488.18 14.5 1482.62 8.9455 1482.62 2.09372C1482.62 -4.75806 1488.18 -10.3125 1495.03 -10.3125C1501.88 -10.3125 1507.44 -4.75806 1507.44 2.09372Z" fill="#1D1E1D"/>
<path d="M1557.06 2.09372C1557.06 8.9455 1551.51 14.5 1544.66 14.5C1537.8 14.5 1532.25 8.9455 1532.25 2.09372C1532.25 -4.75806 1537.8 -10.3125 1544.66 -10.3125C1551.51 -10.3125 1557.06 -4.75806 1557.06 2.09372Z" fill="#1D1E1D"/>
<path d="M1606.69 2.09372C1606.69 8.9455 1601.13 14.5 1594.28 14.5C1587.43 14.5 1581.87 8.9455 1581.87 2.09372C1581.87 -4.75806 1587.43 -10.3125 1594.28 -10.3125C1601.13 -10.3125 1606.69 -4.75806 1606.69 2.09372Z" fill="#1D1E1D"/>
<path d="M1656.31 2.09375C1656.31 8.94553 1650.76 14.5 1643.91 14.5C1637.05 14.5 1631.5 8.94553 1631.5 2.09375C1631.5 -4.75803 1637.05 -10.3125 1643.91 -10.3125C1650.76 -10.3125 1656.31 -4.75803 1656.31 2.09375Z" fill="#1D1E1D"/>
<path d="M1705.94 2.09375C1705.94 8.94553 1700.38 14.5 1693.53 14.5C1686.68 14.5 1681.12 8.94553 1681.12 2.09375C1681.12 -4.75803 1686.68 -10.3125 1693.53 -10.3125C1700.38 -10.3125 1705.94 -4.75803 1705.94 2.09375Z" fill="#1D1E1D"/>
<path d="M663.813 51.7185C663.813 58.5703 658.258 64.1248 651.406 64.1248C644.554 64.1248 639 58.5703 639 51.7185C639 44.8668 644.554 39.3123 651.406 39.3123C658.258 39.3123 663.813 44.8668 663.813 51.7185Z" fill="#1D1E1D"/>
<path d="M713.438 51.7185C713.438 58.5703 707.883 64.1248 701.031 64.1248C694.179 64.1248 688.625 58.5703 688.625 51.7185C688.625 44.8668 694.179 39.3123 701.031 39.3123C707.883 39.3123 713.438 44.8668 713.438 51.7185Z" fill="#1D1E1D"/>
<path d="M763.062 51.7186C763.062 58.5704 757.508 64.1248 750.656 64.1248C743.804 64.1248 738.25 58.5703 738.25 51.7185C738.25 44.8668 743.804 39.3123 750.656 39.3123C757.508 39.3123 763.062 44.8668 763.062 51.7186Z" fill="#1D1E1D"/>
<path d="M812.687 51.7186C812.687 58.5704 807.133 64.1248 800.281 64.1248C793.429 64.1248 787.875 58.5704 787.875 51.7186C787.875 44.8668 793.429 39.3123 800.281 39.3123C807.133 39.3123 812.687 44.8668 812.687 51.7186Z" fill="#1D1E1D"/>
<path d="M862.312 51.7186C862.312 58.5704 856.758 64.1248 849.906 64.1248C843.054 64.1248 837.5 58.5704 837.5 51.7186C837.5 44.8668 843.054 39.3123 849.906 39.3123C856.758 39.3123 862.312 44.8668 862.312 51.7186Z" fill="#1D1E1D"/>
<path d="M911.937 51.7186C911.937 58.5704 906.383 64.1248 899.531 64.1248C892.679 64.1248 887.125 58.5704 887.125 51.7186C887.125 44.8668 892.679 39.3123 899.531 39.3123C906.383 39.3123 911.937 44.8668 911.937 51.7186Z" fill="#1D1E1D"/>
<path d="M961.562 51.7186C961.562 58.5704 956.008 64.1248 949.156 64.1248C942.304 64.1248 936.75 58.5704 936.75 51.7186C936.75 44.8668 942.304 39.3123 949.156 39.3123C956.008 39.3123 961.562 44.8668 961.562 51.7186Z" fill="#1D1E1D"/>
<path d="M1011.19 51.7186C1011.19 58.5704 1005.63 64.1249 998.781 64.1249C991.929 64.1249 986.375 58.5704 986.375 51.7186C986.375 44.8668 991.929 39.3124 998.781 39.3124C1005.63 39.3124 1011.19 44.8668 1011.19 51.7186Z" fill="#1D1E1D"/>
<path d="M1060.81 51.7186C1060.81 58.5704 1055.26 64.1249 1048.41 64.1249C1041.55 64.1249 1036 58.5704 1036 51.7186C1036 44.8668 1041.55 39.3124 1048.41 39.3124C1055.26 39.3124 1060.81 44.8668 1060.81 51.7186Z" fill="#1D1E1D"/>
<path d="M1110.44 51.7186C1110.44 58.5704 1104.88 64.1249 1098.03 64.1249C1091.18 64.1249 1085.62 58.5704 1085.62 51.7186C1085.62 44.8668 1091.18 39.3124 1098.03 39.3124C1104.88 39.3124 1110.44 44.8668 1110.44 51.7186Z" fill="#1D1E1D"/>
<path d="M1160.06 51.7186C1160.06 58.5704 1154.51 64.1249 1147.66 64.1249C1140.8 64.1249 1135.25 58.5704 1135.25 51.7186C1135.25 44.8668 1140.8 39.3124 1147.66 39.3124C1154.51 39.3124 1160.06 44.8668 1160.06 51.7186Z" fill="#1D1E1D"/>
<path d="M1209.69 51.7187C1209.69 58.5704 1204.13 64.1249 1197.28 64.1249C1190.43 64.1249 1184.87 58.5704 1184.87 51.7186C1184.87 44.8668 1190.43 39.3124 1197.28 39.3124C1204.13 39.3124 1209.69 44.8669 1209.69 51.7187Z" fill="#1D1E1D"/>
<path d="M1259.31 51.7187C1259.31 58.5704 1253.76 64.1249 1246.91 64.1249C1240.05 64.1249 1234.5 58.5704 1234.5 51.7187C1234.5 44.8669 1240.05 39.3124 1246.91 39.3124C1253.76 39.3124 1259.31 44.8669 1259.31 51.7187Z" fill="#1D1E1D"/>
<path d="M1308.94 51.7187C1308.94 58.5704 1303.38 64.1249 1296.53 64.1249C1289.68 64.1249 1284.12 58.5704 1284.12 51.7187C1284.12 44.8669 1289.68 39.3124 1296.53 39.3124C1303.38 39.3124 1308.94 44.8669 1308.94 51.7187Z" fill="#1D1E1D"/>
<path d="M1358.56 51.7187C1358.56 58.5704 1353.01 64.1249 1346.16 64.1249C1339.3 64.1249 1333.75 58.5704 1333.75 51.7187C1333.75 44.8669 1339.3 39.3124 1346.16 39.3124C1353.01 39.3124 1358.56 44.8669 1358.56 51.7187Z" fill="#1D1E1D"/>
<path d="M1408.19 51.7187C1408.19 58.5704 1402.63 64.1249 1395.78 64.1249C1388.93 64.1249 1383.37 58.5704 1383.37 51.7187C1383.37 44.8669 1388.93 39.3124 1395.78 39.3124C1402.63 39.3124 1408.19 44.8669 1408.19 51.7187Z" fill="#1D1E1D"/>
<path d="M1457.81 51.7187C1457.81 58.5705 1452.26 64.1249 1445.41 64.1249C1438.55 64.1249 1433 58.5705 1433 51.7187C1433 44.8669 1438.55 39.3125 1445.41 39.3125C1452.26 39.3125 1457.81 44.8669 1457.81 51.7187Z" fill="#1D1E1D"/>
<path d="M1507.44 51.7187C1507.44 58.5705 1501.88 64.1249 1495.03 64.1249C1488.18 64.1249 1482.62 58.5705 1482.62 51.7187C1482.62 44.8669 1488.18 39.3125 1495.03 39.3125C1501.88 39.3125 1507.44 44.8669 1507.44 51.7187Z" fill="#1D1E1D"/>
<path d="M1557.06 51.7187C1557.06 58.5705 1551.51 64.1249 1544.66 64.1249C1537.8 64.1249 1532.25 58.5705 1532.25 51.7187C1532.25 44.8669 1537.8 39.3125 1544.66 39.3125C1551.51 39.3125 1557.06 44.8669 1557.06 51.7187Z" fill="#1D1E1D"/>
<path d="M1606.69 51.7187C1606.69 58.5705 1601.13 64.1249 1594.28 64.1249C1587.43 64.1249 1581.87 58.5705 1581.87 51.7187C1581.87 44.8669 1587.43 39.3125 1594.28 39.3125C1601.13 39.3125 1606.69 44.8669 1606.69 51.7187Z" fill="#1D1E1D"/>
<path d="M1656.31 51.7187C1656.31 58.5705 1650.76 64.125 1643.91 64.125C1637.05 64.125 1631.5 58.5705 1631.5 51.7187C1631.5 44.867 1637.05 39.3125 1643.91 39.3125C1650.76 39.3125 1656.31 44.867 1656.31 51.7187Z" fill="#1D1E1D"/>
<path d="M1705.94 51.7187C1705.94 58.5705 1700.38 64.125 1693.53 64.125C1686.68 64.125 1681.12 58.5705 1681.12 51.7187C1681.12 44.867 1686.68 39.3125 1693.53 39.3125C1700.38 39.3125 1705.94 44.867 1705.94 51.7187Z" fill="#1D1E1D"/>
<path d="M663.813 101.344C663.813 108.195 658.258 113.75 651.406 113.75C644.554 113.75 639 108.195 639 101.344C639 94.4917 644.554 88.9373 651.406 88.9373C658.258 88.9373 663.813 94.4917 663.813 101.344Z" fill="#1D1E1D"/>
<path d="M713.437 101.344C713.437 108.195 707.883 113.75 701.031 113.75C694.179 113.75 688.625 108.195 688.625 101.344C688.625 94.4917 694.179 88.9373 701.031 88.9373C707.883 88.9373 713.437 94.4917 713.437 101.344Z" fill="#1D1E1D"/>
<path d="M763.062 101.344C763.062 108.195 757.508 113.75 750.656 113.75C743.804 113.75 738.25 108.195 738.25 101.344C738.25 94.4917 743.804 88.9373 750.656 88.9373C757.508 88.9373 763.062 94.4918 763.062 101.344Z" fill="#1D1E1D"/>
<path d="M812.687 101.344C812.687 108.195 807.133 113.75 800.281 113.75C793.429 113.75 787.875 108.195 787.875 101.344C787.875 94.4918 793.429 88.9373 800.281 88.9373C807.133 88.9373 812.687 94.4918 812.687 101.344Z" fill="#1D1E1D"/>
<path d="M862.312 101.344C862.312 108.195 856.758 113.75 849.906 113.75C843.054 113.75 837.5 108.195 837.5 101.344C837.5 94.4918 843.054 88.9373 849.906 88.9373C856.758 88.9373 862.312 94.4918 862.312 101.344Z" fill="#1D1E1D"/>
<path d="M911.937 101.344C911.937 108.195 906.383 113.75 899.531 113.75C892.679 113.75 887.125 108.195 887.125 101.344C887.125 94.4918 892.679 88.9373 899.531 88.9373C906.383 88.9373 911.937 94.4918 911.937 101.344Z" fill="#1D1E1D"/>
<path d="M961.562 101.344C961.562 108.195 956.008 113.75 949.156 113.75C942.304 113.75 936.75 108.195 936.75 101.344C936.75 94.4918 942.304 88.9373 949.156 88.9373C956.008 88.9373 961.562 94.4918 961.562 101.344Z" fill="#1D1E1D"/>
<path d="M1011.19 101.344C1011.19 108.195 1005.63 113.75 998.781 113.75C991.929 113.75 986.375 108.195 986.375 101.344C986.375 94.4918 991.929 88.9374 998.781 88.9374C1005.63 88.9374 1011.19 94.4918 1011.19 101.344Z" fill="#1D1E1D"/>
<path d="M1060.81 101.344C1060.81 108.195 1055.26 113.75 1048.41 113.75C1041.55 113.75 1036 108.195 1036 101.344C1036 94.4918 1041.55 88.9374 1048.41 88.9374C1055.26 88.9374 1060.81 94.4918 1060.81 101.344Z" fill="#1D1E1D"/>
<path d="M1110.44 101.344C1110.44 108.195 1104.88 113.75 1098.03 113.75C1091.18 113.75 1085.62 108.195 1085.62 101.344C1085.62 94.4918 1091.18 88.9374 1098.03 88.9374C1104.88 88.9374 1110.44 94.4918 1110.44 101.344Z" fill="#1D1E1D"/>
<path d="M1160.06 101.344C1160.06 108.195 1154.51 113.75 1147.66 113.75C1140.8 113.75 1135.25 108.195 1135.25 101.344C1135.25 94.4918 1140.8 88.9374 1147.66 88.9374C1154.51 88.9374 1160.06 94.4918 1160.06 101.344Z" fill="#1D1E1D"/>
<path d="M1209.69 101.344C1209.69 108.195 1204.13 113.75 1197.28 113.75C1190.43 113.75 1184.87 108.195 1184.87 101.344C1184.87 94.4918 1190.43 88.9374 1197.28 88.9374C1204.13 88.9374 1209.69 94.4919 1209.69 101.344Z" fill="#1D1E1D"/>
<path d="M1259.31 101.344C1259.31 108.195 1253.76 113.75 1246.91 113.75C1240.05 113.75 1234.5 108.195 1234.5 101.344C1234.5 94.4919 1240.05 88.9374 1246.91 88.9374C1253.76 88.9374 1259.31 94.4919 1259.31 101.344Z" fill="#1D1E1D"/>
<path d="M1308.94 101.344C1308.94 108.195 1303.38 113.75 1296.53 113.75C1289.68 113.75 1284.12 108.195 1284.12 101.344C1284.12 94.4919 1289.68 88.9374 1296.53 88.9374C1303.38 88.9374 1308.94 94.4919 1308.94 101.344Z" fill="#1D1E1D"/>
<path d="M1358.56 101.344C1358.56 108.195 1353.01 113.75 1346.16 113.75C1339.3 113.75 1333.75 108.195 1333.75 101.344C1333.75 94.4919 1339.3 88.9374 1346.16 88.9374C1353.01 88.9374 1358.56 94.4919 1358.56 101.344Z" fill="#1D1E1D"/>
<path d="M1408.19 101.344C1408.19 108.195 1402.63 113.75 1395.78 113.75C1388.93 113.75 1383.37 108.195 1383.37 101.344C1383.37 94.4919 1388.93 88.9374 1395.78 88.9374C1402.63 88.9374 1408.19 94.4919 1408.19 101.344Z" fill="#1D1E1D"/>
<path d="M1457.81 101.344C1457.81 108.195 1452.26 113.75 1445.41 113.75C1438.55 113.75 1433 108.195 1433 101.344C1433 94.4919 1438.55 88.9374 1445.41 88.9374C1452.26 88.9374 1457.81 94.4919 1457.81 101.344Z" fill="#1D1E1D"/>
<path d="M1507.44 101.344C1507.44 108.195 1501.88 113.75 1495.03 113.75C1488.18 113.75 1482.62 108.195 1482.62 101.344C1482.62 94.4919 1488.18 88.9374 1495.03 88.9374C1501.88 88.9374 1507.44 94.4919 1507.44 101.344Z" fill="#1D1E1D"/>
<path d="M1557.06 101.344C1557.06 108.195 1551.51 113.75 1544.66 113.75C1537.8 113.75 1532.25 108.195 1532.25 101.344C1532.25 94.4919 1537.8 88.9374 1544.66 88.9374C1551.51 88.9374 1557.06 94.4919 1557.06 101.344Z" fill="#1D1E1D"/>
<path d="M1606.69 101.344C1606.69 108.195 1601.13 113.75 1594.28 113.75C1587.43 113.75 1581.87 108.195 1581.87 101.344C1581.87 94.4919 1587.43 88.9374 1594.28 88.9374C1601.13 88.9374 1606.69 94.4919 1606.69 101.344Z" fill="#1D1E1D"/>
<path d="M1656.31 101.344C1656.31 108.195 1650.76 113.75 1643.91 113.75C1637.05 113.75 1631.5 108.195 1631.5 101.344C1631.5 94.4919 1637.05 88.9375 1643.91 88.9375C1650.76 88.9375 1656.31 94.4919 1656.31 101.344Z" fill="#1D1E1D"/>
<path d="M1705.94 101.344C1705.94 108.195 1700.38 113.75 1693.53 113.75C1686.68 113.75 1681.12 108.195 1681.12 101.344C1681.12 94.4919 1686.68 88.9375 1693.53 88.9375C1700.38 88.9375 1705.94 94.4919 1705.94 101.344Z" fill="#1D1E1D"/>
<path d="M663.813 150.969C663.812 157.82 658.258 163.375 651.406 163.375C644.554 163.375 639 157.82 639 150.969C639 144.117 644.554 138.562 651.406 138.562C658.258 138.562 663.813 144.117 663.813 150.969Z" fill="#1D1E1D"/>
<path d="M713.437 150.969C713.437 157.82 707.883 163.375 701.031 163.375C694.179 163.375 688.625 157.82 688.625 150.969C688.625 144.117 694.179 138.562 701.031 138.562C707.883 138.562 713.437 144.117 713.437 150.969Z" fill="#1D1E1D"/>
<path d="M763.062 150.969C763.062 157.82 757.508 163.375 750.656 163.375C743.804 163.375 738.25 157.82 738.25 150.969C738.25 144.117 743.804 138.562 750.656 138.562C757.508 138.562 763.062 144.117 763.062 150.969Z" fill="#1D1E1D"/>
<path d="M812.687 150.969C812.687 157.82 807.133 163.375 800.281 163.375C793.429 163.375 787.875 157.82 787.875 150.969C787.875 144.117 793.429 138.562 800.281 138.562C807.133 138.562 812.687 144.117 812.687 150.969Z" fill="#1D1E1D"/>
<path d="M862.312 150.969C862.312 157.82 856.758 163.375 849.906 163.375C843.054 163.375 837.5 157.82 837.5 150.969C837.5 144.117 843.054 138.562 849.906 138.562C856.758 138.562 862.312 144.117 862.312 150.969Z" fill="#1D1E1D"/>
<path d="M911.937 150.969C911.937 157.82 906.383 163.375 899.531 163.375C892.679 163.375 887.125 157.82 887.125 150.969C887.125 144.117 892.679 138.562 899.531 138.562C906.383 138.562 911.937 144.117 911.937 150.969Z" fill="#1D1E1D"/>
<path d="M961.562 150.969C961.562 157.82 956.008 163.375 949.156 163.375C942.304 163.375 936.75 157.82 936.75 150.969C936.75 144.117 942.304 138.562 949.156 138.562C956.008 138.562 961.562 144.117 961.562 150.969Z" fill="#1D1E1D"/>
<path d="M1011.19 150.969C1011.19 157.82 1005.63 163.375 998.781 163.375C991.929 163.375 986.375 157.82 986.375 150.969C986.375 144.117 991.929 138.562 998.781 138.562C1005.63 138.562 1011.19 144.117 1011.19 150.969Z" fill="#1D1E1D"/>
<path d="M1060.81 150.969C1060.81 157.82 1055.26 163.375 1048.41 163.375C1041.55 163.375 1036 157.82 1036 150.969C1036 144.117 1041.55 138.562 1048.41 138.562C1055.26 138.562 1060.81 144.117 1060.81 150.969Z" fill="#1D1E1D"/>
<path d="M1110.44 150.969C1110.44 157.82 1104.88 163.375 1098.03 163.375C1091.18 163.375 1085.62 157.82 1085.62 150.969C1085.62 144.117 1091.18 138.562 1098.03 138.562C1104.88 138.562 1110.44 144.117 1110.44 150.969Z" fill="#1D1E1D"/>
<path d="M1160.06 150.969C1160.06 157.82 1154.51 163.375 1147.66 163.375C1140.8 163.375 1135.25 157.82 1135.25 150.969C1135.25 144.117 1140.8 138.562 1147.66 138.562C1154.51 138.562 1160.06 144.117 1160.06 150.969Z" fill="#1D1E1D"/>
<path d="M1209.69 150.969C1209.69 157.82 1204.13 163.375 1197.28 163.375C1190.43 163.375 1184.87 157.82 1184.87 150.969C1184.87 144.117 1190.43 138.562 1197.28 138.562C1204.13 138.562 1209.69 144.117 1209.69 150.969Z" fill="#1D1E1D"/>
<path d="M1259.31 150.969C1259.31 157.82 1253.76 163.375 1246.91 163.375C1240.05 163.375 1234.5 157.82 1234.5 150.969C1234.5 144.117 1240.05 138.562 1246.91 138.562C1253.76 138.562 1259.31 144.117 1259.31 150.969Z" fill="#1D1E1D"/>
<path d="M1308.94 150.969C1308.94 157.82 1303.38 163.375 1296.53 163.375C1289.68 163.375 1284.12 157.82 1284.12 150.969C1284.12 144.117 1289.68 138.562 1296.53 138.562C1303.38 138.562 1308.94 144.117 1308.94 150.969Z" fill="#1D1E1D"/>
<path d="M1358.56 150.969C1358.56 157.82 1353.01 163.375 1346.16 163.375C1339.3 163.375 1333.75 157.82 1333.75 150.969C1333.75 144.117 1339.3 138.562 1346.16 138.562C1353.01 138.562 1358.56 144.117 1358.56 150.969Z" fill="#1D1E1D"/>
<path d="M1408.19 150.969C1408.19 157.82 1402.63 163.375 1395.78 163.375C1388.93 163.375 1383.37 157.82 1383.37 150.969C1383.37 144.117 1388.93 138.562 1395.78 138.562C1402.63 138.562 1408.19 144.117 1408.19 150.969Z" fill="#1D1E1D"/>
<path d="M1457.81 150.969C1457.81 157.82 1452.26 163.375 1445.41 163.375C1438.55 163.375 1433 157.82 1433 150.969C1433 144.117 1438.55 138.562 1445.41 138.562C1452.26 138.562 1457.81 144.117 1457.81 150.969Z" fill="#1D1E1D"/>
<path d="M1507.44 150.969C1507.44 157.82 1501.88 163.375 1495.03 163.375C1488.18 163.375 1482.62 157.82 1482.62 150.969C1482.62 144.117 1488.18 138.562 1495.03 138.562C1501.88 138.562 1507.44 144.117 1507.44 150.969Z" fill="#1D1E1D"/>
<path d="M1557.06 150.969C1557.06 157.82 1551.51 163.375 1544.66 163.375C1537.8 163.375 1532.25 157.82 1532.25 150.969C1532.25 144.117 1537.8 138.562 1544.66 138.562C1551.51 138.562 1557.06 144.117 1557.06 150.969Z" fill="#1D1E1D"/>
<path d="M1606.69 150.969C1606.69 157.82 1601.13 163.375 1594.28 163.375C1587.43 163.375 1581.87 157.82 1581.87 150.969C1581.87 144.117 1587.43 138.562 1594.28 138.562C1601.13 138.562 1606.69 144.117 1606.69 150.969Z" fill="#1D1E1D"/>
<path d="M1656.31 150.969C1656.31 157.82 1650.76 163.375 1643.91 163.375C1637.05 163.375 1631.5 157.82 1631.5 150.969C1631.5 144.117 1637.05 138.562 1643.91 138.562C1650.76 138.562 1656.31 144.117 1656.31 150.969Z" fill="#1D1E1D"/>
<path d="M1705.94 150.969C1705.94 157.82 1700.38 163.375 1693.53 163.375C1686.68 163.375 1681.12 157.82 1681.12 150.969C1681.12 144.117 1686.68 138.562 1693.53 138.562C1700.38 138.562 1705.94 144.117 1705.94 150.969Z" fill="#1D1E1D"/>
<path d="M663.812 200.593C663.812 207.445 658.258 213 651.406 213C644.554 213 639 207.445 639 200.593C639 193.742 644.554 188.187 651.406 188.187C658.258 188.187 663.812 193.742 663.812 200.593Z" fill="#1D1E1D"/>
<path d="M713.437 200.593C713.437 207.445 707.883 213 701.031 213C694.179 213 688.625 207.445 688.625 200.593C688.625 193.742 694.179 188.187 701.031 188.187C707.883 188.187 713.437 193.742 713.437 200.593Z" fill="#1D1E1D"/>
<path d="M763.062 200.593C763.062 207.445 757.508 213 750.656 213C743.804 213 738.25 207.445 738.25 200.593C738.25 193.742 743.804 188.187 750.656 188.187C757.508 188.187 763.062 193.742 763.062 200.593Z" fill="#1D1E1D"/>
<path d="M812.687 200.593C812.687 207.445 807.133 213 800.281 213C793.429 213 787.875 207.445 787.875 200.593C787.875 193.742 793.429 188.187 800.281 188.187C807.133 188.187 812.687 193.742 812.687 200.593Z" fill="#1D1E1D"/>
<path d="M862.312 200.593C862.312 207.445 856.758 213 849.906 213C843.054 213 837.5 207.445 837.5 200.593C837.5 193.742 843.054 188.187 849.906 188.187C856.758 188.187 862.312 193.742 862.312 200.593Z" fill="#1D1E1D"/>
<path d="M911.937 200.594C911.937 207.445 906.383 213 899.531 213C892.679 213 887.125 207.445 887.125 200.594C887.125 193.742 892.679 188.187 899.531 188.187C906.383 188.187 911.937 193.742 911.937 200.594Z" fill="#1D1E1D"/>
<path d="M961.562 200.594C961.562 207.445 956.008 213 949.156 213C942.304 213 936.75 207.445 936.75 200.594C936.75 193.742 942.304 188.187 949.156 188.187C956.008 188.187 961.562 193.742 961.562 200.594Z" fill="#1D1E1D"/>
<path d="M1011.19 200.594C1011.19 207.445 1005.63 213 998.781 213C991.929 213 986.375 207.445 986.375 200.594C986.375 193.742 991.929 188.187 998.781 188.187C1005.63 188.187 1011.19 193.742 1011.19 200.594Z" fill="#1D1E1D"/>
<path d="M1060.81 200.594C1060.81 207.445 1055.26 213 1048.41 213C1041.55 213 1036 207.445 1036 200.594C1036 193.742 1041.55 188.187 1048.41 188.187C1055.26 188.187 1060.81 193.742 1060.81 200.594Z" fill="#1D1E1D"/>
<path d="M1110.44 200.594C1110.44 207.445 1104.88 213 1098.03 213C1091.18 213 1085.62 207.445 1085.62 200.594C1085.62 193.742 1091.18 188.187 1098.03 188.187C1104.88 188.187 1110.44 193.742 1110.44 200.594Z" fill="#1D1E1D"/>
<path d="M1160.06 200.594C1160.06 207.445 1154.51 213 1147.66 213C1140.8 213 1135.25 207.445 1135.25 200.594C1135.25 193.742 1140.8 188.187 1147.66 188.187C1154.51 188.187 1160.06 193.742 1160.06 200.594Z" fill="#1D1E1D"/>
<path d="M1209.69 200.594C1209.69 207.445 1204.13 213 1197.28 213C1190.43 213 1184.87 207.445 1184.87 200.594C1184.87 193.742 1190.43 188.187 1197.28 188.187C1204.13 188.187 1209.69 193.742 1209.69 200.594Z" fill="#1D1E1D"/>
<path d="M1259.31 200.594C1259.31 207.445 1253.76 213 1246.91 213C1240.05 213 1234.5 207.445 1234.5 200.594C1234.5 193.742 1240.05 188.187 1246.91 188.187C1253.76 188.187 1259.31 193.742 1259.31 200.594Z" fill="#1D1E1D"/>
<path d="M1308.94 200.594C1308.94 207.445 1303.38 213 1296.53 213C1289.68 213 1284.12 207.445 1284.12 200.594C1284.12 193.742 1289.68 188.187 1296.53 188.187C1303.38 188.187 1308.94 193.742 1308.94 200.594Z" fill="#1D1E1D"/>
<path d="M1358.56 200.594C1358.56 207.445 1353.01 213 1346.16 213C1339.3 213 1333.75 207.445 1333.75 200.594C1333.75 193.742 1339.3 188.187 1346.16 188.187C1353.01 188.187 1358.56 193.742 1358.56 200.594Z" fill="#1D1E1D"/>
<path d="M1408.19 200.594C1408.19 207.445 1402.63 213 1395.78 213C1388.93 213 1383.37 207.445 1383.37 200.594C1383.37 193.742 1388.93 188.187 1395.78 188.187C1402.63 188.187 1408.19 193.742 1408.19 200.594Z" fill="#1D1E1D"/>
<path d="M1457.81 200.594C1457.81 207.445 1452.26 213 1445.41 213C1438.55 213 1433 207.445 1433 200.594C1433 193.742 1438.55 188.187 1445.41 188.187C1452.26 188.187 1457.81 193.742 1457.81 200.594Z" fill="#1D1E1D"/>
<path d="M1507.44 200.594C1507.44 207.445 1501.88 213 1495.03 213C1488.18 213 1482.62 207.445 1482.62 200.594C1482.62 193.742 1488.18 188.187 1495.03 188.187C1501.88 188.187 1507.44 193.742 1507.44 200.594Z" fill="#1D1E1D"/>
<path d="M1557.06 200.594C1557.06 207.445 1551.51 213 1544.66 213C1537.8 213 1532.25 207.445 1532.25 200.594C1532.25 193.742 1537.8 188.187 1544.66 188.187C1551.51 188.187 1557.06 193.742 1557.06 200.594Z" fill="#1D1E1D"/>
<path d="M1606.69 200.594C1606.69 207.445 1601.13 213 1594.28 213C1587.43 213 1581.87 207.445 1581.87 200.594C1581.87 193.742 1587.43 188.187 1594.28 188.187C1601.13 188.187 1606.69 193.742 1606.69 200.594Z" fill="#1D1E1D"/>
<path d="M1656.31 200.594C1656.31 207.445 1650.76 213 1643.91 213C1637.05 213 1631.5 207.445 1631.5 200.594C1631.5 193.742 1637.05 188.187 1643.91 188.187C1650.76 188.187 1656.31 193.742 1656.31 200.594Z" fill="#1D1E1D"/>
<path d="M1705.94 200.594C1705.94 207.445 1700.38 213 1693.53 213C1686.68 213 1681.12 207.445 1681.12 200.594C1681.12 193.742 1686.68 188.187 1693.53 188.187C1700.38 188.187 1705.94 193.742 1705.94 200.594Z" fill="#1D1E1D"/>
<path d="M-54.1144 938.25L61.5 738L177.114 938.25H-54.1144Z" stroke="#1D1E1D" stroke-width="20"/>
<path d="M-88.1144 924.25L27.5 724L143.114 924.25H-88.1144Z" stroke="#3FC2E0" stroke-width="20"/>
</g>
<circle cx="203.5" cy="203.5" r="191" transform="matrix(-1 0 0 1 935 297)" fill="#54E5C4" stroke="#1D1E1D" stroke-width="25"/>
<path d="M692 502C739.5 529 782.6 474.2 779 431M774 509C810 539 883.9 504.2 875.5 447M847.5 513C870.667 528.667 927.5 577.4 947.5 489" stroke="#1D1E1D" stroke-width="20" stroke-linecap="round" stroke-linejoin="round"/>
<path d="M728.379 581.879C683.5 578.432 649.913 539.256 653.36 494.377L815.881 506.859C812.434 551.738 773.258 585.326 728.379 581.879Z" fill="#1D1E1D"/>
<circle cx="669.5" cy="545.5" r="22.5" fill="white"/>
<circle cx="636" cy="577" r="11" fill="white"/>
<path d="M543.5 467C658.333 486.333 892.5 524.3 918.5 505.5" stroke="#1D1E1D" stroke-width="25"/>
<circle cx="267" cy="500.5" r="191" fill="#54E5C4" stroke="#1D1E1D" stroke-width="25"/>
<path d="M306.5 502C259 529 215.9 474.2 219.5 431M224.5 509C188.5 539 114.6 504.2 123 447M151 513C127.833 528.667 71 577.4 51 489" stroke="#1D1E1D" stroke-width="20" stroke-linecap="round" stroke-linejoin="round"/>
<path d="M270.121 581.879C315 578.432 348.587 539.256 345.14 494.377L182.619 506.859C186.066 551.738 225.242 585.326 270.121 581.879Z" fill="#1D1E1D"/>
<circle cx="22.5" cy="22.5" r="22.5" transform="matrix(-1 0 0 1 224 532)" fill="white"/>
<circle cx="11" cy="11" r="11" transform="matrix(-1 0 0 1 167 577)" fill="white"/>
<path d="M455 467C340.167 486.333 106 524.3 80 505.5" stroke="#1D1E1D" stroke-width="25"/>
</svg>
