<svg width="1000" height="1000" viewBox="0 0 1000 1000" fill="none" xmlns="http://www.w3.org/2000/svg">
<rect width="1000" height="1000" fill="#FFF8A0"/>
<mask id="mask0_100_1612" style="mask-type:alpha" maskUnits="userSpaceOnUse" x="0" y="0" width="1000" height="1000">
<rect width="1000" height="1000" fill="white"/>
</mask>
<g mask="url(#mask0_100_1612)">
<rect x="32" y="92" width="296" height="406" fill="#54E5C4"/>
<path d="M203.706 570.541L130.058 523.594L120.662 538.314L194.31 585.26L203.706 570.541Z" fill="#1D1E1D"/>
<path d="M152.133 565.357L95.9891 632.236L109.374 643.457L165.518 576.579L152.133 565.357Z" fill="#1D1E1D"/>
<path d="M180.148 617.583L133.36 637.41L140.181 653.484L186.968 633.657L180.148 617.583Z" fill="#1D1E1D"/>
<path d="M126.45 712.827L114.577 762.208L131.564 766.287L143.438 716.906L126.45 712.827Z" fill="#1D1E1D"/>
<path d="M19.2273 682.509L-28.9223 698.757L-23.3327 715.299L24.8169 699.051L19.2273 682.509Z" fill="#1D1E1D"/>
<path d="M0.631104 729.429L-11.2426 778.81L5.7449 782.889L17.6186 733.508L0.631104 729.429Z" fill="#1D1E1D"/>
<path d="M3.92912 842.095L-40.7577 866.283L-32.4369 881.635L12.25 857.447L3.92912 842.095Z" fill="#1D1E1D"/>
<path d="M-53.6762 716.096L-35.6589 763.584L-19.3227 757.395L-37.3399 709.907L-53.6762 716.096Z" fill="#1D1E1D"/>
<path d="M32.1631 687.008L75.3059 713.85L84.5397 699.028L41.397 672.186L32.1631 687.008Z" fill="#1D1E1D"/>
<path d="M-10.5975 564.393L9.58871 611.002L25.6224 604.067L5.43626 557.458L-10.5975 564.393Z" fill="#1D1E1D"/>
<path d="M-35.9973 653.252L-0.286804 617.117L-12.7177 604.849L-48.4282 640.984L-35.9973 653.252Z" fill="#1D1E1D"/>
<path d="M78.3631 623.06L79.3758 572.283L61.9082 571.935L60.8955 622.712L78.3631 623.06Z" fill="#1D1E1D"/>
<path d="M122.025 569.842L80.1638 541.046L70.2576 555.427L112.119 584.224L122.025 569.842Z" fill="#1D1E1D"/>
<path d="M54.3629 819.777L126.782 792.244L120.569 775.926L48.1504 803.459L54.3629 819.777Z" fill="#1D1E1D"/>
<path d="M75.2681 892.608L108.886 822.845L93.1451 815.27L59.5272 885.033L75.2681 892.608Z" fill="#1D1E1D"/>
<path d="M124.75 860.943L142.853 823.377L127.112 815.802L109.009 853.368L124.75 860.943Z" fill="#1D1E1D"/>
<path d="M194.417 891.611L221.225 859.661L207.837 848.443L181.029 880.393L194.417 891.611Z" fill="#1D1E1D"/>
<path d="M219.838 819.922L209.597 779.503L192.66 783.788L202.901 824.208L219.838 819.922Z" fill="#1D1E1D"/>
<path d="M175.242 608.728L215.875 618.196L219.842 601.193L179.209 591.725L175.242 608.728Z" fill="#1D1E1D"/>
<path d="M206.073 516.614L201.089 558.01L218.435 560.096L223.419 518.699L206.073 516.614Z" fill="#1D1E1D"/>
<path d="M109.839 893.1L182.258 865.567L176.046 849.249L103.627 876.782L109.839 893.1Z" fill="#1D1E1D"/>
<path d="M27.9885 831.89L49.8307 757.599L33.0682 752.677L11.226 826.968L27.9885 831.89Z" fill="#1D1E1D"/>
<path d="M8.18535 896L65.9367 844.378L54.2891 831.365L-3.46225 882.987L8.18535 896Z" fill="#1D1E1D"/>
<path d="M-0.789948 819.235L-50.8531 760.137L-64.1877 771.417L-14.1245 830.515L-0.789948 819.235Z" fill="#1D1E1D"/>
<path d="M-169.844 877.454L-247.189 872.839L-248.23 890.267L-170.885 894.882L-169.844 877.454Z" fill="#1D1E1D"/>
<path d="M-61.2923 804.942L-67.3729 882.134L-49.9557 883.504L-43.8751 806.312L-61.2923 804.942Z" fill="#1D1E1D"/>
<path d="M198.63 634.153L181.374 711.181L198.423 714.995L215.679 637.968L198.63 634.153Z" fill="#1D1E1D"/>
<path d="M169.88 462.684L175.561 541.414L192.986 540.158L187.306 461.428L169.88 462.684Z" fill="#1D1E1D"/>
<path d="M204.003 331.616L196.632 410.206L214.027 411.835L221.398 333.246L204.003 331.616Z" fill="#1D1E1D"/>
<path d="M150.578 660.783L156.258 739.513L173.684 738.257L168.004 659.527L150.578 660.783Z" fill="#1D1E1D"/>
<path d="M113.972 654.747L88.9394 729.613L105.51 735.146L130.543 660.281L113.972 654.747Z" fill="#1D1E1D"/>
<path d="M-41.3695 693.351L18.8638 642.288L7.56163 628.974L-52.6716 680.037L-41.3695 693.351Z" fill="#1D1E1D"/>
<path d="M211.002 725.852L155.427 781.943L167.842 794.227L223.417 738.136L211.002 725.852Z" fill="#1D1E1D"/>
<path d="M129.24 801.505L192.789 848.382L203.165 834.335L139.615 787.458L129.24 801.505Z" fill="#1D1E1D"/>
<path d="M24.3059 630.423L87.8554 677.3L98.231 663.253L34.6815 616.376L24.3059 630.423Z" fill="#1D1E1D"/>
<path d="M28.0038 721.49L91.5533 768.367L101.929 754.32L38.3795 707.443L28.0038 721.49Z" fill="#1D1E1D"/>
<path d="M-70.2506 557.268L-143.898 510.321L-153.294 525.041L-79.6462 571.987L-70.2506 557.268Z" fill="#1D1E1D"/>
<path d="M-26.2736 594.586L-110.897 572.927L-115.232 589.84L-30.6083 611.499L-26.2736 594.586Z" fill="#1D1E1D"/>
<path d="M-121.823 552.084L-177.967 618.963L-164.582 630.184L-108.438 563.306L-121.823 552.084Z" fill="#1D1E1D"/>
<path d="M-93.8049 604.31L-140.593 624.137L-133.772 640.211L-86.9841 620.384L-93.8049 604.31Z" fill="#1D1E1D"/>
<path d="M-147.502 699.554L-159.376 748.935L-142.388 753.014L-130.515 703.633L-147.502 699.554Z" fill="#1D1E1D"/>
<path d="M-236.978 670.93L-193.835 697.772L-184.601 682.95L-227.744 656.108L-236.978 670.93Z" fill="#1D1E1D"/>
<path d="M-252.899 719.509L-252.605 668.723L-270.075 668.622L-270.369 719.408L-252.899 719.509Z" fill="#1D1E1D"/>
<path d="M-269.456 612.766L-255.041 661.467L-238.287 656.515L-252.702 607.814L-269.456 612.766Z" fill="#1D1E1D"/>
<path d="M-195.593 609.787L-194.58 559.01L-212.048 558.662L-213.061 609.439L-195.593 609.787Z" fill="#1D1E1D"/>
<path d="M-189.97 493.548L-231.832 464.751L-241.738 479.133L-199.876 507.929L-189.97 493.548Z" fill="#1D1E1D"/>
<path d="M-197.073 513.146L-235.379 546.521L-223.898 559.681L-185.592 526.306L-197.073 513.146Z" fill="#1D1E1D"/>
<path d="M-218.603 507.855L-260.465 479.058L-270.371 493.44L-228.509 522.236L-218.603 507.855Z" fill="#1D1E1D"/>
<path d="M-226.078 802.497L-153.659 774.964L-159.872 758.645L-232.291 786.178L-226.078 802.497Z" fill="#1D1E1D"/>
<path d="M-258.77 872.871L-203.024 819.093L-215.158 806.532L-270.904 860.31L-258.77 872.871Z" fill="#1D1E1D"/>
<path d="M-198.567 871.195L-164.95 801.432L-180.69 793.857L-214.308 863.62L-198.567 871.195Z" fill="#1D1E1D"/>
<path d="M-149.201 847.653L-131.098 810.087L-146.839 802.512L-164.942 840.078L-149.201 847.653Z" fill="#1D1E1D"/>
<path d="M-164.01 876.937L-91.5913 849.404L-97.8037 833.086L-170.223 860.619L-164.01 876.937Z" fill="#1D1E1D"/>
<path d="M-251.409 811.187L-229.566 736.896L-246.329 731.975L-268.171 806.265L-251.409 811.187Z" fill="#1D1E1D"/>
<path d="M-67.5592 615.529L-96.8625 688.831L-80.6382 695.308L-51.335 622.006L-67.5592 615.529Z" fill="#1D1E1D"/>
<path d="M-42.5369 500.278L-71.8401 573.579L-55.6158 580.056L-26.3126 506.755L-42.5369 500.278Z" fill="#1D1E1D"/>
<path d="M-91.547 452.9L-85.8667 531.63L-68.4408 530.375L-74.1212 451.645L-91.547 452.9Z" fill="#1D1E1D"/>
<path d="M-123.375 647.51L-117.694 726.24L-100.268 724.984L-105.949 646.255L-123.375 647.51Z" fill="#1D1E1D"/>
<path d="M-159.984 641.46L-185.017 716.326L-168.446 721.859L-143.413 646.994L-159.984 641.46Z" fill="#1D1E1D"/>
<path d="M-77.7164 707.532L-102.749 782.397L-86.1791 787.931L-61.146 713.065L-77.7164 707.532Z" fill="#1D1E1D"/>
<path d="M-144.713 788.232L-81.1635 835.109L-70.7878 821.062L-134.337 774.185L-144.713 788.232Z" fill="#1D1E1D"/>
<path d="M-244.283 618.914L-180.733 665.791L-170.358 651.744L-233.907 604.867L-244.283 618.914Z" fill="#1D1E1D"/>
<path d="M-245.949 708.217L-182.4 755.094L-172.024 741.047L-235.573 694.17L-245.949 708.217Z" fill="#1D1E1D"/>
<path d="M22.02 487.452L96.6534 532.817L105.733 517.901L31.0992 472.535L22.02 487.452Z" fill="#1D1E1D"/>
<path d="M-22.7434 451.07L62.3237 470.92L66.2963 453.918L-18.7708 434.068L-22.7434 451.07Z" fill="#1D1E1D"/>
<path d="M73.6935 491.518L128.397 423.457L114.776 412.523L60.0722 480.584L73.6935 491.518Z" fill="#1D1E1D"/>
<path d="M44.5677 439.921L90.9215 419.1L83.759 403.175L37.4053 423.996L44.5677 439.921Z" fill="#1D1E1D"/>
<path d="M-42.6487 404.461L-66.5911 359.663L-82.0018 367.889L-58.0595 412.686L-42.6487 404.461Z" fill="#1D1E1D"/>
<path d="M-79.0725 343.88L-31.5463 361.868L-25.3583 345.541L-72.8845 327.553L-79.0725 343.88Z" fill="#1D1E1D"/>
<path d="M-16.0291 464.678L-65.0592 478.041L-60.4624 494.885L-11.4323 481.522L-16.0291 464.678Z" fill="#1D1E1D"/>
<path d="M96.2794 349.985L107.096 300.362L90.0254 296.646L79.2087 346.269L96.2794 349.985Z" fill="#1D1E1D"/>
<path d="M53.6072 313.755L96.3588 286.296L86.9124 271.608L44.1608 299.068L53.6072 313.755Z" fill="#1D1E1D"/>
<path d="M-35.3332 255.845L-3.42012 216.321L-17.0169 205.357L-48.9301 244.882L-35.3332 255.845Z" fill="#1D1E1D"/>
<path d="M-121.868 224.144L-75.1342 204.19L-81.9985 188.135L-128.732 208.088L-121.868 224.144Z" fill="#1D1E1D"/>
<path d="M191.035 367.338L147.329 341.422L138.414 356.438L182.12 382.353L191.035 367.338Z" fill="#1D1E1D"/>
<path d="M146.212 432.264L146.284 483.051L163.755 483.026L163.684 432.24L146.212 432.264Z" fill="#1D1E1D"/>
<path d="M103.693 486.404L146.16 514.301L155.757 499.712L113.29 471.815L103.693 486.404Z" fill="#1D1E1D"/>
<path d="M172.516 242.995L97.4996 262.377L101.873 279.28L176.889 259.898L172.516 242.995Z" fill="#1D1E1D"/>
<path d="M141.818 167.283L109.698 237.747L125.597 244.985L157.717 174.521L141.818 167.283Z" fill="#1D1E1D"/>
<path d="M94.7557 195.432L77.4594 233.376L93.3585 240.613L110.655 202.67L94.7557 195.432Z" fill="#1D1E1D"/>
<path d="M119.932 153.577L52.5857 191.867L61.2253 207.042L128.571 168.752L119.932 153.577Z" fill="#1D1E1D"/>
<path d="M144.671 292.58L221.838 299.572L223.415 282.184L146.249 275.192L144.671 292.58Z" fill="#1D1E1D"/>
<path d="M18.0844 429.26L45.8159 355.351L29.457 349.221L1.72545 423.131L18.0844 429.26Z" fill="#1D1E1D"/>
<path d="M-0.335632 547.138L17.0862 470.148L0.0453796 466.297L-17.3764 543.287L-0.335632 547.138Z" fill="#1D1E1D"/>
<path d="M48.7375 589.179L41.3775 510.588L23.9825 512.215L31.3425 590.806L48.7375 589.179Z" fill="#1D1E1D"/>
<path d="M74.8841 398.485L67.524 319.894L50.129 321.521L57.489 400.112L74.8841 398.485Z" fill="#1D1E1D"/>
<path d="M10.6709 368.428L-22.1349 296.624L-38.0278 303.875L-5.22195 375.68L10.6709 368.428Z" fill="#1D1E1D"/>
<path d="M109.936 401.359L133.365 325.977L116.68 320.798L93.2507 396.18L109.936 401.359Z" fill="#1D1E1D"/>
<path d="M26.2807 337.034L49.7096 261.652L33.0248 256.473L9.59587 331.855L26.2807 337.034Z" fill="#1D1E1D"/>
<path d="M0.778336 204.886L73.0949 173.138L66.0679 157.153L-6.24866 188.901L0.778336 204.886Z" fill="#1D1E1D"/>
<path d="M-25.0511 201.387L-90.9151 157.817L-100.559 172.376L-34.6948 215.946L-25.0511 201.387Z" fill="#1D1E1D"/>
<path d="M14.0395 157.071L-64.6302 150L-66.1951 167.389L12.4745 174.46L14.0395 157.071Z" fill="#1D1E1D"/>
<path d="M8.65419 312.947L9.29027 234.015L-8.18021 233.875L-8.81631 312.806L8.65419 312.947Z" fill="#1D1E1D"/>
<path d="M91.5401 254.951L27.0042 209.439L16.9308 223.704L81.4667 269.216L91.5401 254.951Z" fill="#1D1E1D"/>
<path d="M200.102 423.783L135.566 378.272L125.493 392.537L190.029 438.048L200.102 423.783Z" fill="#1D1E1D"/>
<path d="M-17.4901 384.216L-64.0683 447.965L-49.9583 458.261L-3.37994 394.512L-17.4901 384.216Z" fill="#1D1E1D"/>
<path d="M214.301 167.884L160.054 225.258L172.753 237.249L227 179.874L214.301 167.884Z" fill="#1D1E1D"/>
<path d="M195.851 328.917L127.032 290.176L118.457 305.388L187.277 344.129L195.851 328.917Z" fill="#1D1E1D"/>
<path d="M-177.017 495.153L-178.098 582.444L-160.628 582.66L-159.548 495.369L-177.017 495.153Z" fill="#1D1E1D"/>
<path d="M-194.566 475.788L-139.862 407.727L-153.484 396.794L-208.187 464.854L-194.566 475.788Z" fill="#1D1E1D"/>
<path d="M-229.386 426.637L-183.032 405.816L-190.195 389.892L-236.548 410.712L-229.386 426.637Z" fill="#1D1E1D"/>
<path d="M-267.786 453.596L-216.967 454.042L-216.814 436.583L-267.632 436.138L-267.786 453.596Z" fill="#1D1E1D"/>
<path d="M-177.733 330.261L-166.917 280.638L-183.987 276.922L-194.804 326.545L-177.733 330.261Z" fill="#1D1E1D"/>
<path d="M-253.883 278.805L-238.288 230.469L-254.916 225.111L-270.511 273.448L-253.883 278.805Z" fill="#1D1E1D"/>
<path d="M-48.7444 320.562L-37.9277 270.939L-54.9984 267.222L-65.8152 316.845L-48.7444 320.562Z" fill="#1D1E1D"/>
<path d="M-82.9208 354.065L-126.627 328.149L-135.542 343.165L-91.8361 369.08L-82.9208 354.065Z" fill="#1D1E1D"/>
<path d="M-127.74 418.991L-127.668 469.778L-110.197 469.753L-110.269 418.967L-127.74 418.991Z" fill="#1D1E1D"/>
<path d="M195.74 448.349L206.557 497.972L223.628 494.256L212.811 444.633L195.74 448.349Z" fill="#1D1E1D"/>
<path d="M226.997 266.032L202.501 221.534L187.193 229.95L211.689 274.448L226.997 266.032Z" fill="#1D1E1D"/>
<path d="M173.67 203.629L187.627 154.795L170.828 150L156.87 198.834L173.67 203.629Z" fill="#1D1E1D"/>
<path d="M-170.256 473.117L-127.789 501.014L-118.192 486.425L-160.659 458.528L-170.256 473.117Z" fill="#1D1E1D"/>
<path d="M-73.6829 866.067L-115.566 894.832L-125.462 880.444L-83.5784 851.678L-73.6829 866.067Z" fill="#1D1E1D"/>
<path d="M-101.372 225.667L-173.187 254.738L-166.627 270.92L-94.8127 241.849L-101.372 225.667Z" fill="#1D1E1D"/>
<path d="M-130.348 157.583L-162.468 228.047L-146.569 235.285L-114.448 164.821L-130.348 157.583Z" fill="#1D1E1D"/>
<path d="M-173.155 180.402L-203.883 208.607L-192.064 221.465L-161.336 193.261L-173.155 180.402Z" fill="#1D1E1D"/>
<path d="M-269.797 158.237L-250.114 195L-234.709 186.764L-254.392 150L-269.797 158.237Z" fill="#1D1E1D"/>
<path d="M-154.353 153.577L-230.027 170.211L-226.274 187.262L-150.6 170.628L-154.353 153.577Z" fill="#1D1E1D"/>
<path d="M-76.2344 216.431L-96.4854 291.171L-79.6217 295.734L-59.3706 220.995L-76.2344 216.431Z" fill="#1D1E1D"/>
<path d="M-248.654 422.722L-232.962 345.361L-250.084 341.892L-265.777 419.253L-248.654 422.722Z" fill="#1D1E1D"/>
<path d="M-222.182 592.434L-254.007 520.191L-269.998 527.225L-238.172 599.469L-222.182 592.434Z" fill="#1D1E1D"/>
<path d="M-200.745 382.819L-208.105 304.228L-225.5 305.855L-218.14 384.446L-200.745 382.819Z" fill="#1D1E1D"/>
<path d="M-164.021 388.072L-140.592 312.69L-157.276 307.511L-180.705 382.893L-164.021 388.072Z" fill="#1D1E1D"/>
<path d="M-257.018 329.152L-209.655 265.982L-223.637 255.513L-271 318.683L-257.018 329.152Z" fill="#1D1E1D"/>
<path d="M-179.233 242.009L-243.769 196.497L-253.842 210.762L-189.306 256.274L-179.233 242.009Z" fill="#1D1E1D"/>
<path d="M-73.8506 410.483L-138.387 364.971L-148.46 379.236L-83.9241 424.748L-73.8506 410.483Z" fill="#1D1E1D"/>
<path d="M-79.4955 319.5L-144.031 273.988L-154.105 288.253L-89.5689 333.765L-79.4955 319.5Z" fill="#1D1E1D"/>
<path d="M975.418 226.462C889.41 295.687 763.569 282.083 694.343 196.075C625.118 110.067 638.723 -15.7746 724.73 -85" stroke="#1D1E1D" stroke-width="29.4922"/>
<path d="M957.674 245.407C871.666 314.633 745.825 301.028 676.599 215.02C607.374 129.012 620.978 3.17076 706.986 -66.0547" stroke="#C0A7D1" stroke-width="29.4922"/>
<path d="M747.186 818.891L802.43 761.957L851.42 809.492L898.955 760.502L946.622 806.753L996.727 755.114L1049.69 806.504" stroke="#1D1E1D" stroke-width="19.1054"/>
<path d="M744 804.563L799.244 747.628L848.234 795.164L895.77 746.174L943.436 792.425L993.541 740.786L1046.5 792.176" stroke="#FF847C" stroke-width="19.1054"/>
<path d="M850.165 871.33L909.655 923.812L864.496 975.001L915.686 1020.16L871.748 1069.97L925.704 1117.57L876.884 1172.91" stroke="#1D1E1D" stroke-width="19.1054"/>
<path d="M864.325 867.471L923.815 919.953L878.657 971.142L929.846 1016.3L885.908 1066.11L939.864 1113.71L891.044 1169.05" stroke="#FF847C" stroke-width="19.1054"/>
</g>
<rect x="80" y="400" width="360" height="200" fill="#1D1E1D"/>
<path d="M308.6 400H218.6L303.2 600H396.8L308.6 400Z" fill="white"/>
<rect x="560" y="400" width="360" height="200" fill="#1D1E1D"/>
<path d="M774 400H674L768 600H872L774 400Z" fill="white"/>
<rect x="440" y="478" width="120" height="45" fill="#1D1E1D"/>
</svg>
