<svg width="1000" height="1000" viewBox="0 0 1000 1000" fill="none" xmlns="http://www.w3.org/2000/svg">
<rect width="1000" height="1000" fill="#FF847C"/>
<mask id="mask0_100_1613" style="mask-type:alpha" maskUnits="userSpaceOnUse" x="0" y="0" width="1000" height="1000">
<rect width="1000" height="1000" fill="white"/>
</mask>
<g mask="url(#mask0_100_1613)">
<rect x="45" y="69" width="154" height="255" fill="#FFF8A0"/>
<circle cx="45.5" cy="19.5" r="85.5" stroke="#1D1E1D" stroke-width="20"/>
<circle cx="45.5" cy="19.5" r="117.5" stroke="#1D1E1D" stroke-width="20"/>
<circle cx="45.5" cy="19.5" r="149.5" stroke="#1D1E1D" stroke-width="20"/>
<circle cx="45.5" cy="19.5" r="181.5" stroke="#1D1E1D" stroke-width="20"/>
<path d="M842.886 948.25L958.5 748L1074.11 948.25H842.886Z" stroke="#1D1E1D" stroke-width="20"/>
<path d="M808.886 934.25L924.5 734L1040.11 934.25H808.886Z" stroke="white" stroke-width="20"/>
<path fill-rule="evenodd" clip-rule="evenodd" d="M-25.7397 664.517C-34.6587 659.995 -34.6599 659.997 -34.6613 660L-34.6651 660.008L-34.676 660.029L-34.7113 660.099C-34.7408 660.158 -34.782 660.24 -34.8343 660.345C-34.939 660.556 -35.0883 660.858 -35.2777 661.246C-35.6563 662.022 -36.1955 663.144 -36.8582 664.566C-38.1825 667.407 -40.0051 671.46 -42.0273 676.361C-46.0521 686.116 -50.957 699.447 -54.2542 713.392C-57.5002 727.121 -59.4551 742.514 -56.6603 755.929C-53.7181 770.051 -45.2907 782.404 -28.482 787.197C-9.86344 792.506 5.61745 786.638 18.315 776.76C30.1003 767.592 40.3237 754.324 49.4783 742.442C49.7914 742.036 50.1032 741.631 50.4139 741.228C60.2889 728.419 68.9501 717.435 78.2092 710.769C82.6633 707.563 86.8619 705.668 90.9952 704.987C95.0323 704.321 99.6107 704.71 105.084 706.998C108.295 708.34 110.514 710.728 112.052 714.991C113.715 719.598 114.386 725.99 114.102 734.149C113.701 745.622 111.597 758.271 109.424 771.325L109.424 771.326L109.424 771.327C108.443 777.225 107.448 783.206 106.59 789.198C105.27 798.418 104.304 807.653 104.638 815.792C104.961 823.66 106.545 832.332 112.034 838.792C118.118 845.954 127.007 848.231 136.86 847.138C146.247 846.097 157.61 841.959 171.263 834.919C171.269 834.931 171.268 834.931 171.268 834.931L171.273 834.929L171.31 834.91C171.346 834.891 171.406 834.861 171.487 834.819C171.651 834.736 171.904 834.608 172.242 834.44C172.916 834.103 173.927 833.606 175.228 832.986C177.834 831.743 181.595 830.011 186.161 828.08C195.34 824.197 207.557 819.602 220.065 816.528C232.79 813.401 244.759 812.119 253.899 813.939C262.331 815.619 267.716 819.666 270.137 827.879C273.305 838.63 270.52 847.656 263.404 856.973C255.907 866.787 244.456 875.778 231.754 885.751L231.699 885.794L231.605 885.868C219.527 895.35 206.083 905.906 197.505 918.046C193.079 924.309 189.648 931.376 188.407 939.346C187.151 947.412 188.238 955.773 191.92 964.369C195.914 973.695 203.263 979.291 211.738 982.265C219.868 985.117 229.217 985.655 238.407 985.253C251.23 984.693 266.049 982.097 279.683 979.708L279.684 979.708C285.231 978.736 290.583 977.799 295.524 977.047C304.474 975.684 312.212 974.877 318.446 975.077C324.95 975.287 328.051 976.559 329.341 977.637C329.926 978.124 331.385 979.492 330.823 985.003C330.224 990.873 327.393 999.831 320.73 1012.96L338.566 1022.01C345.631 1008.09 349.75 996.535 350.72 987.032C351.725 977.17 349.37 968.301 342.155 962.28C335.646 956.849 326.961 955.341 319.09 955.088C310.949 954.826 301.722 955.873 292.514 957.274C286.531 958.185 280.561 959.233 274.673 960.266L274.668 960.267L274.668 960.267C261.633 962.554 249.003 964.771 237.534 965.272C229.378 965.629 222.98 965.014 218.358 963.392C214.082 961.892 211.674 959.694 210.304 956.495C207.969 951.042 207.539 946.467 208.169 942.424C208.814 938.285 210.671 934.07 213.838 929.588C220.422 920.27 231.329 911.512 244.05 901.524C244.45 901.21 244.852 900.895 245.256 900.578C257.056 891.319 270.234 880.979 279.298 869.113C289.063 856.329 294.794 840.797 289.321 822.226C284.38 805.46 271.952 797.142 257.805 794.325C244.366 791.648 228.991 793.739 215.292 797.106C201.375 800.526 188.088 805.549 178.37 809.66C173.487 811.725 169.45 813.583 166.62 814.933C165.204 815.608 164.088 816.157 163.315 816.542C162.994 816.702 162.733 816.834 162.534 816.935L162.526 816.921C149.453 823.7 140.52 826.609 134.655 827.26C129.149 827.871 127.769 826.424 127.276 825.844C126.188 824.562 124.888 821.473 124.621 814.972C124.365 808.74 125.105 800.995 126.388 792.033C127.096 787.085 127.986 781.726 128.909 776.17L128.909 776.169C131.177 762.515 133.642 747.673 134.089 734.846C134.41 725.652 133.789 716.308 130.866 708.204C127.818 699.755 122.157 692.456 112.796 688.544C104.167 684.939 95.7976 683.925 87.7428 685.253C79.7841 686.565 72.7471 690.058 66.5239 694.538C54.4601 703.223 44.0235 716.76 34.6477 728.922L34.5746 729.017L34.5323 729.071L34.5322 729.072C24.6721 741.861 15.7828 753.391 6.03468 760.975C-3.21826 768.173 -12.2197 771.037 -22.9979 767.964C-31.2329 765.616 -35.3272 760.266 -37.0807 751.85C-38.9815 742.726 -37.8059 730.746 -34.7909 717.994C-31.8272 705.459 -27.3406 693.202 -23.5392 683.989C-21.6484 679.406 -19.9492 675.63 -18.73 673.014C-18.1209 671.707 -17.6329 670.692 -17.3023 670.014C-17.137 669.676 -17.0112 669.421 -16.9294 669.257C-16.8885 669.175 -16.8587 669.115 -16.8403 669.079L-16.8216 669.042L-16.8193 669.037C-16.8199 669.038 -16.8208 669.04 -25.7397 664.517Z" fill="#1D1E1D"/>
<path fill-rule="evenodd" clip-rule="evenodd" d="M-7.73972 676.713C-16.6587 672.19 -16.6599 672.193 -16.6613 672.195L-16.6651 672.203L-16.676 672.225L-16.7113 672.295C-16.7408 672.353 -16.782 672.436 -16.8343 672.541C-16.939 672.751 -17.0883 673.053 -17.2777 673.441C-17.6563 674.218 -18.1955 675.339 -18.8582 676.761C-20.1825 679.603 -22.0051 683.655 -24.0273 688.556C-28.0521 698.311 -32.957 711.642 -36.2542 725.588C-39.5002 739.316 -41.4551 754.709 -38.6603 768.124C-35.7181 782.246 -27.2907 794.6 -10.482 799.392C8.13656 804.701 23.6175 798.834 36.315 788.956C48.1003 779.788 58.3237 766.519 67.4783 754.637C67.7914 754.231 68.1032 753.826 68.4139 753.423C78.2889 740.614 86.9501 729.631 96.2092 722.965C100.663 719.758 104.862 717.863 108.995 717.182C113.032 716.517 117.611 716.906 123.084 719.193C126.295 720.535 128.514 722.923 130.052 727.186C131.715 731.793 132.386 738.185 132.102 746.344C131.701 757.817 129.597 770.466 127.424 783.521L127.424 783.521L127.424 783.523C126.443 789.42 125.448 795.401 124.59 801.393C123.27 810.613 122.304 819.848 122.638 827.987C122.961 835.856 124.545 844.527 130.034 850.988C136.118 858.15 145.007 860.426 154.86 859.333C164.247 858.292 175.61 854.154 189.263 847.114C189.269 847.126 189.268 847.127 189.268 847.127L189.273 847.124L189.31 847.105C189.346 847.087 189.406 847.056 189.487 847.015C189.651 846.931 189.904 846.803 190.242 846.635C190.916 846.298 191.927 845.801 193.228 845.181C195.834 843.939 199.595 842.206 204.161 840.275C213.34 836.392 225.557 831.798 238.065 828.723C250.79 825.596 262.759 824.315 271.899 826.135C280.331 827.814 285.716 831.861 288.137 840.075C291.305 850.825 288.52 859.852 281.404 869.168C273.907 878.983 262.456 887.973 249.754 897.946L249.699 897.989L249.605 898.063C237.527 907.546 224.083 918.101 215.505 930.241C211.079 936.504 207.648 943.572 206.407 951.541C205.151 959.608 206.238 967.968 209.92 976.565C213.914 985.891 221.263 991.487 229.738 994.46C237.868 997.312 247.217 997.85 256.407 997.448C269.23 996.888 284.049 994.292 297.683 991.903L297.684 991.903C303.231 990.931 308.583 989.994 313.524 989.242C322.474 987.88 330.212 987.072 336.446 987.273C342.95 987.482 346.051 988.755 347.341 989.832C347.926 990.32 349.385 991.687 348.823 997.198C348.224 1003.07 345.393 1012.03 338.73 1025.16L356.566 1034.21C363.631 1020.28 367.75 1008.73 368.72 999.227C369.725 989.365 367.37 980.496 360.155 974.476C353.646 969.044 344.961 967.536 337.09 967.283C328.949 967.021 319.722 968.068 310.514 969.47C304.531 970.38 298.561 971.428 292.673 972.461L292.668 972.462L292.668 972.462C279.633 974.75 267.003 976.966 255.534 977.467C247.378 977.824 240.98 977.209 236.358 975.588C232.082 974.087 229.674 971.889 228.304 968.69C225.969 963.237 225.539 958.662 226.169 954.619C226.814 950.48 228.671 946.265 231.838 941.783C238.422 932.465 249.329 923.707 262.05 913.72C262.45 913.406 262.852 913.09 263.256 912.773C275.056 903.514 288.234 893.174 297.298 881.308C307.063 868.524 312.794 852.992 307.321 834.421C302.38 817.655 289.952 809.337 275.805 806.52C262.366 803.844 246.991 805.934 233.292 809.301C219.375 812.722 206.088 817.744 196.37 821.855C191.487 823.92 187.45 825.779 184.62 827.128C183.204 827.803 182.088 828.352 181.315 828.738C180.994 828.898 180.733 829.029 180.534 829.13L180.526 829.116C167.453 835.895 158.52 838.805 152.655 839.455C147.149 840.066 145.769 838.619 145.276 838.039C144.188 836.758 142.888 833.669 142.621 827.167C142.365 820.935 143.105 813.19 144.388 804.228C145.096 799.28 145.986 793.921 146.909 788.365L146.909 788.365C149.177 774.71 151.642 759.869 152.089 747.041C152.41 737.848 151.789 728.503 148.866 720.399C145.818 711.951 140.157 704.652 130.796 700.74C122.167 697.134 113.798 696.121 105.743 697.448C97.7841 698.76 90.7471 702.253 84.5239 706.733C72.4601 715.419 62.0235 728.956 52.6477 741.117L52.5746 741.212L52.5323 741.267L52.5322 741.267C42.6721 754.056 33.7828 765.587 24.0347 773.17C14.7817 780.368 5.78035 783.232 -4.99793 780.159C-13.2329 777.811 -17.3272 772.461 -19.0807 764.045C-20.9815 754.922 -19.8059 742.941 -16.7909 730.19C-13.8272 717.655 -9.34063 705.398 -5.53923 696.185C-3.64835 691.602 -1.94922 687.825 -0.730022 685.209C-0.120892 683.902 0.367107 682.887 0.697701 682.21C0.862961 681.871 0.988766 681.617 1.07057 681.452C1.11146 681.37 1.14135 681.31 1.15966 681.274L1.17836 681.237L1.18072 681.232C1.18008 681.233 1.17925 681.235 -7.73972 676.713Z" fill="white"/>
</g>
<circle cx="296.5" cy="498.5" r="191" fill="#3FC2E0" stroke="#1D1E1D" stroke-width="25"/>
<circle cx="296.5" cy="498.5" r="81.5" fill="#1D1E1D"/>
<rect x="143" y="517.766" width="147" height="23" transform="rotate(-24.4173 143 517.766)" fill="white"/>
<rect x="92.9531" y="295" width="92.3556" height="25" transform="rotate(47.4838 92.9531 295)" fill="#1D1E1D"/>
<rect x="175.406" y="233" width="92.3556" height="25" transform="rotate(62.5285 175.406 233)" fill="#1D1E1D"/>
<rect x="285.938" y="211" width="92.3556" height="25" transform="rotate(85.7459 285.938 211)" fill="#1D1E1D"/>
<circle cx="203.5" cy="203.5" r="191" transform="matrix(-1 0 0 1 907 295)" fill="#3FC2E0" stroke="#1D1E1D" stroke-width="25"/>
<circle cx="81.5" cy="81.5" r="81.5" transform="matrix(-1 0 0 1 785 417)" fill="#1D1E1D"/>
<rect width="147" height="23" transform="matrix(-0.910559 -0.413379 -0.413379 0.910559 857 517.766)" fill="white"/>
<rect width="92.3556" height="25" transform="matrix(-0.675798 0.737087 0.737087 0.675798 907.047 295)" fill="#1D1E1D"/>
<rect width="92.3556" height="25" transform="matrix(-0.461308 0.88724 0.88724 0.461308 824.594 233)" fill="#1D1E1D"/>
<rect width="92.3556" height="25" transform="matrix(-0.0741795 0.997245 0.997245 0.0741795 714.062 211)" fill="#1D1E1D"/>
</svg>
